<?xml version="1.0" encoding="UTF-8"?>
<!DOCTYPE svg PUBLIC "-//W3C//DTD SVG 1.1//EN" "http://www.w3.org/Graphics/SVG/1.1/DTD/svg11.dtd">
<!-- Creator: CorelDRAW -->
<svg xmlns="http://www.w3.org/2000/svg" xml:space="preserve" width="2516px" height="862px" version="1.1" style="shape-rendering:geometricPrecision; text-rendering:geometricPrecision; image-rendering:optimizeQuality; fill-rule:evenodd; clip-rule:evenodd"
viewBox="0 0 2516 862.29"
 xmlns:xlink="http://www.w3.org/1999/xlink"
 xmlns:xodm="http://www.corel.com/coreldraw/odm/2003">
 <defs>
  <style type="text/css">
   <![CDATA[
    .str1 {stroke:#373435;stroke-width:5.91;stroke-miterlimit:22.9256}
    .str0 {stroke:#373435;stroke-width:2.36;stroke-miterlimit:22.9256}
    .fil2 {fill:none}
    .fil4 {fill:#FEFEFE}
    .fil3 {fill:#373435}
    .fil0 {fill:#E2AFB8}
    .fil1 {fill:#FFFFFD}
   ]]>
  </style>
 </defs>
 <g id="Camada_x0020_1">
  <metadata id="CorelCorpID_0Corel-Layer"/>
  <g id="_2406546380896">
   <g>
    <path class="fil0" d="M451.72 346.41c2.94,-6.17 1.83,-22.53 0.36,-38.81 -1.47,-16.28 -3.31,-32.46 -3.95,-46.9 -0.64,-14.44 -0.09,-27.13 1.01,-42.03 1.1,-14.89 2.76,-32 4.78,-45.42 2.03,-13.43 4.42,-23.18 8.28,-32.28 3.86,-9.11 9.19,-17.57 13.79,-23.36 4.6,-5.79 8.46,-8.92 15.54,-12.87 7.08,-3.96 17.38,-8.74 24.56,-11.96 7.17,-3.22 11.22,-4.87 18.94,-8.64 7.73,-3.77 19.13,-9.66 28.88,-13.89 9.75,-4.23 17.84,-6.8 30.25,-8.18 12.42,-1.38 29.15,-1.57 45.8,2.29 16.64,3.87 33.2,11.78 47.36,19.13 14.16,7.36 25.93,14.16 37.43,23.45 11.49,9.29 22.71,21.06 30.34,32.74 7.63,11.68 11.68,23.27 15.45,33.84 3.77,10.58 7.27,20.14 10.67,33.02 3.4,12.87 6.71,29.05 9.19,47.36 2.49,18.29 4.14,38.71 4.88,58.21 0.73,19.49 0.55,38.07 -0.37,56 -0.92,17.93 -2.57,35.22 -4.78,52.69 -2.21,17.48 -4.97,35.13 -8.37,51.96 -3.4,16.83 -7.45,32.83 -11.86,50.03 -4.42,17.19 -9.2,35.59 -13.24,51.59 -4.05,16 -7.36,29.61 -12.33,44.69 -4.96,15.08 -11.58,31.63 -18.48,49.66 -6.9,18.02 -14.07,37.52 -19.5,54.71 -5.42,17.2 -9.1,32.1 -15.91,49.2 -6.8,17.11 -16.73,36.42 -23.45,48.37 -6.71,11.96 -10.2,16.56 -14.43,18.58 -4.23,2.02 -9.2,1.47 -18.03,-0.74 -8.83,-2.2 -21.52,-6.06 -34.54,-10.58 -13.03,-4.52 -26.4,-9.7 -66.77,-28.83 -40.37,-19.12 -107.75,-52.2 -150.72,-74.63 -42.98,-22.42 -61.55,-34.2 -84.27,-48.08 -22.71,-13.89 -49.56,-29.89 -75.98,-51.07 -26.42,-21.19 -52.4,-47.56 -75.57,-79.19 -23.18,-31.64 -43.54,-68.54 -55.93,-92.5 -12.39,-23.97 -16.81,-35.01 -19.84,-46.87 -3.04,-11.86 -4.69,-24.55 -4.23,-35.5 0.46,-10.94 3.03,-20.14 5.42,-28.23 2.39,-8.09 4.6,-15.08 9.2,-23.91 4.6,-8.83 11.59,-19.49 16.92,-27.59 5.33,-8.09 9.01,-13.61 16,-19.4 6.99,-5.79 17.29,-11.86 23.82,-15.72 6.53,-3.87 9.29,-5.52 14.53,-8.28 5.24,-2.76 12.97,-6.62 24,-9.75 11.04,-3.13 25.38,-5.52 42.12,-6.07 16.73,-0.55 35.86,0.74 55.17,5.43 19.32,4.69 38.81,12.78 60.15,25.47 21.33,12.69 44.5,29.98 61.61,44.23 17.1,14.26 28.14,25.48 37.15,33.11 9.01,7.63 16,11.68 18.95,5.52z"/>
    <path class="fil1" d="M153.15 555.55c4.12,1.92 11.64,2.31 21.52,3.88 9.88,1.56 22.12,4.29 34.59,8.71 12.47,4.43 25.17,10.55 40.23,19.92 15.06,9.37 32.5,21.98 49.34,36.67 16.84,14.69 33.09,31.45 50.54,50.17 17.45,18.72 36.1,39.4 53.94,58.42 17.85,19.02 34.89,36.38 48.52,48.93 13.64,12.54 23.87,20.28 34.17,26.2 10.29,5.93 20.66,10.03 29.57,12.02 8.9,2 16.36,1.88 26,-0.9 9.64,-2.78 21.46,-8.22 32.07,-14.58 10.61,-6.37 20.01,-13.66 30.82,-23.98 10.81,-10.31 23.04,-23.66 33.74,-36.94 10.7,-13.29 19.88,-26.51 28.01,-38.51 8.13,-12 15.22,-22.78 19.24,-30.13 4.03,-7.35 4.98,-11.26 4.08,-16.66 -0.91,-5.41 -3.68,-12.3 -8.04,-23.34 -4.36,-11.05 -10.31,-26.26 -14.84,-38.61 -4.52,-12.35 -7.63,-21.83 -12.04,-24.86 -4.4,-3.02 -10.12,0.42 -13.75,3.04 -3.64,2.62 -5.2,4.42 -5.02,8.98 0.18,4.55 2.09,11.86 3.28,19.5 1.19,7.64 1.65,15.62 1.34,26.03 -0.31,10.42 -1.38,23.28 -3.88,36.08 -2.5,12.8 -6.42,25.54 -12.37,38.85 -5.95,13.32 -13.93,27.21 -23.47,39.56 -9.53,12.35 -20.62,23.15 -30.53,30.12 -9.91,6.96 -18.63,10.08 -29.34,10.61 -10.71,0.53 -23.39,-1.53 -37.64,-8.5 -14.24,-6.98 -30.04,-18.87 -45.99,-32.73 -15.94,-13.87 -32.04,-29.71 -49.38,-46.71 -17.33,-17.01 -35.9,-35.18 -57.38,-54.84 -21.48,-19.66 -45.87,-40.8 -65.86,-55.99 -19.98,-15.18 -35.56,-24.4 -48.74,-31.13 -13.18,-6.74 -23.96,-10.99 -37.4,-14.06 -13.44,-3.07 -29.55,-4.97 -39.32,-5.89 -9.76,-0.93 -13.18,-0.88 -14.06,1.27 -0.88,2.14 0.77,6.38 1.97,10.21 1.2,3.84 1.94,7.27 6.08,9.19z"/>
    <path class="fil1" d="M312.57 89.26c3.7,-0.43 7.77,0.8 10.61,2.86 2.84,2.05 4.46,4.92 5.42,8.19 0.96,3.26 1.28,6.92 0.65,10.7 -0.63,3.78 -2.2,7.69 -4.2,10.79 -1.99,3.11 -4.4,5.42 -7.39,6.77 -2.98,1.34 -6.54,1.72 -9.54,2.71 -3.01,0.99 -5.46,2.58 -8.63,5.58 -3.17,3 -7.05,7.41 -11.71,12.92 -4.65,5.5 -10.09,12.11 -14.55,18.84 -4.46,6.72 -7.96,13.55 -10.01,18.41 -2.06,4.85 -2.66,7.73 -2.97,11.79 -0.3,4.06 -0.29,9.32 0.3,14.66 0.59,5.34 1.76,10.76 4.08,17.24 2.32,6.48 5.78,14 10.18,22.23 4.41,8.22 9.76,17.16 18.71,30.12 8.96,12.96 21.52,29.95 33.53,45.19 12.02,15.24 23.49,28.72 34.54,41.03 11.04,12.3 21.67,23.41 31.81,33.46 10.14,10.06 19.79,19.04 30.31,27.48 10.51,8.45 21.9,16.35 32.98,22.74 11.07,6.4 21.84,11.29 31.88,14.42 10.03,3.13 19.33,4.5 28.56,4.9 9.23,0.38 18.4,-0.2 26.68,-1.68 8.28,-1.48 15.67,-3.84 22.51,-6.86 6.84,-3.01 13.13,-6.67 19.13,-10.78 6.01,-4.11 11.73,-8.68 17.76,-14.48 6.03,-5.8 12.36,-12.84 17.7,-19.9 5.34,-7.06 9.69,-14.14 14.7,-23.62 5.01,-9.47 10.67,-21.35 15.61,-33.63 4.93,-12.28 9.14,-24.96 12.96,-40.19 3.83,-15.22 7.26,-32.98 9.08,-47.81 1.81,-14.83 2,-26.73 1.77,-38.01 -0.23,-11.28 -0.89,-21.95 -2.57,-37.52 -1.68,-15.57 -4.39,-36.05 -7.6,-54.93 -3.21,-18.89 -6.93,-36.2 -9.71,-47.58 -2.78,-11.38 -4.63,-16.84 -6.65,-20.56 -2.01,-3.72 -4.19,-5.69 -8.83,-7.81 -4.64,-2.13 -11.73,-4.41 -18.6,-6.07 -6.88,-1.66 -13.52,-2.7 -22.66,-3.33 -9.13,-0.63 -20.77,-0.86 -29,-0.56 -8.23,0.3 -13.06,1.11 -17.73,1.03 -4.66,-0.08 -9.16,-1.06 -13.29,-3.57 -4.14,-2.5 -7.92,-6.53 -10.34,-10.54 -2.43,-4 -3.49,-7.98 -3.52,-11.4 -0.03,-3.42 0.98,-6.29 2.59,-7.93 1.61,-1.65 3.81,-2.08 6.67,-1.8 2.86,0.27 6.38,1.25 10.37,2.87 4,1.61 8.46,3.87 13.2,5.52 4.73,1.66 9.73,2.71 15.6,3.45 5.87,0.74 12.61,1.17 20.65,2.02 8.04,0.85 17.38,2.12 26.17,3.33 8.79,1.21 17.03,2.35 23.61,3.69 6.58,1.34 11.5,2.88 16.19,5.73 4.7,2.86 9.16,7.03 12.64,12.14 3.47,5.12 5.95,11.19 8.32,18.73 2.36,7.54 4.62,16.55 6.48,27.32 1.86,10.77 3.33,23.29 5.62,42 2.28,18.7 5.38,43.58 7.25,62.3 1.87,18.72 2.51,31.29 3.82,38.11 1.32,6.82 3.32,7.9 5.23,9.53 1.9,1.63 3.71,3.8 4.45,9.06 0.73,5.25 0.39,13.58 -0.65,27.09 -1.04,13.52 -2.77,32.21 -3.83,47.84 -1.06,15.63 -1.45,28.18 -1.68,36.8 -0.22,8.62 -0.29,13.3 -2.89,18.75 -2.59,5.45 -7.71,11.66 -16.11,20.91 -8.39,9.26 -20.06,21.55 -28.57,30.06 -8.52,8.52 -13.88,13.25 -18.25,17.87 -4.37,4.62 -7.75,9.13 -8.47,13.29 -0.72,4.16 1.21,7.97 4.31,15.78 3.1,7.81 7.36,19.63 10.31,30.41 2.95,10.79 4.58,20.55 3.06,27.36 -1.53,6.8 -6.22,10.67 -12.85,14.81 -6.62,4.15 -15.17,8.59 -22.59,5.63 -7.41,-2.95 -13.7,-13.29 -20.48,-23.55 -6.79,-10.25 -14.08,-20.43 -21.23,-26.32 -7.15,-5.88 -14.16,-7.47 -28.6,-8.62 -14.43,-1.14 -36.3,-1.85 -50.38,-2.68 -14.08,-0.84 -20.37,-1.81 -27.81,-5.15 -7.45,-3.34 -16.05,-9.05 -25.83,-16.42 -9.77,-7.38 -20.72,-16.42 -32.98,-27.62 -12.26,-11.21 -25.82,-24.58 -38.28,-38.32 -12.47,-13.73 -23.82,-27.82 -37.26,-45.96 -13.44,-18.13 -28.97,-40.31 -42.51,-60.19 -13.55,-19.88 -25.12,-37.46 -32.94,-50.58 -7.81,-13.11 -11.87,-21.76 -14.62,-30.49 -2.75,-8.73 -4.2,-17.55 -4.89,-25.71 -0.7,-8.16 -0.64,-15.67 1.38,-22.93 2.02,-7.25 6.02,-14.25 11.95,-22.81 5.94,-8.57 13.82,-18.69 20.86,-27.39 7.05,-8.7 13.25,-15.98 17.14,-21.87 3.88,-5.89 5.44,-10.4 7.3,-14.28 1.87,-3.88 4.04,-7.13 6.79,-9.81 2.76,-2.67 6.08,-4.77 9.78,-5.2z"/>
    <path class="fil1" d="M59.27 469.06c-0.2,0.41 -1.67,1.18 -3.6,6.88 -1.94,5.71 -4.34,16.35 -5.09,27.59 -0.75,11.24 0.15,23.09 1.59,33.48 1.43,10.39 3.39,19.32 6.61,27.98 3.22,8.65 7.69,17.01 13.8,25.99 6.1,8.99 13.83,18.59 21.77,25.52 7.95,6.93 16.1,11.19 24.11,12.39 8.01,1.21 15.87,-0.63 21.9,-4.36 6.04,-3.74 10.25,-9.36 13.38,-16.11 3.13,-6.76 5.17,-14.65 6.18,-23.51 1.01,-8.85 0.98,-18.68 -0.49,-29.9 -1.47,-11.22 -4.39,-23.84 -8.94,-36.25 -4.54,-12.42 -10.71,-24.64 -17.7,-34.79 -6.99,-10.15 -14.81,-18.24 -22.6,-23.71 -7.79,-5.46 -15.56,-8.3 -22.99,-8.33 -7.43,-0.02 -14.53,2.77 -19.37,5.4 -4.85,2.62 -7.44,5.07 -8.81,6.92 -1.37,1.85 -1.52,3.09 -1.07,3.73 0.46,0.64 1.52,0.68 1.32,1.08z"/>
    <g>
     <g>
      <path class="fil2 str0" d="M70.52 453.29c24.84,-15.09 60.28,11.87 79.16,60.2 2.55,6.54 4.67,13.14 6.37,19.7 -5.87,0.01 -11.23,0.15 -15.76,0.25 -5.21,0.13 -9.32,0.21 -12.45,0.58 -3.12,0.37 -5.26,1.02 -6.98,1.85 -1.73,0.82 -3.04,1.8 -3.58,4.1 -0.53,2.31 -0.28,5.92 0.09,9 0.37,3.09 0.86,5.63 4.06,6.91 3.21,1.27 9.13,1.27 14.06,1.15 4.93,-0.13 8.87,-0.37 12.84,-0.59 3.64,-0.19 7.29,-0.36 12,-0.03 3.58,32.78 -4,61.3 -21.45,71.89 -24.85,15.08 -60.29,-11.87 -79.16,-60.2 -18.88,-48.33 -14.05,-99.74 10.8,-114.81zm85.53 79.9c2.03,7.85 3.45,15.65 4.28,23.22 -4.71,-0.33 -8.36,-0.16 -12,0.03 -3.97,0.22 -7.91,0.46 -12.84,0.59 -4.93,0.12 -10.85,0.12 -14.06,-1.15 -3.2,-1.28 -3.69,-3.82 -4.06,-6.91 -0.37,-3.08 -0.62,-6.69 -0.09,-9 0.54,-2.3 1.85,-3.28 3.58,-4.1 1.72,-0.83 3.86,-1.48 6.98,-1.85 3.13,-0.37 7.24,-0.45 12.45,-0.58 4.53,-0.1 9.89,-0.24 15.76,-0.25zm482.37 69.32c0.66,9.37 1.32,18.74 1.44,26.92 0.12,8.17 -0.29,15.16 -1.07,21.73 -0.78,6.58 -1.93,12.74 -3.24,18.86 -1.32,6.12 -2.8,12.21 -4.94,18.58 -2.13,6.36 -4.93,13.02 -8.58,20.62 -3.66,7.6 -8.18,16.15 -13.23,24.16 -5.06,8.02 -10.65,15.49 -16.77,22.4 -6.12,6.9 -12.78,13.23 -19.35,18.08 -6.58,4.84 -13.07,8.21 -19.23,10.27 -6.16,2.05 -12,2.79 -18.08,2.96 -6.08,0.16 -12.41,-0.25 -17.79,-1.36 -5.39,-1.11 -9.82,-2.92 -14.22,-5.22 -4.4,-2.3 -8.75,-5.09 -14.3,-8.95 -5.55,-3.87 -12.28,-8.8 -19.89,-15.13 -7.6,-6.32 -16.06,-14.05 -26.01,-23.62 -9.94,-9.58 -21.36,-21 -31.43,-31.31 -10.07,-10.32 -18.78,-19.52 -26.95,-27.7 -8.18,-8.17 -15.82,-15.32 -22.81,-21.77 -6.98,-6.46 -13.31,-12.21 -20.01,-18.45 -6.7,-6.25 -13.76,-12.99 -21,-19.48 -7.23,-6.49 -14.62,-12.74 -21.98,-18.82 -7.35,-6.08 -14.67,-12 -22.35,-17.46 -7.68,-5.47 -15.74,-10.48 -24,-15.2 -8.26,-4.73 -16.72,-9.17 -24.82,-12.91 -8.09,-3.74 -15.81,-6.78 -23.58,-9.32 -7.77,-2.55 -15.57,-4.61 -23.26,-5.76 -7.68,-1.15 -15.24,-1.39 -22.19,-1.43 -6.94,-0.05 -13.27,0.12 -18.49,0.24 -5.21,0.13 -9.32,0.21 -12.45,0.58 -3.12,0.37 -5.26,1.02 -6.98,1.85 -1.73,0.82 -3.04,1.8 -3.58,4.1 -0.53,2.31 -0.28,5.92 0.09,9 0.37,3.09 0.86,5.63 4.06,6.91 3.21,1.27 9.13,1.27 14.06,1.15 4.93,-0.13 8.87,-0.37 12.84,-0.59 3.96,-0.21 7.95,-0.39 13.29,0.07 5.35,0.45 12.04,1.53 18.47,2.57 6.43,1.03 12.59,2.02 20.24,4.32 7.64,2.3 16.76,5.91 25.92,10.31 9.17,4.4 18.37,9.57 28.72,16.23 10.36,6.66 21.86,14.79 32.63,23.42 10.77,8.63 20.79,17.75 30.2,27.33 9.41,9.57 18.2,19.59 26.75,29.17 8.55,9.57 16.85,18.69 25.44,28.31 8.58,9.61 17.46,19.72 26.09,29.09 8.63,9.37 17.01,18 25.39,26.5 8.38,8.51 16.76,16.89 25.15,25.27m8.62 8.88c4.52,3.78 9.04,7.56 13.89,11.26 4.85,3.7 10.03,7.31 15.37,10.48 5.34,3.16 10.85,5.87 16.48,8.09 5.63,2.22 11.38,3.94 17.67,4.64 6.28,0.7 13.1,0.37 19.31,-0.78 6.2,-1.15 11.79,-3.12 17.54,-5.83 5.76,-2.71 11.67,-6.17 17.92,-10.48 6.24,-4.31 12.82,-9.49 19.06,-14.46 6.25,-4.98 12.17,-9.74 17.92,-15.21 5.75,-5.46 11.34,-11.63 16.48,-17.75 5.13,-6.12 9.82,-12.2 15.24,-19.72 5.42,-7.52 11.59,-16.48 16.85,-24.24 5.26,-7.77 9.61,-14.34 13.68,-20.42 4.07,-6.09 7.85,-11.67 10.89,-16.36 3.04,-4.68 5.34,-8.46 6.2,-11.96 0.87,-3.49 0.29,-6.69 -1.27,-10.92 -1.56,-4.24 -4.11,-9.5 -6.82,-15.29 -2.71,-5.79 -5.59,-12.12 -8.1,-18.41 -2.5,-6.28 -4.64,-12.53 -6.74,-18.57 -2.09,-6.04 -4.15,-11.88 -6,-17.3 -1.84,-5.42 -3.49,-10.44 -4.31,-12.9 -0.82,-2.47 -0.82,-2.38 -0.82,-2.3 0,0.08 0,0.16 0,0.24m-35.75 14.84c4.36,-1.85 10.93,-5.63 17.42,-9.37 6.5,-3.74 12.9,-7.44 17.14,-10.31 4.23,-2.88 6.28,-4.94 8.05,-6.33 1.77,-1.4 3.25,-2.14 1.52,-6.95 -1.72,-4.8 -6.66,-13.68 -10.8,-22.1 -4.16,-8.43 -7.52,-16.4 -10.11,-22.15 -2.59,-5.75 -4.4,-9.29 -5.51,-11.05 -1.11,-1.77 -1.52,-1.77 -2.63,-0.5 -1.11,1.28 -2.92,3.83 -3.74,5.26 -0.82,1.44 -0.66,1.77 0.7,4.07 1.36,2.3 3.9,6.57 6.78,11.96 2.88,5.38 6.08,11.87 8.63,17.79 2.55,5.92 4.44,11.26 5.59,15.08 1.15,3.82 1.56,6.12 1.19,7.97 -0.37,1.85 -1.52,3.25 -4.85,5.63 -3.33,2.38 -8.83,5.75 -13.97,8.83 -5.14,3.09 -9.9,5.88 -13.19,6.91 -3.29,1.03 -5.09,0.28 -7.56,-2.84 -2.47,-3.12 -5.59,-8.63 -9.33,-14.5 -3.74,-5.88 -8.09,-12.12 -12.12,-18.04 -4.03,-5.92 -7.72,-11.5 -10.93,-15.28 -3.2,-3.79 -5.92,-5.76 -7.44,-6.74 -1.52,-0.99 -1.84,-0.99 -2.01,-0.33 -0.16,0.65 -0.16,1.97 1.4,4.27 1.56,2.3 4.68,5.59 7.56,9.62 2.87,4.02 5.5,8.79 8.5,13.92 3,5.14 6.37,10.65 9.62,16.4 3.25,5.75 6.37,11.75 8.26,15.2 1.89,3.45 2.55,4.36 3.94,4.85 1.4,0.49 3.54,0.58 7.89,-1.27zm-38.7 -84.61c4.19,7.24 8.38,14.47 12.57,21.91 4.19,7.43 8.38,15.07 12.61,22.43 4.24,7.35 8.51,14.42 11.26,19.23 2.75,4.81 3.99,7.35 5.88,8.93 1.9,1.57 4.46,2.16 6.17,2.86 1.71,0.7 2.58,1.49 3.27,4.07 0.69,2.58 1.21,6.94 1.47,9.12 0.26,2.18 0.26,2.18 0.26,2.18 0,0 0,0 0,0m-61.96 -69.11c-4.82,-1.86 -9.64,-3.73 -16.82,-4.7 -7.18,-0.97 -16.71,-1.06 -27.68,-1.26 -10.97,-0.21 -23.38,-0.54 -33.65,-0.9 -10.27,-0.37 -18.41,-0.79 -24.61,-2.63 -6.21,-1.85 -10.48,-5.14 -16.56,-9.62 -6.08,-4.48 -13.97,-10.15 -21.9,-16.43 -7.93,-6.29 -15.91,-13.19 -24.66,-21.25 -8.75,-8.05 -18.28,-17.26 -27.16,-26.3 -8.87,-9.04 -17.09,-17.91 -24.78,-27.24 -7.68,-9.32 -14.83,-19.1 -22.31,-29.38 -7.47,-10.27 -15.28,-21.03 -24.32,-34.06 -9.04,-13.03 -19.31,-28.31 -28.48,-41.99 -9.16,-13.69 -17.21,-25.77 -22.31,-33.78 -5.09,-8.01 -7.23,-11.96 -9.57,-16.72 -2.34,-4.77 -4.89,-10.36 -6.62,-15.7 -1.72,-5.34 -2.63,-10.44 -3.37,-16.64 -0.74,-6.2 -1.31,-13.52 -1.56,-19.64 -0.24,-6.12 -0.16,-11.05 1.89,-16.31 2.06,-5.26 6.08,-10.85 10.85,-17.38 4.77,-6.54 10.27,-14.02 17.05,-22.4 6.78,-8.38 14.84,-17.67 19.56,-23.09 4.73,-5.42 6.12,-6.98 7.03,-9.08 0.9,-2.1 1.31,-4.73 2.01,-7.31 0.7,-2.59 1.69,-5.14 3.08,-7.48 1.4,-2.34 3.21,-4.48 4.73,-6.12 1.52,-1.65 2.75,-2.8 4.35,-3.82 1.61,-1.03 3.58,-1.94 5.63,-2.47 2.06,-0.54 4.19,-0.7 6.33,0 2.14,0.7 4.27,2.26 5.88,3.7 1.6,1.43 2.67,2.75 3.57,4.8 0.9,2.06 1.64,4.85 2.01,7.77 0.37,2.92 0.37,5.96 0.05,8.63 -0.33,2.67 -0.99,4.97 -2.22,7.03 -1.24,2.05 -3.04,3.86 -5.02,5.87 -1.97,2.01 -4.11,4.23 -6.49,5.18 -2.38,0.94 -5.01,0.61 -6.82,0.41 -1.81,-0.21 -2.79,-0.29 -3.29,-1.6 -0.49,-1.32 -0.49,-3.87 -0.2,-5.84 0.28,-1.97 0.86,-3.37 1.56,-4.85 0.7,-1.48 1.52,-3.04 1.77,-5.91 0.24,-2.88 -0.09,-7.07 -0.64,-11.08 -0.56,-4 -1.34,-7.82 -1.73,-9.73 -0.39,-1.91 -0.39,-1.91 -0.39,-1.91 0,0 0,0 0,0m-0.37 39.32c-3.94,3.94 -7.89,7.89 -11.79,12.32 -3.9,4.44 -7.77,9.37 -11.59,14.02 -3.82,4.64 -7.6,8.99 -10.56,12.77 -2.96,3.78 -5.09,6.99 -6.9,10.81 -1.81,3.82 -3.29,8.26 -4.27,12.29 -0.99,4.02 -1.48,7.64 -1.56,12.16 -0.09,4.52 0.24,9.94 1.31,15.61 1.07,5.67 2.88,11.59 5.14,17.06 2.26,5.46 4.97,10.47 7.89,15.81 2.91,5.34 6.04,11.02 10.15,17.63 4.1,6.62 9.2,14.18 14.62,21.98 5.43,7.81 11.18,15.86 17.51,24 6.32,8.14 13.23,16.35 19.23,23.34 6,6.98 11.09,12.74 14.01,16.11 2.92,3.37 3.66,4.35 3.7,4.68 0.04,0.33 -0.62,0 -1.11,1.73 -0.5,1.72 -0.83,5.5 -1.44,7.6 -0.62,2.09 -1.52,2.5 -2.59,2.63 -1.07,0.12 -2.3,-0.04 -2.92,0.45 -0.61,0.49 -0.61,1.64 -1.03,2.46 -0.41,0.83 -1.23,1.32 -1.64,2.06 -0.41,0.74 -0.41,1.72 -0.45,2.46 -0.04,0.74 -0.12,1.24 -1.74,1.57 -1.62,0.32 -4.77,0.49 -6.34,0.57 -1.58,0.08 -1.58,0.08 -1.58,0.08m8.78 11.97c0.72,-1.28 1.44,-2.55 2.54,-3.11 1.09,-0.56 2.57,-0.39 3.27,-2.2 0.7,-1.81 0.62,-5.59 1.03,-7.56 0.41,-1.97 1.31,-2.14 2.14,-2.18 0.82,-0.04 1.56,0.04 1.97,-0.53 0.41,-0.58 0.49,-1.81 1.23,-2.71 0.74,-0.91 2.14,-1.48 3.78,-1.65 1.64,-0.16 3.53,0.08 4.77,-0.08 1.23,-0.17 1.8,-0.74 0.25,-3.07 -1.55,-2.33 -5.24,-6.41 -8.92,-10.49m9.82 12.29c5.5,5.41 11.01,10.82 16.76,16.73 5.75,5.91 11.75,12.32 17.79,18.52 6.04,6.21 12.13,12.2 17.79,17.09 5.67,4.89 10.93,8.67 15.37,12.08 4.44,3.41 8.06,6.45 13.32,9.95 5.25,3.49 12.16,7.43 18.73,10.93 6.58,3.49 12.82,6.53 18.94,8.91 6.13,2.39 12.13,4.11 17.92,5.18 5.79,1.07 11.38,1.48 17.67,1.6 6.28,0.13 13.27,-0.04 19.27,-0.61 6,-0.58 11.01,-1.56 16.31,-3.08 5.3,-1.52 10.89,-3.58 16.4,-6.25 5.5,-2.67 10.92,-5.96 16.55,-9.9 5.63,-3.95 11.47,-8.55 17.18,-13.69 5.71,-5.13 11.3,-10.8 16.68,-17.95 5.38,-7.15 10.56,-15.78 15.37,-24.41 4.81,-8.63 9.25,-17.26 13.07,-26.05 3.82,-8.79 7.02,-17.75 9.86,-26.09 2.83,-8.34 5.3,-16.07 7.6,-25.02 2.3,-8.96 4.44,-19.15 5.88,-26.63 1.43,-7.48 2.17,-12.24 2.87,-17.71 0.7,-5.46 1.36,-11.63 1.56,-19.07 0.21,-7.43 -0.04,-16.14 -0.57,-27.03 -0.54,-10.89 -1.36,-23.96 -2.59,-36.57 -1.23,-12.62 -2.88,-24.78 -4.64,-36.12 -1.77,-11.34 -3.66,-21.86 -5.59,-31.51 -1.93,-9.66 -3.91,-18.45 -5.75,-26.26 -1.85,-7.81 -3.58,-14.63 -5.22,-19.76 -1.65,-5.14 -3.21,-8.59 -7.77,-11.55 -4.56,-2.96 -12.12,-5.43 -20.34,-7.23 -8.22,-1.81 -17.09,-2.96 -25.97,-4.11m-13.31 -0.49c-6.74,-0.09 -13.48,-0.17 -18.04,0.28 -4.56,0.45 -6.94,1.44 -9.82,1.97 -2.88,0.54 -6.24,0.62 -9.37,0.29 -3.12,-0.33 -6,-1.07 -8.79,-2.75 -2.79,-1.68 -5.51,-4.32 -7.72,-6.94 -2.22,-2.63 -3.95,-5.26 -5.14,-8.47 -1.19,-3.2 -1.85,-6.99 -1.64,-10.15 0.2,-3.16 1.27,-5.71 2.99,-7.07 1.73,-1.35 4.11,-1.52 6.62,-1.27 2.51,0.25 5.14,0.9 6.49,1.23 1.36,0.33 1.44,0.33 1.11,0.21 -0.33,-0.12 -1.07,-0.37 -1.27,0.41 -0.21,0.78 0.12,2.59 0.9,5.05 0.78,2.47 2.01,5.59 3.99,9 1.97,3.41 4.68,7.11 6.94,9.54 2.26,2.42 4.07,3.57 6.08,4.72 2.02,1.15 4.24,2.3 5.34,2.88 1.11,0.57 1.11,0.57 1.11,0.57m-23.09 -32.17c3.51,1.77 7.01,3.53 9.71,4.91 2.7,1.38 4.59,2.36 6.65,3.35 2.05,0.98 4.27,1.97 7.27,2.5 3,0.54 6.78,0.62 10.6,0.74 3.82,0.13 7.68,0.29 11.63,0.62 3.94,0.33 7.97,0.82 11.42,1.31 3.45,0.5 6.33,0.99 9.86,1.48 3.54,0.5 7.73,0.99 12.45,1.61 4.73,0.61 9.99,1.35 14.55,2.01 4.56,0.66 8.42,1.23 11.79,1.6 3.37,0.37 6.25,0.54 9.37,2.06 3.12,1.52 6.49,4.39 9.61,7.76 3.13,3.37 6,7.23 8.47,11.39 2.46,4.14 4.52,8.58 6.53,13.92 2.01,5.35 3.99,11.59 5.38,18.66 1.4,7.07 2.22,14.95 3.21,23.83 0.99,8.88 2.14,18.74 3.29,27.74 1.15,8.99 2.3,17.13 3.24,25.96 0.95,8.84 1.69,18.37 2.8,30.45 1.11,12.08 2.59,26.71 3.28,34.97 0.7,8.26 0.62,10.15 -1.35,11.75 -1.98,1.6 -5.84,2.92 -9.21,3.74 -3.37,0.82 -6.24,1.15 -8.74,1.23 -2.5,0.07 -4.62,-0.11 -5.69,-0.2 -1.06,-0.09 -1.06,-0.09 -1.06,-0.09m26 -6.39c-0.11,5.95 -0.23,11.91 -0.35,20.07 -0.12,8.17 -0.25,18.55 -0.31,23.73 -0.06,5.19 -0.06,5.19 -0.06,5.19m1.17 -52.9c1.41,3.53 2.82,7.06 4.46,9.57 1.64,2.51 3.5,4 5.03,5.43 1.52,1.43 2.7,2.79 3.04,5.53 0.34,2.73 -0.16,6.83 -0.62,12.8 -0.47,5.96 -0.9,13.79 -1.37,21.28 -0.47,7.49 -0.96,14.64 -1.68,21.13 -0.71,6.49 -1.64,12.34 -2.33,18.58 -0.68,6.25 -1.12,12.9 -1.36,20.63 -0.25,7.74 -0.31,16.56 -0.34,22.78 -0.04,6.21 -0.04,9.82 -0.04,11.93 0,2.11 0,2.73 -2.61,6 -2.61,3.26 -7.83,9.16 -12.92,14.75 -5.1,5.6 -10.07,10.88 -15.26,16.5 -5.19,5.63 -10.59,11.59 -15.35,16.26 -4.75,4.66 -8.85,8.01 -12.46,11.06 -3.6,3.04 -6.71,5.77 -8.7,9.81 -1.99,4.04 -2.85,9.39 -3.28,13.63 -0.42,4.24 -0.39,7.38 -0.37,10.51m60.51 -179.62c-0.31,8.64 -0.62,17.28 -1.05,25.73 -0.44,8.45 -1,16.72 -1.74,24.89 -0.75,8.17 -1.68,16.25 -3.82,22.06 -2.15,5.81 -5.5,9.35 -9.08,13.89 -3.57,4.53 -7.36,10.06 -12.05,16.37 -4.69,6.31 -10.29,13.39 -15.97,21.41 -5.69,8.02 -11.47,16.97 -16.16,24.64 -4.69,7.68 -8.3,14.08 -10.63,18.67 -2.33,4.6 -3.38,7.4 -3.94,8.98 -0.56,1.59 -0.62,1.96 0.06,2.12 0.68,0.15 2.11,0.09 2.86,-0.56 0.74,-0.66 0.81,-1.9 1.52,-2.71 0.71,-0.8 2.08,-1.18 3.77,-1.05 1.69,0.12 3.71,0.74 5.72,1.36m-491.97 63.42c-0.09,0.71 -0.18,1.41 -0.39,0.8 -0.21,-0.61 -0.54,-2.54 -0.24,-3.62 0.31,-1.08 1.25,-1.32 1.79,-2.87 0.54,-1.55 0.68,-4.41 -0.12,-6.27 -0.8,-1.86 -2.54,-2.7 -3.78,-3.9 -1.25,-1.2 -2,-2.75 -2.16,-3.68 -0.16,-0.94 0.26,-1.25 0.48,-1.41 0.21,-0.16 0.21,-0.16 0.21,-0.16m10.28 1.23c0.37,-0.48 0.75,-0.97 0.82,-0.8 0.07,0.16 -0.17,0.97 -0.78,1.5 -0.61,0.52 -1.59,0.76 -2.09,1.49 -0.49,0.72 -0.49,1.95 -0.4,3.33 0.1,1.39 0.29,2.94 0.38,4.44 0.09,1.51 0.09,2.96 0.3,4.16 0.22,1.2 0.64,2.14 1.16,2.66 0.51,0.51 1.12,0.61 1.6,1.34 0.47,0.73 0.8,2.1 0.97,2.78 0.17,0.69 0.17,0.69 0.17,0.69m-53.13 -48.55c-1.61,0.25 -3.23,0.5 -4.75,1.75 -1.52,1.24 -2.95,3.48 -3.88,6.21 -0.94,2.73 -1.37,5.97 -1.62,9.39 -0.25,3.41 -0.31,7.02 0.06,10.5 0.38,3.48 1.18,6.84 2.18,10.35 0.99,3.51 2.17,7.18 3.57,10.78 1.4,3.61 3.02,7.15 4.6,10.32 1.59,3.17 3.14,5.97 5.16,8.51 2.02,2.55 4.51,4.85 6.56,6.78 2.05,1.93 3.66,3.48 5.53,4.66 1.86,1.18 3.98,1.99 6.03,2.39 2.05,0.41 4.04,0.41 5.43,0.31 1.4,-0.09 2.21,-0.27 2.52,-1.05 0.31,-0.78 0.13,-2.15 0.03,-2.83 -0.09,-0.68 -0.09,-0.68 -0.09,-0.68"/>
      <g>
       <path class="fil2 str1" d="M99.57 507.71c-1.61,0.25 -3.23,0.5 -4.75,1.75 -1.52,1.24 -2.95,3.48 -3.88,6.21 -0.94,2.73 -1.37,5.97 -1.62,9.39 -0.25,3.41 -0.31,7.02 0.06,10.5 0.38,3.48 1.18,6.84 2.18,10.35 0.99,3.51 2.17,7.18 3.57,10.78 1.4,3.61 3.02,7.15 4.6,10.32 1.59,3.17 3.14,5.97 5.16,8.51 2.02,2.55 4.51,4.85 6.56,6.78 2.05,1.93 3.66,3.48 5.53,4.66 1.86,1.18 3.98,1.99 6.03,2.39 2.05,0.41 4.04,0.41 5.43,0.31 1.4,-0.09 2.21,-0.27 2.52,-1.05 0.31,-0.78 0.13,-2.15 0.03,-2.83 -0.09,-0.68 -0.09,-0.68 -0.09,-0.68"/>
       <path class="fil2 str1" d="M150.57 534.11c0.37,-0.5 0.75,-1 0.82,-0.83 0.07,0.17 -0.17,1 -0.78,1.54 -0.61,0.54 -1.59,0.78 -2.09,1.53 -0.49,0.75 -0.49,2 -0.4,3.42 0.1,1.43 0.29,3.02 0.38,4.56 0.09,1.54 0.09,3.04 0.3,4.27 0.22,1.23 0.64,2.19 1.16,2.72 0.51,0.53 1.12,0.63 1.6,1.38 0.47,0.75 0.8,2.15 0.97,2.85 0.17,0.71 0.17,0.71 0.17,0.71"/>
       <path class="fil2 str1" d="M144.5 555.7c-0.09,0.74 -0.18,1.49 -0.39,0.84 -0.21,-0.64 -0.54,-2.68 -0.24,-3.81 0.31,-1.15 1.25,-1.39 1.79,-3.03 0.54,-1.63 0.68,-4.66 -0.12,-6.61 -0.8,-1.96 -2.54,-2.85 -3.78,-4.12 -1.25,-1.26 -2,-2.89 -2.16,-3.88 -0.16,-0.98 0.26,-1.31 0.48,-1.48 0.21,-0.17 0.21,-0.17 0.21,-0.17"/>
       <path class="fil2 str1" d="M696.98 315.33c-0.31,8.64 -0.62,17.28 -1.05,25.73 -0.44,8.45 -1,16.72 -1.74,24.89 -0.75,8.17 -1.68,16.25 -3.82,22.06 -2.15,5.81 -5.5,9.35 -9.08,13.89 -3.57,4.53 -7.36,10.06 -12.05,16.37 -4.69,6.31 -10.29,13.39 -15.97,21.41 -5.69,8.02 -11.47,16.97 -16.16,24.64 -4.69,7.68 -8.3,14.08 -10.63,18.67 -2.33,4.6 -3.38,7.4 -3.94,8.98 -0.56,1.59 -0.62,1.96 0.06,2.12 0.68,0.15 2.11,0.09 2.86,-0.56 0.74,-0.66 0.81,-1.9 1.52,-2.71 0.71,-0.8 2.08,-1.18 3.77,-1.05 1.69,0.12 3.71,0.74 5.72,1.36"/>
       <path class="fil2 str1" d="M702.63 246.77c1.41,3.53 2.82,7.06 4.46,9.57 1.64,2.51 3.5,4 5.03,5.43 1.52,1.43 2.7,2.79 3.04,5.53 0.34,2.73 -0.16,6.83 -0.62,12.8 -0.47,5.96 -0.9,13.79 -1.37,21.28 -0.47,7.49 -0.96,14.64 -1.68,21.13 -0.71,6.49 -1.64,12.34 -2.33,18.58 -0.68,6.25 -1.12,12.9 -1.36,20.63 -0.25,7.74 -0.31,16.56 -0.34,22.78 -0.04,6.21 -0.04,9.82 -0.04,11.93 0,2.11 0,2.73 -2.61,6 -2.61,3.26 -7.83,9.16 -12.92,14.75 -5.1,5.6 -10.07,10.88 -15.26,16.5 -5.19,5.63 -10.59,11.59 -15.35,16.26 -4.75,4.66 -8.85,8.01 -12.46,11.06 -3.6,3.04 -6.71,5.77 -8.7,9.81 -1.99,4.04 -2.85,9.39 -3.28,13.63 -0.42,4.24 -0.39,7.38 -0.37,10.51"/>
       <path class="fil2 str1" d="M702.18 250.68c-0.11,5.95 -0.23,11.91 -0.35,20.07 -0.12,8.17 -0.25,18.55 -0.31,23.73 -0.06,5.19 -0.06,5.19 -0.06,5.19"/>
       <path class="fil2 str1" d="M541.12 23.77c3.51,1.77 7.01,3.53 9.71,4.91 2.7,1.38 4.59,2.36 6.65,3.35 2.05,0.98 4.27,1.97 7.27,2.5 3,0.54 6.78,0.62 10.6,0.74 3.82,0.13 7.68,0.29 11.63,0.62 3.94,0.33 7.97,0.82 11.42,1.31 3.45,0.5 6.33,0.99 9.86,1.48 3.54,0.5 7.73,0.99 12.45,1.61 4.73,0.61 9.99,1.35 14.55,2.01 4.56,0.66 8.42,1.23 11.79,1.6 3.37,0.37 6.25,0.54 9.37,2.06 3.12,1.52 6.49,4.39 9.61,7.76 3.13,3.37 6,7.23 8.47,11.39 2.46,4.14 4.52,8.58 6.53,13.92 2.01,5.35 3.99,11.59 5.38,18.66 1.4,7.07 2.22,14.95 3.21,23.83 0.99,8.88 2.14,18.74 3.29,27.74 1.15,8.99 2.3,17.13 3.24,25.96 0.95,8.84 1.69,18.37 2.8,30.45 1.11,12.08 2.59,26.71 3.28,34.97 0.7,8.26 0.62,10.15 -1.35,11.75 -1.98,1.6 -5.84,2.92 -9.21,3.74 -3.37,0.82 -6.24,1.15 -8.74,1.23 -2.5,0.07 -4.62,-0.11 -5.69,-0.2 -1.06,-0.09 -1.06,-0.09 -1.06,-0.09"/>
       <path class="fil2 str1" d="M584.43 56.44c-6.74,-0.09 -13.48,-0.17 -18.04,0.28 -4.56,0.45 -6.94,1.44 -9.82,1.97 -2.88,0.54 -6.24,0.62 -9.37,0.29 -3.12,-0.33 -6,-1.07 -8.79,-2.75 -2.79,-1.68 -5.51,-4.32 -7.72,-6.94 -2.22,-2.63 -3.95,-5.26 -5.14,-8.47 -1.19,-3.2 -1.85,-6.99 -1.64,-10.15 0.2,-3.16 1.27,-5.71 2.99,-7.07 1.73,-1.35 4.11,-1.52 6.62,-1.27 2.51,0.25 5.14,0.9 6.49,1.23 1.36,0.33 1.44,0.33 1.11,0.21 -0.33,-0.12 -1.07,-0.37 -1.27,0.41 -0.21,0.78 0.12,2.59 0.9,5.05 0.78,2.47 2.01,5.59 3.99,9 1.97,3.41 4.68,7.11 6.94,9.54 2.26,2.42 4.07,3.57 6.08,4.72 2.02,1.15 4.24,2.3 5.34,2.88 1.11,0.57 1.11,0.57 1.11,0.57"/>
       <path class="fil2 str1" d="M363.29 372.54c5.5,5.41 11.01,10.82 16.76,16.73 5.75,5.91 11.75,12.32 17.79,18.52 6.04,6.21 12.13,12.2 17.79,17.09 5.67,4.89 10.93,8.67 15.37,12.08 4.44,3.41 8.06,6.45 13.32,9.95 5.25,3.49 12.16,7.43 18.73,10.93 6.58,3.49 12.82,6.53 18.94,8.91 6.13,2.39 12.13,4.11 17.92,5.18 5.79,1.07 11.38,1.48 17.67,1.6 6.28,0.13 13.27,-0.04 19.27,-0.61 6,-0.58 11.01,-1.56 16.31,-3.08 5.3,-1.52 10.89,-3.58 16.4,-6.25 5.5,-2.67 10.92,-5.96 16.55,-9.9 5.63,-3.95 11.47,-8.55 17.18,-13.69 5.71,-5.13 11.3,-10.8 16.68,-17.95 5.38,-7.15 10.56,-15.78 15.37,-24.41 4.81,-8.63 9.25,-17.26 13.07,-26.05 3.82,-8.79 7.02,-17.75 9.86,-26.09 2.83,-8.34 5.3,-16.07 7.6,-25.02 2.3,-8.96 4.44,-19.15 5.88,-26.63 1.43,-7.48 2.17,-12.24 2.87,-17.71 0.7,-5.46 1.36,-11.63 1.56,-19.07 0.21,-7.43 -0.04,-16.14 -0.57,-27.03 -0.54,-10.89 -1.36,-23.96 -2.59,-36.57 -1.23,-12.62 -2.88,-24.78 -4.64,-36.12 -1.77,-11.34 -3.66,-21.86 -5.59,-31.51 -1.93,-9.66 -3.91,-18.45 -5.75,-26.26 -1.85,-7.81 -3.58,-14.63 -5.22,-19.76 -1.65,-5.14 -3.21,-8.59 -7.77,-11.55 -4.56,-2.96 -12.12,-5.43 -20.34,-7.23 -8.22,-1.81 -17.09,-2.96 -25.97,-4.11"/>
       <path class="fil2 str1" d="M341.41 393.83c0.72,-1.28 1.44,-2.55 2.54,-3.11 1.09,-0.56 2.57,-0.39 3.27,-2.2 0.7,-1.81 0.62,-5.59 1.03,-7.56 0.41,-1.97 1.31,-2.14 2.14,-2.18 0.82,-0.04 1.56,0.04 1.97,-0.53 0.41,-0.58 0.49,-1.81 1.23,-2.71 0.74,-0.91 2.14,-1.48 3.78,-1.65 1.64,-0.16 3.53,0.08 4.77,-0.08 1.23,-0.17 1.8,-0.74 0.25,-3.07 -1.55,-2.33 -5.24,-6.41 -8.92,-10.49"/>
       <path class="fil2 str1" d="M306.58 129.66c-3.94,3.94 -7.89,7.89 -11.79,12.32 -3.9,4.44 -7.77,9.37 -11.59,14.02 -3.82,4.64 -7.6,8.99 -10.56,12.77 -2.96,3.78 -5.09,6.99 -6.9,10.81 -1.81,3.82 -3.29,8.26 -4.27,12.29 -0.99,4.02 -1.48,7.64 -1.56,12.16 -0.09,4.52 0.24,9.94 1.31,15.61 1.07,5.67 2.88,11.59 5.14,17.06 2.26,5.46 4.97,10.47 7.89,15.81 2.91,5.34 6.04,11.02 10.15,17.63 4.1,6.62 9.2,14.18 14.62,21.98 5.43,7.81 11.18,15.86 17.51,24 6.32,8.14 13.23,16.35 19.23,23.34 6,6.98 11.09,12.74 14.01,16.11 2.92,3.37 3.66,4.35 3.7,4.68 0.04,0.33 -0.62,0 -1.11,1.73 -0.5,1.72 -0.83,5.5 -1.44,7.6 -0.62,2.09 -1.52,2.5 -2.59,2.63 -1.07,0.12 -2.3,-0.04 -2.92,0.45 -0.61,0.49 -0.61,1.64 -1.03,2.46 -0.41,0.83 -1.23,1.32 -1.64,2.06 -0.41,0.74 -0.41,1.72 -0.45,2.46 -0.04,0.74 -0.12,1.24 -1.74,1.57 -1.62,0.32 -4.77,0.49 -6.34,0.57 -1.58,0.08 -1.58,0.08 -1.58,0.08"/>
       <path class="fil2 str1" d="M572.76 521.57c-4.82,-1.86 -9.64,-3.73 -16.82,-4.7 -7.18,-0.97 -16.71,-1.06 -27.68,-1.26 -10.97,-0.21 -23.38,-0.54 -33.65,-0.9 -10.27,-0.37 -18.41,-0.79 -24.61,-2.63 -6.21,-1.85 -10.48,-5.14 -16.56,-9.62 -6.08,-4.48 -13.97,-10.15 -21.9,-16.43 -7.93,-6.29 -15.91,-13.19 -24.66,-21.25 -8.75,-8.05 -18.28,-17.26 -27.16,-26.3 -8.87,-9.04 -17.09,-17.91 -24.78,-27.24 -7.68,-9.32 -14.83,-19.1 -22.31,-29.38 -7.47,-10.27 -15.28,-21.03 -24.32,-34.06 -9.04,-13.03 -19.31,-28.31 -28.48,-41.99 -9.16,-13.69 -17.21,-25.77 -22.31,-33.78 -5.09,-8.01 -7.23,-11.96 -9.57,-16.72 -2.34,-4.77 -4.89,-10.36 -6.62,-15.7 -1.72,-5.34 -2.63,-10.44 -3.37,-16.64 -0.74,-6.2 -1.31,-13.52 -1.56,-19.64 -0.24,-6.12 -0.16,-11.05 1.89,-16.31 2.06,-5.26 6.08,-10.85 10.85,-17.38 4.77,-6.54 10.27,-14.02 17.05,-22.4 6.78,-8.38 14.84,-17.67 19.56,-23.09 4.73,-5.42 6.12,-6.98 7.03,-9.08 0.9,-2.1 1.31,-4.73 2.01,-7.31 0.7,-2.59 1.69,-5.14 3.08,-7.48 1.4,-2.34 3.21,-4.48 4.73,-6.12 1.52,-1.65 2.75,-2.8 4.35,-3.82 1.61,-1.03 3.58,-1.94 5.63,-2.47 2.06,-0.54 4.19,-0.7 6.33,0 2.14,0.7 4.27,2.26 5.88,3.7 1.6,1.43 2.67,2.75 3.57,4.8 0.9,2.06 1.64,4.85 2.01,7.77 0.37,2.92 0.37,5.96 0.05,8.63 -0.33,2.67 -0.99,4.97 -2.22,7.03 -1.24,2.05 -3.04,3.86 -5.02,5.87 -1.97,2.01 -4.11,4.23 -6.49,5.18 -2.38,0.94 -5.01,0.61 -6.82,0.41 -1.81,-0.21 -2.79,-0.29 -3.29,-1.6 -0.49,-1.32 -0.49,-3.87 -0.2,-5.84 0.28,-1.97 0.86,-3.37 1.56,-4.85 0.7,-1.48 1.52,-3.04 1.77,-5.91 0.24,-2.88 -0.09,-7.07 -0.64,-11.08 -0.56,-4 -1.34,-7.82 -1.73,-9.73 -0.39,-1.91 -0.39,-1.91 -0.39,-1.91 0,0 0,0 0,0"/>
       <path class="fil2 str1" d="M581.23 499.95c4.19,7.24 8.38,14.47 12.57,21.91 4.19,7.43 8.38,15.07 12.61,22.43 4.24,7.35 8.51,14.42 11.26,19.23 2.75,4.81 6.57,12.52 8.47,14.09"/>
       <path class="fil3 str1" d="M619.93 584.56c4.36,-1.85 10.93,-5.63 17.42,-9.37 6.5,-3.74 12.9,-7.44 17.14,-10.31 4.23,-2.88 6.28,-4.94 8.05,-6.33 1.77,-1.4 3.25,-2.14 1.52,-6.95 -1.72,-4.8 -6.66,-13.68 -10.8,-22.1 -4.16,-8.43 -7.52,-16.4 -10.11,-22.15 -2.59,-5.75 -4.4,-9.29 -5.51,-11.05 -1.11,-1.77 -1.52,-1.77 -2.63,-0.5 -1.11,1.28 -2.92,3.83 -3.74,5.26 -0.82,1.44 -0.66,1.77 0.7,4.07 1.36,2.3 3.9,6.57 6.78,11.96 2.88,5.38 6.08,11.87 8.63,17.79 2.55,5.92 4.44,11.26 5.59,15.08 1.15,3.82 1.56,6.12 1.19,7.97 -0.37,1.85 -1.52,3.25 -4.85,5.63 -3.33,2.38 -8.83,5.75 -13.97,8.83 -5.14,3.09 -9.9,5.88 -13.19,6.91 -3.29,1.03 -5.09,0.28 -7.56,-2.84 -2.47,-3.12 -5.59,-8.63 -9.33,-14.5 -3.74,-5.88 -8.09,-12.12 -12.12,-18.04 -4.03,-5.92 -7.72,-11.5 -10.93,-15.28 -3.2,-3.79 -5.92,-5.76 -7.44,-6.74 -1.52,-0.99 -1.84,-0.99 -2.01,-0.33 -0.16,0.65 -0.16,1.97 1.4,4.27 1.56,2.3 4.68,5.59 7.56,9.62 2.87,4.02 5.5,8.79 8.5,13.92 3,5.14 6.37,10.65 9.62,16.4 3.25,5.75 6.37,11.75 8.26,15.2 1.89,3.45 2.55,4.36 3.94,4.85 1.4,0.49 3.54,0.58 7.89,-1.27z"/>
       <path class="fil2 str1" d="M455.24 787.91c4.52,3.78 9.04,7.56 13.89,11.26 4.85,3.7 10.03,7.31 15.37,10.48 5.34,3.16 10.85,5.87 16.48,8.09 5.63,2.22 11.38,3.94 17.67,4.64 6.28,0.7 13.1,0.37 19.31,-0.78 6.2,-1.15 11.79,-3.12 17.54,-5.83 5.76,-2.71 11.67,-6.17 17.92,-10.48 6.24,-4.31 12.82,-9.49 19.06,-14.46 6.25,-4.98 12.17,-9.74 17.92,-15.21 5.75,-5.46 11.34,-11.63 16.48,-17.75 5.13,-6.12 9.82,-12.2 15.24,-19.72 5.42,-7.52 11.59,-16.48 16.85,-24.24 5.26,-7.77 9.61,-14.34 13.68,-20.42 4.07,-6.09 7.85,-11.67 10.89,-16.36 3.04,-4.68 5.34,-8.46 6.2,-11.96 0.87,-3.49 0.29,-6.69 -1.27,-10.92 -1.56,-4.24 -4.11,-9.5 -6.82,-15.29 -2.71,-5.79 -5.59,-12.12 -8.1,-18.41 -2.5,-6.28 -4.64,-12.53 -6.74,-18.57 -2.09,-6.04 -4.15,-11.88 -6,-17.3 -1.84,-5.42 -3.49,-10.44 -4.31,-12.9 -0.82,-2.47 -0.82,-2.38 -0.82,-2.3 0,0.08 0,0.16 0,0.24"/>
       <path class="fil2 str1" d="M638.42 602.51c0.66,9.37 1.32,18.74 1.44,26.92 0.12,8.17 -0.29,15.16 -1.07,21.73 -0.78,6.58 -1.93,12.74 -3.24,18.86 -1.32,6.12 -2.8,12.21 -4.94,18.58 -2.13,6.36 -4.93,13.02 -8.58,20.62 -3.66,7.6 -8.18,16.15 -13.23,24.16 -5.06,8.02 -10.65,15.49 -16.77,22.4 -6.12,6.9 -12.78,13.23 -19.35,18.08 -6.58,4.84 -13.07,8.21 -19.23,10.27 -6.16,2.05 -12,2.79 -18.08,2.96 -6.08,0.16 -12.41,-0.25 -17.79,-1.36 -5.39,-1.11 -9.82,-2.92 -14.22,-5.22 -4.4,-2.3 -8.75,-5.09 -14.3,-8.95 -5.55,-3.87 -12.28,-8.8 -19.89,-15.13 -7.6,-6.32 -16.06,-14.05 -26.01,-23.62 -9.94,-9.58 -21.36,-21 -31.43,-31.31 -10.07,-10.32 -18.78,-19.52 -26.95,-27.7 -8.18,-8.17 -15.82,-15.32 -22.81,-21.77 -6.98,-6.46 -13.31,-12.21 -20.01,-18.45 -6.7,-6.25 -13.76,-12.99 -21,-19.48 -7.23,-6.49 -14.62,-12.74 -21.98,-18.82 -7.35,-6.08 -14.67,-12 -22.35,-17.46 -7.68,-5.47 -15.74,-10.48 -24,-15.2 -8.26,-4.73 -16.72,-9.17 -24.82,-12.91 -8.09,-3.74 -15.81,-6.78 -23.58,-9.32 -7.77,-2.55 -15.57,-4.61 -23.26,-5.76 -7.68,-1.15 -15.24,-1.39 -22.19,-1.43 -6.94,-0.05 -13.27,0.12 -18.49,0.24 -5.21,0.13 -9.32,0.21 -12.45,0.58 -3.12,0.37 -5.26,1.02 -6.98,1.85 -1.73,0.82 -3.04,1.8 -3.58,4.1 -0.53,2.31 -0.28,5.92 0.09,9 0.37,3.09 0.86,5.63 4.06,6.91 3.21,1.27 9.13,1.27 14.06,1.15 4.93,-0.13 8.87,-0.37 12.84,-0.59 3.96,-0.21 7.95,-0.39 13.29,0.07 5.35,0.45 12.04,1.53 18.47,2.57 6.43,1.03 12.59,2.02 20.24,4.32 7.64,2.3 16.76,5.91 25.92,10.31 9.17,4.4 18.37,9.57 28.72,16.23 10.36,6.66 21.86,14.79 32.63,23.42 10.77,8.63 20.79,17.75 30.2,27.33 9.41,9.57 18.2,19.59 26.75,29.17 8.55,9.57 16.85,18.69 25.44,28.31 8.58,9.61 17.46,19.72 26.09,29.09 8.63,9.37 17.01,18 25.39,26.5 8.38,8.51 16.76,16.89 25.15,25.27"/>
       <path class="fil2 str1" d="M156.05 533.19c2.03,7.85 3.45,15.65 4.28,23.22 -4.71,-0.33 -8.36,-0.16 -12,0.03 -3.97,0.22 -7.91,0.46 -12.84,0.59 -4.93,0.12 -10.85,0.12 -14.06,-1.15 -3.2,-1.28 -3.69,-3.82 -4.06,-6.91 -0.37,-3.08 -0.62,-6.69 -0.09,-9 0.54,-2.3 1.85,-3.28 3.58,-4.1 1.72,-0.83 3.86,-1.48 6.98,-1.85 3.13,-0.37 7.24,-0.45 12.45,-0.58 4.53,-0.1 9.89,-0.24 15.76,-0.25z"/>
       <path class="fil2 str1" d="M70.52 453.29c24.84,-15.09 60.28,11.87 79.16,60.2 2.55,6.54 4.67,13.14 6.37,19.7 -5.87,0.01 -11.23,0.15 -15.76,0.25 -5.21,0.13 -9.32,0.21 -12.45,0.58 -3.12,0.37 -5.26,1.02 -6.98,1.85 -1.73,0.82 -3.04,1.8 -3.58,4.1 -0.53,2.31 -0.28,5.92 0.09,9 0.37,3.09 0.86,5.63 4.06,6.91 3.21,1.27 9.13,1.27 14.06,1.15 4.93,-0.13 8.87,-0.37 12.84,-0.59 3.64,-0.19 7.29,-0.36 12,-0.03 3.58,32.78 -4,61.3 -21.45,71.89 -24.85,15.08 -60.29,-11.87 -79.16,-60.2 -18.88,-48.33 -14.05,-99.74 10.8,-114.81z"/>
       <path class="fil2 str1" d="M657.26 574.37c-0.93,-3.17 -1.85,-6.33 -2.77,-9.49"/>
       <path class="fil2 str1" d="M144.68 533.34c1.21,7.7 2.43,15.4 3.65,23.1"/>
       <path class="fil2 str1" d="M338.04 386.9c7.1,-7.46 14.2,-14.93 17.75,-18.66 3.55,-3.73 3.55,-3.73 3.55,-3.73"/>
       <path class="fil2 str1" d="M338.77 389.11c7.1,-7.46 14.2,-14.93 17.75,-18.66 3.55,-3.73 3.55,-3.73 3.55,-3.73"/>
       <path class="fil2 str1" d="M635.35 579.38c-1.41,0.23 -2.82,0.47 -2.68,1.22 0.15,0.76 1.85,2.04 2.85,3.8 0.99,1.77 1.28,4.03 1.42,5.15 0.15,1.13 0.15,1.13 0.15,1.13"/>
       <path class="fil2 str1" d="M638.43 467.41c-4.21,7.81 -8.43,15.61 -10.53,19.51 -2.11,3.9 -2.11,3.9 -2.11,3.9"/>
       <path class="fil2 str1" d="M642.86 464.43c-4.21,7.81 -8.42,15.61 -10.53,19.51 -2.11,3.9 -2.11,3.9 -2.11,3.9"/>
       <polygon class="fil4" points="153.57,536.19 163.82,536.19 163.82,545.49 153.57,545.49 "/>
       <polygon class="fil4" points="155.85,544 166.07,544.67 165.46,553.95 155.23,553.27 "/>
      </g>
      <path class="fil2 str0" d="M635.94 466.24c5.16,-2.47 10.31,-4.94 12.71,-6.03 2.4,-1.09 2.05,-0.79 1.69,-0.49"/>
     </g>
     <path class="fil2 str1" d="M347.22 388.52c4.17,3.24 8.35,6.49 10.43,8.11 2.09,1.62 2.09,1.62 2.09,1.62"/>
    </g>
   </g>
  </g>
 </g>
</svg>
