<?xml version="1.0" encoding="UTF-8"?>
<!DOCTYPE svg PUBLIC "-//W3C//DTD SVG 1.1//EN" "http://www.w3.org/Graphics/SVG/1.1/DTD/svg11.dtd">
<!-- Creator: CorelDRAW -->
<svg xmlns="http://www.w3.org/2000/svg" xml:space="preserve" width="2421px" height="715px" version="1.1" style="shape-rendering:geometricPrecision; text-rendering:geometricPrecision; image-rendering:optimizeQuality; fill-rule:evenodd; clip-rule:evenodd"
viewBox="0 0 2421 714.49"
 xmlns:xlink="http://www.w3.org/1999/xlink"
 xmlns:xodm="http://www.corel.com/coreldraw/odm/2003"
 zoomAndPan="magnify">
 <defs>
  <style type="text/css">
   <![CDATA[
    .str2 {stroke:#373435;stroke-width:5.9;stroke-miterlimit:22.9256}
    .str0 {stroke:#FEFEFE;stroke-width:2.36;stroke-miterlimit:22.9256}
    .str1 {stroke:#373435;stroke-width:2.36;stroke-miterlimit:22.9256}
    .fil3 {fill:none}
    .fil4 {fill:#FEFEFE}
    .fil5 {fill:#373435}
    .fil1 {fill:#373435;fill-rule:nonzero}
    .fil2 {fill:#E2AFB8;fill-rule:nonzero}
    .fil0 {fill:#F28116;fill-rule:nonzero}
   ]]>
  </style>
      <clipPath id="id0">
       <path d="M73.86 105.38l580.92 0 0 573.91 -580.92 0 0 -573.91zm0 0z"/>
      </clipPath>
 </defs>
 <g id="Camada_x0020_1">
  <metadata id="CorelCorpID_0Corel-Layer"/>
  <g id="_2336460411056">
   <g>
    <path class="fil0" d="M861.25 393.98c29.53,-4.97 53.07,-17.87 70.63,-38.69 17.55,-20.83 26.4,-46.12 26.4,-75.8 0,-33.42 -11.41,-61.1 -34.03,-83.01 -22.67,-21.85 -52.05,-32.8 -88.18,-32.8 -36.13,0 -65.35,10.95 -87.66,32.8 -22.37,21.91 -33.63,49.59 -33.63,83.17 0,29.52 8.55,54.55 25.49,75.23 16.94,20.67 39.92,33.67 68.83,38.94 14.54,35.93 43.61,53.89 87.26,53.89 19.91,0 36.7,-3.63 50.36,-10.8l-14.69 -42.47c-4.96,3.48 -11.82,6.34 -20.83,8.64 -9.01,2.26 -18.47,2.87 -28.2,1.64 -9.72,-1.17 -16.94,-4.71 -21.59,-10.59l-0.16 -0.15zm-86.79 -114.33c0,-17.51 5.98,-32.2 17.86,-43.92 11.82,-11.66 26.51,-17.5 44.06,-17.5 17.55,0 32.24,5.84 44.06,17.5 11.88,11.72 17.87,26.41 17.87,43.92 0,17.8 -5.99,32.8 -17.87,44.78 -11.82,12.02 -26.51,18.01 -44.06,18.01 -17.55,0 -32.24,-5.99 -44.06,-18.01 -11.88,-11.98 -17.86,-26.82 -17.86,-44.63l0 -0.15zm334.64 -61.93l0 94.63c0,9.46 -3.17,17.09 -9.46,22.93 -6.3,5.88 -14.23,8.85 -23.8,8.85 -9.47,0 -17.09,-2.87 -22.82,-8.55 -5.69,-5.68 -8.55,-13.35 -8.55,-23.08l0 -94.78 -57.12 0 0 102c0,23.59 5.89,42.01 17.4,55.52 11.57,13.52 26.82,20.27 45.86,20.27 20.57,-0.15 40.02,-9.31 58.65,-27.48l0 24.1 57.11 0 0 -174.1 -57.27 -0.31zm201.29 174.11l54.86 0 0 -96.27c0,-27.07 -6.45,-47.34 -19.19,-60.75 -12.75,-13.41 -33.73,-20.16 -62.8,-20.16 -27.43,0 -54.4,6.14 -80.91,18.37l12.85 41c4.65,-2.51 12.58,-5.22 24,-8.04 11.41,-2.86 23.08,-4.2 35.21,-4.2 10.64,0 19.04,2.41 25.02,7.32 5.99,4.92 8.86,12.85 8.7,23.9 -13.51,-4.35 -28.19,-6.45 -44.21,-6.45 -8.09,0 -16.02,1.03 -23.95,3.18 -7.99,2.09 -15.31,5.22 -22.22,9.41 -6.85,4.25 -12.43,9.93 -16.78,17.15 -4.35,7.21 -6.45,15.45 -6.45,24.62 0,17.24 6.04,30.39 18.01,39.71 11.98,9.31 27.85,13.97 47.8,13.97 11.67,0 21.86,-1.94 30.4,-5.73 8.55,-3.74 15,-8.55 19.35,-14.38l0.31 17.35zm-32.55 -36.39c-7.63,0 -13.92,-1.79 -18.99,-5.27 -5.12,-3.43 -7.68,-8.09 -7.68,-13.92 0,-5.58 2.72,-9.93 8.24,-13.21 5.58,-3.32 12.59,-4.96 21.14,-4.96 9.62,0 18.73,1.79 27.28,5.27l0 8.39c0,7.63 -2.87,13.46 -8.4,17.56 -5.52,4.04 -12.89,6.14 -21.85,6.14l0.26 0zm122.26 36.39l57.11 0 0 -238.29 -57.11 0 0 238.29zm224.41 -174.11l-40.48 101.64 -39.3 -101.64 -64.49 0 76.21 171.04 -0.31 0.92c-5.42,12.84 -14.28,19.29 -26.56,19.29 -10.19,0 -21.91,-3.27 -34.96,-9.88l-18.11 45.14c20.26,9.88 39.71,14.84 58.65,14.84 18.88,0 33.88,-4.35 44.98,-13.05 11.06,-8.7 20.52,-22.46 28.3,-41.25l78.3 -186.9 -62.23 -0.15zm65 0l72.57 174.11 58.9 0 72.73 -174.11 -62.7 0 -39.56 104.97 -39.25 -104.97 -62.69 0zm285.16 -44.98c0,-8.24 -3.02,-15.26 -9.16,-21.14 -6.14,-5.83 -13.36,-8.7 -21.75,-8.7 -8.86,0 -16.48,3.02 -22.78,9.01 -6.34,5.98 -9.46,13.05 -9.46,20.98 0,8.39 3.12,15.45 9.46,21.29 6.3,5.88 13.77,8.7 22.62,8.7 8.55,0 15.92,-2.82 21.91,-8.7 6.04,-5.84 9.01,-12.9 9.01,-21.29l0.15 -0.15zm-60.03 219.09l57.16 0 0 -174.11 -57.16 0 0 174.11zm216.84 -238.29l0 84.19c-12.75,-15.56 -30.86,-23.39 -54.35,-23.39 -22.67,0 -41.1,8.24 -55.17,24.88 -14.08,16.63 -21.14,38.33 -21.14,65.14 0,27.08 7.06,48.98 21.14,65.72 14.07,16.73 32.39,25.12 55.01,25.12 23.49,0 41.61,-7.93 54.35,-23.69l0 20.32 57.12 0 0 -238.13 -56.96 -0.16zm-35.78 190.49c-11.25,0 -20.26,-3.59 -26.97,-10.9 -6.75,-7.37 -10.08,-16.64 -10.08,-27.9 0,-11.82 3.33,-21.39 9.93,-28.71 6.55,-7.37 15.56,-10.95 27.12,-10.95 11.67,0 20.68,3.58 26.92,10.8 6.3,7.16 9.47,16.74 9.47,28.61 0,11.51 -3.27,20.78 -9.72,27.99 -6.45,7.17 -15.46,10.75 -26.97,10.75l0.3 0.31zm237.36 47.8l54.87 0 0 -96.27c0,-27.07 -6.45,-47.34 -19.19,-60.75 -12.75,-13.41 -33.73,-20.16 -62.8,-20.16 -27.43,0 -54.4,6.14 -80.91,18.37l12.84 41c4.66,-2.51 12.59,-5.22 24.01,-8.04 11.41,-2.86 23.08,-4.2 35.21,-4.2 10.64,0 19.04,2.41 25.02,7.32 5.99,4.92 8.86,12.85 8.7,23.9 -13.51,-4.35 -28.2,-6.45 -44.21,-6.45 -8.09,0 -16.02,1.03 -23.95,3.18 -7.99,2.09 -15.31,5.22 -22.22,9.41 -6.85,4.25 -12.43,9.93 -16.78,17.15 -4.35,7.21 -6.45,15.45 -6.45,24.62 0,17.24 6.04,30.39 18.01,39.71 11.98,9.31 27.84,13.97 47.8,13.97 11.67,0 21.86,-1.94 30.4,-5.73 8.55,-3.74 15,-8.55 19.35,-14.38l0.3 17.35zm-32.54 -36.39c-7.63,0 -13.92,-1.79 -18.99,-5.27 -5.12,-3.43 -7.68,-8.09 -7.68,-13.92 0,-5.58 2.72,-9.93 8.24,-13.21 5.58,-3.32 12.59,-4.96 21.14,-4.96 9.62,0 18.73,1.79 27.28,5.27l0 8.39c0,7.63 -2.87,13.46 -8.4,17.56 -5.52,4.04 -12.89,6.14 -21.85,6.14l0.26 0z"/>
    <g>
     <path class="fil1" d="M932.09 551.26c12.22,0 20.72,-5.21 20.72,-14.6 0,-9.85 -9.19,-11.61 -20.13,-13.57 -9.58,-1.67 -11.93,-2.97 -11.93,-6.69 0,-4.83 4.4,-7.44 12.42,-7.44 6.15,0 11.33,1.58 15.05,3.81l3.52 -5.67c-4.5,-2.88 -11.24,-4.83 -18.38,-4.83 -9.28,0 -20.23,3.25 -20.23,14.32 0,8.55 6.45,10.96 18.47,13.1 7.33,1.3 13.59,2.33 13.59,7.35 0,5.67 -6.55,7.43 -13,7.43 -6.55,0 -14.07,-2.13 -17.5,-4.74l-3.52 5.67c4.79,3.54 13.79,5.86 20.92,5.86zm84.15 -48.99c-8.01,0 -14.46,3.53 -17.98,9.2l-0.68 -7.99 -6.26 0 0 69.72 7.33 0 0 -29.84c3.62,4.93 9.68,7.81 17.2,7.81 13.98,0 25.03,-9.95 25.03,-24.36 0,-14.5 -11.15,-24.54 -24.64,-24.54zm-0.68 42.2c-10.46,0 -17.59,-7.06 -17.59,-17.75 0,-10.69 7.13,-17.76 17.59,-17.76 10.46,0 17.6,7.16 17.6,17.76 0,10.6 -7.14,17.75 -17.6,17.75zm68.91 -15.06l39.39 0c0.48,-2.04 0.68,-4.64 0.68,-5.85 0,-10.79 -7.62,-21.29 -22.87,-21.29 -14.76,0 -24.83,9.95 -24.83,24.17 0,14.78 10.75,24.73 25.41,24.73 7.63,0 14.57,-2.7 19.26,-7.16l-4.4 -5.11c-4.01,3.71 -9.19,5.76 -14.95,5.76 -9.78,0 -16.52,-5.95 -17.69,-15.25zm0 -6.32c1.37,-8.73 7.72,-14.31 17.1,-14.31 9.87,0 15.15,6.41 15.15,14.13l0 0.18 -32.25 0zm101.45 28.08c7.53,0 13.98,-2.61 18.67,-7.16l-5.08 -5.11c-3.52,3.81 -8.22,5.57 -13.49,5.57 -10.66,0 -17.89,-7.25 -17.89,-17.75 0,-10.6 7.33,-17.76 17.79,-17.76 5.67,0 10.46,2.05 13.29,5.3l5.09 -5.11c-4.5,-4.37 -11.05,-6.88 -18.38,-6.88 -14.47,0 -25.41,10.13 -25.41,24.45 0,14.31 10.85,24.45 25.41,24.45zm62.94 -55.78c2.84,0 5.18,-2.23 5.18,-4.93 0,-2.69 -2.34,-4.92 -5.18,-4.92 -2.83,0 -5.18,2.23 -5.18,4.92 0,2.7 2.35,4.93 5.18,4.93zm3.62 8.09l-7.33 0 0 46.48 7.33 0 0 -46.48zm65.29 -1.21c-8.21,0 -15.54,2.7 -20.33,6.41l3.23 5.4c4.49,-3.44 10.75,-5.12 16.22,-5.12 8.6,0 13.39,4.19 13.39,12.37l0 2.51c-5.28,-1.58 -11.04,-2.23 -15.74,-2.23 -9.87,0 -19.84,4.18 -19.84,14.78 0,9.76 8.31,14.78 17.2,14.78 7.04,0 14.67,-3.07 18.77,-9.02l0.59 7.81 6.25 0 0 -28.63c0,-12.74 -7.23,-19.06 -19.74,-19.06zm-4.79 42.11c-6.35,0 -10.65,-2.97 -10.65,-8.18 0,-6.14 5.86,-8.55 13.29,-8.55 4.69,0 9.87,0.65 14.66,2.14l0 0.93c-0.1,8.27 -8.7,13.66 -17.3,13.66zm66.76 5.58l7.33 0 0 -69.72 -7.33 0 0 69.72zm54.83 -54.57c2.83,0 5.18,-2.23 5.18,-4.93 0,-2.69 -2.35,-4.92 -5.18,-4.92 -2.84,0 -5.18,2.23 -5.18,4.92 0,2.7 2.34,4.93 5.18,4.93zm3.62 8.09l-7.34 0 0 46.48 7.34 0 0 -46.48zm48.96 40.16l29.81 -34.77 0 -5.39 -38.6 0 0 6.32 28.93 0 -29.81 34.77 0 5.39 39.97 0 0 -6.32 -30.3 0zm73.5 -14.23l39.39 0c0.49,-2.04 0.69,-4.64 0.69,-5.85 0,-10.79 -7.63,-21.29 -22.88,-21.29 -14.75,0 -24.82,9.95 -24.82,24.17 0,14.78 10.75,24.73 25.41,24.73 7.62,0 14.57,-2.7 19.26,-7.16l-4.4 -5.11c-4.01,3.71 -9.19,5.76 -14.96,5.76 -9.77,0 -16.51,-5.95 -17.69,-15.25zm0 -6.32c1.37,-8.73 7.72,-14.31 17.11,-14.31 9.87,0 15.15,6.41 15.15,14.13l0 0.18 -32.26 0zm118.17 -42.85l0 29.75c-3.62,-4.84 -9.68,-7.72 -17.2,-7.72 -13.98,0 -24.93,9.95 -24.93,24.36 0,14.5 11.05,24.54 24.63,24.54 8.02,0 14.37,-3.54 17.89,-9.2l0.69 7.99 6.25 0 0 -69.72 -7.33 0zm-16.91 64.23c-10.46,0 -17.59,-7.15 -17.59,-17.75 0,-10.6 7.13,-17.76 17.59,-17.76 10.46,0 17.59,7.07 17.59,17.76 0,10.69 -7.13,17.75 -17.59,17.75z"/>
     <path class="fil1" d="M1809.6 549.27c7.3,0 13.55,-2.4 18.1,-6.6l-4.93 -4.72c-3.41,3.52 -7.96,5.15 -13.08,5.15 -10.33,0 -17.35,-6.69 -17.35,-16.38 0,-9.78 7.11,-16.38 17.26,-16.38 5.49,0 10.14,1.89 12.89,4.89l4.93 -4.72c-4.36,-4.03 -10.71,-6.34 -17.82,-6.34 -14.03,0 -24.65,9.34 -24.65,22.55 0,13.2 10.52,22.55 24.65,22.55zm76.79 -45.1c-7.97,0 -15.08,2.48 -19.72,5.91l3.13 4.98c4.36,-3.18 10.43,-4.72 15.73,-4.72 8.35,0 12.99,3.86 12.99,11.4l0 2.32c-5.12,-1.46 -10.71,-2.06 -15.26,-2.06 -9.58,0 -19.25,3.86 -19.25,13.64 0,9 8.06,13.63 16.69,13.63 6.83,0 14.22,-2.83 18.2,-8.32l0.57 7.21 6.07 0 0 -26.42c0,-11.74 -7.02,-17.57 -19.15,-17.57zm-4.65 38.84c-6.16,0 -10.33,-2.74 -10.33,-7.54 0,-5.66 5.69,-7.89 12.89,-7.89 4.55,0 9.58,0.6 14.22,1.97l0 0.86c-0.09,7.63 -8.43,12.6 -16.78,12.6zm87.88 -38.84c-7.2,0 -13.17,3.25 -16.4,8.66l-0.66 -7.55 -6.07 0 0 42.88 7.11 0 0 -24.18c0,-8.67 7.3,-13.64 14.89,-13.64 1.89,0 3.69,0.34 5.4,0.86l2.47 -6.09c-2.09,-0.6 -4.37,-0.94 -6.74,-0.94zm46.27 25.04l38.2 0c0.48,-1.89 0.67,-4.29 0.67,-5.41 0,-9.94 -7.39,-19.63 -22.19,-19.63 -14.31,0 -24.08,9.17 -24.08,22.29 0,13.64 10.43,22.81 24.65,22.81 7.4,0 14.13,-2.49 18.68,-6.6l-4.27 -4.72c-3.88,3.43 -8.91,5.32 -14.5,5.32 -9.48,0 -16.02,-5.49 -17.16,-14.06zm0 -5.84c1.33,-8.06 7.49,-13.2 16.59,-13.2 9.58,0 14.7,5.92 14.7,13.03l0 0.17 -31.29 0z"/>
    </g>
   </g>
   <g>
    <g>
     <g>
     </g>
     <g style="clip-path:url(#id0)">
      <g>
       <path class="fil2" d="M628.52 179.33c-104.56,-145.65 -300.7,-58.8 -280.08,112.79 -116.73,-127.44 -310.42,-35.25 -268.05,138.98 38.45,158.07 445.88,248.17 445.88,248.17 0,0 197.11,-367.78 102.25,-499.94z"/>
      </g>
     </g>
     <path class="fil3" d="M73.86 105.38l580.92 0 0 573.91 -580.92 0 0 -573.91zm0 0z"/>
    </g>
    <path class="fil4 str0" d="M243.32 90.17c2.96,-0.34 6.22,0.64 8.5,2.29 2.27,1.64 3.57,3.95 4.34,6.56 0.77,2.62 1.02,5.55 0.52,8.58 -0.5,3.03 -1.76,6.16 -3.36,8.65 -1.6,2.49 -3.53,4.34 -5.92,5.42 -2.39,1.08 -5.25,1.38 -7.66,2.18 -2.4,0.79 -4.37,2.06 -6.91,4.47 -2.54,2.4 -5.65,5.93 -9.38,10.35 -3.73,4.41 -8.09,9.71 -11.66,15.1 -3.58,5.39 -6.39,10.86 -8.03,14.75 -1.64,3.89 -2.13,6.2 -2.37,9.45 -0.25,3.26 -0.24,7.47 0.23,11.75 0.47,4.28 1.42,8.63 3.27,13.82 1.86,5.19 4.63,11.22 8.16,17.81 3.53,6.6 7.82,13.76 15,24.14 7.17,10.39 17.24,24.01 26.87,36.22 9.63,12.22 18.82,23.03 27.68,32.89 8.85,9.85 17.37,18.76 25.49,26.82 8.13,8.05 15.87,15.26 24.3,22.02 8.43,6.77 17.55,13.1 26.43,18.23 8.87,5.12 17.5,9.04 25.55,11.55 8.04,2.51 15.49,3.61 22.89,3.92 7.4,0.32 14.75,-0.16 21.38,-1.34 6.64,-1.18 12.56,-3.08 18.04,-5.49 5.48,-2.42 10.52,-5.35 15.34,-8.65 4.81,-3.29 9.4,-6.95 14.23,-11.6 4.83,-4.65 9.9,-10.29 14.18,-15.95 4.29,-5.66 7.77,-11.33 11.79,-18.93 4.01,-7.59 8.55,-17.11 12.5,-26.95 3.96,-9.84 7.33,-20.01 10.4,-32.21 3.06,-12.2 5.82,-26.44 7.27,-38.32 1.45,-11.89 1.61,-21.42 1.42,-30.46 -0.19,-9.05 -0.71,-17.6 -2.06,-30.08 -1.35,-12.48 -3.51,-28.88 -6.09,-44.02 -2.57,-15.14 -5.55,-29.01 -7.78,-38.13 -2.23,-9.12 -3.72,-13.5 -5.33,-16.48 -1.61,-2.98 -3.36,-4.56 -7.08,-6.26 -3.72,-1.7 -9.4,-3.53 -14.91,-4.86 -5.51,-1.33 -10.83,-2.17 -18.16,-2.67 -7.32,-0.51 -16.64,-0.69 -23.24,-0.45 -6.6,0.24 -10.47,0.89 -14.21,0.82 -3.73,-0.06 -7.34,-0.85 -10.65,-2.85 -3.32,-2.01 -6.35,-5.24 -8.29,-8.45 -1.94,-3.21 -2.8,-6.4 -2.82,-9.14 -0.02,-2.74 0.79,-5.04 2.08,-6.36 1.28,-1.32 3.05,-1.66 5.35,-1.44 2.29,0.22 5.11,1 8.31,2.3 3.2,1.29 6.78,3.1 10.57,4.43 3.79,1.32 7.8,2.17 12.5,2.76 4.71,0.59 10.11,0.94 16.56,1.62 6.44,0.68 13.93,1.7 20.97,2.67 7.05,0.97 13.65,1.88 18.92,2.96 5.28,1.07 9.22,2.3 12.98,4.59 3.76,2.29 7.34,5.63 10.12,9.73 2.79,4.1 4.78,8.96 6.67,15.01 1.9,6.04 3.71,13.26 5.2,21.89 1.49,8.63 2.67,18.67 4.5,33.66 1.83,14.99 4.32,34.93 5.81,49.94 1.5,15 2.01,25.07 3.07,30.54 1.06,5.47 2.66,6.33 4.18,7.64 1.53,1.3 2.98,3.04 3.57,7.26 0.59,4.2 0.31,10.88 -0.52,21.71 -0.83,10.83 -2.22,25.82 -3.07,38.34 -0.85,12.53 -1.16,22.59 -1.34,29.49 -0.18,6.91 -0.24,10.66 -2.32,15.03 -2.08,4.37 -6.18,9.35 -12.91,16.76 -6.73,7.42 -16.08,17.27 -22.9,24.1 -6.83,6.82 -11.13,10.61 -14.63,14.31 -3.5,3.71 -6.21,7.32 -6.78,10.65 -0.58,3.34 0.96,6.39 3.45,12.65 2.48,6.26 5.9,15.73 8.26,24.38 2.37,8.64 3.68,16.46 2.45,21.92 -1.22,5.46 -4.98,8.55 -10.29,11.88 -5.31,3.32 -12.16,6.87 -18.1,4.51 -5.95,-2.37 -10.99,-10.66 -16.43,-18.88 -5.43,-8.22 -11.28,-16.38 -17.01,-21.09 -5.73,-4.72 -11.35,-5.99 -22.92,-6.91 -11.57,-0.92 -29.09,-1.49 -40.38,-2.16 -11.28,-0.66 -16.32,-1.44 -22.29,-4.12 -5.97,-2.67 -12.86,-7.25 -20.69,-13.16 -7.84,-5.91 -16.61,-13.16 -26.44,-22.14 -9.82,-8.98 -20.69,-19.7 -30.68,-30.7 -9.99,-11.01 -19.09,-22.31 -29.86,-36.84 -10.77,-14.53 -23.21,-32.31 -34.07,-48.24 -10.86,-15.93 -20.13,-30.02 -26.4,-40.54 -6.26,-10.51 -9.51,-17.44 -11.72,-24.44 -2.2,-6.99 -3.36,-14.06 -3.91,-20.6 -0.56,-6.54 -0.52,-12.56 1.1,-18.38 1.62,-5.81 4.82,-11.42 9.58,-18.28 4.76,-6.86 11.07,-14.98 16.72,-21.95 5.64,-6.97 10.62,-12.8 13.73,-17.53 3.11,-4.72 4.36,-8.33 5.86,-11.44 1.49,-3.11 3.23,-5.72 5.44,-7.86 2.2,-2.14 4.87,-3.82 7.84,-4.17z"/>
    <path class="fil4 str0" d="M115.54 463.88c3.31,1.53 9.34,1.85 17.26,3.1 7.91,1.26 17.72,3.44 27.72,6.99 9.99,3.55 20.17,8.45 32.24,15.96 12.07,7.51 26.04,17.62 39.54,29.39 13.5,11.78 26.53,25.21 40.51,40.21 13.99,15 28.93,31.58 43.23,46.82 14.3,15.24 27.96,29.16 38.89,39.21 10.92,10.06 19.12,16.26 27.38,21.01 8.25,4.74 16.56,8.03 23.7,9.63 7.14,1.6 13.11,1.5 20.84,-0.72 7.72,-2.23 17.19,-6.59 25.7,-11.69 8.5,-5.1 16.04,-10.95 24.7,-19.21 8.67,-8.27 18.46,-18.97 27.04,-29.62 8.58,-10.64 15.93,-21.24 22.45,-30.86 6.52,-9.62 12.2,-18.26 15.42,-24.14 3.23,-5.89 3.99,-9.03 3.27,-13.36 -0.73,-4.33 -2.95,-9.85 -6.44,-18.71 -3.5,-8.85 -8.27,-21.04 -11.89,-30.94 -3.63,-9.89 -6.12,-17.49 -9.65,-19.92 -3.54,-2.42 -8.11,0.33 -11.03,2.43 -2.91,2.11 -4.16,3.55 -4.02,7.2 0.14,3.65 1.68,9.5 2.63,15.63 0.95,6.12 1.32,12.52 1.07,20.87 -0.25,8.35 -1.11,18.65 -3.11,28.91 -2,10.26 -5.14,20.46 -9.91,31.14 -4.77,10.67 -11.17,21.81 -18.81,31.7 -7.64,9.9 -16.53,18.56 -24.47,24.14 -7.94,5.58 -14.93,8.08 -23.51,8.51 -8.58,0.42 -18.75,-1.23 -30.17,-6.82 -11.41,-5.59 -24.07,-15.12 -36.86,-26.23 -12.78,-11.11 -25.68,-23.81 -39.57,-37.44 -13.9,-13.63 -28.78,-28.19 -45.99,-43.95 -17.22,-15.75 -36.77,-32.7 -52.78,-44.87 -16.02,-12.17 -28.51,-19.56 -39.07,-24.95 -10.56,-5.4 -19.2,-8.81 -29.97,-11.27 -10.78,-2.46 -23.69,-3.98 -31.51,-4.72 -7.83,-0.74 -10.57,-0.7 -11.28,1.02 -0.7,1.71 0.62,5.11 1.58,8.18 0.97,3.08 1.56,5.83 4.87,7.37z"/>
    <path class="fil4 str1" d="M40.31 394.56c-0.16,0.32 -1.34,0.95 -2.89,5.52 -1.55,4.57 -3.48,13.1 -4.08,22.11 -0.6,9.01 0.13,18.5 1.27,26.83 1.15,8.32 2.72,15.49 5.3,22.42 2.58,6.93 6.17,13.64 11.06,20.84 4.89,7.19 11.09,14.89 17.45,20.45 6.37,5.55 12.91,8.96 19.32,9.93 6.42,0.97 12.72,-0.51 17.56,-3.5 4.84,-2.99 8.21,-7.5 10.72,-12.91 2.51,-5.42 4.14,-11.74 4.95,-18.84 0.81,-7.1 0.79,-14.97 -0.39,-23.97 -1.18,-8.99 -3.52,-19.1 -7.16,-29.05 -3.64,-9.95 -8.59,-19.74 -14.19,-27.88 -5.6,-8.14 -11.87,-14.62 -18.11,-19 -6.25,-4.38 -12.47,-6.66 -18.43,-6.68 -5.95,-0.02 -11.64,2.22 -15.53,4.33 -3.88,2.1 -5.96,4.06 -7.06,5.54 -1.09,1.48 -1.21,2.48 -0.85,3 0.37,0.51 1.22,0.54 1.06,0.86z"/>
    <g>
     <g>
      <path class="fil3 str2" d="M72.56 426.38c-1.29,0.2 -2.59,0.4 -3.81,1.4 -1.22,0.99 -2.36,2.79 -3.11,4.98 -0.75,2.19 -1.1,4.78 -1.29,7.52 -0.2,2.74 -0.25,5.63 0.05,8.42 0.3,2.79 0.94,5.48 1.74,8.29 0.8,2.82 1.74,5.76 2.86,8.65 1.12,2.88 2.42,5.72 3.69,8.27 1.27,2.53 2.51,4.78 4.13,6.82 1.62,2.04 3.62,3.88 5.26,5.43 1.64,1.54 2.94,2.79 4.43,3.73 1.5,0.95 3.19,1.6 4.83,1.92 1.65,0.32 3.24,0.32 4.36,0.25 1.12,-0.07 1.77,-0.22 2.02,-0.85 0.25,-0.62 0.1,-1.71 0.03,-2.26 -0.08,-0.55 -0.08,-0.55 -0.08,-0.55"/>
      <path class="fil3 str2" d="M113.43 447.53c0.3,-0.39 0.61,-0.79 0.66,-0.66 0.06,0.14 -0.13,0.81 -0.62,1.24 -0.49,0.43 -1.28,0.62 -1.68,1.22 -0.39,0.6 -0.39,1.6 -0.32,2.75 0.08,1.13 0.23,2.41 0.31,3.65 0.07,1.23 0.07,2.43 0.24,3.42 0.17,0.98 0.51,1.76 0.92,2.18 0.42,0.43 0.91,0.5 1.29,1.1 0.37,0.61 0.64,1.73 0.78,2.29 0.13,0.57 0.13,0.57 0.13,0.57"/>
      <path class="fil3 str2" d="M108.57 464.84c-0.07,0.59 -0.14,1.19 -0.31,0.67 -0.17,-0.51 -0.44,-2.14 -0.19,-3.05 0.24,-0.92 0.99,-1.12 1.43,-2.43 0.43,-1.31 0.54,-3.73 -0.1,-5.3 -0.64,-1.57 -2.03,-2.28 -3.03,-3.29 -1,-1.02 -1.6,-2.33 -1.73,-3.12 -0.13,-0.79 0.22,-1.05 0.39,-1.18 0.17,-0.14 0.17,-0.14 0.17,-0.14"/>
      <path class="fil3 str2" d="M551.36 272.2c-0.25,6.92 -0.5,13.84 -0.85,20.62 -0.35,6.77 -0.8,13.39 -1.39,19.94 -0.6,6.55 -1.35,13.03 -3.07,17.68 -1.71,4.66 -4.4,7.5 -7.27,11.14 -2.86,3.63 -5.9,8.06 -9.66,13.12 -3.76,5.05 -8.24,10.73 -12.8,17.16 -4.56,6.42 -9.19,13.59 -12.95,19.74 -3.76,6.15 -6.65,11.28 -8.51,14.97 -1.87,3.69 -2.72,5.93 -3.17,7.2 -0.44,1.27 -0.5,1.56 0.05,1.69 0.55,0.12 1.7,0.07 2.29,-0.45 0.6,-0.52 0.65,-1.52 1.23,-2.16 0.57,-0.65 1.66,-0.95 3.02,-0.85 1.35,0.1 2.97,0.6 4.58,1.09"/>
      <path class="fil3 str2" d="M555.88 217.24c1.13,2.83 2.27,5.66 3.58,7.67 1.31,2.02 2.81,3.21 4.03,4.36 1.22,1.14 2.16,2.24 2.44,4.43 0.27,2.19 -0.13,5.48 -0.5,10.26 -0.37,4.78 -0.72,11.06 -1.1,17.06 -0.37,6 -0.77,11.73 -1.34,16.93 -0.57,5.2 -1.32,9.89 -1.87,14.89 -0.55,5.01 -0.9,10.34 -1.09,16.54 -0.2,6.2 -0.25,13.27 -0.28,18.25 -0.02,4.98 -0.02,7.87 -0.02,9.56 0,1.7 0,2.19 -2.09,4.81 -2.1,2.61 -6.28,7.34 -10.37,11.83 -4.08,4.48 -8.06,8.71 -12.22,13.22 -4.16,4.51 -8.49,9.29 -12.3,13.02 -3.81,3.74 -7.1,6.43 -9.99,8.87 -2.89,2.44 -5.38,4.63 -6.97,7.87 -1.6,3.23 -2.29,7.52 -2.63,10.92 -0.34,3.39 -0.32,5.91 -0.3,8.42"/>
      <path class="fil3 str2" d="M555.53 220.38c-0.1,4.77 -0.19,9.54 -0.29,16.09 -0.1,6.54 -0.2,14.86 -0.25,19.02 -0.05,4.16 -0.05,4.16 -0.05,4.16"/>
      <path class="fil3 str2" d="M426.44 38.52c2.81,1.42 5.62,2.83 7.79,3.94 2.16,1.1 3.67,1.89 5.32,2.68 1.65,0.79 3.42,1.58 5.83,2.01 2.4,0.43 5.43,0.49 8.49,0.59 3.07,0.1 6.16,0.23 9.33,0.5 3.16,0.26 6.38,0.66 9.15,1.05 2.77,0.4 5.07,0.79 7.9,1.19 2.84,0.39 6.19,0.79 9.98,1.28 3.79,0.49 8,1.09 11.66,1.62 3.65,0.52 6.75,0.98 9.45,1.28 2.7,0.3 5,0.43 7.51,1.65 2.5,1.21 5.2,3.52 7.7,6.22 2.51,2.7 4.81,5.8 6.79,9.12 1.97,3.33 3.62,6.88 5.23,11.16 1.62,4.29 3.2,9.29 4.32,14.96 1.12,5.66 1.78,11.98 2.57,19.1 0.79,7.11 1.71,15.01 2.63,22.22 0.92,7.22 1.85,13.74 2.6,20.82 0.76,7.08 1.35,14.72 2.24,24.4 0.89,9.68 2.08,21.4 2.64,28.02 0.56,6.62 0.49,8.14 -1.09,9.42 -1.58,1.29 -4.68,2.34 -7.38,3 -2.7,0.66 -5,0.92 -7.01,0.98 -2,0.06 -3.7,-0.08 -4.55,-0.15 -0.85,-0.07 -0.85,-0.07 -0.85,-0.07"/>
      <path class="fil3 str2" d="M461.15 64.7c-5.4,-0.06 -10.8,-0.13 -14.45,0.23 -3.66,0.37 -5.57,1.16 -7.87,1.58 -2.31,0.43 -5.01,0.5 -7.51,0.24 -2.51,-0.27 -4.81,-0.86 -7.05,-2.21 -2.24,-1.35 -4.41,-3.46 -6.19,-5.57 -1.78,-2.1 -3.16,-4.21 -4.12,-6.78 -0.95,-2.57 -1.48,-5.6 -1.31,-8.13 0.16,-2.54 1.02,-4.58 2.4,-5.67 1.38,-1.09 3.29,-1.22 5.3,-1.02 2.01,0.2 4.12,0.72 5.2,0.99 1.09,0.26 1.16,0.26 0.89,0.16 -0.26,-0.1 -0.85,-0.29 -1.02,0.33 -0.16,0.63 0.1,2.08 0.73,4.05 0.62,1.98 1.61,4.48 3.19,7.21 1.58,2.74 3.75,5.7 5.57,7.64 1.81,1.95 3.26,2.87 4.87,3.79 1.61,0.92 3.39,1.85 4.28,2.31 0.89,0.46 0.89,0.46 0.89,0.46"/>
      <path class="fil3 str2" d="M283.92 318.05c4.41,4.33 8.82,8.67 13.43,13.4 4.61,4.74 9.42,9.87 14.26,14.85 4.84,4.97 9.72,9.78 14.26,13.7 4.55,3.92 8.76,6.95 12.32,9.68 3.55,2.73 6.45,5.17 10.67,7.97 4.21,2.8 9.75,5.96 15.02,8.76 5.26,2.8 10.27,5.23 15.18,7.14 4.9,1.91 9.71,3.3 14.35,4.15 4.65,0.86 9.12,1.19 14.16,1.29 5.04,0.1 10.64,-0.04 15.45,-0.5 4.81,-0.46 8.82,-1.25 13.07,-2.47 4.25,-1.21 8.73,-2.86 13.14,-5 4.41,-2.14 8.76,-4.78 13.27,-7.94 4.51,-3.16 9.19,-6.85 13.77,-10.96 4.58,-4.12 9.05,-8.67 13.37,-14.4 4.31,-5.73 8.46,-12.64 12.31,-19.56 3.86,-6.91 7.41,-13.83 10.48,-20.87 3.06,-7.05 5.63,-14.23 7.9,-20.92 2.27,-6.68 4.25,-12.87 6.09,-20.05 1.85,-7.18 3.56,-15.35 4.71,-21.34 1.15,-5.99 1.75,-9.81 2.31,-14.19 0.56,-4.38 1.08,-9.32 1.25,-15.28 0.16,-5.97 -0.03,-12.95 -0.46,-21.67 -0.43,-8.73 -1.09,-19.2 -2.08,-29.31 -0.98,-10.11 -2.3,-19.86 -3.72,-28.95 -1.41,-9.09 -2.93,-17.52 -4.48,-25.26 -1.55,-7.74 -3.13,-14.78 -4.61,-21.04 -1.48,-6.26 -2.86,-11.72 -4.18,-15.84 -1.32,-4.12 -2.57,-6.88 -6.22,-9.25 -3.66,-2.37 -9.72,-4.35 -16.3,-5.8 -6.59,-1.45 -13.7,-2.37 -20.82,-3.29"/>
      <path class="fil3 str2" d="M266.39 335.11c0.57,-1.02 1.15,-2.05 2.03,-2.49 0.88,-0.45 2.06,-0.32 2.62,-1.77 0.56,-1.45 0.5,-4.48 0.83,-6.06 0.32,-1.58 1.05,-1.71 1.71,-1.74 0.66,-0.03 1.25,0.03 1.58,-0.43 0.33,-0.46 0.39,-1.45 0.99,-2.17 0.59,-0.73 1.71,-1.19 3.03,-1.32 1.31,-0.13 2.83,0.06 3.82,-0.07 0.98,-0.13 1.44,-0.59 0.2,-2.46 -1.25,-1.86 -4.2,-5.13 -7.15,-8.4"/>
      <path class="fil3 str2" d="M238.47 123.39c-3.16,3.16 -6.32,6.32 -9.45,9.88 -3.13,3.55 -6.22,7.5 -9.29,11.23 -3.06,3.72 -6.09,7.21 -8.46,10.24 -2.37,3.03 -4.08,5.6 -5.53,8.66 -1.45,3.06 -2.64,6.62 -3.43,9.84 -0.79,3.23 -1.18,6.13 -1.25,9.75 -0.06,3.62 0.2,7.97 1.06,12.52 0.85,4.54 2.3,9.28 4.11,13.66 1.81,4.38 3.99,8.4 6.33,12.68 2.33,4.28 4.84,8.83 8.13,14.13 3.29,5.3 7.38,11.36 11.72,17.62 4.35,6.25 8.96,12.71 14.03,19.23 5.07,6.52 10.61,13.1 15.41,18.7 4.81,5.6 8.89,10.21 11.23,12.91 2.34,2.7 2.93,3.49 2.97,3.76 0.03,0.26 -0.5,0 -0.89,1.38 -0.4,1.38 -0.66,4.41 -1.15,6.09 -0.5,1.68 -1.22,2.01 -2.08,2.11 -0.86,0.1 -1.84,-0.03 -2.34,0.36 -0.49,0.4 -0.49,1.32 -0.82,1.98 -0.33,0.66 -0.99,1.05 -1.32,1.64 -0.33,0.6 -0.33,1.39 -0.36,1.98 -0.03,0.59 -0.1,0.99 -1.4,1.25 -1.29,0.26 -3.81,0.4 -5.08,0.46 -1.26,0.07 -1.26,0.07 -1.26,0.07"/>
      <path class="fil3 str2" d="M451.8 437.48c-3.86,-1.49 -7.73,-2.98 -13.48,-3.76 -5.75,-0.78 -13.39,-0.85 -22.18,-1.01 -8.8,-0.16 -18.74,-0.43 -26.97,-0.73 -8.24,-0.29 -14.76,-0.62 -19.73,-2.1 -4.97,-1.49 -8.4,-4.12 -13.27,-7.71 -4.88,-3.59 -11.2,-8.13 -17.55,-13.17 -6.36,-5.04 -12.75,-10.57 -19.76,-17.03 -7.02,-6.45 -14.66,-13.83 -21.77,-21.07 -7.11,-7.25 -13.7,-14.36 -19.86,-21.84 -6.16,-7.47 -11.89,-15.31 -17.88,-23.54 -5.99,-8.23 -12.25,-16.86 -19.5,-27.3 -7.24,-10.44 -15.47,-22.69 -22.82,-33.66 -7.34,-10.96 -13.79,-20.64 -17.88,-27.07 -4.08,-6.42 -5.79,-9.58 -7.67,-13.4 -1.88,-3.82 -3.92,-8.3 -5.3,-12.58 -1.39,-4.28 -2.11,-8.36 -2.7,-13.34 -0.6,-4.97 -1.06,-10.83 -1.25,-15.74 -0.2,-4.9 -0.14,-8.86 1.51,-13.07 1.65,-4.22 4.87,-8.7 8.69,-13.93 3.82,-5.24 8.24,-11.23 13.67,-17.95 5.43,-6.72 11.89,-14.16 15.68,-18.51 3.78,-4.34 4.9,-5.6 5.63,-7.27 0.72,-1.68 1.05,-3.79 1.61,-5.87 0.56,-2.07 1.35,-4.11 2.47,-5.99 1.12,-1.88 2.57,-3.59 3.79,-4.9 1.22,-1.32 2.2,-2.25 3.49,-3.07 1.28,-0.82 2.86,-1.55 4.51,-1.97 1.65,-0.43 3.36,-0.57 5.07,0 1.71,0.55 3.43,1.81 4.71,2.96 1.28,1.15 2.14,2.2 2.87,3.85 0.72,1.65 1.31,3.89 1.61,6.23 0.3,2.33 0.3,4.77 0.03,6.91 -0.26,2.14 -0.79,3.99 -1.78,5.63 -0.99,1.65 -2.43,3.1 -4.01,4.71 -1.59,1.62 -3.3,3.39 -5.21,4.15 -1.91,0.76 -4.02,0.5 -5.46,0.33 -1.45,-0.16 -2.24,-0.23 -2.64,-1.28 -0.39,-1.06 -0.39,-3.1 -0.16,-4.68 0.23,-1.58 0.69,-2.7 1.25,-3.88 0.56,-1.19 1.22,-2.44 1.42,-4.75 0.19,-2.3 -0.07,-5.66 -0.52,-8.87 -0.44,-3.21 -1.07,-6.27 -1.38,-7.81 -0.31,-1.53 -0.31,-1.53 -0.31,-1.53 0,0 0,0 0,0"/>
      <path class="fil3 str2" d="M458.58 420.16c3.36,5.8 6.72,11.59 10.08,17.55 3.36,5.96 6.72,12.09 10.11,17.98 3.39,5.9 6.82,11.56 9.02,15.42 2.21,3.85 5.27,10.03 6.79,11.29"/>
      <path class="fil5 str2" d="M489.61 487.97c3.49,-1.48 8.75,-4.51 13.96,-7.51 5.2,-3 10.34,-5.96 13.73,-8.27 3.39,-2.3 5.04,-3.95 6.46,-5.07 1.41,-1.12 2.6,-1.71 1.21,-5.56 -1.38,-3.86 -5.33,-10.97 -8.66,-17.72 -3.32,-6.75 -6.02,-13.14 -8.1,-17.75 -2.07,-4.61 -3.52,-7.44 -4.41,-8.86 -0.89,-1.42 -1.22,-1.42 -2.11,-0.39 -0.89,1.02 -2.34,3.06 -2.99,4.21 -0.66,1.15 -0.53,1.42 0.55,3.26 1.09,1.85 3.13,5.27 5.44,9.58 2.3,4.32 4.87,9.52 6.91,14.26 2.05,4.75 3.56,9.03 4.48,12.09 0.92,3.06 1.25,4.91 0.96,6.39 -0.3,1.48 -1.22,2.6 -3.89,4.51 -2.67,1.91 -7.08,4.61 -11.2,7.08 -4.11,2.47 -7.93,4.71 -10.57,5.53 -2.63,0.83 -4.08,0.23 -6.06,-2.27 -1.97,-2.5 -4.47,-6.92 -7.47,-11.62 -3,-4.71 -6.49,-9.72 -9.72,-14.46 -3.22,-4.74 -6.19,-9.22 -8.76,-12.25 -2.56,-3.03 -4.74,-4.61 -5.96,-5.4 -1.21,-0.79 -1.48,-0.79 -1.61,-0.27 -0.13,0.53 -0.13,1.58 1.12,3.43 1.25,1.84 3.75,4.48 6.06,7.7 2.3,3.23 4.41,7.05 6.82,11.17 2.4,4.11 5.1,8.53 7.7,13.14 2.6,4.61 5.11,9.42 6.62,12.18 1.52,2.77 2.04,3.49 3.16,3.89 1.12,0.39 2.83,0.46 6.33,-1.02z"/>
      <path class="fil3 str2" d="M357.62 650.94c3.62,3.03 7.24,6.06 11.13,9.03 3.88,2.96 8.03,5.86 12.31,8.4 4.29,2.53 8.7,4.7 13.21,6.48 4.51,1.78 9.12,3.16 14.16,3.72 5.04,0.56 10.51,0.3 15.48,-0.62 4.97,-0.93 9.45,-2.51 14.06,-4.68 4.61,-2.17 9.35,-4.94 14.36,-8.4 5,-3.45 10.27,-7.6 15.28,-11.59 5,-3.98 9.75,-7.8 14.36,-12.18 4.6,-4.38 9.08,-9.32 13.2,-14.23 4.12,-4.91 7.87,-9.78 12.22,-15.8 4.35,-6.03 9.28,-13.21 13.5,-19.43 4.21,-6.23 7.71,-11.5 10.97,-16.37 3.26,-4.88 6.29,-9.35 8.72,-13.11 2.44,-3.75 4.28,-6.78 4.98,-9.58 0.69,-2.8 0.23,-5.37 -1.03,-8.76 -1.25,-3.39 -3.29,-7.61 -5.46,-12.25 -2.17,-4.64 -4.48,-9.72 -6.49,-14.75 -2.01,-5.04 -3.72,-10.05 -5.4,-14.89 -1.68,-4.84 -3.33,-9.52 -4.81,-13.86 -1.48,-4.35 -2.8,-8.37 -3.46,-10.34 -0.65,-1.98 -0.65,-1.91 -0.65,-1.85 0,0.07 0,0.13 0,0.2"/>
      <path class="fil3 str2" d="M504.42 502.36c0.53,7.51 1.06,15.01 1.16,21.57 0.1,6.55 -0.23,12.15 -0.86,17.42 -0.63,5.27 -1.55,10.21 -2.6,15.11 -1.05,4.91 -2.24,9.78 -3.95,14.89 -1.72,5.1 -3.96,10.44 -6.89,16.53 -2.93,6.09 -6.55,12.94 -10.6,19.36 -4.05,6.43 -8.53,12.42 -13.44,17.95 -4.9,5.53 -10.24,10.61 -15.51,14.49 -5.26,3.89 -10.47,6.59 -15.41,8.23 -4.94,1.65 -9.61,2.24 -14.49,2.38 -4.87,0.13 -9.94,-0.2 -14.26,-1.09 -4.31,-0.89 -7.87,-2.34 -11.39,-4.18 -3.52,-1.85 -7.02,-4.09 -11.46,-7.18 -4.45,-3.1 -9.85,-7.05 -15.94,-12.12 -6.09,-5.07 -12.88,-11.26 -20.84,-18.94 -7.97,-7.67 -17.13,-16.82 -25.2,-25.09 -8.06,-8.27 -15.05,-15.64 -21.6,-22.2 -6.55,-6.55 -12.68,-12.28 -18.28,-17.45 -5.6,-5.17 -10.67,-9.78 -16.03,-14.79 -5.37,-5 -11.04,-10.4 -16.83,-15.6 -5.8,-5.21 -11.73,-10.21 -17.62,-15.09 -5.89,-4.87 -11.76,-9.61 -17.91,-13.99 -6.16,-4.38 -12.62,-8.4 -19.24,-12.19 -6.62,-3.78 -13.4,-7.34 -19.89,-10.34 -6.49,-2.99 -12.67,-5.43 -18.9,-7.47 -6.22,-2.04 -12.48,-3.69 -18.64,-4.61 -6.16,-0.93 -12.22,-1.12 -17.78,-1.16 -5.57,-0.03 -10.64,0.1 -14.82,0.2 -4.18,0.1 -7.48,0.17 -9.98,0.46 -2.5,0.3 -4.21,0.83 -5.6,1.48 -1.38,0.66 -2.43,1.45 -2.86,3.3 -0.43,1.84 -0.23,4.74 0.06,7.21 0.3,2.47 0.7,4.51 3.26,5.53 2.57,1.02 7.32,1.02 11.27,0.92 3.95,-0.09 7.11,-0.29 10.29,-0.46 3.18,-0.17 6.37,-0.32 10.65,0.05 4.28,0.36 9.65,1.23 14.8,2.05 5.16,0.83 10.1,1.62 16.22,3.47 6.13,1.84 13.44,4.74 20.78,8.26 7.34,3.53 14.72,7.68 23.02,13.01 8.3,5.34 17.52,11.86 26.15,18.77 8.63,6.92 16.66,14.23 24.2,21.9 7.54,7.67 14.59,15.71 21.44,23.38 6.85,7.68 13.5,14.99 20.39,22.69 6.88,7.71 13.99,15.81 20.91,23.32 6.91,7.51 13.63,14.42 20.35,21.24 6.72,6.82 13.43,13.53 20.15,20.25"/>
      <path class="fil3 str2" d="M49.28 382.76c19.91,-12.09 48.31,9.52 63.44,48.25 2.05,5.24 3.74,10.53 5.1,15.79 -4.7,0 -8.99,0.12 -12.62,0.2 -4.18,0.1 -7.48,0.17 -9.98,0.46 -2.5,0.3 -4.21,0.83 -5.6,1.48 -1.38,0.66 -2.43,1.45 -2.86,3.3 -0.43,1.84 -0.23,4.74 0.06,7.21 0.3,2.47 0.7,4.51 3.26,5.53 2.57,1.02 7.32,1.02 11.27,0.92 3.95,-0.09 7.11,-0.29 10.29,-0.46 2.91,-0.16 5.84,-0.29 9.61,-0.03 2.87,26.27 -3.2,49.13 -17.19,57.61 -19.91,12.09 -48.31,-9.51 -63.44,-48.25 -15.13,-38.73 -11.26,-79.92 8.66,-92.01z"/>
      <path class="fil3 str2" d="M519.52 479.8c-0.74,-2.53 -1.48,-5.07 -2.22,-7.61"/>
      <path class="fil3 str2" d="M108.71 446.92c0.98,6.17 1.95,12.34 2.93,18.52"/>
      <path class="fil3 str2" d="M263.68 329.56c5.69,-5.98 11.39,-11.97 14.23,-14.96 2.85,-2.99 2.85,-2.99 2.85,-2.99"/>
      <path class="fil3 str2" d="M264.27 331.33c5.69,-5.98 11.38,-11.97 14.22,-14.96 2.85,-2.99 2.85,-2.99 2.85,-2.99"/>
      <path class="fil3 str2" d="M501.97 483.82c-1.14,0.18 -2.27,0.37 -2.15,0.98 0.11,0.6 1.48,1.63 2.28,3.04 0.79,1.42 1.02,3.23 1.14,4.13 0.11,0.9 0.11,0.9 0.11,0.9"/>
      <path class="fil3 str2" d="M504.43 394.08c-3.38,6.26 -6.75,12.51 -8.44,15.64 -1.69,3.13 -1.69,3.13 -1.69,3.13"/>
      <path class="fil3 str2" d="M507.98 391.69c-3.38,6.26 -6.75,12.51 -8.44,15.64 -1.69,3.13 -1.69,3.13 -1.69,3.13"/>
     </g>
     <path class="fil3 str1" d="M49.28 382.76c19.91,-12.09 48.31,9.52 63.44,48.25 2.05,5.24 3.74,10.53 5.1,15.79 -4.7,0 -8.99,0.12 -12.62,0.2 -4.18,0.1 -7.48,0.17 -9.98,0.46 -2.5,0.3 -4.21,0.83 -5.6,1.48 -1.38,0.66 -2.43,1.45 -2.86,3.3 -0.43,1.84 -0.23,4.74 0.06,7.21 0.3,2.47 0.7,4.51 3.26,5.53 2.57,1.02 7.32,1.02 11.27,0.92 3.95,-0.09 7.11,-0.29 10.29,-0.46 2.91,-0.16 5.84,-0.29 9.61,-0.03 2.87,26.27 -3.2,49.13 -17.19,57.61 -19.91,12.09 -48.31,-9.51 -63.44,-48.25 -15.13,-38.73 -11.26,-79.92 8.66,-92.01zm68.54 64.04c1.63,6.29 2.77,12.54 3.43,18.61 -3.77,-0.26 -6.7,-0.13 -9.61,0.03 -3.18,0.17 -6.34,0.37 -10.29,0.46 -3.95,0.1 -8.7,0.1 -11.27,-0.92 -2.56,-1.02 -2.96,-3.06 -3.26,-5.53 -0.29,-2.47 -0.49,-5.37 -0.06,-7.21 0.43,-1.85 1.48,-2.64 2.86,-3.3 1.39,-0.65 3.1,-1.18 5.6,-1.48 2.5,-0.29 5.8,-0.36 9.98,-0.46 3.63,-0.08 7.92,-0.2 12.62,-0.2zm386.6 55.56c0.53,7.51 1.06,15.01 1.16,21.57 0.1,6.55 -0.23,12.15 -0.86,17.42 -0.63,5.27 -1.55,10.21 -2.6,15.11 -1.05,4.91 -2.24,9.78 -3.95,14.89 -1.72,5.1 -3.96,10.44 -6.89,16.53 -2.93,6.09 -6.55,12.94 -10.6,19.36 -4.05,6.43 -8.53,12.42 -13.44,17.95 -4.9,5.53 -10.24,10.61 -15.51,14.49 -5.26,3.89 -10.47,6.59 -15.41,8.23 -4.94,1.65 -9.61,2.24 -14.49,2.38 -4.87,0.13 -9.94,-0.2 -14.26,-1.09 -4.31,-0.89 -7.87,-2.34 -11.39,-4.18 -3.52,-1.85 -7.02,-4.09 -11.46,-7.18 -4.45,-3.1 -9.85,-7.05 -15.94,-12.12 -6.09,-5.07 -12.88,-11.26 -20.84,-18.94 -7.97,-7.67 -17.13,-16.82 -25.2,-25.09 -8.06,-8.27 -15.05,-15.64 -21.6,-22.2 -6.55,-6.55 -12.68,-12.28 -18.28,-17.45 -5.6,-5.17 -10.67,-9.78 -16.03,-14.79 -5.37,-5 -11.04,-10.4 -16.83,-15.6 -5.8,-5.21 -11.73,-10.21 -17.62,-15.09 -5.89,-4.87 -11.76,-9.61 -17.91,-13.99 -6.16,-4.38 -12.62,-8.4 -19.24,-12.19 -6.62,-3.78 -13.4,-7.34 -19.89,-10.34 -6.49,-2.99 -12.67,-5.43 -18.9,-7.47 -6.22,-2.04 -12.48,-3.69 -18.64,-4.61 -6.16,-0.93 -12.22,-1.12 -17.78,-1.16 -5.57,-0.03 -10.64,0.1 -14.82,0.2 -4.18,0.1 -7.48,0.17 -9.98,0.46 -2.5,0.3 -4.21,0.83 -5.6,1.48 -1.38,0.66 -2.43,1.45 -2.86,3.3 -0.43,1.84 -0.23,4.74 0.06,7.21 0.3,2.47 0.7,4.51 3.26,5.53 2.57,1.02 7.32,1.02 11.27,0.92 3.95,-0.09 7.11,-0.29 10.29,-0.46 3.18,-0.17 6.37,-0.32 10.65,0.05 4.28,0.36 9.65,1.23 14.8,2.05 5.16,0.83 10.1,1.62 16.22,3.47 6.13,1.84 13.44,4.74 20.78,8.26 7.34,3.53 14.72,7.68 23.02,13.01 8.3,5.34 17.52,11.86 26.15,18.77 8.63,6.92 16.66,14.23 24.2,21.9 7.54,7.67 14.59,15.71 21.44,23.38 6.85,7.68 13.5,14.99 20.39,22.69 6.88,7.71 13.99,15.81 20.91,23.32 6.91,7.51 13.63,14.42 20.35,21.24 6.72,6.82 13.43,13.53 20.15,20.25m6.92 7.11c3.62,3.03 7.24,6.06 11.13,9.03 3.88,2.96 8.03,5.86 12.31,8.4 4.29,2.53 8.7,4.7 13.21,6.48 4.51,1.78 9.12,3.16 14.16,3.72 5.04,0.56 10.51,0.3 15.48,-0.62 4.97,-0.93 9.45,-2.51 14.06,-4.68 4.61,-2.17 9.35,-4.94 14.36,-8.4 5,-3.45 10.27,-7.6 15.28,-11.59 5,-3.98 9.75,-7.8 14.36,-12.18 4.6,-4.38 9.08,-9.32 13.2,-14.23 4.12,-4.91 7.87,-9.78 12.22,-15.8 4.35,-6.03 9.28,-13.21 13.5,-19.43 4.21,-6.23 7.71,-11.5 10.97,-16.37 3.26,-4.88 6.29,-9.35 8.72,-13.11 2.44,-3.75 4.28,-6.78 4.98,-9.58 0.69,-2.8 0.23,-5.37 -1.03,-8.76 -1.25,-3.39 -3.29,-7.61 -5.46,-12.25 -2.17,-4.64 -4.48,-9.72 -6.49,-14.75 -2.01,-5.04 -3.72,-10.05 -5.4,-14.89 -1.68,-4.84 -3.33,-9.52 -4.81,-13.86 -1.48,-4.35 -2.8,-8.37 -3.46,-10.34 -0.65,-1.98 -0.65,-1.91 -0.65,-1.85 0,0.07 0,0.13 0,0.2m-28.65 11.89c3.49,-1.48 8.75,-4.51 13.96,-7.51 5.2,-3 10.34,-5.96 13.73,-8.27 3.39,-2.3 5.04,-3.95 6.46,-5.07 1.41,-1.12 2.6,-1.71 1.21,-5.56 -1.38,-3.86 -5.33,-10.97 -8.66,-17.72 -3.32,-6.75 -6.02,-13.14 -8.1,-17.75 -2.07,-4.61 -3.52,-7.44 -4.41,-8.86 -0.89,-1.42 -1.22,-1.42 -2.11,-0.39 -0.89,1.02 -2.34,3.06 -2.99,4.21 -0.66,1.15 -0.53,1.42 0.55,3.26 1.09,1.85 3.13,5.27 5.44,9.58 2.3,4.32 4.87,9.52 6.91,14.26 2.05,4.75 3.56,9.03 4.48,12.09 0.92,3.06 1.25,4.91 0.96,6.39 -0.3,1.48 -1.22,2.6 -3.89,4.51 -2.67,1.91 -7.08,4.61 -11.2,7.08 -4.11,2.47 -7.93,4.71 -10.57,5.53 -2.63,0.83 -4.08,0.23 -6.06,-2.27 -1.97,-2.5 -4.47,-6.92 -7.47,-11.62 -3,-4.71 -6.49,-9.72 -9.72,-14.46 -3.22,-4.74 -6.19,-9.22 -8.76,-12.25 -2.56,-3.03 -4.74,-4.61 -5.96,-5.4 -1.21,-0.79 -1.48,-0.79 -1.61,-0.27 -0.13,0.53 -0.13,1.58 1.12,3.43 1.25,1.84 3.75,4.48 6.06,7.7 2.3,3.23 4.41,7.05 6.82,11.17 2.4,4.11 5.1,8.53 7.7,13.14 2.6,4.61 5.11,9.42 6.62,12.18 1.52,2.77 2.04,3.49 3.16,3.89 1.12,0.39 2.83,0.46 6.33,-1.02zm-31.03 -67.81c3.36,5.8 6.72,11.59 10.08,17.55 3.36,5.96 6.72,12.09 10.11,17.98 3.39,5.9 6.82,11.56 9.02,15.42 2.21,3.85 3.2,5.89 4.72,7.15 1.52,1.26 3.57,1.74 4.94,2.3 1.37,0.55 2.07,1.19 2.62,3.26 0.56,2.06 0.97,5.56 1.18,7.31 0.21,1.74 0.21,1.74 0.21,1.74 0,0 0,0 0,0m-49.66 -55.39c-3.86,-1.49 -7.73,-2.98 -13.48,-3.76 -5.75,-0.78 -13.39,-0.85 -22.18,-1.01 -8.8,-0.16 -18.74,-0.43 -26.97,-0.73 -8.24,-0.29 -14.76,-0.62 -19.73,-2.1 -4.97,-1.49 -8.4,-4.12 -13.27,-7.71 -4.88,-3.59 -11.2,-8.13 -17.55,-13.17 -6.36,-5.04 -12.75,-10.57 -19.76,-17.03 -7.02,-6.45 -14.66,-13.83 -21.77,-21.07 -7.11,-7.25 -13.7,-14.36 -19.86,-21.84 -6.16,-7.47 -11.89,-15.31 -17.88,-23.54 -5.99,-8.23 -12.25,-16.86 -19.5,-27.3 -7.24,-10.44 -15.47,-22.69 -22.82,-33.66 -7.34,-10.96 -13.79,-20.64 -17.88,-27.07 -4.08,-6.42 -5.79,-9.58 -7.67,-13.4 -1.88,-3.82 -3.92,-8.3 -5.3,-12.58 -1.39,-4.28 -2.11,-8.36 -2.7,-13.34 -0.6,-4.97 -1.06,-10.83 -1.25,-15.74 -0.2,-4.9 -0.14,-8.86 1.51,-13.07 1.65,-4.22 4.87,-8.7 8.69,-13.93 3.82,-5.24 8.24,-11.23 13.67,-17.95 5.43,-6.72 11.89,-14.16 15.68,-18.51 3.78,-4.34 4.9,-5.6 5.63,-7.27 0.72,-1.68 1.05,-3.79 1.61,-5.87 0.56,-2.07 1.35,-4.11 2.47,-5.99 1.12,-1.88 2.57,-3.59 3.79,-4.9 1.22,-1.32 2.2,-2.25 3.49,-3.07 1.28,-0.82 2.86,-1.55 4.51,-1.97 1.65,-0.43 3.36,-0.57 5.07,0 1.71,0.55 3.43,1.81 4.71,2.96 1.28,1.15 2.14,2.2 2.87,3.85 0.72,1.65 1.31,3.89 1.61,6.23 0.3,2.33 0.3,4.77 0.03,6.91 -0.26,2.14 -0.79,3.99 -1.78,5.63 -0.99,1.65 -2.43,3.1 -4.01,4.71 -1.59,1.62 -3.3,3.39 -5.21,4.15 -1.91,0.76 -4.02,0.5 -5.46,0.33 -1.45,-0.16 -2.24,-0.23 -2.64,-1.28 -0.39,-1.06 -0.39,-3.1 -0.16,-4.68 0.23,-1.58 0.69,-2.7 1.25,-3.88 0.56,-1.19 1.22,-2.44 1.42,-4.75 0.19,-2.3 -0.07,-5.66 -0.52,-8.87 -0.44,-3.21 -1.07,-6.27 -1.38,-7.81 -0.31,-1.53 -0.31,-1.53 -0.31,-1.53 0,0 0,0 0,0m-0.3 31.52c-3.16,3.16 -6.32,6.32 -9.45,9.88 -3.13,3.55 -6.22,7.5 -9.29,11.23 -3.06,3.72 -6.09,7.21 -8.46,10.24 -2.37,3.03 -4.08,5.6 -5.53,8.66 -1.45,3.06 -2.64,6.62 -3.43,9.84 -0.79,3.23 -1.18,6.13 -1.25,9.75 -0.06,3.62 0.2,7.97 1.06,12.52 0.85,4.54 2.3,9.28 4.11,13.66 1.81,4.38 3.99,8.4 6.33,12.68 2.33,4.28 4.84,8.83 8.13,14.13 3.29,5.3 7.38,11.36 11.72,17.62 4.35,6.25 8.96,12.71 14.03,19.23 5.07,6.52 10.61,13.1 15.41,18.7 4.81,5.6 8.89,10.21 11.23,12.91 2.34,2.7 2.93,3.49 2.97,3.76 0.03,0.26 -0.5,0 -0.89,1.38 -0.4,1.38 -0.66,4.41 -1.15,6.09 -0.5,1.68 -1.22,2.01 -2.08,2.11 -0.86,0.1 -1.84,-0.03 -2.34,0.36 -0.49,0.4 -0.49,1.32 -0.82,1.98 -0.33,0.66 -0.99,1.05 -1.32,1.64 -0.33,0.6 -0.33,1.39 -0.36,1.98 -0.03,0.59 -0.1,0.99 -1.4,1.25 -1.29,0.26 -3.81,0.4 -5.08,0.46 -1.26,0.07 -1.26,0.07 -1.26,0.07m7.04 9.59c0.57,-1.02 1.15,-2.05 2.03,-2.49 0.88,-0.45 2.06,-0.32 2.62,-1.77 0.56,-1.45 0.5,-4.48 0.83,-6.06 0.32,-1.58 1.05,-1.71 1.71,-1.74 0.66,-0.03 1.25,0.03 1.58,-0.43 0.33,-0.46 0.39,-1.45 0.99,-2.17 0.59,-0.73 1.71,-1.19 3.03,-1.32 1.31,-0.13 2.83,0.06 3.82,-0.07 0.98,-0.13 1.44,-0.59 0.2,-2.46 -1.25,-1.86 -4.2,-5.13 -7.15,-8.4m7.87 9.85c4.41,4.33 8.82,8.67 13.43,13.4 4.61,4.74 9.42,9.87 14.26,14.85 4.84,4.97 9.72,9.78 14.26,13.7 4.55,3.92 8.76,6.95 12.32,9.68 3.55,2.73 6.45,5.17 10.67,7.97 4.21,2.8 9.75,5.96 15.02,8.76 5.26,2.8 10.27,5.23 15.18,7.14 4.9,1.91 9.71,3.3 14.35,4.15 4.65,0.86 9.12,1.19 14.16,1.29 5.04,0.1 10.64,-0.04 15.45,-0.5 4.81,-0.46 8.82,-1.25 13.07,-2.47 4.25,-1.21 8.73,-2.86 13.14,-5 4.41,-2.14 8.76,-4.78 13.27,-7.94 4.51,-3.16 9.19,-6.85 13.77,-10.96 4.58,-4.12 9.05,-8.67 13.37,-14.4 4.31,-5.73 8.46,-12.64 12.31,-19.56 3.86,-6.91 7.41,-13.83 10.48,-20.87 3.06,-7.05 5.63,-14.23 7.9,-20.92 2.27,-6.68 4.25,-12.87 6.09,-20.05 1.85,-7.18 3.56,-15.35 4.71,-21.34 1.15,-5.99 1.75,-9.81 2.31,-14.19 0.56,-4.38 1.08,-9.32 1.25,-15.28 0.16,-5.97 -0.03,-12.95 -0.46,-21.67 -0.43,-8.73 -1.09,-19.2 -2.08,-29.31 -0.98,-10.11 -2.3,-19.86 -3.72,-28.95 -1.41,-9.09 -2.93,-17.52 -4.48,-25.26 -1.55,-7.74 -3.13,-14.78 -4.61,-21.04 -1.48,-6.26 -2.86,-11.72 -4.18,-15.84 -1.32,-4.12 -2.57,-6.88 -6.22,-9.25 -3.66,-2.37 -9.72,-4.35 -16.3,-5.8 -6.59,-1.45 -13.7,-2.37 -20.82,-3.29m-10.67 -0.4c-5.4,-0.06 -10.8,-0.13 -14.45,0.23 -3.66,0.37 -5.57,1.16 -7.87,1.58 -2.31,0.43 -5.01,0.5 -7.51,0.24 -2.51,-0.27 -4.81,-0.86 -7.05,-2.21 -2.24,-1.35 -4.41,-3.46 -6.19,-5.57 -1.78,-2.1 -3.16,-4.21 -4.12,-6.78 -0.95,-2.57 -1.48,-5.6 -1.31,-8.13 0.16,-2.54 1.02,-4.58 2.4,-5.67 1.38,-1.09 3.29,-1.22 5.3,-1.02 2.01,0.2 4.12,0.72 5.2,0.99 1.09,0.26 1.16,0.26 0.89,0.16 -0.26,-0.1 -0.85,-0.29 -1.02,0.33 -0.16,0.63 0.1,2.08 0.73,4.05 0.62,1.98 1.61,4.48 3.19,7.21 1.58,2.74 3.75,5.7 5.57,7.64 1.81,1.95 3.26,2.87 4.87,3.79 1.61,0.92 3.39,1.85 4.28,2.31 0.89,0.46 0.89,0.46 0.89,0.46m-18.51 -25.79c2.81,1.42 5.62,2.83 7.79,3.94 2.16,1.1 3.67,1.89 5.32,2.68 1.65,0.79 3.42,1.58 5.83,2.01 2.4,0.43 5.43,0.49 8.49,0.59 3.07,0.1 6.16,0.23 9.33,0.5 3.16,0.26 6.38,0.66 9.15,1.05 2.77,0.4 5.07,0.79 7.9,1.19 2.84,0.39 6.19,0.79 9.98,1.28 3.79,0.49 8,1.09 11.66,1.62 3.65,0.52 6.75,0.98 9.45,1.28 2.7,0.3 5,0.43 7.51,1.65 2.5,1.21 5.2,3.52 7.7,6.22 2.51,2.7 4.81,5.8 6.79,9.12 1.97,3.33 3.62,6.88 5.23,11.16 1.62,4.29 3.2,9.29 4.32,14.96 1.12,5.66 1.78,11.98 2.57,19.1 0.79,7.11 1.71,15.01 2.63,22.22 0.92,7.22 1.85,13.74 2.6,20.82 0.76,7.08 1.35,14.72 2.24,24.4 0.89,9.68 2.08,21.4 2.64,28.02 0.56,6.62 0.49,8.14 -1.09,9.42 -1.58,1.29 -4.68,2.34 -7.38,3 -2.7,0.66 -5,0.92 -7.01,0.98 -2,0.06 -3.7,-0.08 -4.55,-0.15 -0.85,-0.07 -0.85,-0.07 -0.85,-0.07m20.84 -5.13c-0.1,4.77 -0.19,9.54 -0.29,16.09 -0.1,6.54 -0.2,14.86 -0.25,19.02 -0.05,4.16 -0.05,4.16 -0.05,4.16m0.94 -42.41c1.13,2.83 2.27,5.66 3.58,7.67 1.31,2.02 2.81,3.21 4.03,4.36 1.22,1.14 2.16,2.24 2.44,4.43 0.27,2.19 -0.13,5.48 -0.5,10.26 -0.37,4.78 -0.72,11.06 -1.1,17.06 -0.37,6 -0.77,11.73 -1.34,16.93 -0.57,5.2 -1.32,9.89 -1.87,14.89 -0.55,5.01 -0.9,10.34 -1.09,16.54 -0.2,6.2 -0.25,13.27 -0.28,18.25 -0.02,4.98 -0.02,7.87 -0.02,9.56 0,1.7 0,2.19 -2.09,4.81 -2.1,2.61 -6.28,7.34 -10.37,11.83 -4.08,4.48 -8.06,8.71 -12.22,13.22 -4.16,4.51 -8.49,9.29 -12.3,13.02 -3.81,3.74 -7.1,6.43 -9.99,8.87 -2.89,2.44 -5.38,4.63 -6.97,7.87 -1.6,3.23 -2.29,7.52 -2.63,10.92 -0.34,3.39 -0.32,5.91 -0.3,8.42m48.5 -143.95c-0.25,6.92 -0.5,13.84 -0.85,20.62 -0.35,6.77 -0.8,13.39 -1.39,19.94 -0.6,6.55 -1.35,13.03 -3.07,17.68 -1.71,4.66 -4.4,7.5 -7.27,11.14 -2.86,3.63 -5.9,8.06 -9.66,13.12 -3.76,5.05 -8.24,10.73 -12.8,17.16 -4.56,6.42 -9.19,13.59 -12.95,19.74 -3.76,6.15 -6.65,11.28 -8.51,14.97 -1.87,3.69 -2.72,5.93 -3.17,7.2 -0.44,1.27 -0.5,1.56 0.05,1.69 0.55,0.12 1.7,0.07 2.29,-0.45 0.6,-0.52 0.65,-1.52 1.23,-2.16 0.57,-0.65 1.66,-0.95 3.02,-0.85 1.35,0.1 2.97,0.6 4.58,1.09m-394.29 50.83c-0.07,0.56 -0.14,1.13 -0.31,0.64 -0.17,-0.49 -0.44,-2.04 -0.19,-2.9 0.24,-0.87 0.99,-1.06 1.43,-2.3 0.43,-1.24 0.54,-3.54 -0.1,-5.03 -0.64,-1.48 -2.03,-2.16 -3.03,-3.12 -1,-0.96 -1.6,-2.21 -1.73,-2.96 -0.13,-0.74 0.22,-1 0.39,-1.12 0.17,-0.13 0.17,-0.13 0.17,-0.13m8.23 0.99c0.3,-0.39 0.61,-0.78 0.66,-0.65 0.06,0.13 -0.13,0.79 -0.62,1.21 -0.49,0.42 -1.28,0.6 -1.68,1.19 -0.39,0.58 -0.39,1.56 -0.32,2.67 0.08,1.11 0.23,2.36 0.31,3.56 0.07,1.21 0.07,2.37 0.24,3.34 0.17,0.96 0.51,1.71 0.92,2.12 0.42,0.42 0.91,0.49 1.29,1.08 0.37,0.58 0.64,1.68 0.78,2.23 0.13,0.55 0.13,0.55 0.13,0.55m-42.58 -38.91c-1.29,0.2 -2.59,0.4 -3.81,1.4 -1.22,0.99 -2.36,2.79 -3.11,4.98 -0.75,2.19 -1.1,4.78 -1.29,7.52 -0.2,2.74 -0.25,5.63 0.05,8.42 0.3,2.79 0.94,5.48 1.74,8.29 0.8,2.82 1.74,5.76 2.86,8.65 1.12,2.88 2.42,5.72 3.69,8.27 1.27,2.53 2.51,4.78 4.13,6.82 1.62,2.04 3.62,3.88 5.26,5.43 1.64,1.54 2.94,2.79 4.43,3.73 1.5,0.95 3.19,1.6 4.83,1.92 1.65,0.32 3.24,0.32 4.36,0.25 1.12,-0.07 1.77,-0.22 2.02,-0.85 0.25,-0.62 0.1,-1.71 0.03,-2.26 -0.08,-0.55 -0.08,-0.55 -0.08,-0.55"/>
     <path class="fil3 str1" d="M502.44 393.14c4.13,-1.98 8.26,-3.96 10.18,-4.83 1.93,-0.87 1.64,-0.64 1.36,-0.4"/>
    </g>
    <rect class="fil4" x="116.88" y="449.18" width="6.5" height="13.71"/>
   </g>
  </g>
 </g>
</svg>
