<?xml version="1.0" encoding="UTF-8"?>
<svg xmlns="http://www.w3.org/2000/svg" xmlns:xlink="http://www.w3.org/1999/xlink" width="175px" height="60px" viewBox="0 0 175 60" version="1.1">
<g id="surface1">
<path style="fill:none;stroke-width:5.91;stroke-linecap:butt;stroke-linejoin:miter;stroke:rgb(21.568627%,20.392157%,20.784314%);stroke-opacity:1;stroke-miterlimit:22.9256;" d="M -167.894637 334.418068 C -168.175535 343.063424 -168.512613 351.708779 -168.90587 360.185719 C -169.355307 368.60652 -169.917103 376.858904 -170.647438 385.05515 C -171.433953 393.195258 -172.332826 401.279227 -174.467651 407.117648 C -176.658656 412.899932 -179.973253 416.436668 -183.568748 420.9839 C -187.164243 425.531133 -190.928277 431.032723 -195.647364 437.376393 C -200.310271 443.663924 -205.928232 450.737396 -211.602373 458.765227 C -217.276513 466.793057 -223.063013 475.719105 -227.72592 483.410104 C -232.445007 491.101102 -236.040502 497.50091 -238.400046 502.104281 C -240.70341 506.707652 -241.770822 509.514586 -242.332618 511.086469 C -242.894414 512.658352 -242.950594 513.051322 -242.276439 513.1636 C -241.546104 513.332016 -240.141614 513.275877 -239.411279 512.602213 C -238.680944 511.984687 -238.568584 510.749637 -237.894429 509.907557 C -237.164094 509.121615 -235.815784 508.728645 -234.130395 508.897061 C -232.445007 509.009338 -230.422541 509.626863 -228.400075 510.244389 " transform="matrix(0.0695315,0,0,0.0695822,0.0294275,0)"/>
<path style="fill:none;stroke-width:5.91;stroke-linecap:butt;stroke-linejoin:miter;stroke:rgb(21.568627%,20.392157%,20.784314%);stroke-opacity:1;stroke-miterlimit:22.9256;" d="M -162.220497 265.87275 C -160.816007 269.409486 -159.411516 272.946223 -157.782308 275.416324 C -156.153099 277.942564 -154.242992 279.40217 -152.726143 280.861775 C -151.209294 282.265242 -150.029522 283.668709 -149.692444 286.419504 C -149.355367 289.11416 -149.860983 293.212283 -150.31042 299.219121 C -150.816036 305.16982 -151.209294 312.973096 -151.71491 320.495678 C -152.164347 327.962121 -152.669963 335.091732 -153.344119 341.603818 C -154.074454 348.115904 -155.029507 353.954326 -155.703662 360.185719 C -156.377818 366.417111 -156.827254 373.097613 -157.051973 380.84475 C -157.332871 388.535748 -157.389051 397.405658 -157.389051 403.580912 C -157.44523 409.812305 -157.44523 413.40518 -157.44523 415.538449 C -157.44523 417.61558 -157.44523 418.233105 -160.029492 421.545287 C -162.669934 424.80133 -167.894637 430.695891 -172.950802 436.253619 C -178.063146 441.867486 -183.063132 447.144521 -188.231655 452.758389 C -193.400179 458.372256 -198.793422 464.379094 -203.568689 469.038604 C -208.343955 473.698113 -212.445067 477.066434 -216.040562 480.097922 C -219.636056 483.12941 -222.725935 485.880205 -224.748401 489.922189 C -226.714687 493.964174 -227.613561 499.297348 -228.006818 503.563887 C -228.456255 507.774287 -228.400075 510.918053 -228.400075 514.061818 " transform="matrix(0.0695315,0,0,0.0695822,0.0294275,0)"/>
<path style="fill:none;stroke-width:5.91;stroke-linecap:butt;stroke-linejoin:miter;stroke:rgb(21.568627%,20.392157%,20.784314%);stroke-opacity:1;stroke-miterlimit:22.9256;" d="M -162.669934 269.746318 C -162.782293 275.753156 -162.894652 281.703855 -163.007011 289.843963 C -163.17555 297.98407 -163.287909 308.369725 -163.344089 313.590621 C -163.400269 318.755379 -163.400269 318.755379 -163.400269 318.755379 " transform="matrix(0.0695315,0,0,0.0695822,0.0294275,0)"/>
<path style="fill:none;stroke-width:5.91;stroke-linecap:butt;stroke-linejoin:miter;stroke:rgb(21.568627%,20.392157%,20.784314%);stroke-opacity:1;stroke-miterlimit:22.9256;" d="M -323.736871 42.889945 C -320.253735 44.630244 -316.71442 46.426682 -314.017798 47.77401 C -311.321177 49.177477 -309.46725 50.131834 -307.388605 51.14233 C -305.309959 52.096687 -303.118954 53.107184 -300.085256 53.612432 C -297.107736 54.173818 -293.343703 54.229957 -289.523489 54.342234 C -285.703276 54.51065 -281.826883 54.679066 -277.89431 55.015898 C -273.961738 55.296592 -269.916806 55.80184 -266.43367 56.307088 C -263.006714 56.812336 -260.141554 57.317584 -256.602239 57.766693 C -253.062923 58.271941 -248.849453 58.777189 -244.130366 59.394715 C -239.411279 60.01224 -234.186575 60.742043 -229.579847 61.415707 C -225.029299 62.033232 -221.152906 62.650758 -217.782129 62.98759 C -214.467533 63.380561 -211.546193 63.548977 -208.456314 65.064721 C -205.310256 66.580465 -201.93948 69.443537 -198.793422 72.811857 C -195.703543 76.180178 -192.838383 80.053746 -190.366481 84.208008 C -187.894578 88.36227 -185.815932 92.797225 -183.849646 98.130398 C -181.82718 103.463572 -179.860894 109.694965 -178.456404 116.768437 C -177.051913 123.84191 -176.209219 131.757463 -175.254166 140.627373 C -174.242933 149.497283 -173.119341 159.377689 -171.939569 168.359877 C -170.815977 177.342064 -169.636205 185.482172 -168.737331 194.295943 C -167.782278 203.165854 -166.995764 212.709428 -165.928351 224.779242 C -164.804759 236.849057 -163.344089 251.50125 -162.613754 259.753635 C -161.939599 268.00602 -161.995778 269.914734 -163.962065 271.486617 C -165.928351 273.114639 -169.804744 274.405828 -173.17552 275.247908 C -176.546297 276.03385 -179.411457 276.370682 -181.939539 276.42682 C -184.411442 276.539098 -186.546267 276.370682 -187.61368 276.258404 C -188.681092 276.146127 -188.681092 276.146127 -188.681092 276.146127 " transform="matrix(0.0695315,0,0,0.0695822,0.0294275,0)"/>
<path style="fill:none;stroke-width:5.91;stroke-linecap:butt;stroke-linejoin:miter;stroke:rgb(21.568627%,20.392157%,20.784314%);stroke-opacity:1;stroke-miterlimit:22.9256;" d="M -501.545331 391.623375 C -496.039729 397.068826 -490.534128 402.458139 -484.803807 408.352699 C -479.073487 414.24726 -473.062269 420.703207 -466.994872 426.878461 C -460.983654 433.109854 -454.916256 439.116691 -449.242115 444.000756 C -443.567975 448.88482 -438.287092 452.646111 -433.848903 456.07057 C -429.410714 459.495029 -425.815219 462.526518 -420.534336 466.007115 C -415.253452 469.487713 -408.39954 473.41742 -401.826526 476.954156 C -395.253512 480.434754 -389.017575 483.466242 -382.837818 485.824066 C -376.714241 488.238029 -370.759203 489.978328 -364.972703 491.044963 C -359.130024 492.111598 -353.568243 492.504568 -347.276126 492.616846 C -340.98401 492.729123 -334.017739 492.616846 -328.006521 491.99932 C -321.995303 491.437934 -316.995318 490.427437 -311.714434 488.911693 C -306.377372 487.395949 -300.81559 485.374957 -295.309989 482.680301 C -289.804387 480.041783 -284.354965 476.729602 -278.737004 472.799895 C -273.119044 468.814049 -267.276364 464.266816 -261.546044 459.102059 C -255.871904 453.993439 -250.253943 448.267295 -244.91688 441.137684 C -239.523638 434.008072 -234.355114 425.362717 -229.523668 416.717361 C -224.692221 408.128145 -220.254032 399.482789 -216.433819 390.669018 C -212.613605 381.911385 -209.411368 372.929197 -206.602387 364.620674 C -203.737227 356.256012 -201.265325 348.508875 -198.961961 339.582826 C -196.714776 330.600639 -194.523772 320.439539 -193.119281 312.973096 C -191.658612 305.450514 -190.928277 300.678727 -190.254121 295.233275 C -189.523786 289.787824 -188.905811 283.61257 -188.681092 276.146127 C -188.456374 268.735822 -188.737272 260.034328 -189.242888 249.143426 C -189.804685 238.252523 -190.591199 225.172213 -191.82715 212.59715 C -193.063102 199.965949 -194.69231 187.783857 -196.490058 176.443846 C -198.231626 165.103834 -200.141732 154.605902 -202.051839 144.950051 C -204.018125 135.294199 -205.984412 126.480428 -207.838339 118.677152 C -209.692266 110.873877 -211.377654 104.024959 -213.063042 98.91634 C -214.692251 93.807721 -216.26528 90.327123 -220.815828 87.351773 C -225.366377 84.432562 -232.950624 81.962461 -241.152846 80.109885 C -249.355069 78.313447 -258.231447 77.190674 -267.107825 76.011762 " transform="matrix(0.0695315,0,0,0.0695822,0.0294275,0)"/>
<path style="fill:none;stroke-width:5.91;stroke-linecap:butt;stroke-linejoin:miter;stroke:rgb(21.568627%,20.392157%,20.784314%);stroke-opacity:1;stroke-miterlimit:22.9256;" d="M -409.635492 806.993408 C -405.084943 810.810838 -400.590575 814.572129 -395.702949 818.277281 C -390.871502 821.982434 -385.702979 825.575309 -380.365916 828.719074 C -375.028853 831.918979 -369.523251 834.613635 -363.905291 836.859182 C -358.23115 839.04859 -352.50083 840.788889 -346.208714 841.462553 C -339.916598 842.192355 -333.118865 841.855523 -326.882929 840.676611 C -320.703172 839.553838 -315.085211 837.588984 -309.354891 834.838189 C -303.624571 832.143533 -297.669532 828.719074 -291.433596 824.396396 C -285.197659 820.073719 -278.624645 814.908961 -272.388709 809.912619 C -266.152772 804.972416 -260.197734 800.200629 -254.467414 794.699039 C -248.737094 789.253588 -243.119133 783.078334 -238.006788 776.959219 C -232.838264 770.840104 -228.175357 764.777127 -222.725935 757.254545 C -217.332693 749.731963 -211.152936 740.749775 -205.872052 733.002639 C -200.647349 725.255502 -196.265339 718.687277 -192.220408 712.568162 C -188.119296 706.505186 -184.355263 700.891318 -181.321564 696.231809 C -178.287865 691.51616 -175.984501 687.754869 -175.085627 684.274271 C -174.242933 680.793674 -174.804729 677.59377 -176.377758 673.32723 C -177.950787 669.11683 -180.47887 663.839795 -183.23167 658.057512 C -185.928292 652.275229 -188.793452 645.931559 -191.321534 639.644027 C -193.793437 633.356496 -195.928262 627.125104 -198.063087 621.062127 C -200.141732 615.055289 -202.164198 609.216867 -204.018125 603.771416 C -205.872052 598.325965 -207.557441 593.329623 -208.343955 590.859521 C -209.186649 588.38942 -209.186649 588.501697 -209.186649 588.557836 C -209.186649 588.670113 -209.186649 588.726252 -209.186649 588.838529 " transform="matrix(0.0695315,0,0,0.0695822,0.0294275,0)"/>
<path style=" stroke:none;fill-rule:nonzero;fill:rgb(94.901961%,50.588235%,8.627451%);fill-opacity:1;" d="M 70.679688 32.402344 C 72.628906 32.074219 74.183594 31.222656 75.34375 29.84375 C 76.503906 28.46875 77.089844 26.796875 77.089844 24.832031 C 77.089844 22.625 76.335938 20.792969 74.839844 19.34375 C 73.34375 17.898438 71.402344 17.175781 69.015625 17.175781 C 66.628906 17.175781 64.695312 17.898438 63.222656 19.34375 C 61.746094 20.792969 61 22.625 61 24.84375 C 61 26.796875 61.566406 28.449219 62.683594 29.816406 C 63.804688 31.183594 65.320312 32.042969 67.230469 32.394531 C 68.191406 34.769531 70.113281 35.957031 72.996094 35.957031 C 74.3125 35.957031 75.421875 35.714844 76.324219 35.242188 L 75.355469 32.433594 C 75.027344 32.664062 74.574219 32.851562 73.976562 33.003906 C 73.382812 33.152344 72.757812 33.195312 72.113281 33.113281 C 71.472656 33.035156 70.996094 32.800781 70.6875 32.414062 Z M 64.941406 24.84375 C 64.941406 23.6875 65.339844 22.714844 66.125 21.941406 C 66.902344 21.167969 67.875 20.78125 69.035156 20.78125 C 70.195312 20.78125 71.164062 21.167969 71.945312 21.941406 C 72.730469 22.714844 73.125 23.6875 73.125 24.84375 C 73.125 26.019531 72.730469 27.011719 71.945312 27.804688 C 71.164062 28.601562 70.195312 28.996094 69.035156 28.996094 C 67.875 28.996094 66.902344 28.601562 66.125 27.804688 C 65.339844 27.011719 64.941406 26.03125 64.941406 24.851562 Z M 87.054688 20.75 L 87.054688 27.003906 C 87.054688 27.632812 86.84375 28.136719 86.429688 28.523438 C 86.011719 28.910156 85.488281 29.105469 84.855469 29.105469 C 84.230469 29.105469 83.726562 28.917969 83.347656 28.542969 C 82.972656 28.167969 82.785156 27.660156 82.785156 27.015625 L 82.785156 20.75 L 79.007812 20.75 L 79.007812 27.492188 C 79.007812 29.050781 79.398438 30.269531 80.160156 31.164062 C 80.921875 32.058594 81.929688 32.503906 83.1875 32.503906 C 84.546875 32.496094 85.832031 31.890625 87.0625 30.6875 L 87.0625 32.28125 L 90.835938 32.28125 L 90.835938 20.769531 Z M 100.351562 32.261719 L 103.976562 32.261719 L 103.976562 25.894531 C 103.976562 24.105469 103.550781 22.765625 102.710938 21.878906 C 101.867188 20.992188 100.480469 20.546875 98.5625 20.546875 C 96.75 20.546875 94.964844 20.953125 93.214844 21.761719 L 94.0625 24.472656 C 94.371094 24.304688 94.894531 24.125 95.648438 23.941406 C 96.402344 23.75 97.175781 23.664062 97.976562 23.664062 C 98.679688 23.664062 99.234375 23.820312 99.628906 24.144531 C 100.023438 24.472656 100.214844 24.996094 100.203125 25.726562 C 99.3125 25.4375 98.339844 25.300781 97.28125 25.300781 C 96.75 25.300781 96.222656 25.367188 95.699219 25.511719 C 95.171875 25.648438 94.691406 25.855469 94.234375 26.132812 C 93.78125 26.414062 93.410156 26.789062 93.125 27.265625 C 92.835938 27.742188 92.699219 28.289062 92.699219 28.894531 C 92.699219 30.035156 93.097656 30.902344 93.886719 31.519531 C 94.679688 32.136719 95.726562 32.445312 97.046875 32.445312 C 97.816406 32.445312 98.488281 32.316406 99.054688 32.066406 C 99.621094 31.816406 100.046875 31.5 100.332031 31.113281 Z M 98.203125 29.855469 C 97.699219 29.855469 97.28125 29.738281 96.949219 29.507812 C 96.609375 29.28125 96.441406 28.972656 96.441406 28.585938 C 96.441406 28.21875 96.621094 27.929688 96.984375 27.714844 C 97.355469 27.492188 97.816406 27.382812 98.382812 27.382812 C 99.015625 27.382812 99.621094 27.503906 100.183594 27.734375 L 100.183594 28.289062 C 100.183594 28.792969 99.996094 29.179688 99.628906 29.449219 C 99.265625 29.714844 98.777344 29.855469 98.1875 29.855469 Z M 106.28125 32.261719 L 110.054688 32.261719 L 110.054688 16.503906 L 106.28125 16.503906 Z M 121.109375 20.75 L 118.433594 27.46875 L 115.835938 20.75 L 111.574219 20.75 L 116.609375 32.058594 L 116.589844 32.117188 C 116.230469 32.96875 115.648438 33.394531 114.835938 33.394531 C 114.164062 33.394531 113.386719 33.179688 112.527344 32.742188 L 111.328125 35.726562 C 112.667969 36.378906 113.953125 36.707031 115.203125 36.707031 C 116.453125 36.707031 117.441406 36.417969 118.175781 35.84375 C 118.90625 35.269531 119.53125 34.359375 120.046875 33.117188 L 125.21875 20.757812 Z M 125.402344 20.75 L 130.195312 32.261719 L 134.089844 32.261719 L 138.894531 20.75 L 134.753906 20.75 L 132.136719 27.691406 L 129.542969 20.75 Z M 144.242188 17.773438 C 144.242188 17.230469 144.042969 16.765625 143.636719 16.375 C 143.230469 15.992188 142.757812 15.800781 142.199219 15.800781 C 141.617188 15.800781 141.113281 16 140.695312 16.398438 C 140.277344 16.792969 140.070312 17.261719 140.070312 17.785156 C 140.070312 18.339844 140.277344 18.808594 140.695312 19.191406 C 141.113281 19.582031 141.605469 19.769531 142.191406 19.769531 C 142.757812 19.769531 143.242188 19.582031 143.636719 19.191406 C 144.039062 18.808594 144.234375 18.339844 144.234375 17.785156 Z M 140.277344 32.261719 L 144.054688 32.261719 L 144.054688 20.75 L 140.277344 20.75 Z M 154.605469 16.503906 L 154.605469 22.070312 C 153.761719 21.042969 152.566406 20.523438 151.011719 20.523438 C 149.515625 20.523438 148.296875 21.070312 147.367188 22.171875 C 146.4375 23.269531 145.972656 24.703125 145.972656 26.476562 C 145.972656 28.269531 146.4375 29.714844 147.367188 30.824219 C 148.296875 31.929688 149.507812 32.484375 151.003906 32.484375 C 152.554688 32.484375 153.75 31.960938 154.59375 30.917969 L 154.59375 32.261719 L 158.367188 32.261719 L 158.367188 16.515625 Z M 152.242188 29.101562 C 151.496094 29.101562 150.902344 28.863281 150.457031 28.378906 C 150.011719 27.890625 149.792969 27.28125 149.792969 26.535156 C 149.792969 25.753906 150.011719 25.121094 150.449219 24.636719 C 150.882812 24.148438 151.476562 23.914062 152.242188 23.914062 C 153.011719 23.914062 153.605469 24.148438 154.019531 24.625 C 154.433594 25.101562 154.644531 25.734375 154.644531 26.519531 C 154.644531 27.28125 154.429688 27.890625 154.003906 28.371094 C 153.578125 28.84375 152.980469 29.078125 152.21875 29.078125 Z M 167.921875 32.261719 L 171.546875 32.261719 L 171.546875 25.894531 C 171.546875 24.105469 171.121094 22.765625 170.28125 21.878906 C 169.4375 20.992188 168.050781 20.546875 166.132812 20.546875 C 164.320312 20.546875 162.535156 20.953125 160.785156 21.761719 L 161.632812 24.472656 C 161.941406 24.304688 162.464844 24.125 163.21875 23.941406 C 163.972656 23.75 164.746094 23.664062 165.546875 23.664062 C 166.25 23.664062 166.804688 23.820312 167.199219 24.144531 C 167.59375 24.472656 167.785156 24.996094 167.773438 25.726562 C 166.882812 25.4375 165.910156 25.300781 164.851562 25.300781 C 164.320312 25.300781 163.792969 25.367188 163.269531 25.511719 C 162.742188 25.648438 162.257812 25.855469 161.800781 26.132812 C 161.351562 26.414062 160.980469 26.789062 160.695312 27.265625 C 160.40625 27.742188 160.269531 28.289062 160.269531 28.894531 C 160.269531 30.035156 160.667969 30.902344 161.457031 31.519531 C 162.25 32.136719 163.296875 32.445312 164.617188 32.445312 C 165.386719 32.445312 166.058594 32.316406 166.625 32.066406 C 167.1875 31.816406 167.617188 31.5 167.902344 31.113281 Z M 165.773438 29.855469 C 165.269531 29.855469 164.851562 29.738281 164.519531 29.507812 C 164.179688 29.28125 164.011719 28.972656 164.011719 28.585938 C 164.011719 28.21875 164.191406 27.929688 164.554688 27.714844 C 164.925781 27.492188 165.386719 27.382812 165.953125 27.382812 C 166.585938 27.382812 167.1875 27.503906 167.753906 27.734375 L 167.753906 28.289062 C 167.753906 28.792969 167.566406 29.179688 167.199219 29.449219 C 166.835938 29.714844 166.347656 29.855469 165.753906 29.855469 Z M 165.773438 29.855469 "/>
<path style=" stroke:none;fill-rule:nonzero;fill:rgb(21.568627%,20.392157%,20.784314%);fill-opacity:1;" d="M 75.359375 42.804688 C 76.164062 42.804688 76.726562 42.457031 76.726562 41.835938 C 76.726562 41.1875 76.121094 41.070312 75.398438 40.941406 C 74.765625 40.828125 74.609375 40.742188 74.609375 40.496094 C 74.609375 40.179688 74.898438 40.003906 75.429688 40.003906 C 75.835938 40.003906 76.179688 40.109375 76.425781 40.257812 L 76.65625 39.882812 C 76.359375 39.691406 75.914062 39.5625 75.441406 39.5625 C 74.828125 39.5625 74.105469 39.777344 74.105469 40.511719 C 74.105469 41.074219 74.53125 41.234375 75.328125 41.375 C 75.808594 41.460938 76.222656 41.53125 76.222656 41.863281 C 76.222656 42.238281 75.789062 42.355469 75.363281 42.355469 C 74.933594 42.355469 74.433594 42.210938 74.210938 42.039062 L 73.976562 42.414062 C 74.292969 42.648438 74.886719 42.804688 75.359375 42.804688 Z M 80.917969 39.5625 C 80.390625 39.5625 79.960938 39.796875 79.730469 40.171875 L 79.683594 39.644531 L 79.273438 39.644531 L 79.273438 44.253906 L 79.757812 44.253906 L 79.757812 42.28125 C 79.996094 42.605469 80.394531 42.796875 80.894531 42.796875 C 81.816406 42.796875 82.546875 42.140625 82.546875 41.1875 C 82.546875 40.226562 81.808594 39.5625 80.917969 39.5625 Z M 80.875 42.355469 C 80.183594 42.355469 79.710938 41.886719 79.710938 41.179688 C 79.710938 40.472656 80.183594 40.003906 80.875 40.003906 C 81.566406 40.003906 82.035156 40.480469 82.035156 41.179688 C 82.035156 41.878906 81.566406 42.355469 80.875 42.355469 Z M 85.425781 41.359375 L 88.027344 41.359375 C 88.0625 41.222656 88.074219 41.050781 88.074219 40.96875 C 88.074219 40.257812 87.570312 39.5625 86.5625 39.5625 C 85.585938 39.5625 84.921875 40.222656 84.921875 41.160156 C 84.921875 42.140625 85.632812 42.796875 86.601562 42.796875 C 87.105469 42.796875 87.5625 42.617188 87.875 42.324219 L 87.582031 41.984375 C 87.320312 42.230469 86.976562 42.367188 86.59375 42.367188 C 85.949219 42.367188 85.503906 41.972656 85.425781 41.359375 Z M 85.425781 40.941406 C 85.515625 40.363281 85.9375 39.992188 86.554688 39.992188 C 87.207031 39.992188 87.558594 40.417969 87.558594 40.925781 L 87.558594 40.941406 Z M 92.128906 42.796875 C 92.625 42.796875 93.054688 42.625 93.363281 42.324219 L 93.027344 41.984375 C 92.792969 42.238281 92.484375 42.355469 92.136719 42.355469 C 91.433594 42.355469 90.953125 41.875 90.953125 41.179688 C 90.953125 40.480469 91.4375 40.003906 92.128906 40.003906 C 92.503906 40.003906 92.820312 40.140625 93.007812 40.355469 L 93.34375 40.019531 C 93.046875 39.730469 92.613281 39.5625 92.128906 39.5625 C 91.171875 39.5625 90.449219 40.234375 90.449219 41.179688 C 90.449219 42.125 91.167969 42.796875 92.128906 42.796875 Z M 96.289062 39.109375 C 96.476562 39.109375 96.628906 38.960938 96.628906 38.78125 C 96.628906 38.605469 96.476562 38.457031 96.289062 38.457031 C 96.101562 38.457031 95.945312 38.605469 95.945312 38.78125 C 95.945312 38.960938 96.101562 39.109375 96.289062 39.109375 Z M 96.527344 39.644531 L 96.042969 39.644531 L 96.042969 42.714844 L 96.527344 42.714844 Z M 100.839844 39.5625 C 100.296875 39.5625 99.8125 39.742188 99.496094 39.988281 L 99.710938 40.34375 C 100.007812 40.117188 100.421875 40.003906 100.78125 40.003906 C 101.351562 40.003906 101.667969 40.28125 101.667969 40.824219 L 101.667969 40.988281 C 101.320312 40.886719 100.9375 40.84375 100.628906 40.84375 C 99.976562 40.84375 99.316406 41.117188 99.316406 41.820312 C 99.316406 42.464844 99.867188 42.796875 100.453125 42.796875 C 100.917969 42.796875 101.421875 42.59375 101.695312 42.199219 L 101.730469 42.714844 L 102.144531 42.714844 L 102.144531 40.824219 C 102.144531 39.980469 101.667969 39.5625 100.839844 39.5625 Z M 100.523438 42.347656 C 100.105469 42.347656 99.820312 42.152344 99.820312 41.808594 C 99.820312 41.402344 100.207031 41.242188 100.699219 41.242188 C 101.007812 41.242188 101.351562 41.285156 101.667969 41.382812 L 101.667969 41.445312 C 101.660156 41.992188 101.09375 42.347656 100.523438 42.347656 Z M 104.933594 42.714844 L 105.417969 42.714844 L 105.417969 38.105469 L 104.933594 38.105469 Z M 108.558594 39.109375 C 108.746094 39.109375 108.902344 38.960938 108.902344 38.78125 C 108.902344 38.605469 108.746094 38.457031 108.558594 38.457031 C 108.371094 38.457031 108.214844 38.605469 108.214844 38.78125 C 108.214844 38.960938 108.371094 39.109375 108.558594 39.109375 Z M 108.796875 39.644531 L 108.3125 39.644531 L 108.3125 42.714844 L 108.796875 42.714844 Z M 112.03125 42.296875 L 114 40 L 114 39.644531 L 111.453125 39.644531 L 111.453125 40.0625 L 113.363281 40.0625 L 111.394531 42.359375 L 111.394531 42.714844 L 114.035156 42.714844 L 114.035156 42.296875 Z M 116.890625 41.359375 L 119.492188 41.359375 C 119.523438 41.222656 119.535156 41.050781 119.535156 40.96875 C 119.535156 40.257812 119.03125 39.5625 118.023438 39.5625 C 117.050781 39.5625 116.382812 40.222656 116.382812 41.160156 C 116.382812 42.140625 117.09375 42.796875 118.0625 42.796875 C 118.566406 42.796875 119.027344 42.617188 119.335938 42.324219 L 119.046875 41.984375 C 118.78125 42.230469 118.4375 42.367188 118.058594 42.367188 C 117.410156 42.367188 116.964844 41.972656 116.890625 41.359375 Z M 116.890625 40.941406 C 116.980469 40.363281 117.398438 39.992188 118.019531 39.992188 C 118.671875 39.992188 119.019531 40.417969 119.019531 40.925781 L 119.019531 40.941406 Z M 124.695312 38.105469 L 124.695312 40.074219 C 124.457031 39.753906 124.058594 39.5625 123.558594 39.5625 C 122.636719 39.5625 121.914062 40.222656 121.914062 41.175781 C 121.914062 42.132812 122.644531 42.796875 123.539062 42.796875 C 124.070312 42.796875 124.488281 42.5625 124.722656 42.1875 L 124.765625 42.714844 L 125.179688 42.714844 L 125.179688 38.105469 Z M 123.578125 42.355469 C 122.886719 42.355469 122.417969 41.878906 122.417969 41.179688 C 122.417969 40.480469 122.886719 40.003906 123.578125 40.003906 C 124.269531 40.003906 124.742188 40.472656 124.742188 41.179688 C 124.742188 41.886719 124.269531 42.355469 123.578125 42.355469 Z M 123.578125 42.355469 "/>
<path style=" stroke:none;fill-rule:nonzero;fill:rgb(21.568627%,20.392157%,20.784314%);fill-opacity:1;" d="M 133.335938 42.671875 C 133.820312 42.671875 134.234375 42.511719 134.53125 42.234375 L 134.207031 41.921875 C 133.980469 42.15625 133.679688 42.261719 133.34375 42.261719 C 132.660156 42.261719 132.195312 41.820312 132.195312 41.179688 C 132.195312 40.535156 132.667969 40.097656 133.335938 40.097656 C 133.699219 40.097656 134.007812 40.222656 134.1875 40.421875 L 134.515625 40.109375 C 134.226562 39.839844 133.804688 39.6875 133.335938 39.6875 C 132.410156 39.6875 131.707031 40.308594 131.707031 41.179688 C 131.707031 42.054688 132.402344 42.671875 133.335938 42.671875 Z M 138.410156 39.6875 C 137.882812 39.6875 137.414062 39.851562 137.109375 40.078125 L 137.3125 40.410156 C 137.601562 40.199219 138.003906 40.097656 138.355469 40.097656 C 138.90625 40.097656 139.210938 40.351562 139.210938 40.851562 L 139.210938 41.003906 C 138.875 40.90625 138.503906 40.867188 138.203125 40.867188 C 137.570312 40.867188 136.933594 41.125 136.933594 41.769531 C 136.933594 42.363281 137.464844 42.671875 138.035156 42.671875 C 138.484375 42.671875 138.972656 42.484375 139.238281 42.121094 L 139.273438 42.597656 L 139.675781 42.597656 L 139.675781 40.851562 C 139.675781 40.074219 139.210938 39.6875 138.410156 39.6875 Z M 138.105469 42.257812 C 137.695312 42.257812 137.421875 42.074219 137.421875 41.757812 C 137.421875 41.382812 137.796875 41.238281 138.273438 41.238281 C 138.574219 41.238281 138.90625 41.277344 139.210938 41.367188 L 139.210938 41.421875 C 139.207031 41.929688 138.65625 42.257812 138.105469 42.257812 Z M 143.910156 39.6875 C 143.433594 39.6875 143.039062 39.902344 142.828125 40.261719 L 142.78125 39.761719 L 142.382812 39.761719 L 142.382812 42.597656 L 142.851562 42.597656 L 142.851562 41 C 142.851562 40.425781 143.332031 40.097656 143.835938 40.097656 C 143.960938 40.097656 144.078125 40.121094 144.191406 40.152344 L 144.355469 39.75 C 144.21875 39.710938 144.066406 39.6875 143.910156 39.6875 Z M 146.964844 41.34375 L 149.492188 41.34375 C 149.523438 41.21875 149.535156 41.0625 149.535156 40.988281 C 149.535156 40.328125 149.046875 39.6875 148.070312 39.6875 C 147.125 39.6875 146.480469 40.296875 146.480469 41.164062 C 146.480469 42.066406 147.167969 42.671875 148.105469 42.671875 C 148.597656 42.671875 149.039062 42.507812 149.339844 42.234375 L 149.058594 41.921875 C 148.800781 42.148438 148.46875 42.273438 148.101562 42.273438 C 147.472656 42.273438 147.042969 41.910156 146.964844 41.34375 Z M 146.964844 40.957031 C 147.054688 40.425781 147.460938 40.085938 148.0625 40.085938 C 148.695312 40.085938 149.035156 40.476562 149.035156 40.949219 L 149.035156 40.957031 Z M 146.964844 40.957031 "/>
<path style=" stroke:none;fill-rule:evenodd;fill:rgb(88.627451%,68.627451%,72.156863%);fill-opacity:1;" d="M 31.4375 24.105469 C 31.644531 23.675781 31.566406 22.535156 31.464844 21.402344 C 31.359375 20.269531 31.234375 19.144531 31.1875 18.140625 C 31.144531 17.136719 31.183594 16.253906 31.257812 15.214844 C 31.335938 14.179688 31.449219 12.988281 31.589844 12.054688 C 31.730469 11.121094 31.898438 10.441406 32.167969 9.808594 C 32.433594 9.175781 32.804688 8.585938 33.125 8.183594 C 33.445312 7.78125 33.714844 7.5625 34.207031 7.289062 C 34.699219 7.011719 35.414062 6.679688 35.914062 6.457031 C 36.414062 6.230469 36.695312 6.117188 37.230469 5.855469 C 37.769531 5.59375 38.5625 5.183594 39.238281 4.886719 C 39.917969 4.59375 40.480469 4.414062 41.34375 4.320312 C 42.207031 4.222656 43.367188 4.210938 44.527344 4.476562 C 45.683594 4.746094 46.835938 5.296875 47.820312 5.808594 C 48.804688 6.320312 49.621094 6.792969 50.421875 7.441406 C 51.222656 8.085938 52 8.90625 52.53125 9.71875 C 53.0625 10.53125 53.34375 11.339844 53.605469 12.074219 C 53.867188 12.808594 54.113281 13.476562 54.347656 14.371094 C 54.585938 15.265625 54.816406 16.394531 54.988281 17.667969 C 55.160156 18.941406 55.273438 20.359375 55.328125 21.71875 C 55.378906 23.074219 55.363281 24.367188 55.300781 25.613281 C 55.238281 26.863281 55.121094 28.066406 54.96875 29.28125 C 54.816406 30.496094 54.621094 31.722656 54.386719 32.894531 C 54.148438 34.066406 53.867188 35.179688 53.5625 36.375 C 53.253906 37.574219 52.921875 38.851562 52.640625 39.964844 C 52.359375 41.078125 52.128906 42.027344 51.785156 43.078125 C 51.4375 44.125 50.980469 45.277344 50.5 46.53125 C 50.019531 47.785156 49.519531 49.140625 49.144531 50.339844 C 48.765625 51.535156 48.511719 52.570312 48.035156 53.761719 C 47.5625 54.953125 46.875 56.296875 46.40625 57.128906 C 45.941406 57.960938 45.695312 58.28125 45.402344 58.421875 C 45.109375 58.5625 44.761719 58.523438 44.148438 58.367188 C 43.535156 58.214844 42.652344 57.949219 41.746094 57.632812 C 40.839844 57.316406 39.910156 56.957031 37.105469 55.625 C 34.296875 54.296875 29.613281 51.996094 26.625 50.433594 C 23.636719 48.875 22.34375 48.054688 20.765625 47.089844 C 19.1875 46.121094 17.320312 45.007812 15.484375 43.535156 C 13.644531 42.058594 11.839844 40.226562 10.226562 38.023438 C 8.617188 35.824219 7.199219 33.253906 6.339844 31.589844 C 5.476562 29.921875 5.171875 29.152344 4.960938 28.328125 C 4.75 27.5 4.632812 26.617188 4.664062 25.855469 C 4.699219 25.09375 4.875 24.457031 5.042969 23.890625 C 5.207031 23.328125 5.363281 22.84375 5.683594 22.230469 C 6.003906 21.613281 6.488281 20.871094 6.859375 20.308594 C 7.230469 19.746094 7.484375 19.363281 7.972656 18.960938 C 8.457031 18.554688 9.171875 18.132812 9.628906 17.863281 C 10.082031 17.597656 10.273438 17.480469 10.636719 17.289062 C 11.003906 17.097656 11.539062 16.828125 12.304688 16.609375 C 13.074219 16.394531 14.070312 16.226562 15.234375 16.1875 C 16.398438 16.148438 17.730469 16.238281 19.070312 16.566406 C 20.414062 16.890625 21.769531 17.457031 23.253906 18.339844 C 24.738281 19.222656 26.347656 20.425781 27.539062 21.414062 C 28.726562 22.410156 29.492188 23.1875 30.121094 23.71875 C 30.746094 24.25 31.234375 24.53125 31.4375 24.105469 Z M 31.4375 24.105469 "/>
<path style=" stroke:none;fill-rule:evenodd;fill:rgb(100%,100%,99.215686%);fill-opacity:1;" d="M 10.679688 38.65625 C 10.964844 38.789062 11.488281 38.816406 12.175781 38.925781 C 12.863281 39.035156 13.710938 39.226562 14.578125 39.53125 C 15.445312 39.839844 16.328125 40.265625 17.375 40.917969 C 18.425781 41.570312 19.636719 42.449219 20.808594 43.46875 C 21.976562 44.492188 23.109375 45.660156 24.320312 46.960938 C 25.535156 48.261719 26.832031 49.703125 28.070312 51.027344 C 29.3125 52.347656 30.5 53.558594 31.445312 54.429688 C 32.394531 55.304688 33.105469 55.839844 33.820312 56.253906 C 34.539062 56.667969 35.257812 56.953125 35.878906 57.089844 C 36.496094 57.230469 37.015625 57.222656 37.6875 57.027344 C 38.355469 56.835938 39.175781 56.457031 39.914062 56.011719 C 40.652344 55.570312 41.308594 55.0625 42.058594 54.34375 C 42.808594 53.628906 43.660156 52.699219 44.40625 51.773438 C 45.148438 50.847656 45.785156 49.929688 46.351562 49.09375 C 46.917969 48.257812 47.410156 47.507812 47.691406 46.996094 C 47.96875 46.488281 48.035156 46.214844 47.972656 45.839844 C 47.910156 45.460938 47.71875 44.984375 47.414062 44.214844 C 47.109375 43.445312 46.699219 42.386719 46.382812 41.527344 C 46.066406 40.667969 45.851562 40.007812 45.546875 39.796875 C 45.238281 39.589844 44.839844 39.828125 44.589844 40.007812 C 44.335938 40.191406 44.226562 40.316406 44.242188 40.632812 C 44.253906 40.953125 44.386719 41.460938 44.46875 41.992188 C 44.550781 42.523438 44.582031 43.078125 44.5625 43.800781 C 44.539062 44.527344 44.464844 45.421875 44.292969 46.3125 C 44.117188 47.203125 43.84375 48.089844 43.433594 49.015625 C 43.019531 49.941406 42.464844 50.910156 41.800781 51.769531 C 41.136719 52.628906 40.367188 53.378906 39.675781 53.863281 C 38.988281 54.347656 38.382812 54.566406 37.636719 54.601562 C 36.890625 54.640625 36.011719 54.496094 35.019531 54.011719 C 34.03125 53.527344 32.929688 52.699219 31.820312 51.734375 C 30.714844 50.769531 29.59375 49.667969 28.386719 48.484375 C 27.183594 47.300781 25.890625 46.035156 24.398438 44.667969 C 22.90625 43.300781 21.210938 41.828125 19.820312 40.773438 C 18.429688 39.714844 17.347656 39.074219 16.429688 38.605469 C 15.515625 38.136719 14.765625 37.839844 13.828125 37.628906 C 12.894531 37.414062 11.773438 37.28125 11.097656 37.21875 C 10.417969 37.152344 10.179688 37.15625 10.117188 37.304688 C 10.058594 37.457031 10.171875 37.75 10.253906 38.015625 C 10.339844 38.285156 10.390625 38.523438 10.679688 38.65625 Z M 10.679688 38.65625 "/>
<path style=" stroke:none;fill-rule:evenodd;fill:rgb(100%,100%,99.215686%);fill-opacity:1;" d="M 21.761719 6.210938 C 22.019531 6.179688 22.304688 6.265625 22.5 6.410156 C 22.699219 6.550781 22.8125 6.753906 22.878906 6.980469 C 22.945312 7.207031 22.964844 7.460938 22.921875 7.722656 C 22.878906 7.988281 22.769531 8.257812 22.628906 8.476562 C 22.492188 8.691406 22.324219 8.851562 22.117188 8.945312 C 21.910156 9.039062 21.660156 9.066406 21.453125 9.132812 C 21.246094 9.203125 21.074219 9.3125 20.851562 9.523438 C 20.632812 9.730469 20.363281 10.039062 20.039062 10.421875 C 19.714844 10.804688 19.335938 11.265625 19.027344 11.734375 C 18.71875 12.199219 18.472656 12.675781 18.332031 13.015625 C 18.1875 13.351562 18.148438 13.550781 18.125 13.835938 C 18.105469 14.117188 18.105469 14.484375 18.144531 14.855469 C 18.1875 15.226562 18.269531 15.601562 18.429688 16.054688 C 18.589844 16.503906 18.832031 17.027344 19.136719 17.601562 C 19.445312 18.171875 19.816406 18.792969 20.4375 19.695312 C 21.0625 20.597656 21.933594 21.78125 22.769531 22.839844 C 23.605469 23.902344 24.402344 24.839844 25.171875 25.695312 C 25.9375 26.550781 26.679688 27.324219 27.382812 28.023438 C 28.089844 28.722656 28.757812 29.347656 29.492188 29.9375 C 30.222656 30.523438 31.011719 31.074219 31.785156 31.519531 C 32.554688 31.964844 33.300781 32.304688 34 32.523438 C 34.699219 32.738281 35.34375 32.835938 35.984375 32.863281 C 36.628906 32.890625 37.265625 32.847656 37.839844 32.746094 C 38.417969 32.644531 38.929688 32.480469 39.40625 32.269531 C 39.882812 32.058594 40.320312 31.804688 40.738281 31.519531 C 41.15625 31.234375 41.550781 30.914062 41.972656 30.511719 C 42.390625 30.109375 42.832031 29.617188 43.203125 29.125 C 43.574219 28.636719 43.875 28.140625 44.222656 27.484375 C 44.574219 26.824219 44.964844 25.996094 45.308594 25.144531 C 45.652344 24.289062 45.945312 23.40625 46.210938 22.347656 C 46.476562 21.289062 46.714844 20.050781 46.84375 19.019531 C 46.96875 17.988281 46.980469 17.160156 46.964844 16.375 C 46.949219 15.589844 46.902344 14.847656 46.785156 13.765625 C 46.667969 12.679688 46.480469 11.253906 46.257812 9.941406 C 46.035156 8.628906 45.777344 7.421875 45.582031 6.632812 C 45.390625 5.839844 45.261719 5.460938 45.121094 5.199219 C 44.980469 4.941406 44.828125 4.804688 44.507812 4.65625 C 44.183594 4.507812 43.691406 4.351562 43.214844 4.234375 C 42.734375 4.121094 42.273438 4.046875 41.636719 4.003906 C 41.003906 3.960938 40.195312 3.941406 39.621094 3.964844 C 39.050781 3.984375 38.714844 4.042969 38.386719 4.035156 C 38.066406 4.03125 37.75 3.960938 37.464844 3.789062 C 37.175781 3.613281 36.914062 3.332031 36.746094 3.054688 C 36.578125 2.777344 36.503906 2.5 36.5 2.261719 C 36.5 2.023438 36.570312 1.824219 36.679688 1.707031 C 36.792969 1.59375 36.945312 1.5625 37.144531 1.582031 C 37.34375 1.601562 37.589844 1.671875 37.867188 1.785156 C 38.144531 1.894531 38.453125 2.050781 38.785156 2.167969 C 39.113281 2.28125 39.460938 2.355469 39.867188 2.40625 C 40.277344 2.460938 40.746094 2.488281 41.304688 2.546875 C 41.863281 2.605469 42.511719 2.695312 43.125 2.78125 C 43.734375 2.863281 44.308594 2.941406 44.765625 3.035156 C 45.222656 3.128906 45.566406 3.238281 45.890625 3.433594 C 46.21875 3.632812 46.527344 3.925781 46.769531 4.28125 C 47.011719 4.636719 47.183594 5.058594 47.347656 5.582031 C 47.511719 6.109375 47.667969 6.734375 47.800781 7.484375 C 47.929688 8.234375 48.03125 9.105469 48.191406 10.40625 C 48.347656 11.707031 48.5625 13.4375 48.695312 14.742188 C 48.824219 16.042969 48.867188 16.917969 48.960938 17.394531 C 49.050781 17.867188 49.191406 17.941406 49.324219 18.054688 C 49.457031 18.171875 49.582031 18.320312 49.632812 18.6875 C 49.683594 19.050781 49.660156 19.632812 49.585938 20.570312 C 49.515625 21.511719 49.394531 22.8125 49.320312 23.902344 C 49.246094 24.988281 49.21875 25.863281 49.203125 26.460938 C 49.1875 27.0625 49.183594 27.386719 49.003906 27.765625 C 48.824219 28.144531 48.46875 28.578125 47.882812 29.222656 C 47.300781 29.867188 46.488281 30.71875 45.898438 31.3125 C 45.304688 31.90625 44.929688 32.234375 44.628906 32.554688 C 44.324219 32.878906 44.089844 33.191406 44.039062 33.480469 C 43.988281 33.769531 44.121094 34.035156 44.339844 34.578125 C 44.554688 35.121094 44.851562 35.945312 45.054688 36.695312 C 45.261719 37.445312 45.375 38.125 45.269531 38.597656 C 45.160156 39.070312 44.835938 39.339844 44.375 39.628906 C 43.914062 39.917969 43.320312 40.226562 42.804688 40.019531 C 42.289062 39.816406 41.851562 39.097656 41.378906 38.382812 C 40.90625 37.667969 40.402344 36.960938 39.902344 36.550781 C 39.40625 36.140625 38.917969 36.03125 37.914062 35.949219 C 36.910156 35.871094 35.390625 35.824219 34.410156 35.765625 C 33.433594 35.707031 32.996094 35.636719 32.476562 35.40625 C 31.960938 35.171875 31.363281 34.777344 30.683594 34.261719 C 30.003906 33.75 29.242188 33.121094 28.390625 32.339844 C 27.535156 31.5625 26.59375 30.632812 25.726562 29.675781 C 24.859375 28.71875 24.070312 27.738281 23.136719 26.476562 C 22.203125 25.214844 21.121094 23.671875 20.179688 22.289062 C 19.238281 20.90625 18.433594 19.683594 17.890625 18.769531 C 17.347656 17.859375 17.066406 17.253906 16.875 16.648438 C 16.683594 16.039062 16.582031 15.425781 16.535156 14.859375 C 16.484375 14.292969 16.488281 13.769531 16.628906 13.265625 C 16.769531 12.757812 17.046875 12.273438 17.460938 11.675781 C 17.875 11.082031 18.421875 10.375 18.910156 9.769531 C 19.402344 9.164062 19.832031 8.660156 20.101562 8.25 C 20.371094 7.839844 20.480469 7.523438 20.609375 7.253906 C 20.742188 6.984375 20.890625 6.757812 21.082031 6.574219 C 21.273438 6.386719 21.503906 6.242188 21.761719 6.210938 Z M 21.761719 6.210938 "/>
<path style=" stroke:none;fill-rule:evenodd;fill:rgb(100%,100%,99.215686%);fill-opacity:1;" d="M 4.152344 32.636719 C 4.136719 32.667969 4.035156 32.71875 3.898438 33.117188 C 3.765625 33.515625 3.597656 34.253906 3.546875 35.035156 C 3.496094 35.820312 3.558594 36.644531 3.65625 37.367188 C 3.757812 38.089844 3.894531 38.710938 4.117188 39.3125 C 4.339844 39.914062 4.652344 40.496094 5.074219 41.121094 C 5.5 41.746094 6.039062 42.414062 6.589844 42.898438 C 7.140625 43.378906 7.710938 43.675781 8.265625 43.757812 C 8.824219 43.84375 9.371094 43.714844 9.789062 43.457031 C 10.207031 43.195312 10.5 42.804688 10.71875 42.335938 C 10.9375 41.863281 11.078125 41.316406 11.148438 40.699219 C 11.21875 40.082031 11.21875 39.398438 11.113281 38.617188 C 11.011719 37.839844 10.808594 36.960938 10.492188 36.097656 C 10.175781 35.230469 9.75 34.382812 9.261719 33.675781 C 8.777344 32.96875 8.234375 32.40625 7.691406 32.027344 C 7.148438 31.644531 6.609375 31.449219 6.09375 31.445312 C 5.574219 31.445312 5.082031 31.640625 4.746094 31.820312 C 4.410156 32.003906 4.226562 32.175781 4.132812 32.304688 C 4.039062 32.433594 4.027344 32.519531 4.058594 32.5625 C 4.089844 32.609375 4.164062 32.609375 4.152344 32.636719 Z M 4.152344 32.636719 "/>
<path style="fill:none;stroke-width:2.36;stroke-linecap:butt;stroke-linejoin:miter;stroke:rgb(21.568627%,20.392157%,20.784314%);stroke-opacity:1;stroke-miterlimit:22.9256;" d="M 70.53162 453.263637 C 95.363007 438.218473 130.81234 465.165035 149.688688 513.500432 C 152.216771 520.012518 154.351596 526.636881 156.036984 533.205105 C 150.194305 533.205105 144.801062 533.317383 140.306694 533.42966 C 135.08199 533.541938 130.980879 533.654215 127.834821 534.047186 C 124.744942 534.384018 122.553937 535.057682 120.868549 535.843623 C 119.126981 536.685703 117.83485 537.696199 117.273054 539.997885 C 116.767438 542.29957 116.992156 545.892445 117.385413 548.980072 C 117.722491 552.067699 118.228108 554.593939 121.430345 555.885129 C 124.632583 557.176318 130.587621 557.176318 135.475247 557.007902 C 140.419053 556.895625 144.351625 556.67107 148.340378 556.446516 C 151.992052 556.221961 155.643727 556.053545 160.306634 556.390377 C 163.902129 589.175361 156.317882 617.693807 138.902203 628.304016 C 114.014637 643.405318 78.565304 616.402617 59.745135 568.123359 C 40.812607 519.787963 45.644054 468.364939 70.53162 453.263637 Z M 156.036984 533.205105 C 158.05945 541.06452 159.52012 548.867795 160.306634 556.390377 C 155.643727 556.053545 151.992052 556.221961 148.340378 556.446516 C 144.351625 556.67107 140.419053 556.895625 135.475247 557.007902 C 130.587621 557.176318 124.632583 557.176318 121.430345 555.885129 C 118.228108 554.593939 117.722491 552.067699 117.385413 548.980072 C 116.992156 545.892445 116.767438 542.29957 117.273054 539.997885 C 117.83485 537.696199 119.126981 536.685703 120.868549 535.843623 C 122.553937 535.057682 124.744942 534.384018 127.834821 534.047186 C 130.980879 533.654215 135.08199 533.541938 140.306694 533.42966 C 144.801062 533.317383 150.194305 533.205105 156.036984 533.205105 Z M 638.3951 602.536365 C 639.069256 611.855385 639.743411 621.230543 639.85577 629.426789 C 639.96813 637.623035 639.574872 644.58423 638.788358 651.152455 C 638.001843 657.72068 636.878251 663.895934 635.52994 670.015049 C 634.237809 676.134164 632.77714 682.253279 630.586135 688.596949 C 628.507489 694.940619 625.698509 701.621121 622.046834 709.199842 C 618.39516 716.834701 613.844612 725.367779 608.788447 733.395609 C 603.732282 741.423439 598.170501 748.889883 592.046924 755.794939 C 585.923346 762.699996 579.237973 768.987527 572.664959 773.871592 C 566.091945 778.699518 559.63129 782.067838 553.451533 784.144969 C 547.271776 786.165961 541.429097 786.895764 535.361699 787.06418 C 529.294301 787.232596 522.946006 786.839625 517.552763 785.716852 C 512.2157 784.594078 507.777511 782.797641 503.339322 780.495955 C 498.957313 778.19427 494.631483 775.443475 489.069702 771.569906 C 483.507921 767.696338 476.766368 762.756135 469.18212 756.412465 C 461.597873 750.124934 453.114752 742.377797 443.170962 732.834223 C 433.227171 723.23451 421.822711 711.782221 411.710381 701.508844 C 401.654231 691.179328 392.946392 681.972586 384.800349 673.77634 C 376.598126 665.636232 368.957699 658.506621 361.991428 652.050674 C 354.968977 645.594727 348.676861 639.812443 341.935308 633.581051 C 335.249934 627.349658 328.227483 620.613018 320.980314 614.100932 C 313.733144 607.588846 306.317436 601.357453 298.957907 595.294477 C 291.654558 589.175361 284.29503 583.280801 276.654603 577.83535 C 268.957997 572.33376 260.868133 567.337418 252.609731 562.62177 C 244.351328 557.906121 235.924387 553.471166 227.834523 549.709875 C 219.74466 545.948584 211.991874 542.917096 204.239088 540.390855 C 196.486302 537.864615 188.677336 535.787484 180.98073 534.608572 C 173.284124 533.485799 165.756056 533.261244 158.789785 533.205105 C 151.823513 533.148967 145.531397 533.317383 140.306694 533.42966 C 135.08199 533.541938 130.980879 533.654215 127.834821 534.047186 C 124.744942 534.384018 122.553937 535.057682 120.868549 535.843623 C 119.126981 536.685703 117.83485 537.696199 117.273054 539.997885 C 116.767438 542.29957 116.992156 545.892445 117.385413 548.980072 C 117.722491 552.067699 118.228108 554.593939 121.430345 555.885129 C 124.632583 557.176318 130.587621 557.176318 135.475247 557.007902 C 140.419053 556.895625 144.351625 556.67107 148.340378 556.446516 C 152.27295 556.221961 156.261702 556.053545 161.598765 556.502654 C 166.992008 556.951764 173.677381 558.018398 180.081856 559.085033 C 186.542511 560.095529 192.666089 561.106025 200.306515 563.407711 C 207.946942 565.709396 217.104218 569.302271 226.261494 573.737227 C 235.41877 578.116043 244.632226 583.280801 254.969274 589.961303 C 265.306322 596.585666 276.823142 604.725773 287.609626 613.371129 C 298.396111 622.016484 308.396082 631.110949 317.778076 640.710662 C 327.21625 650.254236 335.980269 660.303059 344.575749 669.846633 C 353.11505 679.446346 361.373452 688.540811 369.968932 698.196662 C 378.564412 707.796375 387.44079 717.901336 396.09245 727.276494 C 404.68793 736.651652 413.114871 745.240869 421.485633 753.773947 C 429.856395 762.250887 438.227156 770.671687 446.597918 779.03635 M 455.249578 787.90626 C 459.743946 791.667551 464.294494 795.48498 469.125941 799.190133 C 473.957387 802.895285 479.182091 806.48816 484.519153 809.631926 C 489.856216 812.83183 495.361818 815.526486 500.979779 817.715895 C 506.59774 819.961441 512.384239 821.70174 518.676355 822.375404 C 524.912292 823.105207 531.766204 822.768375 537.945961 821.589463 C 544.181897 820.466689 549.743679 818.501836 555.473999 815.751041 C 561.260498 813.056385 567.159357 809.575787 573.395294 805.309248 C 579.68741 800.98657 586.260424 795.821812 592.496361 790.825471 C 598.732297 785.829129 604.631156 781.11348 610.417656 775.611891 C 616.147976 770.166439 621.765936 763.991186 626.878281 757.87207 C 631.990625 751.752955 636.709712 745.689979 642.102955 738.167396 C 647.552377 730.644814 653.732134 721.662627 658.956837 713.91549 C 664.23772 706.112215 668.56355 699.54399 672.664662 693.481014 C 676.709593 687.418037 680.473627 681.80417 683.563506 677.14466 C 686.597204 672.429012 688.900568 668.667721 689.743262 665.187123 C 690.585957 661.706525 690.02416 658.506621 688.451131 654.240082 C 686.934282 650.029682 684.35002 644.752646 681.653399 638.970363 C 678.956778 633.18808 676.035438 626.84441 673.563535 620.556879 C 671.035453 614.269348 668.900628 608.037955 666.821982 601.974979 C 664.743337 595.912002 662.664691 590.07358 660.810764 584.684268 C 658.956837 579.238816 657.327628 574.242475 656.484934 571.772373 C 655.69842 569.302271 655.69842 569.414549 655.69842 569.470687 C 655.69842 569.582965 655.69842 569.639104 655.69842 569.695242 M 619.912009 584.57199 C 624.294019 582.719414 630.867033 578.901984 637.327688 575.196832 C 643.844522 571.435541 650.248998 567.730389 654.462468 564.867316 C 658.732119 562.004244 660.754585 559.927113 662.552332 558.523646 C 664.2939 557.176318 665.810749 556.390377 664.069181 551.61859 C 662.327614 546.790664 657.383808 537.920754 653.282697 529.499953 C 649.125406 521.079152 645.754629 513.107461 643.170367 507.325178 C 640.586105 501.599033 638.732178 498.062297 637.664766 496.321998 C 636.541173 494.525561 636.147916 494.525561 635.024324 495.81675 C 633.900732 497.107939 632.102984 499.63418 631.26029 501.037646 C 630.473776 502.497252 630.586135 502.834084 631.990625 505.13577 C 633.338936 507.437455 635.867018 511.703994 638.732178 517.093307 C 641.653518 522.482619 644.855755 528.938566 647.383838 534.889266 C 649.91192 540.783826 651.822027 546.117 652.945619 549.93443 C 654.125391 553.807998 654.518648 556.053545 654.18157 557.906121 C 653.788313 559.758697 652.664721 561.162164 649.293944 563.576127 C 645.979348 565.933951 640.473746 569.302271 635.361402 572.389898 C 630.192878 575.477525 625.417611 578.284459 622.159194 579.294955 C 618.844597 580.305451 617.046849 579.575648 614.574947 576.488021 C 612.103044 573.344256 609.013165 567.842666 605.249132 561.948105 C 601.541277 556.053545 597.159268 549.822152 593.114336 543.927592 C 589.125584 537.976893 585.41773 532.419164 582.215492 528.657873 C 579.013255 524.840443 576.316633 522.87559 574.743604 521.921232 C 573.226755 520.910736 572.945857 520.910736 572.777318 521.5844 C 572.608779 522.201926 572.608779 523.549254 574.181808 525.850939 C 575.698658 528.152625 578.844716 531.408668 581.709876 535.450652 C 584.575036 539.492637 587.215477 544.264424 590.192997 549.373043 C 593.226695 554.537801 596.597472 560.039391 599.855889 565.765535 C 603.114306 571.547818 606.204185 577.554656 608.114292 580.979115 C 609.968219 584.403574 610.642374 585.357932 612.046864 585.807041 C 613.451354 586.312289 615.58618 586.424566 619.912009 584.57199 Z M 581.204259 499.971012 C 585.41773 507.2129 589.631201 514.39865 593.788492 521.865094 C 598.001962 529.275398 602.159253 536.910258 606.428903 544.264424 C 610.642374 551.61859 614.912024 558.692063 617.664825 563.519988 C 620.417626 568.347914 621.653577 570.874154 623.563684 572.446037 C 625.473791 574.01792 628.001873 574.635445 629.743441 575.309109 C 631.428829 575.982773 632.327703 576.824854 633.001858 579.407232 C 633.676013 581.933473 634.18163 586.312289 634.462528 588.501697 C 634.743426 590.691105 634.743426 590.691105 634.743426 590.691105 M 572.777318 521.5844 C 567.945872 519.731824 563.114425 517.823109 555.923436 516.868752 C 548.732446 515.914395 539.238092 515.802117 528.283068 515.633701 C 517.271865 515.409146 504.856172 515.072314 494.631483 514.735482 C 484.350615 514.342512 476.204571 513.893402 470.024815 512.096965 C 463.788878 510.244389 459.519228 506.932207 453.45183 502.441113 C 447.384432 498.006158 439.463108 492.336152 431.541783 486.048621 C 423.620458 479.76109 415.642954 472.856033 406.878935 464.772064 C 398.114916 456.744234 388.620562 447.537492 379.744184 438.499166 C 370.867806 429.46084 362.609404 420.59093 354.912797 411.215771 C 347.27237 401.896752 340.13756 392.128623 332.609493 381.855246 C 325.137605 371.581869 317.328639 360.803244 308.283722 347.779072 C 299.294985 334.7549 289.014117 319.485182 279.856841 305.787346 C 270.643385 292.145648 262.609701 280.019695 257.497356 272.048004 C 252.441192 264.020174 250.306367 260.090467 247.946823 255.31868 C 245.58728 250.546893 243.059197 244.933025 241.317629 239.599852 C 239.632241 234.266678 238.677188 229.158059 237.946853 222.982805 C 237.216518 216.751412 236.654722 209.453385 236.373824 203.33427 C 236.149105 197.215154 236.261465 192.274951 238.28393 186.997916 C 240.362576 181.77702 244.351328 176.163152 249.126595 169.651066 C 253.901862 163.082842 259.407463 155.616398 266.205196 147.251736 C 272.946749 138.887074 281.036612 129.568055 285.755699 124.122604 C 290.474787 118.733291 291.879277 117.161408 292.77815 115.084277 C 293.677024 112.951008 294.070281 110.31249 294.800616 107.78625 C 295.474772 105.147732 296.486005 102.621492 297.890495 100.263668 C 299.294985 97.961982 301.092732 95.772574 302.609582 94.144553 C 304.126431 92.516531 305.362383 91.337619 306.935412 90.327123 C 308.56462 89.316627 310.530907 88.418408 312.553373 87.857021 C 314.632018 87.351773 316.766843 87.183357 318.901668 87.857021 C 321.036493 88.586824 323.171319 90.102568 324.800527 91.562174 C 326.373556 93.021779 327.440969 94.312969 328.339842 96.3901 C 329.238716 98.411092 330.025231 101.218025 330.362308 104.137236 C 330.755566 107.056447 330.755566 110.087936 330.418488 112.782592 C 330.08141 115.421109 329.407255 117.722795 328.227483 119.799926 C 326.935352 121.877057 325.137605 123.673494 323.171319 125.694486 C 321.205032 127.65934 319.070207 129.904887 316.710664 130.859244 C 314.29494 131.813602 311.654499 131.47677 309.856751 131.252215 C 308.059004 131.02766 307.103951 130.971521 306.598334 129.680332 C 306.092718 128.333004 306.092718 125.806764 306.373616 123.84191 C 306.654514 121.877057 307.21631 120.47359 307.946645 118.957846 C 308.6208 117.49824 309.463494 115.926357 309.688213 113.063285 C 309.969111 110.200213 309.632033 105.989812 309.070237 102.003967 C 308.508441 97.961982 307.721926 94.144553 307.328669 92.235838 C 306.935412 90.327123 306.935412 90.327123 306.935412 90.327123 M 306.598334 129.680332 C 302.665762 133.610039 298.677009 137.539746 294.800616 141.974701 C 290.868044 146.409656 287.04783 151.349859 283.227617 156.009369 C 279.407404 160.61274 275.58719 164.991557 272.665851 168.752848 C 269.688331 172.570277 267.553506 175.770182 265.755759 179.587611 C 263.958011 183.405041 262.441162 187.839996 261.486109 191.88198 C 260.474876 195.867826 259.969259 199.51684 259.91308 204.007934 C 259.80072 208.555166 260.137798 213.944479 261.205211 219.614484 C 262.272623 225.28449 264.12655 231.235189 266.373735 236.680641 C 268.620919 242.18223 271.31754 247.178572 274.23888 252.511746 C 277.160219 257.84492 280.306277 263.514926 284.407389 270.139289 C 288.5085 276.763652 293.620845 284.342373 299.014087 292.145648 C 304.463509 299.948924 310.193829 307.976754 316.542125 316.116861 C 322.834241 324.256969 329.744333 332.453215 335.755551 339.470549 C 341.766769 346.431744 346.822934 352.214027 349.744273 355.582348 C 352.665613 358.950668 353.452127 359.905025 353.452127 360.241857 C 353.508307 360.578689 352.834152 360.241857 352.384715 361.982156 C 351.879098 363.722455 351.542021 367.483746 350.924045 369.560877 C 350.306069 371.694146 349.407196 372.087117 348.339783 372.199395 C 347.27237 372.311672 346.036419 372.143256 345.418443 372.648504 C 344.800468 373.153752 344.800468 374.276525 344.40721 375.118605 C 343.957774 375.960686 343.171259 376.465934 342.721822 377.195736 C 342.328565 377.925539 342.328565 378.879896 342.272385 379.665838 C 342.272385 380.395641 342.160026 380.900889 340.530817 381.237721 C 338.957788 381.518414 335.755551 381.68683 334.182522 381.799107 C 332.609493 381.855246 332.609493 381.855246 332.609493 381.855246 M 341.429691 393.812783 C 342.103847 392.577732 342.834181 391.286543 343.957774 390.725156 C 345.025186 390.16377 346.542036 390.332186 347.216191 388.535748 C 347.946526 386.683172 347.834167 382.921881 348.227424 380.957027 C 348.676861 378.992174 349.575734 378.823758 350.362249 378.767619 C 351.204943 378.767619 351.935278 378.823758 352.384715 378.262371 C 352.777972 377.644846 352.834152 376.465934 353.564487 375.567715 C 354.351001 374.613357 355.755491 374.051971 357.3847 373.883555 C 359.013909 373.715139 360.924015 373.995832 362.159967 373.827416 C 363.395918 373.659 363.957714 373.097613 362.384685 370.739789 C 360.867836 368.381965 357.159982 364.33998 353.452127 360.241857 M 363.283559 372.536227 C 368.78916 377.925539 374.294762 383.37099 380.025082 389.265551 C 385.811582 395.160111 391.8228 401.616059 397.834018 407.791313 C 403.901416 414.022705 409.968813 419.973404 415.642954 424.857469 C 421.317094 429.797672 426.541798 433.558963 430.979987 436.983422 C 435.418176 440.351742 439.06985 443.38323 444.294554 446.919967 C 449.575437 450.400564 456.485529 454.330271 463.058543 457.867008 C 469.631557 461.347605 475.867494 464.379094 481.991071 466.736918 C 488.114648 469.150881 494.125866 470.835041 499.912366 471.957814 C 505.698866 473.024449 511.316827 473.41742 517.552763 473.529697 C 523.844879 473.641975 530.86733 473.473559 536.822369 472.912172 C 542.833587 472.350785 547.833572 471.340289 553.170635 469.824545 C 558.451518 468.308801 564.069479 466.287809 569.57508 463.593152 C 575.080682 460.898496 580.473924 457.642453 586.091885 453.712746 C 591.766026 449.7269 597.552525 445.123529 603.282845 440.01491 C 609.013165 434.850152 614.574947 429.180146 619.968189 422.050535 C 625.361431 414.920924 630.529955 406.275568 635.361402 397.630213 C 640.136668 388.984857 644.574857 380.395641 648.395071 371.581869 C 652.215284 362.824236 655.417522 353.842049 658.282682 345.477387 C 661.091662 337.168863 663.563565 329.421727 665.866929 320.495678 C 668.170293 311.51349 670.305118 301.352391 671.765788 293.829809 C 673.170278 286.363365 673.900613 281.591578 674.630948 276.146127 C 675.305103 270.700676 675.979258 264.525422 676.203977 257.058979 C 676.372516 249.648674 676.147797 240.94718 675.586001 230.056277 C 675.080385 219.165375 674.237691 206.085064 673.001739 193.453863 C 671.765788 180.822662 670.136579 168.696709 668.395011 157.356697 C 666.597264 146.016686 664.743337 135.462615 662.77705 125.862902 C 660.866944 116.207051 658.900657 107.393279 657.04673 99.590004 C 655.192803 91.786729 653.451235 84.937811 651.822027 79.829191 C 650.192818 74.664434 648.619789 71.239975 644.069241 68.264625 C 639.462513 65.289275 631.934446 62.819174 623.732223 61.022736 C 615.47382 59.226299 606.597442 58.103525 597.721064 56.924613 M 584.406497 56.419365 C 577.664944 56.363227 570.923391 56.250949 566.372843 56.700059 C 561.822294 57.149168 559.462751 58.159664 556.597591 58.664912 C 553.676251 59.226299 550.305475 59.282438 547.215596 59.001744 C 544.069538 58.664912 541.204378 57.935109 538.395398 56.250949 C 535.642597 54.566789 532.889796 51.928271 530.698791 49.289754 C 528.451607 46.651236 526.766219 44.012719 525.530267 40.812814 C 524.350496 37.61291 523.67634 33.851619 523.901059 30.651715 C 524.125777 27.507949 525.19319 24.981709 526.878578 23.578242 C 528.620146 22.230914 531.035869 22.062498 533.507772 22.343191 C 536.035854 22.567746 538.676296 23.24141 540.024606 23.578242 C 541.372917 23.915074 541.429097 23.915074 541.092019 23.746658 C 540.811121 23.634381 540.024606 23.409826 539.856068 24.195768 C 539.631349 24.981709 539.968427 26.778146 540.754941 29.248248 C 541.541456 31.71835 542.777407 34.805977 544.743694 38.230436 C 546.70998 41.654895 549.406601 45.360047 551.653785 47.77401 C 553.957149 50.187973 555.754897 51.366885 557.777363 52.489658 C 559.799829 53.612432 561.990833 54.791344 563.114425 55.35273 C 564.238018 55.914117 564.238018 55.914117 564.238018 55.914117 M 541.092019 23.746658 C 544.631334 25.543096 548.11447 27.283395 550.811091 28.686861 C 553.507712 30.034189 555.417819 31.044686 557.496465 32.055182 C 559.51893 33.009539 561.766115 34.020035 564.743634 34.525283 C 567.777333 35.08667 571.541367 35.142809 575.36158 35.255086 C 579.181793 35.423502 583.002007 35.535779 586.990759 35.872611 C 590.923332 36.209443 594.968263 36.714691 598.395219 37.219939 C 601.822176 37.725187 604.743515 38.174297 608.28283 38.679545 C 611.822146 39.184793 615.979437 39.690041 620.698524 40.307566 C 625.417611 40.925092 630.698494 41.654895 635.249042 42.27242 C 639.799591 42.946084 643.675984 43.507471 647.04676 43.900441 C 650.417537 44.293412 653.282697 44.461828 656.428755 45.977572 C 659.518633 47.493316 662.88941 50.356389 666.035468 53.724709 C 669.181526 57.093029 672.046686 60.966598 674.518589 65.120859 C 676.934312 69.275121 679.012957 73.710076 681.035423 79.04325 C 683.057889 84.376424 685.024175 90.607816 686.428666 97.681289 C 687.833156 104.754762 688.61967 112.614176 689.630903 121.540225 C 690.585957 130.410135 691.765728 140.234402 692.88932 149.272729 C 694.069092 158.254916 695.192684 166.395023 696.147738 175.208795 C 697.102791 184.078705 697.833126 193.566141 698.956718 205.692094 C 700.08031 217.761908 701.54098 232.357963 702.215135 240.666486 C 702.94547 248.918871 702.833111 250.771447 700.866825 252.399469 C 698.900539 253.971352 695.024146 255.31868 691.653369 256.104621 C 688.282593 256.946701 685.417433 257.283533 682.94553 257.339672 C 680.417447 257.451949 678.282622 257.227395 677.21521 257.171256 C 676.203977 257.058979 676.203977 257.058979 676.203977 257.058979 M 702.158956 250.65917 C 702.046597 256.609869 701.934237 262.616707 701.821878 270.756814 C 701.709519 278.896922 701.59716 289.282576 701.54098 294.503473 C 701.484801 299.66823 701.484801 299.66823 701.484801 299.66823 M 702.608393 246.785602 C 704.012883 250.322338 705.473553 253.802936 707.102761 256.329176 C 708.73197 258.855416 710.585897 260.315021 712.102747 261.774627 C 713.619596 263.178094 714.799368 264.581561 715.136445 267.276217 C 715.473523 270.027012 715.024086 274.125135 714.51847 280.075834 C 714.069033 286.082672 713.619596 293.885947 713.170159 301.352391 C 712.720722 308.874973 712.215106 316.004584 711.484771 322.51667 C 710.754436 328.972617 709.855562 334.867178 709.181407 341.09857 C 708.507252 347.329963 708.057815 354.010465 707.776917 361.701463 C 707.552198 369.4486 707.496019 378.262371 707.439839 384.493764 C 707.439839 390.725156 707.439839 394.318031 707.439839 396.451301 C 707.439839 398.528432 707.439839 399.145957 704.799397 402.402 C 702.215135 405.714182 696.990432 411.608742 691.878088 417.166471 C 686.765743 422.780338 681.821938 428.057373 676.653414 433.67124 C 671.42871 439.285107 666.035468 445.291945 661.260201 449.951455 C 656.541114 454.610965 652.440003 457.923146 648.844508 461.010773 C 645.192833 464.042262 642.102955 466.793057 640.136668 470.835041 C 638.114202 474.877025 637.271508 480.210199 636.822071 484.4206 C 636.428814 488.687139 636.428814 491.830904 636.484994 494.97467 M 696.990432 315.33092 C 696.653354 323.976275 696.372456 332.621631 695.923019 341.042432 C 695.473582 349.519371 694.911786 357.771756 694.181451 365.968002 C 693.451117 374.108109 692.496063 382.192078 690.361238 388.0305 C 688.226413 393.812783 684.855637 397.34952 681.316321 401.896752 C 677.720826 406.443984 673.956793 411.945574 669.237705 418.289244 C 664.574798 424.576775 658.956837 431.650248 653.282697 439.678078 C 647.552377 447.705908 641.822057 456.631957 637.102969 464.322955 C 632.440062 472.013953 628.788387 478.413762 626.485024 483.017133 C 624.12548 487.564365 623.114247 490.371299 622.552451 491.943182 C 621.990655 493.571203 621.934475 493.908035 622.608631 494.076451 C 623.282786 494.244867 624.687276 494.188729 625.473791 493.515064 C 626.204125 492.897539 626.260305 491.60635 626.99064 490.820408 C 627.664795 490.034467 629.069286 489.641496 630.754674 489.753773 C 632.440062 489.866051 634.462528 490.483576 636.484994 491.15724 M 144.520164 554.537801 C 144.407805 555.267604 144.295446 555.941268 144.126907 555.323742 C 143.902189 554.762355 143.565111 552.797502 143.846009 551.730867 C 144.183087 550.664232 145.13814 550.383539 145.643756 548.867795 C 146.205553 547.295912 146.317912 544.43284 145.531397 542.580264 C 144.744883 540.727688 143.003315 539.885607 141.767363 538.706695 C 140.531412 537.471645 139.744898 535.9559 139.576359 535.001543 C 139.464 534.047186 139.857257 533.766492 140.081975 533.598076 C 140.306694 533.42966 140.306694 533.42966 140.306694 533.42966 M 150.587562 534.664711 C 150.92464 534.215602 151.317897 533.710354 151.374076 533.87877 C 151.486436 534.047186 151.205538 534.833127 150.587562 535.394514 C 150.025766 535.899762 149.014533 536.124316 148.508916 536.854119 C 148.0033 537.583922 148.0033 538.818973 148.115659 540.166301 C 148.228018 541.569768 148.396557 543.14165 148.508916 544.657395 C 148.565096 546.117 148.565096 547.576605 148.789814 548.811656 C 149.014533 549.990568 149.46397 550.944926 149.969586 551.450174 C 150.475203 551.955422 151.093178 552.067699 151.542615 552.797502 C 152.048232 553.527305 152.385309 554.874633 152.553848 555.548297 C 152.722387 556.2781 152.722387 556.2781 152.722387 556.2781 M 99.576478 507.718148 C 97.947269 507.942703 96.31806 508.223396 94.801211 509.458447 C 93.284362 510.693498 91.879871 512.939045 90.924818 515.68984 C 90.025944 518.384496 89.576507 521.640539 89.295609 525.064998 C 89.070891 528.489457 89.014711 532.082332 89.407969 535.56293 C 89.745046 539.043527 90.58774 542.411848 91.542794 545.892445 C 92.554027 549.429182 93.733798 553.078195 95.138289 556.67107 C 96.542779 560.320084 98.171987 563.85682 99.745016 567.000586 C 101.318046 570.20049 102.891075 573.007424 104.91354 575.533664 C 106.936006 578.059904 109.407909 580.36159 111.430375 582.326443 C 113.50902 584.235158 115.08205 585.807041 116.992156 586.985953 C 118.846083 588.164865 120.980908 588.950807 123.003374 589.343777 C 125.08202 589.736748 127.048306 589.736748 128.452796 589.680609 C 129.857287 589.568332 130.643801 589.399916 130.980879 588.613975 C 131.261777 587.828033 131.093238 586.480705 130.980879 585.807041 C 130.924699 585.077238 130.924699 585.077238 130.924699 585.077238 " transform="matrix(0.0695315,0,0,0.0695822,0.0294275,0)"/>
<path style="fill:none;stroke-width:5.91;stroke-linecap:butt;stroke-linejoin:miter;stroke:rgb(21.568627%,20.392157%,20.784314%);stroke-opacity:1;stroke-miterlimit:22.9256;" d="M 99.576478 507.718148 C 97.947269 507.942703 96.31806 508.223396 94.801211 509.458447 C 93.284362 510.693498 91.879871 512.939045 90.924818 515.68984 C 90.025944 518.384496 89.576507 521.640539 89.295609 525.064998 C 89.070891 528.489457 89.014711 532.082332 89.407969 535.56293 C 89.745046 539.043527 90.58774 542.411848 91.542794 545.892445 C 92.554027 549.429182 93.733798 553.078195 95.138289 556.67107 C 96.542779 560.320084 98.171987 563.85682 99.745016 567.000586 C 101.318046 570.20049 102.891075 573.007424 104.91354 575.533664 C 106.936006 578.059904 109.407909 580.36159 111.430375 582.326443 C 113.50902 584.235158 115.08205 585.807041 116.992156 586.985953 C 118.846083 588.164865 120.980908 588.950807 123.003374 589.343777 C 125.08202 589.736748 127.048306 589.736748 128.452796 589.680609 C 129.857287 589.568332 130.643801 589.399916 130.980879 588.613975 C 131.261777 587.828033 131.093238 586.480705 130.980879 585.807041 C 130.924699 585.077238 130.924699 585.077238 130.924699 585.077238 " transform="matrix(0.0695315,0,0,0.0695822,0.0294275,0)"/>
<path style="fill:none;stroke-width:5.91;stroke-linecap:butt;stroke-linejoin:miter;stroke:rgb(21.568627%,20.392157%,20.784314%);stroke-opacity:1;stroke-miterlimit:22.9256;" d="M 150.587562 534.103324 C 150.92464 533.598076 151.317897 533.092828 151.374076 533.261244 C 151.486436 533.42966 151.205538 534.27174 150.587562 534.833127 C 150.025766 535.338375 149.014533 535.619068 148.508916 536.348871 C 148.0033 537.078674 148.0033 538.369863 148.115659 539.77333 C 148.228018 541.176797 148.396557 542.804818 148.508916 544.320562 C 148.565096 545.892445 148.565096 547.352051 148.789814 548.587102 C 149.014533 549.822152 149.46397 550.77651 149.969586 551.337896 C 150.475203 551.843145 151.093178 551.955422 151.542615 552.685225 C 152.048232 553.471166 152.385309 554.874633 152.553848 555.548297 C 152.722387 556.2781 152.722387 556.2781 152.722387 556.2781 " transform="matrix(0.0695315,0,0,0.0695822,0.0294275,0)"/>
<path style="fill:none;stroke-width:5.91;stroke-linecap:butt;stroke-linejoin:miter;stroke:rgb(21.568627%,20.392157%,20.784314%);stroke-opacity:1;stroke-miterlimit:22.9256;" d="M 144.520164 555.716713 C 144.407805 556.446516 144.295446 557.176318 144.126907 556.558793 C 143.902189 555.885129 143.565111 553.864137 143.846009 552.741363 C 144.183087 551.562451 145.13814 551.337896 145.643756 549.709875 C 146.205553 548.081854 146.317912 545.050365 145.531397 543.085512 C 144.744883 541.120658 143.003315 540.222439 141.767363 538.987389 C 140.531412 537.696199 139.744898 536.068178 139.576359 535.11382 C 139.464 534.103324 139.857257 533.766492 140.081975 533.598076 C 140.306694 533.42966 140.306694 533.42966 140.306694 533.42966 " transform="matrix(0.0695315,0,0,0.0695822,0.0294275,0)"/>
<path style="fill:none;stroke-width:5.91;stroke-linecap:butt;stroke-linejoin:miter;stroke:rgb(21.568627%,20.392157%,20.784314%);stroke-opacity:1;stroke-miterlimit:22.9256;" d="M 696.990432 315.33092 C 696.653354 323.976275 696.372456 332.621631 695.923019 341.042432 C 695.473582 349.519371 694.911786 357.771756 694.181451 365.968002 C 693.451117 374.108109 692.496063 382.192078 690.361238 388.0305 C 688.226413 393.812783 684.855637 397.34952 681.316321 401.896752 C 677.720826 406.443984 673.956793 411.945574 669.237705 418.289244 C 664.574798 424.576775 658.956837 431.650248 653.282697 439.678078 C 647.552377 447.705908 641.822057 456.631957 637.102969 464.322955 C 632.440062 472.013953 628.788387 478.413762 626.485024 483.017133 C 624.12548 487.564365 623.114247 490.371299 622.552451 491.943182 C 621.990655 493.571203 621.934475 493.908035 622.608631 494.076451 C 623.282786 494.244867 624.687276 494.188729 625.473791 493.515064 C 626.204125 492.897539 626.260305 491.60635 626.99064 490.820408 C 627.664795 490.034467 629.069286 489.641496 630.754674 489.753773 C 632.440062 489.866051 634.462528 490.483576 636.484994 491.15724 " transform="matrix(0.0695315,0,0,0.0695822,0.0294275,0)"/>
<path style="fill:none;stroke-width:5.91;stroke-linecap:butt;stroke-linejoin:miter;stroke:rgb(21.568627%,20.392157%,20.784314%);stroke-opacity:1;stroke-miterlimit:22.9256;" d="M 702.608393 246.785602 C 704.012883 250.322338 705.473553 253.802936 707.102761 256.329176 C 708.73197 258.855416 710.585897 260.315021 712.102747 261.774627 C 713.619596 263.178094 714.799368 264.581561 715.136445 267.276217 C 715.473523 270.027012 715.024086 274.125135 714.51847 280.075834 C 714.069033 286.082672 713.619596 293.885947 713.170159 301.352391 C 712.720722 308.874973 712.215106 316.004584 711.484771 322.51667 C 710.754436 328.972617 709.855562 334.867178 709.181407 341.09857 C 708.507252 347.329963 708.057815 354.010465 707.776917 361.701463 C 707.552198 369.4486 707.496019 378.262371 707.439839 384.493764 C 707.439839 390.725156 707.439839 394.318031 707.439839 396.451301 C 707.439839 398.528432 707.439839 399.145957 704.799397 402.402 C 702.215135 405.714182 696.990432 411.608742 691.878088 417.166471 C 686.765743 422.780338 681.821938 428.057373 676.653414 433.67124 C 671.42871 439.285107 666.035468 445.291945 661.260201 449.951455 C 656.541114 454.610965 652.440003 457.923146 648.844508 461.010773 C 645.192833 464.042262 642.102955 466.793057 640.136668 470.835041 C 638.114202 474.877025 637.271508 480.210199 636.822071 484.4206 C 636.428814 488.687139 636.428814 491.830904 636.484994 494.97467 " transform="matrix(0.0695315,0,0,0.0695822,0.0294275,0)"/>
<path style="fill:none;stroke-width:5.91;stroke-linecap:butt;stroke-linejoin:miter;stroke:rgb(21.568627%,20.392157%,20.784314%);stroke-opacity:1;stroke-miterlimit:22.9256;" d="M 702.158956 250.65917 C 702.046597 256.609869 701.934237 262.616707 701.821878 270.756814 C 701.709519 278.896922 701.59716 289.282576 701.54098 294.503473 C 701.484801 299.66823 701.484801 299.66823 701.484801 299.66823 " transform="matrix(0.0695315,0,0,0.0695822,0.0294275,0)"/>
<path style="fill:none;stroke-width:5.91;stroke-linecap:butt;stroke-linejoin:miter;stroke:rgb(21.568627%,20.392157%,20.784314%);stroke-opacity:1;stroke-miterlimit:22.9256;" d="M 541.092019 23.746658 C 544.631334 25.543096 548.11447 27.283395 550.811091 28.686861 C 553.507712 30.034189 555.417819 31.044686 557.496465 32.055182 C 559.51893 33.009539 561.766115 34.020035 564.743634 34.525283 C 567.777333 35.08667 571.541367 35.142809 575.36158 35.255086 C 579.181793 35.423502 583.002007 35.535779 586.990759 35.872611 C 590.923332 36.209443 594.968263 36.714691 598.395219 37.219939 C 601.822176 37.725187 604.743515 38.174297 608.28283 38.679545 C 611.822146 39.184793 615.979437 39.690041 620.698524 40.307566 C 625.417611 40.925092 630.698494 41.654895 635.249042 42.27242 C 639.799591 42.946084 643.675984 43.507471 647.04676 43.900441 C 650.417537 44.293412 653.282697 44.461828 656.428755 45.977572 C 659.518633 47.493316 662.88941 50.356389 666.035468 53.724709 C 669.181526 57.093029 672.046686 60.966598 674.518589 65.120859 C 676.934312 69.275121 679.012957 73.710076 681.035423 79.04325 C 683.057889 84.376424 685.024175 90.607816 686.428666 97.681289 C 687.833156 104.754762 688.61967 112.614176 689.630903 121.540225 C 690.585957 130.410135 691.765728 140.234402 692.88932 149.272729 C 694.069092 158.254916 695.192684 166.395023 696.147738 175.208795 C 697.102791 184.078705 697.833126 193.566141 698.956718 205.692094 C 700.08031 217.761908 701.54098 232.357963 702.215135 240.666486 C 702.94547 248.918871 702.833111 250.771447 700.866825 252.399469 C 698.900539 253.971352 695.024146 255.31868 691.653369 256.104621 C 688.282593 256.946701 685.417433 257.283533 682.94553 257.339672 C 680.417447 257.451949 678.282622 257.227395 677.21521 257.171256 C 676.203977 257.058979 676.203977 257.058979 676.203977 257.058979 " transform="matrix(0.0695315,0,0,0.0695822,0.0294275,0)"/>
<path style="fill:none;stroke-width:5.91;stroke-linecap:butt;stroke-linejoin:miter;stroke:rgb(21.568627%,20.392157%,20.784314%);stroke-opacity:1;stroke-miterlimit:22.9256;" d="M 584.406497 56.419365 C 577.664944 56.363227 570.923391 56.250949 566.372843 56.700059 C 561.822294 57.149168 559.462751 58.159664 556.597591 58.664912 C 553.676251 59.226299 550.305475 59.282438 547.215596 59.001744 C 544.069538 58.664912 541.204378 57.935109 538.395398 56.250949 C 535.642597 54.566789 532.889796 51.928271 530.698791 49.289754 C 528.451607 46.651236 526.766219 44.012719 525.530267 40.812814 C 524.350496 37.61291 523.67634 33.851619 523.901059 30.651715 C 524.125777 27.507949 525.19319 24.981709 526.878578 23.578242 C 528.620146 22.230914 531.035869 22.062498 533.507772 22.343191 C 536.035854 22.567746 538.676296 23.24141 540.024606 23.578242 C 541.372917 23.915074 541.429097 23.915074 541.092019 23.746658 C 540.811121 23.634381 540.024606 23.409826 539.856068 24.195768 C 539.631349 24.981709 539.968427 26.778146 540.754941 29.248248 C 541.541456 31.71835 542.777407 34.805977 544.743694 38.230436 C 546.70998 41.654895 549.406601 45.360047 551.653785 47.77401 C 553.957149 50.187973 555.754897 51.366885 557.777363 52.489658 C 559.799829 53.612432 561.990833 54.791344 563.114425 55.35273 C 564.238018 55.914117 564.238018 55.914117 564.238018 55.914117 " transform="matrix(0.0695315,0,0,0.0695822,0.0294275,0)"/>
<path style="fill:none;stroke-width:5.91;stroke-linecap:butt;stroke-linejoin:miter;stroke:rgb(21.568627%,20.392157%,20.784314%);stroke-opacity:1;stroke-miterlimit:22.9256;" d="M 363.283559 372.536227 C 368.78916 377.925539 374.294762 383.37099 380.025082 389.265551 C 385.811582 395.160111 391.8228 401.616059 397.834018 407.791313 C 403.901416 414.022705 409.968813 419.973404 415.642954 424.857469 C 421.317094 429.797672 426.541798 433.558963 430.979987 436.983422 C 435.418176 440.351742 439.06985 443.38323 444.294554 446.919967 C 449.575437 450.400564 456.485529 454.330271 463.058543 457.867008 C 469.631557 461.347605 475.867494 464.379094 481.991071 466.736918 C 488.114648 469.150881 494.125866 470.835041 499.912366 471.957814 C 505.698866 473.024449 511.316827 473.41742 517.552763 473.529697 C 523.844879 473.641975 530.86733 473.473559 536.822369 472.912172 C 542.833587 472.350785 547.833572 471.340289 553.170635 469.824545 C 558.451518 468.308801 564.069479 466.287809 569.57508 463.593152 C 575.080682 460.898496 580.473924 457.642453 586.091885 453.712746 C 591.766026 449.7269 597.552525 445.123529 603.282845 440.01491 C 609.013165 434.850152 614.574947 429.180146 619.968189 422.050535 C 625.361431 414.920924 630.529955 406.275568 635.361402 397.630213 C 640.136668 388.984857 644.574857 380.395641 648.395071 371.581869 C 652.215284 362.824236 655.417522 353.842049 658.282682 345.477387 C 661.091662 337.168863 663.563565 329.421727 665.866929 320.495678 C 668.170293 311.51349 670.305118 301.352391 671.765788 293.829809 C 673.170278 286.363365 673.900613 281.591578 674.630948 276.146127 C 675.305103 270.700676 675.979258 264.525422 676.203977 257.058979 C 676.372516 249.648674 676.147797 240.94718 675.586001 230.056277 C 675.080385 219.165375 674.237691 206.085064 673.001739 193.453863 C 671.765788 180.822662 670.136579 168.696709 668.395011 157.356697 C 666.597264 146.016686 664.743337 135.462615 662.77705 125.862902 C 660.866944 116.207051 658.900657 107.393279 657.04673 99.590004 C 655.192803 91.786729 653.451235 84.937811 651.822027 79.829191 C 650.192818 74.664434 648.619789 71.239975 644.069241 68.264625 C 639.462513 65.289275 631.934446 62.819174 623.732223 61.022736 C 615.47382 59.226299 606.597442 58.103525 597.721064 56.924613 " transform="matrix(0.0695315,0,0,0.0695822,0.0294275,0)"/>
<path style="fill:none;stroke-width:5.91;stroke-linecap:butt;stroke-linejoin:miter;stroke:rgb(21.568627%,20.392157%,20.784314%);stroke-opacity:1;stroke-miterlimit:22.9256;" d="M 341.429691 393.812783 C 342.103847 392.577732 342.834181 391.286543 343.957774 390.725156 C 345.025186 390.16377 346.542036 390.332186 347.216191 388.535748 C 347.946526 386.683172 347.834167 382.921881 348.227424 380.957027 C 348.676861 378.992174 349.575734 378.823758 350.362249 378.767619 C 351.204943 378.767619 351.935278 378.823758 352.384715 378.262371 C 352.777972 377.644846 352.834152 376.465934 353.564487 375.567715 C 354.351001 374.613357 355.755491 374.051971 357.3847 373.883555 C 359.013909 373.715139 360.924015 373.995832 362.159967 373.827416 C 363.395918 373.659 363.957714 373.097613 362.384685 370.739789 C 360.867836 368.381965 357.159982 364.33998 353.452127 360.241857 " transform="matrix(0.0695315,0,0,0.0695822,0.0294275,0)"/>
<path style="fill:none;stroke-width:5.91;stroke-linecap:butt;stroke-linejoin:miter;stroke:rgb(21.568627%,20.392157%,20.784314%);stroke-opacity:1;stroke-miterlimit:22.9256;" d="M 306.598334 129.680332 C 302.665762 133.610039 298.677009 137.539746 294.800616 141.974701 C 290.868044 146.409656 287.04783 151.349859 283.227617 156.009369 C 279.407404 160.61274 275.58719 164.991557 272.665851 168.752848 C 269.688331 172.570277 267.553506 175.770182 265.755759 179.587611 C 263.958011 183.405041 262.441162 187.839996 261.486109 191.88198 C 260.474876 195.867826 259.969259 199.51684 259.91308 204.007934 C 259.80072 208.555166 260.137798 213.944479 261.205211 219.614484 C 262.272623 225.28449 264.12655 231.235189 266.373735 236.680641 C 268.620919 242.18223 271.31754 247.178572 274.23888 252.511746 C 277.160219 257.84492 280.306277 263.514926 284.407389 270.139289 C 288.5085 276.763652 293.620845 284.342373 299.014087 292.145648 C 304.463509 299.948924 310.193829 307.976754 316.542125 316.116861 C 322.834241 324.256969 329.744333 332.453215 335.755551 339.470549 C 341.766769 346.431744 346.822934 352.214027 349.744273 355.582348 C 352.665613 358.950668 353.452127 359.905025 353.452127 360.241857 C 353.508307 360.578689 352.834152 360.241857 352.384715 361.982156 C 351.879098 363.722455 351.542021 367.483746 350.924045 369.560877 C 350.306069 371.694146 349.407196 372.087117 348.339783 372.199395 C 347.27237 372.311672 346.036419 372.143256 345.418443 372.648504 C 344.800468 373.153752 344.800468 374.276525 344.40721 375.118605 C 343.957774 375.960686 343.171259 376.465934 342.721822 377.195736 C 342.328565 377.925539 342.328565 378.879896 342.272385 379.665838 C 342.272385 380.395641 342.160026 380.900889 340.530817 381.237721 C 338.957788 381.518414 335.755551 381.68683 334.182522 381.799107 C 332.609493 381.855246 332.609493 381.855246 332.609493 381.855246 " transform="matrix(0.0695315,0,0,0.0695822,0.0294275,0)"/>
<path style="fill:none;stroke-width:5.91;stroke-linecap:butt;stroke-linejoin:miter;stroke:rgb(21.568627%,20.392157%,20.784314%);stroke-opacity:1;stroke-miterlimit:22.9256;" d="M 572.777318 521.5844 C 567.945872 519.731824 563.114425 517.823109 555.923436 516.868752 C 548.732446 515.914395 539.238092 515.802117 528.283068 515.633701 C 517.271865 515.409146 504.856172 515.072314 494.631483 514.735482 C 484.350615 514.342512 476.204571 513.893402 470.024815 512.096965 C 463.788878 510.244389 459.519228 506.932207 453.45183 502.441113 C 447.384432 498.006158 439.463108 492.336152 431.541783 486.048621 C 423.620458 479.76109 415.642954 472.856033 406.878935 464.772064 C 398.114916 456.744234 388.620562 447.537492 379.744184 438.499166 C 370.867806 429.46084 362.609404 420.59093 354.912797 411.215771 C 347.27237 401.896752 340.13756 392.128623 332.609493 381.855246 C 325.137605 371.581869 317.328639 360.803244 308.283722 347.779072 C 299.294985 334.7549 289.014117 319.485182 279.856841 305.787346 C 270.643385 292.145648 262.609701 280.019695 257.497356 272.048004 C 252.441192 264.020174 250.306367 260.090467 247.946823 255.31868 C 245.58728 250.546893 243.059197 244.933025 241.317629 239.599852 C 239.632241 234.266678 238.677188 229.158059 237.946853 222.982805 C 237.216518 216.751412 236.654722 209.453385 236.373824 203.33427 C 236.149105 197.215154 236.261465 192.274951 238.28393 186.997916 C 240.362576 181.77702 244.351328 176.163152 249.126595 169.651066 C 253.901862 163.082842 259.407463 155.616398 266.205196 147.251736 C 272.946749 138.887074 281.036612 129.568055 285.755699 124.122604 C 290.474787 118.733291 291.879277 117.161408 292.77815 115.084277 C 293.677024 112.951008 294.070281 110.31249 294.800616 107.78625 C 295.474772 105.147732 296.486005 102.621492 297.890495 100.263668 C 299.294985 97.961982 301.092732 95.772574 302.609582 94.144553 C 304.126431 92.516531 305.362383 91.337619 306.935412 90.327123 C 308.56462 89.316627 310.530907 88.418408 312.553373 87.857021 C 314.632018 87.351773 316.766843 87.183357 318.901668 87.857021 C 321.036493 88.586824 323.171319 90.102568 324.800527 91.562174 C 326.373556 93.021779 327.440969 94.312969 328.339842 96.3901 C 329.238716 98.411092 330.025231 101.218025 330.362308 104.137236 C 330.755566 107.056447 330.755566 110.087936 330.418488 112.782592 C 330.08141 115.421109 329.407255 117.722795 328.227483 119.799926 C 326.935352 121.877057 325.137605 123.673494 323.171319 125.694486 C 321.205032 127.65934 319.070207 129.904887 316.710664 130.859244 C 314.29494 131.813602 311.654499 131.47677 309.856751 131.252215 C 308.059004 131.02766 307.103951 130.971521 306.598334 129.680332 C 306.092718 128.333004 306.092718 125.806764 306.373616 123.84191 C 306.654514 121.877057 307.21631 120.47359 307.946645 118.957846 C 308.6208 117.49824 309.463494 115.926357 309.688213 113.063285 C 309.969111 110.200213 309.632033 105.989812 309.070237 102.003967 C 308.508441 97.961982 307.721926 94.144553 307.328669 92.235838 C 306.935412 90.327123 306.935412 90.327123 306.935412 90.327123 " transform="matrix(0.0695315,0,0,0.0695822,0.0294275,0)"/>
<path style="fill:none;stroke-width:5.91;stroke-linecap:butt;stroke-linejoin:miter;stroke:rgb(21.568627%,20.392157%,20.784314%);stroke-opacity:1;stroke-miterlimit:22.9256;" d="M 581.204259 499.971012 C 585.41773 507.2129 589.631201 514.39865 593.788492 521.865094 C 598.001962 529.275398 602.159253 536.910258 606.428903 544.264424 C 610.642374 551.61859 614.912024 558.692063 617.664825 563.519988 C 620.417626 568.347914 624.237839 576.038912 626.147946 577.610795 " transform="matrix(0.0695315,0,0,0.0695822,0.0294275,0)"/>
<path style="fill-rule:evenodd;fill:rgb(21.568627%,20.392157%,20.784314%);fill-opacity:1;stroke-width:5.91;stroke-linecap:butt;stroke-linejoin:miter;stroke:rgb(21.568627%,20.392157%,20.784314%);stroke-opacity:1;stroke-miterlimit:22.9256;" d="M 619.912009 584.57199 C 624.294019 582.719414 630.867033 578.901984 637.327688 575.196832 C 643.844522 571.435541 650.248998 567.730389 654.462468 564.867316 C 658.732119 562.004244 660.754585 559.927113 662.552332 558.523646 C 664.2939 557.176318 665.810749 556.390377 664.069181 551.61859 C 662.327614 546.790664 657.383808 537.920754 653.282697 529.499953 C 649.125406 521.079152 645.754629 513.107461 643.170367 507.325178 C 640.586105 501.599033 638.732178 498.062297 637.664766 496.321998 C 636.541173 494.525561 636.147916 494.525561 635.024324 495.81675 C 633.900732 497.107939 632.102984 499.63418 631.26029 501.037646 C 630.473776 502.497252 630.586135 502.834084 631.990625 505.13577 C 633.338936 507.437455 635.867018 511.703994 638.732178 517.093307 C 641.653518 522.482619 644.855755 528.938566 647.383838 534.889266 C 649.91192 540.783826 651.822027 546.117 652.945619 549.93443 C 654.125391 553.807998 654.518648 556.053545 654.18157 557.906121 C 653.788313 559.758697 652.664721 561.162164 649.293944 563.576127 C 645.979348 565.933951 640.473746 569.302271 635.361402 572.389898 C 630.192878 575.477525 625.417611 578.284459 622.159194 579.294955 C 618.844597 580.305451 617.046849 579.575648 614.574947 576.488021 C 612.103044 573.344256 609.013165 567.842666 605.249132 561.948105 C 601.541277 556.053545 597.159268 549.822152 593.114336 543.927592 C 589.125584 537.976893 585.41773 532.419164 582.215492 528.657873 C 579.013255 524.840443 576.316633 522.87559 574.743604 521.921232 C 573.226755 520.910736 572.945857 520.910736 572.777318 521.5844 C 572.608779 522.201926 572.608779 523.549254 574.181808 525.850939 C 575.698658 528.152625 578.844716 531.408668 581.709876 535.450652 C 584.575036 539.492637 587.215477 544.264424 590.192997 549.373043 C 593.226695 554.537801 596.597472 560.039391 599.855889 565.765535 C 603.114306 571.547818 606.204185 577.554656 608.114292 580.979115 C 609.968219 584.403574 610.642374 585.357932 612.046864 585.807041 C 613.451354 586.312289 615.58618 586.424566 619.912009 584.57199 Z M 619.912009 584.57199 " transform="matrix(0.0695315,0,0,0.0695822,0.0294275,0)"/>
<path style="fill:none;stroke-width:5.91;stroke-linecap:butt;stroke-linejoin:miter;stroke:rgb(21.568627%,20.392157%,20.784314%);stroke-opacity:1;stroke-miterlimit:22.9256;" d="M 455.249578 787.90626 C 459.743946 791.667551 464.294494 795.48498 469.125941 799.190133 C 473.957387 802.895285 479.182091 806.48816 484.519153 809.631926 C 489.856216 812.83183 495.361818 815.526486 500.979779 817.715895 C 506.59774 819.961441 512.384239 821.70174 518.676355 822.375404 C 524.912292 823.105207 531.766204 822.768375 537.945961 821.589463 C 544.181897 820.466689 549.743679 818.501836 555.473999 815.751041 C 561.260498 813.056385 567.159357 809.575787 573.395294 805.309248 C 579.68741 800.98657 586.260424 795.821812 592.496361 790.825471 C 598.732297 785.829129 604.631156 781.11348 610.417656 775.611891 C 616.147976 770.166439 621.765936 763.991186 626.878281 757.87207 C 631.990625 751.752955 636.709712 745.689979 642.102955 738.167396 C 647.552377 730.644814 653.732134 721.662627 658.956837 713.91549 C 664.23772 706.112215 668.56355 699.54399 672.664662 693.481014 C 676.709593 687.418037 680.473627 681.80417 683.563506 677.14466 C 686.597204 672.429012 688.900568 668.667721 689.743262 665.187123 C 690.585957 661.706525 690.02416 658.506621 688.451131 654.240082 C 686.934282 650.029682 684.35002 644.752646 681.653399 638.970363 C 678.956778 633.18808 676.035438 626.84441 673.563535 620.556879 C 671.035453 614.269348 668.900628 608.037955 666.821982 601.974979 C 664.743337 595.912002 662.664691 590.07358 660.810764 584.684268 C 658.956837 579.238816 657.327628 574.242475 656.484934 571.772373 C 655.69842 569.302271 655.69842 569.414549 655.69842 569.470687 C 655.69842 569.582965 655.69842 569.639104 655.69842 569.695242 " transform="matrix(0.0695315,0,0,0.0695822,0.0294275,0)"/>
<path style="fill:none;stroke-width:5.91;stroke-linecap:butt;stroke-linejoin:miter;stroke:rgb(21.568627%,20.392157%,20.784314%);stroke-opacity:1;stroke-miterlimit:22.9256;" d="M 638.3951 602.536365 C 639.069256 611.855385 639.743411 621.230543 639.85577 629.426789 C 639.96813 637.623035 639.574872 644.58423 638.788358 651.152455 C 638.001843 657.72068 636.878251 663.895934 635.52994 670.015049 C 634.237809 676.134164 632.77714 682.253279 630.586135 688.596949 C 628.507489 694.940619 625.698509 701.621121 622.046834 709.199842 C 618.39516 716.834701 613.844612 725.367779 608.788447 733.395609 C 603.732282 741.423439 598.170501 748.889883 592.046924 755.794939 C 585.923346 762.699996 579.237973 768.987527 572.664959 773.871592 C 566.091945 778.699518 559.63129 782.067838 553.451533 784.144969 C 547.271776 786.165961 541.429097 786.895764 535.361699 787.06418 C 529.294301 787.232596 522.946006 786.839625 517.552763 785.716852 C 512.2157 784.594078 507.777511 782.797641 503.339322 780.495955 C 498.957313 778.19427 494.631483 775.443475 489.069702 771.569906 C 483.507921 767.696338 476.766368 762.756135 469.18212 756.412465 C 461.597873 750.124934 453.114752 742.377797 443.170962 732.834223 C 433.227171 723.23451 421.822711 711.782221 411.710381 701.508844 C 401.654231 691.179328 392.946392 681.972586 384.800349 673.77634 C 376.598126 665.636232 368.957699 658.506621 361.991428 652.050674 C 354.968977 645.594727 348.676861 639.812443 341.935308 633.581051 C 335.249934 627.349658 328.227483 620.613018 320.980314 614.100932 C 313.733144 607.588846 306.317436 601.357453 298.957907 595.294477 C 291.654558 589.175361 284.29503 583.280801 276.654603 577.83535 C 268.957997 572.33376 260.868133 567.337418 252.609731 562.62177 C 244.351328 557.906121 235.924387 553.471166 227.834523 549.709875 C 219.74466 545.948584 211.991874 542.917096 204.239088 540.390855 C 196.486302 537.864615 188.677336 535.787484 180.98073 534.608572 C 173.284124 533.485799 165.756056 533.261244 158.789785 533.205105 C 151.823513 533.148967 145.531397 533.317383 140.306694 533.42966 C 135.08199 533.541938 130.980879 533.654215 127.834821 534.047186 C 124.744942 534.384018 122.553937 535.057682 120.868549 535.843623 C 119.126981 536.685703 117.83485 537.696199 117.273054 539.997885 C 116.767438 542.29957 116.992156 545.892445 117.385413 548.980072 C 117.722491 552.067699 118.228108 554.593939 121.430345 555.885129 C 124.632583 557.176318 130.587621 557.176318 135.475247 557.007902 C 140.419053 556.895625 144.351625 556.67107 148.340378 556.446516 C 152.27295 556.221961 156.261702 556.053545 161.598765 556.502654 C 166.992008 556.951764 173.677381 558.018398 180.081856 559.085033 C 186.542511 560.095529 192.666089 561.106025 200.306515 563.407711 C 207.946942 565.709396 217.104218 569.302271 226.261494 573.737227 C 235.41877 578.116043 244.632226 583.280801 254.969274 589.961303 C 265.306322 596.585666 276.823142 604.725773 287.609626 613.371129 C 298.396111 622.016484 308.396082 631.110949 317.778076 640.710662 C 327.21625 650.254236 335.980269 660.303059 344.575749 669.846633 C 353.11505 679.446346 361.373452 688.540811 369.968932 698.196662 C 378.564412 707.796375 387.44079 717.901336 396.09245 727.276494 C 404.68793 736.651652 413.114871 745.240869 421.485633 753.773947 C 429.856395 762.250887 438.227156 770.671687 446.597918 779.03635 " transform="matrix(0.0695315,0,0,0.0695822,0.0294275,0)"/>
<path style="fill:none;stroke-width:5.91;stroke-linecap:butt;stroke-linejoin:miter;stroke:rgb(21.568627%,20.392157%,20.784314%);stroke-opacity:1;stroke-miterlimit:22.9256;" d="M 156.036984 533.205105 C 158.05945 541.06452 159.52012 548.867795 160.306634 556.390377 C 155.643727 556.053545 151.992052 556.221961 148.340378 556.446516 C 144.351625 556.67107 140.419053 556.895625 135.475247 557.007902 C 130.587621 557.176318 124.632583 557.176318 121.430345 555.885129 C 118.228108 554.593939 117.722491 552.067699 117.385413 548.980072 C 116.992156 545.892445 116.767438 542.29957 117.273054 539.997885 C 117.83485 537.696199 119.126981 536.685703 120.868549 535.843623 C 122.553937 535.057682 124.744942 534.384018 127.834821 534.047186 C 130.980879 533.654215 135.08199 533.541938 140.306694 533.42966 C 144.801062 533.317383 150.194305 533.205105 156.036984 533.205105 Z M 156.036984 533.205105 " transform="matrix(0.0695315,0,0,0.0695822,0.0294275,0)"/>
<path style="fill:none;stroke-width:5.91;stroke-linecap:butt;stroke-linejoin:miter;stroke:rgb(21.568627%,20.392157%,20.784314%);stroke-opacity:1;stroke-miterlimit:22.9256;" d="M 70.53162 453.263637 C 95.363007 438.218473 130.81234 465.165035 149.688688 513.500432 C 152.216771 520.012518 154.351596 526.636881 156.036984 533.205105 C 150.194305 533.205105 144.801062 533.317383 140.306694 533.42966 C 135.08199 533.541938 130.980879 533.654215 127.834821 534.047186 C 124.744942 534.384018 122.553937 535.057682 120.868549 535.843623 C 119.126981 536.685703 117.83485 537.696199 117.273054 539.997885 C 116.767438 542.29957 116.992156 545.892445 117.385413 548.980072 C 117.722491 552.067699 118.228108 554.593939 121.430345 555.885129 C 124.632583 557.176318 130.587621 557.176318 135.475247 557.007902 C 140.419053 556.895625 144.351625 556.67107 148.340378 556.446516 C 151.992052 556.221961 155.643727 556.053545 160.306634 556.390377 C 163.902129 589.175361 156.317882 617.693807 138.902203 628.304016 C 114.014637 643.405318 78.565304 616.402617 59.745135 568.123359 C 40.812607 519.787963 45.644054 468.364939 70.53162 453.263637 Z M 70.53162 453.263637 " transform="matrix(0.0695315,0,0,0.0695822,0.0294275,0)"/>
<path style="fill:none;stroke-width:5.91;stroke-linecap:butt;stroke-linejoin:miter;stroke:rgb(21.568627%,20.392157%,20.784314%);stroke-opacity:1;stroke-miterlimit:22.9256;" d="M 657.271449 574.354752 C 656.316396 571.210986 655.417522 568.067221 654.462468 564.867316 " transform="matrix(0.0695315,0,0,0.0695822,0.0294275,0)"/>
<path style="fill:none;stroke-width:5.91;stroke-linecap:butt;stroke-linejoin:miter;stroke:rgb(21.568627%,20.392157%,20.784314%);stroke-opacity:1;stroke-miterlimit:22.9256;" d="M 144.688703 533.317383 C 145.868475 541.06452 147.104426 548.755518 148.340378 556.446516 " transform="matrix(0.0695315,0,0,0.0695822,0.0294275,0)"/>
<path style="fill:none;stroke-width:5.91;stroke-linecap:butt;stroke-linejoin:miter;stroke:rgb(21.568627%,20.392157%,20.784314%);stroke-opacity:1;stroke-miterlimit:22.9256;" d="M 338.058915 386.907727 C 345.137545 379.441283 352.216176 371.97484 355.811671 368.213549 C 359.350986 364.508396 359.350986 364.508396 359.350986 364.508396 " transform="matrix(0.0695315,0,0,0.0695822,0.0294275,0)"/>
<path style="fill:none;stroke-width:5.91;stroke-linecap:butt;stroke-linejoin:miter;stroke:rgb(21.568627%,20.392157%,20.784314%);stroke-opacity:1;stroke-miterlimit:22.9256;" d="M 338.78925 389.097135 C 345.86788 381.630691 352.946511 374.164248 356.542006 370.459096 C 360.081321 366.697805 360.081321 366.697805 360.081321 366.697805 " transform="matrix(0.0695315,0,0,0.0695822,0.0294275,0)"/>
<path style="fill:none;stroke-width:5.91;stroke-linecap:butt;stroke-linejoin:miter;stroke:rgb(21.568627%,20.392157%,20.784314%);stroke-opacity:1;stroke-miterlimit:22.9256;" d="M 635.361402 579.407232 C 633.956911 579.631787 632.552421 579.856342 632.66478 580.586145 C 632.833319 581.372086 634.518708 582.663275 635.52994 584.403574 C 636.484994 586.143873 636.822071 588.445559 636.934431 589.568332 C 637.102969 590.691105 637.102969 590.691105 637.102969 590.691105 " transform="matrix(0.0695315,0,0,0.0695822,0.0294275,0)"/>
<path style="fill:none;stroke-width:5.91;stroke-linecap:butt;stroke-linejoin:miter;stroke:rgb(21.568627%,20.392157%,20.784314%);stroke-opacity:1;stroke-miterlimit:22.9256;" d="M 638.45128 467.410582 C 634.237809 475.213857 630.024339 483.017133 627.889514 486.94684 C 625.810868 490.820408 625.810868 490.820408 625.810868 490.820408 " transform="matrix(0.0695315,0,0,0.0695822,0.0294275,0)"/>
<path style="fill:none;stroke-width:5.91;stroke-linecap:butt;stroke-linejoin:miter;stroke:rgb(21.568627%,20.392157%,20.784314%);stroke-opacity:1;stroke-miterlimit:22.9256;" d="M 642.83329 464.435232 C 638.675999 472.238508 634.462528 480.041783 632.327703 483.915352 C 630.192878 487.845059 630.192878 487.845059 630.192878 487.845059 " transform="matrix(0.0695315,0,0,0.0695822,0.0294275,0)"/>
<path style=" stroke:none;fill-rule:evenodd;fill:rgb(99.607843%,99.607843%,99.607843%);fill-opacity:1;" d="M 10.707031 37.308594 L 11.421875 37.308594 L 11.421875 37.957031 L 10.707031 37.957031 Z M 10.707031 37.308594 "/>
<path style=" stroke:none;fill-rule:evenodd;fill:rgb(99.607843%,99.607843%,99.607843%);fill-opacity:1;" d="M 10.867188 37.851562 L 11.578125 37.898438 L 11.535156 38.546875 L 10.824219 38.496094 Z M 10.867188 37.851562 "/>
<path style="fill:none;stroke-width:2.36;stroke-linecap:butt;stroke-linejoin:miter;stroke:rgb(21.568627%,20.392157%,20.784314%);stroke-opacity:1;stroke-miterlimit:22.9256;" d="M 635.923198 466.23167 C 641.091722 463.761568 646.260246 461.291467 648.675969 460.224832 C 651.035512 459.102059 650.698435 459.438891 650.361357 459.719584 " transform="matrix(0.0695315,0,0,0.0695822,0.0294275,0)"/>
<path style="fill:none;stroke-width:5.91;stroke-linecap:butt;stroke-linejoin:miter;stroke:rgb(21.568627%,20.392157%,20.784314%);stroke-opacity:1;stroke-miterlimit:22.9256;" d="M 347.216191 388.535748 C 351.373482 391.735652 355.586952 394.991695 357.665598 396.619717 C 359.744244 398.247738 359.744244 398.247738 359.744244 398.247738 " transform="matrix(0.0695315,0,0,0.0695822,0.0294275,0)"/>
</g>
</svg>
