<?xml version="1.0" encoding="UTF-8"?>
<svg xmlns="http://www.w3.org/2000/svg" xmlns:xlink="http://www.w3.org/1999/xlink" width="250px" height="192px" viewBox="0 0 249 192" version="1.1">
<g id="surface1">
<path style=" stroke:none;fill-rule:evenodd;fill:rgb(88.627451%,68.627451%,72.156863%);fill-opacity:1;" d="M 119.632812 52.113281 C 120.066406 51.203125 119.90625 48.785156 119.6875 46.378906 C 119.472656 43.976562 119.199219 41.582031 119.105469 39.449219 C 119.011719 37.316406 119.09375 35.441406 119.253906 33.238281 C 119.417969 31.039062 119.660156 28.507812 119.960938 26.527344 C 120.257812 24.542969 120.609375 23.101562 121.179688 21.757812 C 121.75 20.410156 122.535156 19.160156 123.214844 18.304688 C 123.890625 17.449219 124.457031 16.988281 125.503906 16.402344 C 126.546875 15.816406 128.0625 15.113281 129.121094 14.636719 C 130.179688 14.160156 130.773438 13.917969 131.914062 13.359375 C 133.050781 12.800781 134.730469 11.933594 136.167969 11.304688 C 137.605469 10.679688 138.800781 10.300781 140.628906 10.097656 C 142.460938 9.894531 144.925781 9.867188 147.378906 10.4375 C 149.832031 11.007812 152.269531 12.175781 154.359375 13.261719 C 156.445312 14.351562 158.179688 15.355469 159.875 16.730469 C 161.570312 18.101562 163.222656 19.839844 164.347656 21.566406 C 165.472656 23.292969 166.070312 25.003906 166.625 26.566406 C 167.179688 28.128906 167.695312 29.542969 168.199219 31.445312 C 168.699219 33.347656 169.1875 35.738281 169.550781 38.445312 C 169.917969 41.148438 170.164062 44.164062 170.269531 47.046875 C 170.378906 49.925781 170.351562 52.671875 170.21875 55.320312 C 170.082031 57.972656 169.835938 60.523438 169.511719 63.105469 C 169.1875 65.691406 168.78125 68.296875 168.277344 70.785156 C 167.777344 73.269531 167.179688 75.636719 166.53125 78.175781 C 165.878906 80.71875 165.175781 83.4375 164.578125 85.800781 C 163.980469 88.164062 163.496094 90.175781 162.761719 92.402344 C 162.03125 94.632812 161.054688 97.078125 160.039062 99.742188 C 159.019531 102.40625 157.964844 105.285156 157.164062 107.828125 C 156.363281 110.371094 155.820312 112.570312 154.820312 115.097656 C 153.816406 117.625 152.351562 120.480469 151.363281 122.246094 C 150.375 124.011719 149.859375 124.691406 149.234375 124.992188 C 148.613281 125.289062 147.878906 125.207031 146.578125 124.882812 C 145.277344 124.554688 143.40625 123.984375 141.488281 123.316406 C 139.566406 122.648438 137.597656 121.882812 131.648438 119.058594 C 125.695312 116.230469 115.765625 111.34375 109.433594 108.03125 C 103.097656 104.714844 100.359375 102.976562 97.011719 100.925781 C 93.664062 98.871094 89.707031 96.507812 85.8125 93.378906 C 81.921875 90.246094 78.089844 86.351562 74.675781 81.675781 C 71.261719 77.003906 68.257812 71.550781 66.433594 68.007812 C 64.605469 64.464844 63.957031 62.835938 63.507812 61.082031 C 63.0625 59.328125 62.816406 57.453125 62.886719 55.835938 C 62.953125 54.21875 63.332031 52.859375 63.683594 51.664062 C 64.039062 50.46875 64.363281 49.4375 65.039062 48.132812 C 65.71875 46.828125 66.746094 45.25 67.535156 44.054688 C 68.320312 42.859375 68.863281 42.042969 69.894531 41.1875 C 70.921875 40.332031 72.441406 39.433594 73.402344 38.863281 C 74.367188 38.292969 74.773438 38.050781 75.542969 37.640625 C 76.316406 37.234375 77.453125 36.664062 79.082031 36.203125 C 80.707031 35.738281 82.824219 35.386719 85.289062 35.304688 C 87.757812 35.222656 90.574219 35.414062 93.421875 36.105469 C 96.265625 36.800781 99.140625 37.996094 102.285156 39.871094 C 105.429688 41.746094 108.84375 44.300781 111.367188 46.40625 C 113.886719 48.511719 115.515625 50.171875 116.84375 51.296875 C 118.171875 52.425781 119.199219 53.023438 119.632812 52.113281 Z M 119.632812 52.113281 "/>
<path style=" stroke:none;fill-rule:nonzero;fill:rgb(94.901961%,50.588235%,8.627451%);fill-opacity:1;" d="M 27.726562 162.640625 C 31.863281 161.945312 35.15625 160.132812 37.617188 157.207031 C 40.074219 154.285156 41.3125 150.734375 41.3125 146.566406 C 41.3125 141.875 39.714844 137.988281 36.550781 134.910156 C 33.375 131.839844 29.257812 130.304688 24.199219 130.304688 C 19.136719 130.304688 15.046875 131.839844 11.921875 134.910156 C 8.789062 137.988281 7.210938 141.875 7.210938 146.585938 C 7.210938 150.734375 8.410156 154.25 10.78125 157.152344 C 13.152344 160.054688 16.371094 161.878906 20.421875 162.621094 C 22.457031 167.664062 26.527344 170.1875 32.644531 170.1875 C 35.429688 170.1875 37.78125 169.675781 39.695312 168.671875 L 37.636719 162.707031 C 36.941406 163.195312 35.984375 163.597656 34.722656 163.921875 C 33.460938 164.238281 32.132812 164.324219 30.773438 164.152344 C 29.410156 163.984375 28.398438 163.488281 27.746094 162.664062 Z M 15.570312 146.585938 C 15.570312 144.128906 16.410156 142.066406 18.070312 140.421875 C 19.726562 138.78125 21.785156 137.964844 24.242188 137.964844 C 26.699219 137.964844 28.757812 138.78125 30.414062 140.421875 C 32.078125 142.066406 32.914062 144.128906 32.914062 146.585938 C 32.914062 149.085938 32.078125 151.195312 30.414062 152.875 C 28.757812 154.5625 26.699219 155.40625 24.242188 155.40625 C 21.785156 155.40625 19.726562 154.5625 18.070312 152.875 C 16.410156 151.195312 15.570312 149.109375 15.570312 146.609375 Z M 62.4375 137.890625 L 62.4375 151.179688 C 62.4375 152.507812 61.992188 153.582031 61.109375 154.398438 C 60.230469 155.226562 59.117188 155.640625 57.777344 155.640625 C 56.453125 155.640625 55.386719 155.238281 54.582031 154.441406 C 53.785156 153.644531 53.382812 152.566406 53.382812 151.199219 L 53.382812 137.890625 L 45.386719 137.890625 L 45.386719 152.214844 C 45.386719 155.527344 46.210938 158.113281 47.824219 160.011719 C 49.441406 161.90625 51.578125 162.855469 54.246094 162.855469 C 57.128906 162.835938 59.851562 161.546875 62.460938 158.996094 L 62.460938 162.382812 L 70.457031 162.382812 L 70.457031 137.9375 Z M 90.628906 162.339844 L 98.3125 162.339844 L 98.3125 148.824219 C 98.3125 145.019531 97.40625 142.175781 95.625 140.292969 C 93.839844 138.410156 90.902344 137.460938 86.828125 137.460938 C 82.988281 137.460938 79.210938 138.324219 75.496094 140.039062 L 77.296875 145.796875 C 77.949219 145.445312 79.058594 145.0625 80.65625 144.667969 C 82.253906 144.265625 83.890625 144.078125 85.589844 144.078125 C 87.078125 144.078125 88.253906 144.417969 89.09375 145.105469 C 89.933594 145.796875 90.332031 146.910156 90.3125 148.460938 C 88.417969 147.851562 86.363281 147.558594 84.117188 147.558594 C 82.988281 147.558594 81.875 147.703125 80.765625 148.003906 C 79.648438 148.296875 78.621094 148.734375 77.652344 149.324219 C 76.695312 149.921875 75.914062 150.71875 75.304688 151.734375 C 74.695312 152.746094 74.402344 153.902344 74.402344 155.191406 C 74.402344 157.613281 75.246094 159.457031 76.921875 160.765625 C 78.601562 162.074219 80.824219 162.726562 83.617188 162.726562 C 85.253906 162.726562 86.675781 162.453125 87.875 161.921875 C 89.074219 161.398438 89.976562 160.722656 90.585938 159.902344 Z M 86.070312 157.230469 C 85 157.230469 84.117188 156.980469 83.410156 156.488281 C 82.695312 156.007812 82.335938 155.355469 82.335938 154.535156 C 82.335938 153.75 82.714844 153.140625 83.488281 152.683594 C 84.269531 152.214844 85.253906 151.984375 86.449219 151.984375 C 87.796875 151.984375 89.074219 152.234375 90.269531 152.722656 L 90.269531 153.902344 C 90.269531 154.972656 89.867188 155.792969 89.09375 156.367188 C 88.320312 156.933594 87.289062 157.230469 86.035156 157.230469 Z M 103.191406 162.339844 L 111.191406 162.339844 L 111.191406 128.882812 L 103.191406 128.882812 Z M 134.621094 137.890625 L 128.953125 152.164062 L 123.449219 137.890625 L 114.417969 137.890625 L 125.089844 161.90625 L 125.046875 162.039062 C 124.285156 163.84375 123.046875 164.746094 121.328125 164.746094 C 119.898438 164.746094 118.257812 164.285156 116.429688 163.359375 L 113.894531 169.699219 C 116.730469 171.085938 119.453125 171.78125 122.109375 171.78125 C 124.753906 171.78125 126.851562 171.171875 128.40625 169.949219 C 129.957031 168.726562 131.28125 166.792969 132.371094 164.15625 L 143.335938 137.914062 Z M 143.726562 137.890625 L 153.886719 162.339844 L 162.136719 162.339844 L 172.324219 137.890625 L 163.542969 137.890625 L 158.003906 152.632812 L 152.503906 137.890625 Z M 183.660156 131.574219 C 183.660156 130.417969 183.238281 129.433594 182.378906 128.609375 C 181.519531 127.789062 180.507812 127.386719 179.332031 127.386719 C 178.09375 127.386719 177.027344 127.808594 176.140625 128.652344 C 175.253906 129.492188 174.816406 130.484375 174.816406 131.597656 C 174.816406 132.777344 175.253906 133.765625 176.140625 134.585938 C 177.027344 135.414062 178.070312 135.808594 179.3125 135.808594 C 180.507812 135.808594 181.539062 135.414062 182.378906 134.585938 C 183.226562 133.765625 183.640625 132.777344 183.640625 131.597656 Z M 175.253906 162.339844 L 183.261719 162.339844 L 183.261719 137.890625 L 175.253906 137.890625 Z M 205.625 128.882812 L 205.625 140.703125 C 203.839844 138.515625 201.300781 137.417969 198.011719 137.417969 C 194.835938 137.417969 192.257812 138.574219 190.285156 140.910156 C 188.3125 143.246094 187.324219 146.292969 187.324219 150.058594 C 187.324219 153.859375 188.3125 156.933594 190.285156 159.285156 C 192.257812 161.636719 194.824219 162.8125 197.988281 162.8125 C 201.28125 162.8125 203.816406 161.699219 205.601562 159.488281 L 205.601562 162.339844 L 213.601562 162.339844 L 213.601562 128.902344 Z M 200.613281 155.625 C 199.035156 155.625 197.773438 155.125 196.835938 154.097656 C 195.890625 153.0625 195.421875 151.761719 195.421875 150.179688 C 195.421875 148.519531 195.890625 147.175781 196.8125 146.148438 C 197.730469 145.113281 198.992188 144.613281 200.613281 144.613281 C 202.246094 144.613281 203.507812 145.113281 204.382812 146.128906 C 205.265625 147.132812 205.710938 148.476562 205.710938 150.144531 C 205.710938 151.761719 205.25 153.0625 204.347656 154.074219 C 203.445312 155.082031 202.183594 155.585938 200.570312 155.585938 Z M 233.855469 162.339844 L 241.539062 162.339844 L 241.539062 148.824219 C 241.539062 145.019531 240.636719 142.175781 238.851562 140.292969 C 237.066406 138.410156 234.128906 137.460938 230.058594 137.460938 C 226.214844 137.460938 222.4375 138.324219 218.726562 140.039062 L 220.523438 145.796875 C 221.175781 145.445312 222.285156 145.0625 223.886719 144.667969 C 225.484375 144.265625 227.117188 144.078125 228.816406 144.078125 C 230.308594 144.078125 231.484375 144.417969 232.320312 145.105469 C 233.160156 145.796875 233.5625 146.910156 233.539062 148.460938 C 231.648438 147.851562 229.59375 147.558594 227.347656 147.558594 C 226.214844 147.558594 225.105469 147.703125 223.992188 148.003906 C 222.875 148.296875 221.851562 148.734375 220.882812 149.324219 C 219.921875 149.921875 219.140625 150.71875 218.53125 151.734375 C 217.921875 152.746094 217.628906 153.902344 217.628906 155.191406 C 217.628906 157.613281 218.472656 159.457031 220.152344 160.765625 C 221.828125 162.074219 224.050781 162.726562 226.847656 162.726562 C 228.480469 162.726562 229.90625 162.453125 231.105469 161.921875 C 232.300781 161.398438 233.203125 160.722656 233.8125 159.902344 Z M 229.296875 157.230469 C 228.230469 157.230469 227.347656 156.980469 226.636719 156.488281 C 225.921875 156.007812 225.5625 155.355469 225.5625 154.535156 C 225.5625 153.75 225.941406 153.140625 226.71875 152.683594 C 227.5 152.214844 228.480469 151.984375 229.675781 151.984375 C 231.023438 151.984375 232.300781 152.234375 233.5 152.722656 L 233.5 153.902344 C 233.5 154.972656 233.097656 155.792969 232.320312 156.367188 C 231.546875 156.933594 230.515625 157.230469 229.261719 157.230469 Z M 229.296875 157.230469 "/>
<path style=" stroke:none;fill-rule:nonzero;fill:rgb(21.568627%,20.392157%,20.784314%);fill-opacity:1;" d="M 37.648438 184.726562 C 39.355469 184.726562 40.550781 183.996094 40.550781 182.675781 C 40.550781 181.292969 39.261719 181.046875 37.726562 180.773438 C 36.386719 180.535156 36.058594 180.351562 36.058594 179.832031 C 36.058594 179.152344 36.675781 178.785156 37.796875 178.785156 C 38.660156 178.785156 39.386719 179.007812 39.90625 179.320312 L 40.398438 178.527344 C 39.769531 178.121094 38.824219 177.847656 37.824219 177.847656 C 36.523438 177.847656 34.992188 178.304688 34.992188 179.855469 C 34.992188 181.058594 35.894531 181.398438 37.578125 181.699219 C 38.605469 181.878906 39.480469 182.023438 39.480469 182.730469 C 39.480469 183.523438 38.5625 183.773438 37.660156 183.773438 C 36.742188 183.773438 35.691406 183.472656 35.210938 183.109375 L 34.714844 183.90625 C 35.386719 184.398438 36.648438 184.726562 37.648438 184.726562 Z M 49.433594 177.847656 C 48.308594 177.847656 47.40625 178.34375 46.914062 179.140625 L 46.816406 178.015625 L 45.941406 178.015625 L 45.941406 187.808594 L 46.96875 187.808594 L 46.96875 183.617188 C 47.476562 184.308594 48.324219 184.714844 49.375 184.714844 C 51.335938 184.714844 52.882812 183.316406 52.882812 181.292969 C 52.882812 179.257812 51.320312 177.847656 49.433594 177.847656 Z M 49.335938 183.773438 C 47.871094 183.773438 46.871094 182.78125 46.871094 181.28125 C 46.871094 179.777344 47.871094 178.785156 49.335938 178.785156 C 50.800781 178.785156 51.800781 179.792969 51.800781 181.28125 C 51.800781 182.769531 50.800781 183.773438 49.335938 183.773438 Z M 58.988281 181.660156 L 64.503906 181.660156 C 64.570312 181.371094 64.597656 181.007812 64.597656 180.835938 C 64.597656 179.320312 63.53125 177.847656 61.394531 177.847656 C 59.328125 177.847656 57.917969 179.242188 57.917969 181.242188 C 57.917969 183.316406 59.425781 184.714844 61.476562 184.714844 C 62.546875 184.714844 63.519531 184.335938 64.175781 183.707031 L 63.558594 182.988281 C 62.996094 183.511719 62.273438 183.800781 61.464844 183.800781 C 60.097656 183.800781 59.152344 182.964844 58.988281 181.660156 Z M 58.988281 180.773438 C 59.179688 179.542969 60.066406 178.761719 61.382812 178.761719 C 62.765625 178.761719 63.503906 179.660156 63.503906 180.746094 L 63.503906 180.773438 Z M 73.195312 184.714844 C 74.25 184.714844 75.152344 184.347656 75.808594 183.707031 L 75.097656 182.988281 C 74.605469 183.523438 73.949219 183.773438 73.210938 183.773438 C 71.71875 183.773438 70.703125 182.753906 70.703125 181.28125 C 70.703125 179.792969 71.730469 178.785156 73.195312 178.785156 C 73.988281 178.785156 74.660156 179.074219 75.058594 179.53125 L 75.769531 178.8125 C 75.140625 178.199219 74.222656 177.847656 73.195312 177.847656 C 71.167969 177.847656 69.636719 179.269531 69.636719 181.28125 C 69.636719 183.289062 71.15625 184.714844 73.195312 184.714844 Z M 82.011719 176.878906 C 82.40625 176.878906 82.734375 176.570312 82.734375 176.1875 C 82.734375 175.8125 82.40625 175.496094 82.011719 175.496094 C 81.613281 175.496094 81.285156 175.8125 81.285156 176.1875 C 81.285156 176.570312 81.613281 176.878906 82.011719 176.878906 Z M 82.519531 178.015625 L 81.492188 178.015625 L 81.492188 184.542969 L 82.519531 184.542969 Z M 91.660156 177.847656 C 90.511719 177.847656 89.484375 178.226562 88.816406 178.75 L 89.265625 179.503906 C 89.894531 179.023438 90.773438 178.785156 91.539062 178.785156 C 92.742188 178.785156 93.414062 179.375 93.414062 180.523438 L 93.414062 180.875 C 92.675781 180.652344 91.867188 180.5625 91.210938 180.5625 C 89.828125 180.5625 88.429688 181.148438 88.429688 182.636719 C 88.429688 184.007812 89.59375 184.714844 90.839844 184.714844 C 91.828125 184.714844 92.894531 184.28125 93.46875 183.445312 L 93.550781 184.542969 L 94.425781 184.542969 L 94.425781 180.523438 C 94.425781 178.734375 93.414062 177.847656 91.660156 177.847656 Z M 90.992188 183.761719 C 90.101562 183.761719 89.5 183.34375 89.5 182.613281 C 89.5 181.75 90.320312 181.410156 91.359375 181.410156 C 92.019531 181.410156 92.742188 181.5 93.414062 181.710938 L 93.414062 181.839844 C 93.402344 183.003906 92.195312 183.761719 90.992188 183.761719 Z M 100.339844 184.542969 L 101.367188 184.542969 L 101.367188 174.753906 L 100.339844 174.753906 Z M 108.019531 176.878906 C 108.414062 176.878906 108.746094 176.570312 108.746094 176.1875 C 108.746094 175.8125 108.414062 175.496094 108.019531 175.496094 C 107.621094 175.496094 107.292969 175.8125 107.292969 176.1875 C 107.292969 176.570312 107.621094 176.878906 108.019531 176.878906 Z M 108.527344 178.015625 L 107.5 178.015625 L 107.5 184.542969 L 108.527344 184.542969 Z M 115.382812 183.65625 L 119.558594 178.773438 L 119.558594 178.015625 L 114.152344 178.015625 L 114.152344 178.90625 L 118.203125 178.90625 L 114.027344 183.785156 L 114.027344 184.542969 L 119.628906 184.542969 L 119.628906 183.65625 Z M 125.675781 181.660156 L 131.195312 181.660156 C 131.261719 181.371094 131.289062 181.007812 131.289062 180.835938 C 131.289062 179.320312 130.222656 177.847656 128.085938 177.847656 C 126.019531 177.847656 124.609375 179.242188 124.609375 181.242188 C 124.609375 183.316406 126.117188 184.714844 128.167969 184.714844 C 129.238281 184.714844 130.207031 184.335938 130.867188 183.707031 L 130.25 182.988281 C 129.6875 183.511719 128.964844 183.800781 128.15625 183.800781 C 126.785156 183.800781 125.84375 182.964844 125.675781 181.660156 Z M 125.675781 180.773438 C 125.871094 179.542969 126.757812 178.761719 128.074219 178.761719 C 129.457031 178.761719 130.195312 179.660156 130.195312 180.746094 L 130.195312 180.773438 Z M 142.226562 174.753906 L 142.226562 178.929688 C 141.71875 178.253906 140.871094 177.847656 139.816406 177.847656 C 137.859375 177.847656 136.328125 179.242188 136.328125 181.265625 C 136.328125 183.304688 137.875 184.714844 139.777344 184.714844 C 140.898438 184.714844 141.789062 184.214844 142.28125 183.421875 L 142.378906 184.542969 L 143.253906 184.542969 L 143.253906 174.753906 Z M 139.859375 183.773438 C 138.394531 183.773438 137.394531 182.769531 137.394531 181.28125 C 137.394531 179.792969 138.394531 178.785156 139.859375 178.785156 C 141.324219 178.785156 142.324219 179.777344 142.324219 181.28125 C 142.324219 182.78125 141.324219 183.773438 139.859375 183.773438 Z M 139.859375 183.773438 "/>
<path style=" stroke:none;fill-rule:nonzero;fill:rgb(21.568627%,20.392157%,20.784314%);fill-opacity:1;" d="M 160.542969 184.445312 C 161.566406 184.445312 162.441406 184.109375 163.078125 183.519531 L 162.390625 182.859375 C 161.910156 183.351562 161.273438 183.578125 160.554688 183.578125 C 159.109375 183.578125 158.125 182.640625 158.125 181.28125 C 158.125 179.90625 159.121094 178.980469 160.542969 178.980469 C 161.3125 178.980469 161.964844 179.246094 162.347656 179.667969 L 163.039062 179.003906 C 162.429688 178.4375 161.539062 178.113281 160.542969 178.113281 C 158.578125 178.113281 157.089844 179.425781 157.089844 181.28125 C 157.089844 183.132812 158.566406 184.445312 160.542969 184.445312 Z M 171.296875 178.113281 C 170.183594 178.113281 169.1875 178.460938 168.535156 178.945312 L 168.972656 179.644531 C 169.585938 179.195312 170.433594 178.980469 171.179688 178.980469 C 172.347656 178.980469 172.996094 179.519531 172.996094 180.582031 L 172.996094 180.90625 C 172.28125 180.703125 171.496094 180.617188 170.859375 180.617188 C 169.519531 180.617188 168.164062 181.160156 168.164062 182.535156 C 168.164062 183.796875 169.292969 184.445312 170.5 184.445312 C 171.457031 184.445312 172.492188 184.050781 173.050781 183.28125 L 173.128906 184.289062 L 173.980469 184.289062 L 173.980469 180.582031 C 173.980469 178.933594 172.996094 178.113281 171.296875 178.113281 Z M 170.648438 183.566406 C 169.785156 183.566406 169.199219 183.183594 169.199219 182.507812 C 169.199219 181.714844 169.996094 181.402344 171.003906 181.402344 C 171.640625 181.402344 172.347656 181.484375 172.996094 181.675781 L 172.996094 181.796875 C 172.984375 182.871094 171.816406 183.566406 170.648438 183.566406 Z M 182.957031 178.113281 C 181.945312 178.113281 181.109375 178.570312 180.660156 179.328125 L 180.566406 178.269531 L 179.714844 178.269531 L 179.714844 184.289062 L 180.710938 184.289062 L 180.710938 180.894531 C 180.710938 179.679688 181.734375 178.980469 182.796875 178.980469 C 183.0625 178.980469 183.3125 179.027344 183.550781 179.101562 L 183.898438 178.246094 C 183.605469 178.160156 183.285156 178.113281 182.957031 178.113281 Z M 189.433594 181.628906 L 194.785156 181.628906 C 194.851562 181.363281 194.878906 181.027344 194.878906 180.871094 C 194.878906 179.472656 193.84375 178.113281 191.769531 178.113281 C 189.765625 178.113281 188.398438 179.402344 188.398438 181.246094 C 188.398438 183.160156 189.859375 184.445312 191.851562 184.445312 C 192.886719 184.445312 193.832031 184.097656 194.46875 183.519531 L 193.871094 182.859375 C 193.324219 183.339844 192.621094 183.605469 191.835938 183.605469 C 190.511719 183.605469 189.59375 182.832031 189.433594 181.628906 Z M 189.433594 180.808594 C 189.621094 179.679688 190.484375 178.957031 191.757812 178.957031 C 193.097656 178.957031 193.816406 179.789062 193.816406 180.785156 L 193.816406 180.808594 Z M 189.433594 180.808594 "/>
<path style=" stroke:none;fill-rule:evenodd;fill:rgb(100%,100%,99.215686%);fill-opacity:1;" d="M 75.628906 83.019531 C 76.238281 83.300781 77.347656 83.359375 78.800781 83.589844 C 80.257812 83.820312 82.0625 84.226562 83.902344 84.878906 C 85.738281 85.535156 87.609375 86.4375 89.828125 87.824219 C 92.050781 89.207031 94.621094 91.070312 97.101562 93.242188 C 99.582031 95.414062 101.980469 97.886719 104.550781 100.65625 C 107.125 103.421875 109.871094 106.476562 112.5 109.285156 C 115.128906 112.097656 117.640625 114.664062 119.652344 116.515625 C 121.660156 118.371094 123.167969 119.515625 124.6875 120.390625 C 126.203125 121.265625 127.734375 121.871094 129.046875 122.164062 C 130.359375 122.460938 131.457031 122.441406 132.878906 122.03125 C 134.296875 121.621094 136.039062 120.816406 137.605469 119.878906 C 139.167969 118.9375 140.554688 117.859375 142.148438 116.332031 C 143.738281 114.808594 145.542969 112.835938 147.121094 110.875 C 148.695312 108.914062 150.046875 106.957031 151.25 105.183594 C 152.445312 103.410156 153.492188 101.820312 154.085938 100.734375 C 154.675781 99.644531 154.820312 99.070312 154.683594 98.269531 C 154.550781 97.472656 154.140625 96.453125 153.5 94.820312 C 152.855469 93.1875 151.980469 90.941406 151.3125 89.117188 C 150.644531 87.292969 150.1875 85.890625 149.539062 85.441406 C 148.886719 84.996094 148.046875 85.503906 147.511719 85.894531 C 146.976562 86.28125 146.746094 86.546875 146.773438 87.21875 C 146.796875 87.890625 147.078125 88.972656 147.253906 90.101562 C 147.429688 91.230469 147.496094 92.410156 147.453125 93.949219 C 147.40625 95.488281 147.25 97.386719 146.882812 99.277344 C 146.511719 101.171875 145.933594 103.050781 145.058594 105.019531 C 144.179688 106.988281 143.003906 109.039062 141.601562 110.867188 C 140.195312 112.691406 138.558594 114.285156 137.097656 115.316406 C 135.636719 116.34375 134.351562 116.804688 132.773438 116.882812 C 131.195312 116.960938 129.328125 116.65625 127.226562 115.628906 C 125.128906 114.597656 122.800781 112.839844 120.449219 110.789062 C 118.097656 108.742188 115.726562 106.402344 113.171875 103.886719 C 110.617188 101.375 107.878906 98.691406 104.714844 95.785156 C 101.546875 92.882812 97.953125 89.753906 95.007812 87.511719 C 92.0625 85.269531 89.765625 83.90625 87.824219 82.910156 C 85.878906 81.914062 84.292969 81.289062 82.3125 80.835938 C 80.328125 80.378906 77.957031 80.101562 76.515625 79.964844 C 75.078125 79.828125 74.574219 79.832031 74.445312 80.152344 C 74.3125 80.46875 74.558594 81.09375 74.734375 81.660156 C 74.910156 82.226562 75.019531 82.734375 75.628906 83.019531 Z M 75.628906 83.019531 "/>
<path style=" stroke:none;fill-rule:evenodd;fill:rgb(100%,100%,99.215686%);fill-opacity:1;" d="M 99.125 14.117188 C 99.671875 14.050781 100.269531 14.234375 100.6875 14.539062 C 101.109375 14.839844 101.347656 15.265625 101.488281 15.75 C 101.632812 16.230469 101.675781 16.773438 101.582031 17.332031 C 101.492188 17.890625 101.257812 18.464844 100.964844 18.925781 C 100.671875 19.382812 100.316406 19.726562 99.878906 19.921875 C 99.4375 20.125 98.914062 20.179688 98.46875 20.324219 C 98.027344 20.472656 97.664062 20.707031 97.199219 21.148438 C 96.730469 21.59375 96.160156 22.242188 95.472656 23.058594 C 94.789062 23.871094 93.984375 24.847656 93.328125 25.84375 C 92.671875 26.835938 92.15625 27.847656 91.851562 28.5625 C 91.550781 29.28125 91.460938 29.707031 91.417969 30.304688 C 91.371094 30.90625 91.371094 31.683594 91.460938 32.472656 C 91.546875 33.261719 91.71875 34.0625 92.0625 35.019531 C 92.402344 35.976562 92.914062 37.089844 93.5625 38.304688 C 94.210938 39.519531 95 40.839844 96.320312 42.753906 C 97.636719 44.667969 99.488281 47.179688 101.261719 49.433594 C 103.03125 51.683594 104.722656 53.675781 106.351562 55.496094 C 107.980469 57.3125 109.546875 58.957031 111.039062 60.441406 C 112.53125 61.925781 113.957031 63.253906 115.503906 64.5 C 117.054688 65.75 118.734375 66.917969 120.367188 67.859375 C 122 68.804688 123.585938 69.527344 125.066406 69.992188 C 126.542969 70.453125 127.914062 70.65625 129.277344 70.714844 C 130.636719 70.773438 131.988281 70.683594 133.207031 70.46875 C 134.425781 70.25 135.515625 69.898438 136.523438 69.453125 C 137.53125 69.007812 138.460938 68.46875 139.347656 67.859375 C 140.230469 67.253906 141.074219 66.578125 141.960938 65.71875 C 142.851562 64.863281 143.785156 63.824219 144.570312 62.78125 C 145.359375 61.738281 146 60.691406 146.738281 59.289062 C 147.476562 57.890625 148.3125 56.136719 149.039062 54.320312 C 149.765625 52.507812 150.386719 50.632812 150.949219 48.382812 C 151.511719 46.132812 152.019531 43.507812 152.289062 41.316406 C 152.554688 39.125 152.582031 37.367188 152.546875 35.699219 C 152.515625 34.035156 152.417969 32.457031 152.167969 30.15625 C 151.921875 27.855469 151.523438 24.828125 151.050781 22.039062 C 150.578125 19.25 150.027344 16.691406 149.617188 15.007812 C 149.207031 13.328125 148.9375 12.519531 148.636719 11.96875 C 148.339844 11.421875 148.019531 11.128906 147.335938 10.816406 C 146.652344 10.5 145.609375 10.164062 144.59375 9.921875 C 143.582031 9.671875 142.601562 9.519531 141.257812 9.425781 C 139.910156 9.332031 138.195312 9.300781 136.980469 9.34375 C 135.765625 9.386719 135.054688 9.507812 134.367188 9.496094 C 133.679688 9.484375 133.019531 9.339844 132.40625 8.96875 C 131.800781 8.597656 131.242188 8.003906 130.882812 7.414062 C 130.527344 6.820312 130.371094 6.234375 130.367188 5.726562 C 130.363281 5.222656 130.511719 4.796875 130.75 4.554688 C 130.984375 4.3125 131.308594 4.25 131.730469 4.289062 C 132.152344 4.328125 132.671875 4.476562 133.261719 4.710938 C 133.847656 4.953125 134.507812 5.285156 135.203125 5.53125 C 135.902344 5.773438 136.636719 5.929688 137.503906 6.039062 C 138.367188 6.148438 139.363281 6.210938 140.546875 6.335938 C 141.734375 6.460938 143.109375 6.652344 144.40625 6.832031 C 145.699219 7.007812 146.914062 7.175781 147.882812 7.375 C 148.855469 7.574219 149.578125 7.800781 150.269531 8.222656 C 150.960938 8.644531 151.621094 9.261719 152.132812 10.015625 C 152.644531 10.773438 153.011719 11.667969 153.359375 12.78125 C 153.707031 13.898438 154.039062 15.230469 154.3125 16.820312 C 154.589844 18.410156 154.804688 20.261719 155.144531 23.027344 C 155.480469 25.789062 155.9375 29.464844 156.210938 32.230469 C 156.488281 35 156.582031 36.855469 156.777344 37.863281 C 156.96875 38.871094 157.265625 39.03125 157.546875 39.273438 C 157.824219 39.511719 158.09375 39.835938 158.203125 40.609375 C 158.308594 41.386719 158.257812 42.617188 158.105469 44.613281 C 157.953125 46.609375 157.695312 49.375 157.539062 51.683594 C 157.382812 53.992188 157.328125 55.847656 157.292969 57.121094 C 157.261719 58.394531 157.25 59.085938 156.867188 59.890625 C 156.484375 60.695312 155.730469 61.613281 154.492188 62.980469 C 153.257812 64.347656 151.539062 66.164062 150.28125 67.421875 C 149.027344 68.679688 148.234375 69.382812 147.589844 70.0625 C 146.949219 70.746094 146.449219 71.410156 146.34375 72.027344 C 146.238281 72.640625 146.523438 73.203125 146.980469 74.359375 C 147.433594 75.515625 148.066406 77.257812 148.5 78.855469 C 148.933594 80.445312 149.175781 81.890625 148.949219 82.894531 C 148.722656 83.902344 148.03125 84.472656 147.054688 85.085938 C 146.082031 85.699219 144.820312 86.351562 143.726562 85.917969 C 142.632812 85.480469 141.707031 83.953125 140.707031 82.4375 C 139.707031 80.921875 138.632812 79.417969 137.578125 78.546875 C 136.523438 77.675781 135.492188 77.441406 133.363281 77.273438 C 131.234375 77.105469 128.015625 77 125.9375 76.875 C 123.863281 76.753906 122.9375 76.609375 121.839844 76.117188 C 120.742188 75.625 119.472656 74.777344 118.035156 73.6875 C 116.59375 72.601562 114.980469 71.265625 113.171875 69.609375 C 111.367188 67.953125 109.367188 65.976562 107.53125 63.945312 C 105.695312 61.917969 104.019531 59.835938 102.039062 57.15625 C 100.058594 54.472656 97.769531 51.199219 95.773438 48.261719 C 93.777344 45.324219 92.070312 42.726562 90.917969 40.789062 C 89.765625 38.847656 89.167969 37.570312 88.761719 36.28125 C 88.359375 34.988281 88.144531 33.6875 88.042969 32.480469 C 87.941406 31.277344 87.949219 30.167969 88.246094 29.09375 C 88.546875 28.023438 89.132812 26.988281 90.007812 25.722656 C 90.882812 24.457031 92.042969 22.960938 93.082031 21.675781 C 94.121094 20.390625 95.035156 19.316406 95.605469 18.445312 C 96.179688 17.574219 96.410156 16.90625 96.683594 16.335938 C 96.960938 15.761719 97.28125 15.28125 97.683594 14.882812 C 98.089844 14.488281 98.582031 14.179688 99.125 14.117188 Z M 99.125 14.117188 "/>
<path style=" stroke:none;fill-rule:evenodd;fill:rgb(100%,100%,99.215686%);fill-opacity:1;" d="M 61.792969 70.238281 C 61.765625 70.296875 61.546875 70.414062 61.261719 71.253906 C 60.976562 72.097656 60.625 73.667969 60.511719 75.332031 C 60.402344 76.992188 60.535156 78.742188 60.746094 80.277344 C 60.957031 81.8125 61.246094 83.136719 61.722656 84.414062 C 62.195312 85.691406 62.855469 86.925781 63.753906 88.253906 C 64.65625 89.582031 65.792969 91 66.964844 92.027344 C 68.136719 93.046875 69.335938 93.675781 70.515625 93.855469 C 71.699219 94.035156 72.855469 93.761719 73.746094 93.210938 C 74.636719 92.660156 75.253906 91.828125 75.71875 90.828125 C 76.179688 89.832031 76.480469 88.667969 76.628906 87.355469 C 76.777344 86.050781 76.773438 84.597656 76.554688 82.9375 C 76.339844 81.28125 75.910156 79.414062 75.238281 77.582031 C 74.570312 75.746094 73.660156 73.941406 72.628906 72.441406 C 71.597656 70.941406 70.449219 69.746094 69.300781 68.9375 C 68.148438 68.132812 67.003906 67.710938 65.910156 67.707031 C 64.8125 67.703125 63.769531 68.117188 63.054688 68.503906 C 62.339844 68.890625 61.957031 69.253906 61.757812 69.527344 C 61.554688 69.800781 61.53125 69.984375 61.597656 70.078125 C 61.667969 70.171875 61.824219 70.179688 61.792969 70.238281 Z M 61.792969 70.238281 "/>
<path style="fill:none;stroke-width:2.36;stroke-linecap:butt;stroke-linejoin:miter;stroke:rgb(21.568627%,20.392157%,20.784314%);stroke-opacity:1;stroke-miterlimit:22.9256;" d="M 430.311137 459.509569 C 455.169359 444.442815 490.601601 471.377942 509.470529 519.697287 C 512.041155 526.252646 514.161259 532.860872 515.857343 539.416231 C 509.974053 539.416231 504.62079 539.548396 500.089067 539.680561 C 494.868311 539.786292 490.760609 539.865591 487.659956 540.235651 C 484.532802 540.605712 482.386197 541.266535 480.663612 542.085955 C 478.941028 542.905375 477.615962 543.909825 477.085936 546.209487 C 476.55591 548.50915 476.794422 552.104024 477.16544 555.196674 C 477.536459 558.289324 478.039983 560.826882 481.246641 562.095661 C 484.426797 563.364441 490.363089 563.364441 495.292331 563.258709 C 500.221574 563.126545 504.170268 562.888648 508.118962 562.650752 C 511.776142 562.465722 515.40682 562.307125 520.124052 562.624319 C 523.701728 595.401118 516.122356 623.922219 498.684498 634.521813 C 473.852777 649.588567 438.394034 622.627007 419.525106 574.307662 C 400.656179 525.988317 405.479416 474.602756 430.311137 459.509569 Z M 515.857343 539.416231 C 517.871442 547.266803 519.302512 555.064509 520.124052 562.624319 C 515.40682 562.307125 511.776142 562.465722 508.118962 562.650752 C 504.170268 562.888648 500.221574 563.126545 495.292331 563.258709 C 490.363089 563.364441 484.426797 563.364441 481.246641 562.095661 C 478.039983 560.826882 477.536459 558.289324 477.16544 555.196674 C 476.794422 552.104024 476.55591 548.50915 477.085936 546.209487 C 477.615962 543.909825 478.941028 542.905375 480.663612 542.085955 C 482.386197 541.266535 484.532802 540.605712 487.659956 540.235651 C 490.760609 539.865591 494.868311 539.786292 500.089067 539.680561 C 504.62079 539.548396 509.974053 539.416231 515.857343 539.416231 Z M 998.181056 608.723301 C 998.843588 618.106981 999.479619 627.464228 999.612126 635.631995 C 999.744632 643.826194 999.320612 650.804481 998.552074 657.386273 C 997.757035 663.941633 996.617479 670.100499 995.292414 676.232932 C 993.99385 682.338933 992.509777 688.444933 990.363171 694.78883 C 988.243067 701.159159 985.433929 707.82025 981.80325 715.432926 C 978.119569 723.019169 973.614348 731.583429 968.552599 739.592598 C 963.49085 747.601768 957.925576 755.082279 951.777274 761.981266 C 945.681975 768.880254 939.030148 775.197717 932.431323 780.061371 C 925.859 784.898593 919.392682 788.282004 913.217878 790.317337 C 907.043075 792.379104 901.212788 793.119225 895.14399 793.277822 C 889.04869 793.462853 882.74138 793.039926 877.361616 791.929744 C 871.95535 790.819563 867.529632 789.022125 863.130416 786.722463 C 858.7312 784.4228 854.384986 781.620913 848.819712 777.761709 C 843.28094 773.902505 836.549609 768.959553 828.943735 762.642089 C 821.337861 756.298193 812.883946 748.579785 802.945957 739.011075 C 793.007968 729.442364 781.559406 718.02335 771.515412 707.714519 C 761.444917 697.379254 752.725988 688.180604 744.563587 680.012837 C 736.374684 671.845071 728.742309 664.681754 721.745965 658.232126 C 714.776122 651.782498 708.442311 646.046558 701.737481 639.78196 C 695.059153 633.543796 687.983305 626.803406 680.748449 620.327345 C 673.513594 613.824851 666.11973 607.586686 658.778869 601.507118 C 651.411507 595.427551 644.097147 589.506581 636.411769 584.03497 C 628.752893 578.563359 620.669996 573.567541 612.42809 568.836051 C 604.159684 564.104562 595.705768 559.663834 587.622871 555.936795 C 579.513472 552.209756 571.801593 549.169972 564.036711 546.605981 C 556.271829 544.068422 548.453945 542.006656 540.768567 540.870041 C 533.083189 539.706993 525.530318 539.469097 518.586977 539.416231 C 511.643635 539.389799 505.309824 539.548396 500.089067 539.680561 C 494.868311 539.786292 490.760609 539.865591 487.659956 540.235651 C 484.532802 540.605712 482.386197 541.266535 480.663612 542.085955 C 478.941028 542.905375 477.615962 543.909825 477.085936 546.209487 C 476.55591 548.50915 476.794422 552.104024 477.16544 555.196674 C 477.536459 558.289324 478.039983 560.826882 481.246641 562.095661 C 484.426797 563.364441 490.363089 563.364441 495.292331 563.258709 C 500.221574 563.126545 504.170268 562.888648 508.118962 562.650752 C 512.094158 562.439289 516.069353 562.280692 521.422616 562.730051 C 526.749378 563.17941 533.454208 564.263159 539.894024 565.294043 C 546.30734 566.324926 552.482143 567.329376 560.114518 569.629038 C 567.746894 571.928701 576.889843 575.523576 586.059294 579.93787 C 595.202243 584.325732 604.398196 589.506581 614.760205 596.167672 C 625.122214 602.802331 636.62378 610.943664 647.383309 619.587223 C 658.142838 628.204349 668.186832 637.323701 677.594794 646.892411 C 687.002757 656.461122 695.801189 666.505624 704.334609 676.074335 C 712.868028 685.643045 721.189438 694.762397 729.77586 704.383973 C 738.362282 713.979116 747.240218 724.102918 755.853142 733.460165 C 764.492566 742.817413 772.866978 751.460971 781.24139 759.972366 C 789.642303 768.457327 798.016715 776.86299 806.391126 785.24222 M 815.030551 794.097242 C 819.535773 797.877147 824.067495 801.657052 828.917234 805.357659 C 833.740471 809.058265 838.934726 812.679573 844.261488 815.851521 C 849.614751 818.997036 855.127022 821.719625 860.745299 823.939989 C 866.390076 826.160353 872.140859 827.878491 878.421668 828.59218 C 884.702477 829.279435 891.513311 828.96224 897.741118 827.799193 C 903.942422 826.662578 909.507696 824.68011 915.258479 821.957521 C 921.009262 819.261365 926.945553 815.798655 933.17336 811.490092 C 939.427667 807.181529 945.99999 802.00068 952.254298 797.031295 C 958.482104 792.061909 964.418396 787.277554 970.169178 781.832376 C 975.919961 776.360765 981.511736 770.201899 986.652989 764.069466 C 991.76774 757.937032 996.458471 751.857465 1001.891238 744.350521 C 1007.297504 736.843577 1013.472307 727.882823 1018.719565 720.11155 C 1023.966823 712.340276 1028.339538 705.784917 1032.420739 699.678916 C 1036.475438 693.599349 1040.238623 688.022007 1043.286273 683.343383 C 1046.333923 678.664759 1048.639536 674.884854 1049.487578 671.395711 C 1050.362121 667.880135 1049.779092 664.681754 1048.215516 660.45249 C 1046.651939 656.223226 1044.107814 650.963078 1041.404681 645.174272 C 1038.701548 639.385467 1035.812906 633.04157 1033.321783 626.776973 C 1030.80416 620.485942 1028.657554 614.221344 1026.563951 608.194643 C 1024.470348 602.167941 1022.429748 596.32627 1020.574657 590.907525 C 1018.719565 585.462347 1017.076485 580.466528 1016.254944 578.008268 C 1015.433404 575.523576 1015.433404 575.602874 1015.433404 575.708606 C 1015.433404 575.787905 1015.433404 575.867203 1015.433404 575.946502 M 979.683146 590.77536 C 984.055861 588.925057 990.628184 585.145152 997.121003 581.418113 C 1003.587321 577.664641 1010.000637 573.964034 1014.240845 571.109281 C 1018.481054 568.228095 1020.521654 566.166328 1022.297241 564.765385 C 1024.072829 563.364441 1025.5304 562.624319 1023.807816 557.813531 C 1022.085231 553.029176 1017.155989 544.147721 1013.021785 535.715625 C 1008.861081 527.309962 1005.495415 519.327226 1002.898288 513.564853 C 1000.327661 507.828914 998.499071 504.286905 997.412518 502.5159 C 996.299463 500.771329 995.875442 500.771329 994.762388 502.040108 C 993.649333 503.308887 991.847244 505.846446 991.025704 507.300256 C 990.204163 508.727632 990.363171 509.07126 991.741239 511.370922 C 993.092805 513.670585 995.636931 517.926282 998.499071 523.318594 C 1001.387713 528.684473 1004.594371 535.186967 1007.138496 541.107937 C 1009.682621 547.028907 1011.564214 552.368353 1012.730271 556.174691 C 1013.869827 560.007462 1014.293848 562.307125 1013.92283 564.157428 C 1013.551811 566.007731 1012.412255 567.408675 1009.073091 569.787636 C 1005.733927 572.166597 1000.221656 575.523576 995.106904 578.616225 C 989.965652 581.708875 985.195417 584.484329 981.909256 585.515213 C 978.623094 586.546096 976.821005 585.805975 974.356384 582.686892 C 971.891763 579.56781 968.764609 574.043333 965.027926 568.175229 C 961.291242 562.307125 956.918527 556.06896 952.890329 550.14799 C 948.888632 544.22702 945.17845 538.649677 941.971792 534.869772 C 938.765134 531.089867 936.062002 529.1074 934.551427 528.129382 C 933.014352 527.124932 932.696336 527.124932 932.537328 527.785755 C 932.351819 528.446577 932.351819 529.768222 933.915396 532.067885 C 935.478973 534.367547 938.606127 537.645227 941.468267 541.689461 C 944.356909 545.707262 946.980538 550.465185 950.001687 555.6196 C 952.996334 560.747583 956.362 566.245627 959.595159 572.008 C 962.854819 577.743939 965.981973 583.744208 967.863565 587.206918 C 969.745158 590.643196 970.40769 591.568347 971.812259 592.044139 C 973.190327 592.546365 975.336932 592.625663 979.683146 590.77536 Z M 940.991244 506.190074 C 945.17845 513.406256 949.365656 520.648871 953.552862 528.076517 C 957.740067 535.504162 961.927273 543.169704 966.167482 550.51805 C 970.40769 557.866397 974.6744 564.923982 977.430535 569.73477 C 980.186671 574.545558 981.432232 577.083117 983.313825 578.669091 C 985.221918 580.228632 987.766044 580.836589 989.488628 581.523844 C 991.184712 582.2111 992.059255 583.03052 992.748289 585.594511 C 993.437322 588.158503 993.967348 592.546365 994.232361 594.713863 C 994.470873 596.907793 994.470873 596.907793 994.470873 596.907793 M 932.537328 527.785755 C 927.68759 525.935451 922.890854 524.058715 915.709001 523.080698 C 908.527148 522.129114 899.01318 522.049815 888.041641 521.838352 C 877.070101 521.626888 864.64099 521.309694 854.384986 520.939633 C 844.10248 520.569572 835.96658 520.146646 829.765276 518.296343 C 823.563971 516.44604 819.297261 513.16836 813.201961 508.701199 C 807.133163 504.207606 799.235775 498.550965 791.311885 492.259934 C 783.387995 485.968904 775.411103 479.069916 766.665673 471.007881 C 757.920243 462.972279 748.379774 453.747196 739.501838 444.707144 C 730.623901 435.667091 722.408497 426.812069 714.72312 417.481254 C 707.037742 408.15044 699.908891 398.370266 692.409023 388.087867 C 684.935655 377.831901 677.117771 367.047277 668.107328 354.04229 C 659.070383 341.010869 648.787878 325.732652 639.618427 312.040408 C 630.448976 298.374598 622.419082 286.294762 617.30433 278.285592 C 612.21608 270.24999 610.069474 266.311488 607.73736 261.553565 C 605.405245 256.795643 602.86112 251.191868 601.138535 245.852422 C 599.389449 240.512975 598.488405 235.411425 597.77287 229.226126 C 597.030833 223.014394 596.447805 215.69248 596.209293 209.58648 C 595.94428 203.454047 596.023784 198.537527 598.090885 193.27738 C 600.131486 188.017232 604.159684 182.413457 608.929918 175.88453 C 613.700153 169.355603 619.212424 161.875092 625.970256 153.495862 C 632.75459 145.116632 640.810986 135.838683 645.528218 130.419939 C 650.271951 124.974761 651.650019 123.41522 652.577564 121.32702 C 653.478609 119.238821 653.876128 116.595531 654.591663 114.005106 C 655.280697 111.441115 656.261245 108.877123 657.665814 106.551028 C 659.070383 104.1985 660.872472 102.057435 662.383046 100.418595 C 663.920122 98.779755 665.139182 97.616707 666.72926 96.612257 C 668.34584 95.581374 670.306936 94.656222 672.374038 94.127564 C 674.414638 93.598906 676.561243 93.440309 678.707849 94.127564 C 680.827953 94.841252 682.974559 96.400794 684.564637 97.82817 C 686.181216 99.255547 687.241268 100.577192 688.142313 102.638959 C 689.043357 104.700725 689.785394 107.47618 690.156412 110.410232 C 690.52743 113.317851 690.52743 116.357635 690.209414 119.027358 C 689.864897 121.697081 689.202365 123.996743 687.983305 126.05851 C 686.737744 128.120276 684.935655 129.917713 682.974559 131.926614 C 680.986961 133.935515 678.866857 136.155878 676.48174 137.107463 C 674.096622 138.059047 671.472993 137.71542 669.670905 137.530389 C 667.842315 137.318926 666.861767 137.239627 666.358242 135.917982 C 665.881218 134.596337 665.881218 132.058778 666.172733 130.076311 C 666.437746 128.120276 667.020774 126.719332 667.73631 125.23909 C 668.425343 123.758847 669.246884 122.199306 669.485396 119.31812 C 669.750409 116.436933 669.405892 112.260535 668.849364 108.242734 C 668.292837 104.251366 667.524299 100.418595 667.12678 98.515426 C 666.72926 96.612257 666.72926 96.612257 666.72926 96.612257 M 666.358242 135.917982 C 662.436049 139.856485 658.487355 143.794987 654.591663 148.235715 C 650.66947 152.676442 646.80028 157.619395 642.984093 162.245153 C 639.167905 166.897343 635.378219 171.258772 632.436574 175.038677 C 629.468428 178.818582 627.348324 182.016963 625.519734 185.823301 C 623.717645 189.656072 622.233572 194.0968 621.253024 198.114601 C 620.272476 202.132402 619.768951 205.753709 619.689447 210.273736 C 619.609943 214.793762 619.927959 220.212507 621.014513 225.895581 C 622.074565 231.552222 623.903155 237.473192 626.155765 242.944802 C 628.408376 248.416413 631.111509 253.412232 634.053154 258.751678 C 636.941796 264.091124 640.068949 269.774198 644.176651 276.382424 C 648.284353 282.990649 653.399105 290.550459 658.80537 298.374598 C 664.238138 306.172304 669.98892 314.234339 676.322732 322.34924 C 682.630042 330.490574 689.546882 338.711206 695.536176 345.689493 C 701.551972 352.667779 706.640222 358.430151 709.555366 361.78713 C 712.470509 365.170541 713.212545 366.148559 713.239047 366.492186 C 713.292049 366.809381 712.629517 366.492186 712.152493 368.210325 C 711.648968 369.928464 711.330953 373.708369 710.694922 375.823001 C 710.085392 377.9112 709.184347 378.307694 708.097794 378.439858 C 707.037742 378.572023 705.818682 378.386992 705.209152 378.889218 C 704.573121 379.391443 704.573121 380.528057 704.175601 381.347477 C 703.75158 382.166897 702.93004 382.669123 702.53252 383.409244 C 702.108499 384.149365 702.108499 385.127382 702.081998 385.867504 C 702.028996 386.607625 701.949492 387.10985 700.332912 387.427045 C 698.716333 387.770673 695.562678 387.92927 693.999101 388.008569 C 692.409023 388.087867 692.409023 388.087867 692.409023 388.087867 M 701.207455 400.061972 C 701.92299 398.793193 702.638525 397.497981 703.725079 396.94289 C 704.838134 396.387799 706.322207 396.572829 707.01124 394.748959 C 707.700274 392.951521 707.62077 389.171616 708.01829 387.189149 C 708.442311 385.233114 709.343355 385.048084 710.164896 385.021651 C 710.986436 384.968785 711.728472 385.048084 712.152493 384.492993 C 712.550013 383.911469 712.629517 382.669123 713.371553 381.770404 C 714.11359 380.871685 715.518159 380.290161 717.161239 380.131564 C 718.80432 379.972967 720.685913 380.210863 721.931474 380.052265 C 723.150534 379.867235 723.733563 379.312144 722.169986 376.986049 C 720.63291 374.659953 716.922728 370.562853 713.239047 366.492186 M 723.07103 378.783486 C 728.583301 384.175798 734.069071 389.594543 739.819853 395.48908 C 745.570636 401.41005 751.586432 407.806812 757.628729 414.018544 C 763.671026 420.230276 769.739824 426.230545 775.411103 431.120632 C 781.082382 436.010719 786.32964 439.790624 790.781859 443.200468 C 795.207577 446.610312 798.838255 449.650096 804.085513 453.139239 C 809.359272 456.628382 816.249611 460.566885 822.821934 464.082461 C 829.394257 467.571604 835.648565 470.611388 841.770366 472.990349 C 847.892167 475.36931 853.881461 477.087449 859.685247 478.171198 C 865.462531 479.228514 871.054306 479.65144 877.361616 479.757172 C 883.642424 479.889336 890.612267 479.730739 896.628063 479.149215 C 902.617357 478.567691 907.626104 477.589674 912.926364 476.056565 C 918.226625 474.54989 923.8184 472.488124 929.330671 469.8184 C 934.842942 467.148677 940.249207 463.870998 945.867484 459.932495 C 951.512261 455.96756 957.342548 451.368235 963.040328 446.240252 C 968.764609 441.112269 974.356384 435.429195 979.736149 428.292311 C 985.115913 421.128995 990.283667 412.511869 995.106904 403.86831 C 999.90364 395.251184 1004.329358 386.607625 1008.172047 377.831901 C 1011.988234 369.029745 1015.194892 360.068991 1018.030531 351.742627 C 1020.866171 343.38983 1023.330792 335.671423 1025.636405 326.710669 C 1027.942019 317.749915 1030.062123 307.573248 1031.493193 300.092737 C 1032.950765 292.612225 1033.692802 287.854303 1034.381835 282.382692 C 1035.070869 276.911082 1035.733402 270.752215 1035.945412 263.32457 C 1036.130921 255.870492 1035.89241 247.174067 1035.362384 236.283711 C 1034.832358 225.393356 1034.010817 212.335502 1032.791757 199.727008 C 1031.546196 187.118513 1029.903115 174.932946 1028.127528 163.619663 C 1026.378442 152.279949 1024.470348 141.759654 1022.535753 132.085211 C 1020.601158 122.437202 1018.640061 113.635046 1016.78497 105.83734 C 1014.929879 98.039634 1013.207294 91.219945 1011.590715 86.091962 C 1009.921133 80.937546 1008.357556 77.501269 1003.799332 74.540784 C 999.241108 71.580299 991.688236 69.122039 983.472832 67.298169 C 975.257429 65.500731 966.379492 64.337684 957.501556 63.201069 M 944.197902 62.698844 C 937.466571 62.619545 930.708738 62.540246 926.150514 62.989606 C 921.59229 63.438965 919.207173 64.416982 916.345032 64.972073 C 913.45639 65.500731 910.090725 65.58003 906.963571 65.262835 C 903.862919 64.919207 900.974277 64.179086 898.19164 62.48738 C 895.382502 60.822108 892.679369 58.178817 890.453259 55.56196 C 888.22715 52.91867 886.504565 50.301813 885.312006 47.076998 C 884.119448 43.878617 883.456915 40.098712 883.668926 36.953197 C 883.880936 33.781249 884.940988 31.217257 886.663573 29.869179 C 888.412659 28.521101 890.771275 28.362504 893.288899 28.6004 C 895.780021 28.838296 898.430151 29.499119 899.781718 29.842746 C 901.133284 30.159941 901.212788 30.159941 900.894773 30.027777 C 900.550256 29.922045 899.808219 29.657716 899.62271 30.450703 C 899.4107 31.217257 899.728715 33.041128 900.523754 35.499387 C 901.292292 37.957647 902.537853 41.103163 904.49895 44.513007 C 906.486548 47.922851 909.18968 51.597025 911.442291 54.028852 C 913.721403 56.460679 915.496991 57.597293 917.537591 58.760341 C 919.55169 59.896956 921.751298 61.060004 922.864353 61.641528 C 923.977407 62.196618 923.977407 62.196618 923.977407 62.196618 M 900.894773 30.027777 C 904.392945 31.798781 907.891117 33.569786 910.594249 34.944296 C 913.297382 36.318807 915.178975 37.296825 917.246077 38.301275 C 919.313178 39.279292 921.512786 40.25731 924.507434 40.812401 C 927.502081 41.341059 931.291767 41.420357 935.107955 41.552522 C 938.924142 41.658254 942.793333 41.816851 946.742027 42.160479 C 950.690721 42.477674 954.718919 42.979899 958.164088 43.482124 C 961.609258 43.957916 964.4979 44.460141 968.022573 44.962366 C 971.547246 45.438159 975.760953 45.940384 980.478185 46.54834 C 985.195417 47.18273 990.469176 47.922851 995.027401 48.557241 C 999.585625 49.218064 1003.428314 49.799587 1006.82048 50.169648 C 1010.186146 50.539709 1013.048287 50.698306 1016.17544 52.231414 C 1019.302594 53.73809 1022.66826 56.619276 1025.795413 60.002688 C 1028.922567 63.359666 1031.784708 67.21887 1034.249329 71.368835 C 1036.71395 75.518801 1038.781052 79.959529 1040.795151 85.298975 C 1042.80925 90.638421 1044.770346 96.876586 1046.174915 103.960604 C 1047.579484 111.018188 1048.401025 118.895193 1049.381573 127.776648 C 1050.362121 136.658103 1051.501677 146.517576 1052.667734 155.504763 C 1053.80729 164.518382 1054.946846 172.633283 1055.900893 181.488305 C 1056.85494 190.316895 1057.596977 199.832739 1058.710031 211.912575 C 1059.823086 223.992412 1061.280658 238.636239 1061.996193 246.883305 C 1062.685227 255.13037 1062.605723 257.033539 1060.618125 258.645946 C 1058.657029 260.23192 1054.787839 261.553565 1051.422173 262.372985 C 1048.056508 263.192405 1045.167866 263.536033 1042.676743 263.588899 C 1040.185621 263.668198 1038.065517 263.5096 1037.005464 263.403869 C 1035.945412 263.32457 1035.945412 263.32457 1035.945412 263.32457 M 1061.94319 256.927808 C 1061.810684 262.875211 1061.704679 268.822614 1061.572172 276.99038 C 1061.466167 285.158147 1061.33366 295.546277 1061.280658 300.727126 C 1061.201154 305.907975 1061.201154 305.907975 1061.201154 305.907975 M 1062.367211 253.015738 C 1063.798282 256.531314 1065.202851 260.073323 1066.845931 262.584449 C 1068.489012 265.095574 1070.344103 266.575817 1071.881179 268.003194 C 1073.391753 269.43057 1074.557811 270.805081 1074.902328 273.52767 C 1075.246844 276.276692 1074.769821 280.373792 1074.292798 286.347628 C 1073.815774 292.321463 1073.391753 300.145602 1072.91473 307.626114 C 1072.464208 315.106625 1071.960683 322.269941 1071.245148 328.746002 C 1070.529613 335.248496 1069.602067 341.090168 1068.913033 347.328333 C 1068.223999 353.59293 1067.799978 360.227589 1067.561467 367.972429 C 1067.296454 375.690836 1067.243451 384.519426 1067.21695 390.731158 C 1067.190448 396.94289 1067.190448 400.537764 1067.190448 402.652396 C 1067.190448 404.767029 1067.190448 405.401418 1064.566819 408.652665 C 1061.969692 411.930345 1056.748935 417.824882 1051.634184 423.428657 C 1046.545933 429.006 1041.59019 434.29258 1036.395934 439.922788 C 1031.201679 445.552996 1025.795413 451.500399 1021.05168 456.15259 C 1016.281446 460.831214 1012.173744 464.188192 1008.569566 467.227976 C 1004.99189 470.26776 1001.864737 472.990349 999.877139 477.034583 C 997.889541 481.078817 997.014998 486.418263 996.590977 490.67396 C 996.166957 494.903224 996.193458 498.04874 996.219959 501.167822 M 1056.748935 321.582686 C 1056.430919 330.199812 1056.112904 338.843371 1055.688883 347.3019 C 1055.238361 355.760428 1054.681833 364.007494 1053.939797 372.17526 C 1053.19776 380.36946 1052.270215 388.431495 1050.123609 394.246734 C 1047.977004 400.061972 1044.611338 403.603981 1041.060164 408.124007 C 1037.482488 412.670466 1033.692802 418.194943 1029.002071 424.512406 C 1024.31134 430.803437 1018.719565 437.887455 1013.021785 445.923057 C 1007.350506 453.932226 1001.573222 462.866547 996.882492 470.558522 C 992.191761 478.224063 988.561083 484.620826 986.228968 489.220151 C 983.896853 493.819476 982.863303 496.621363 982.306775 498.207337 C 981.750248 499.766878 981.670744 500.163372 982.359778 500.321969 C 983.048812 500.480567 984.479882 500.401268 985.221918 499.740446 C 985.963955 499.106056 986.016958 497.86371 986.732493 497.04429 C 987.448028 496.251302 988.826096 495.881242 990.522179 495.986973 C 992.191761 496.119138 994.232361 496.727095 996.219959 497.361484 M 504.302774 560.774016 C 504.196769 561.487705 504.117265 562.17496 503.905255 561.567003 C 503.693244 560.959047 503.375229 559.029445 503.666743 557.945696 C 503.984759 556.861947 504.912304 556.624051 505.468832 555.090942 C 505.998858 553.531401 506.131364 550.676648 505.336325 548.799912 C 504.541286 546.949609 502.7922 546.103756 501.57314 544.914275 C 500.301078 543.698362 499.559041 542.165253 499.400033 541.240102 C 499.241026 540.288517 499.665046 539.971322 499.877057 539.812725 C 500.089067 539.680561 500.089067 539.680561 500.089067 539.680561 M 510.371573 540.896474 C 510.742591 540.420682 511.113609 539.918457 511.193113 540.077054 C 511.272617 540.262084 511.034105 541.081504 510.398074 541.583729 C 509.788544 542.112387 508.807996 542.350284 508.330973 543.090405 C 507.827448 543.804093 507.827448 545.020007 507.906952 546.420951 C 508.012957 547.795461 508.198466 549.355003 508.304471 550.861678 C 508.383975 552.368353 508.383975 553.822163 508.622487 555.011644 C 508.807996 556.201124 509.232017 557.152709 509.762043 557.681367 C 510.265568 558.183592 510.875098 558.289324 511.352121 559.003012 C 511.829144 559.743133 512.14716 561.117644 512.332669 561.778467 C 512.491677 562.492155 512.491677 562.492155 512.491677 562.492155 M 459.383066 513.934914 C 457.766487 514.199243 456.149907 514.437139 454.639333 515.679485 C 453.102257 516.921832 451.671187 519.168629 450.743641 521.891217 C 449.816096 524.640239 449.365574 527.865053 449.127062 531.274898 C 448.88855 534.711175 448.809046 538.30605 449.180064 541.76876 C 449.551083 545.257903 450.372623 548.614881 451.353171 552.130457 C 452.360221 555.646033 453.552779 559.320207 454.930847 562.915081 C 456.335416 566.509956 457.951996 570.051965 459.542074 573.223913 C 461.132152 576.395861 462.669228 579.197749 464.683327 581.735308 C 466.697426 584.299299 469.188548 586.598962 471.25565 588.528563 C 473.29625 590.431732 474.91283 591.991274 476.767921 593.180754 C 478.649513 594.370235 480.769617 595.163222 482.810218 595.559715 C 484.850818 595.982642 486.838416 595.982642 488.242985 595.87691 C 489.647554 595.797611 490.442593 595.612581 490.760609 594.819594 C 491.078624 594.05304 490.893115 592.678529 490.78711 591.991274 C 490.707606 591.304018 490.707606 591.304018 490.707606 591.304018 " transform="matrix(0.147398,0,0,0.14778,0.02204,0)"/>
<path style="fill:none;stroke-width:5.91;stroke-linecap:butt;stroke-linejoin:miter;stroke:rgb(21.568627%,20.392157%,20.784314%);stroke-opacity:1;stroke-miterlimit:22.9256;" d="M 459.383066 513.934914 C 457.766487 514.199243 456.149907 514.437139 454.639333 515.679485 C 453.102257 516.921832 451.671187 519.168629 450.743641 521.891217 C 449.816096 524.640239 449.365574 527.865053 449.127062 531.274898 C 448.88855 534.711175 448.809046 538.30605 449.180064 541.76876 C 449.551083 545.257903 450.372623 548.614881 451.353171 552.130457 C 452.360221 555.646033 453.552779 559.320207 454.930847 562.915081 C 456.335416 566.509956 457.951996 570.051965 459.542074 573.223913 C 461.132152 576.395861 462.669228 579.197749 464.683327 581.735308 C 466.697426 584.299299 469.188548 586.598962 471.25565 588.528563 C 473.29625 590.431732 474.91283 591.991274 476.767921 593.180754 C 478.649513 594.370235 480.769617 595.163222 482.810218 595.559715 C 484.850818 595.982642 486.838416 595.982642 488.242985 595.87691 C 489.647554 595.797611 490.442593 595.612581 490.760609 594.819594 C 491.078624 594.05304 490.893115 592.678529 490.78711 591.991274 C 490.707606 591.304018 490.707606 591.304018 490.707606 591.304018 " transform="matrix(0.147398,0,0,0.14778,0.02204,0)"/>
<path style="fill:none;stroke-width:5.91;stroke-linecap:butt;stroke-linejoin:miter;stroke:rgb(21.568627%,20.392157%,20.784314%);stroke-opacity:1;stroke-miterlimit:22.9256;" d="M 510.371573 540.341383 C 510.742591 539.839158 511.113609 539.336933 511.193113 539.49553 C 511.272617 539.680561 511.034105 540.49998 510.398074 541.028639 C 509.788544 541.583729 508.807996 541.821626 508.330973 542.561747 C 507.827448 543.328301 507.827448 544.570647 507.906952 545.998024 C 508.012957 547.425401 508.198466 549.011375 508.304471 550.544483 C 508.383975 552.077592 508.383975 553.584267 508.622487 554.826613 C 508.807996 556.042527 509.232017 557.020544 509.762043 557.549202 C 510.265568 558.07786 510.875098 558.157159 511.352121 558.923713 C 511.829144 559.663834 512.14716 561.064778 512.332669 561.778467 C 512.491677 562.492155 512.491677 562.492155 512.491677 562.492155 " transform="matrix(0.147398,0,0,0.14778,0.02204,0)"/>
<path style="fill:none;stroke-width:5.91;stroke-linecap:butt;stroke-linejoin:miter;stroke:rgb(21.568627%,20.392157%,20.784314%);stroke-opacity:1;stroke-miterlimit:22.9256;" d="M 504.302774 561.910631 C 504.196769 562.650752 504.117265 563.417307 503.905255 562.756484 C 503.693244 562.122094 503.375229 560.086761 503.666743 558.950146 C 503.984759 557.787098 504.912304 557.549202 505.468832 555.910362 C 505.998858 554.297955 506.131364 551.258172 505.336325 549.302137 C 504.541286 547.346102 502.7922 546.447383 501.57314 545.205037 C 500.301078 543.936258 499.559041 542.297418 499.400033 541.3194 C 499.241026 540.341383 499.665046 539.997755 499.877057 539.839158 C 500.089067 539.680561 500.089067 539.680561 500.089067 539.680561 " transform="matrix(0.147398,0,0,0.14778,0.02204,0)"/>
<path style="fill:none;stroke-width:5.91;stroke-linecap:butt;stroke-linejoin:miter;stroke:rgb(21.568627%,20.392157%,20.784314%);stroke-opacity:1;stroke-miterlimit:22.9256;" d="M 1056.748935 321.582686 C 1056.430919 330.199812 1056.112904 338.843371 1055.688883 347.3019 C 1055.238361 355.760428 1054.681833 364.007494 1053.939797 372.17526 C 1053.19776 380.36946 1052.270215 388.431495 1050.123609 394.246734 C 1047.977004 400.061972 1044.611338 403.603981 1041.060164 408.124007 C 1037.482488 412.670466 1033.692802 418.194943 1029.002071 424.512406 C 1024.31134 430.803437 1018.719565 437.887455 1013.021785 445.923057 C 1007.350506 453.932226 1001.573222 462.866547 996.882492 470.558522 C 992.191761 478.224063 988.561083 484.620826 986.228968 489.220151 C 983.896853 493.819476 982.863303 496.621363 982.306775 498.207337 C 981.750248 499.766878 981.670744 500.163372 982.359778 500.321969 C 983.048812 500.480567 984.479882 500.401268 985.221918 499.740446 C 985.963955 499.106056 986.016958 497.86371 986.732493 497.04429 C 987.448028 496.251302 988.826096 495.881242 990.522179 495.986973 C 992.191761 496.119138 994.232361 496.727095 996.219959 497.361484 " transform="matrix(0.147398,0,0,0.14778,0.02204,0)"/>
<path style="fill:none;stroke-width:5.91;stroke-linecap:butt;stroke-linejoin:miter;stroke:rgb(21.568627%,20.392157%,20.784314%);stroke-opacity:1;stroke-miterlimit:22.9256;" d="M 1062.367211 253.015738 C 1063.798282 256.531314 1065.202851 260.073323 1066.845931 262.584449 C 1068.489012 265.095574 1070.344103 266.575817 1071.881179 268.003194 C 1073.391753 269.43057 1074.557811 270.805081 1074.902328 273.52767 C 1075.246844 276.276692 1074.769821 280.373792 1074.292798 286.347628 C 1073.815774 292.321463 1073.391753 300.145602 1072.91473 307.626114 C 1072.464208 315.106625 1071.960683 322.269941 1071.245148 328.746002 C 1070.529613 335.248496 1069.602067 341.090168 1068.913033 347.328333 C 1068.223999 353.59293 1067.799978 360.227589 1067.561467 367.972429 C 1067.296454 375.690836 1067.243451 384.519426 1067.21695 390.731158 C 1067.190448 396.94289 1067.190448 400.537764 1067.190448 402.652396 C 1067.190448 404.767029 1067.190448 405.401418 1064.566819 408.652665 C 1061.969692 411.930345 1056.748935 417.824882 1051.634184 423.428657 C 1046.545933 429.006 1041.59019 434.29258 1036.395934 439.922788 C 1031.201679 445.552996 1025.795413 451.500399 1021.05168 456.15259 C 1016.281446 460.831214 1012.173744 464.188192 1008.569566 467.227976 C 1004.99189 470.26776 1001.864737 472.990349 999.877139 477.034583 C 997.889541 481.078817 997.014998 486.418263 996.590977 490.67396 C 996.166957 494.903224 996.193458 498.04874 996.219959 501.167822 " transform="matrix(0.147398,0,0,0.14778,0.02204,0)"/>
<path style="fill:none;stroke-width:5.91;stroke-linecap:butt;stroke-linejoin:miter;stroke:rgb(21.568627%,20.392157%,20.784314%);stroke-opacity:1;stroke-miterlimit:22.9256;" d="M 1061.94319 256.927808 C 1061.810684 262.875211 1061.704679 268.822614 1061.572172 276.99038 C 1061.466167 285.158147 1061.33366 295.546277 1061.280658 300.727126 C 1061.201154 305.907975 1061.201154 305.907975 1061.201154 305.907975 " transform="matrix(0.147398,0,0,0.14778,0.02204,0)"/>
<path style="fill:none;stroke-width:5.91;stroke-linecap:butt;stroke-linejoin:miter;stroke:rgb(21.568627%,20.392157%,20.784314%);stroke-opacity:1;stroke-miterlimit:22.9256;" d="M 900.894773 30.027777 C 904.392945 31.798781 907.891117 33.569786 910.594249 34.944296 C 913.297382 36.318807 915.178975 37.296825 917.246077 38.301275 C 919.313178 39.279292 921.512786 40.25731 924.507434 40.812401 C 927.502081 41.341059 931.291767 41.420357 935.107955 41.552522 C 938.924142 41.658254 942.793333 41.816851 946.742027 42.160479 C 950.690721 42.477674 954.718919 42.979899 958.164088 43.482124 C 961.609258 43.957916 964.4979 44.460141 968.022573 44.962366 C 971.547246 45.438159 975.760953 45.940384 980.478185 46.54834 C 985.195417 47.18273 990.469176 47.922851 995.027401 48.557241 C 999.585625 49.218064 1003.428314 49.799587 1006.82048 50.169648 C 1010.186146 50.539709 1013.048287 50.698306 1016.17544 52.231414 C 1019.302594 53.73809 1022.66826 56.619276 1025.795413 60.002688 C 1028.922567 63.359666 1031.784708 67.21887 1034.249329 71.368835 C 1036.71395 75.518801 1038.781052 79.959529 1040.795151 85.298975 C 1042.80925 90.638421 1044.770346 96.876586 1046.174915 103.960604 C 1047.579484 111.018188 1048.401025 118.895193 1049.381573 127.776648 C 1050.362121 136.658103 1051.501677 146.517576 1052.667734 155.504763 C 1053.80729 164.518382 1054.946846 172.633283 1055.900893 181.488305 C 1056.85494 190.316895 1057.596977 199.832739 1058.710031 211.912575 C 1059.823086 223.992412 1061.280658 238.636239 1061.996193 246.883305 C 1062.685227 255.13037 1062.605723 257.033539 1060.618125 258.645946 C 1058.657029 260.23192 1054.787839 261.553565 1051.422173 262.372985 C 1048.056508 263.192405 1045.167866 263.536033 1042.676743 263.588899 C 1040.185621 263.668198 1038.065517 263.5096 1037.005464 263.403869 C 1035.945412 263.32457 1035.945412 263.32457 1035.945412 263.32457 " transform="matrix(0.147398,0,0,0.14778,0.02204,0)"/>
<path style="fill:none;stroke-width:5.91;stroke-linecap:butt;stroke-linejoin:miter;stroke:rgb(21.568627%,20.392157%,20.784314%);stroke-opacity:1;stroke-miterlimit:22.9256;" d="M 944.197902 62.698844 C 937.466571 62.619545 930.708738 62.540246 926.150514 62.989606 C 921.59229 63.438965 919.207173 64.416982 916.345032 64.972073 C 913.45639 65.500731 910.090725 65.58003 906.963571 65.262835 C 903.862919 64.919207 900.974277 64.179086 898.19164 62.48738 C 895.382502 60.822108 892.679369 58.178817 890.453259 55.56196 C 888.22715 52.91867 886.504565 50.301813 885.312006 47.076998 C 884.119448 43.878617 883.456915 40.098712 883.668926 36.953197 C 883.880936 33.781249 884.940988 31.217257 886.663573 29.869179 C 888.412659 28.521101 890.771275 28.362504 893.288899 28.6004 C 895.780021 28.838296 898.430151 29.499119 899.781718 29.842746 C 901.133284 30.159941 901.212788 30.159941 900.894773 30.027777 C 900.550256 29.922045 899.808219 29.657716 899.62271 30.450703 C 899.4107 31.217257 899.728715 33.041128 900.523754 35.499387 C 901.292292 37.957647 902.537853 41.103163 904.49895 44.513007 C 906.486548 47.922851 909.18968 51.597025 911.442291 54.028852 C 913.721403 56.460679 915.496991 57.597293 917.537591 58.760341 C 919.55169 59.896956 921.751298 61.060004 922.864353 61.641528 C 923.977407 62.196618 923.977407 62.196618 923.977407 62.196618 " transform="matrix(0.147398,0,0,0.14778,0.02204,0)"/>
<path style="fill:none;stroke-width:5.91;stroke-linecap:butt;stroke-linejoin:miter;stroke:rgb(21.568627%,20.392157%,20.784314%);stroke-opacity:1;stroke-miterlimit:22.9256;" d="M 723.07103 378.783486 C 728.583301 384.175798 734.069071 389.594543 739.819853 395.48908 C 745.570636 401.41005 751.586432 407.806812 757.628729 414.018544 C 763.671026 420.230276 769.739824 426.230545 775.411103 431.120632 C 781.082382 436.010719 786.32964 439.790624 790.781859 443.200468 C 795.207577 446.610312 798.838255 449.650096 804.085513 453.139239 C 809.359272 456.628382 816.249611 460.566885 822.821934 464.082461 C 829.394257 467.571604 835.648565 470.611388 841.770366 472.990349 C 847.892167 475.36931 853.881461 477.087449 859.685247 478.171198 C 865.462531 479.228514 871.054306 479.65144 877.361616 479.757172 C 883.642424 479.889336 890.612267 479.730739 896.628063 479.149215 C 902.617357 478.567691 907.626104 477.589674 912.926364 476.056565 C 918.226625 474.54989 923.8184 472.488124 929.330671 469.8184 C 934.842942 467.148677 940.249207 463.870998 945.867484 459.932495 C 951.512261 455.96756 957.342548 451.368235 963.040328 446.240252 C 968.764609 441.112269 974.356384 435.429195 979.736149 428.292311 C 985.115913 421.128995 990.283667 412.511869 995.106904 403.86831 C 999.90364 395.251184 1004.329358 386.607625 1008.172047 377.831901 C 1011.988234 369.029745 1015.194892 360.068991 1018.030531 351.742627 C 1020.866171 343.38983 1023.330792 335.671423 1025.636405 326.710669 C 1027.942019 317.749915 1030.062123 307.573248 1031.493193 300.092737 C 1032.950765 292.612225 1033.692802 287.854303 1034.381835 282.382692 C 1035.070869 276.911082 1035.733402 270.752215 1035.945412 263.32457 C 1036.130921 255.870492 1035.89241 247.174067 1035.362384 236.283711 C 1034.832358 225.393356 1034.010817 212.335502 1032.791757 199.727008 C 1031.546196 187.118513 1029.903115 174.932946 1028.127528 163.619663 C 1026.378442 152.279949 1024.470348 141.759654 1022.535753 132.085211 C 1020.601158 122.437202 1018.640061 113.635046 1016.78497 105.83734 C 1014.929879 98.039634 1013.207294 91.219945 1011.590715 86.091962 C 1009.921133 80.937546 1008.357556 77.501269 1003.799332 74.540784 C 999.241108 71.580299 991.688236 69.122039 983.472832 67.298169 C 975.257429 65.500731 966.379492 64.337684 957.501556 63.201069 " transform="matrix(0.147398,0,0,0.14778,0.02204,0)"/>
<path style="fill:none;stroke-width:5.91;stroke-linecap:butt;stroke-linejoin:miter;stroke:rgb(21.568627%,20.392157%,20.784314%);stroke-opacity:1;stroke-miterlimit:22.9256;" d="M 701.207455 400.061972 C 701.92299 398.793193 702.638525 397.497981 703.725079 396.94289 C 704.838134 396.387799 706.322207 396.572829 707.01124 394.748959 C 707.700274 392.951521 707.62077 389.171616 708.01829 387.189149 C 708.442311 385.233114 709.343355 385.048084 710.164896 385.021651 C 710.986436 384.968785 711.728472 385.048084 712.152493 384.492993 C 712.550013 383.911469 712.629517 382.669123 713.371553 381.770404 C 714.11359 380.871685 715.518159 380.290161 717.161239 380.131564 C 718.80432 379.972967 720.685913 380.210863 721.931474 380.052265 C 723.150534 379.867235 723.733563 379.312144 722.169986 376.986049 C 720.63291 374.659953 716.922728 370.562853 713.239047 366.492186 " transform="matrix(0.147398,0,0,0.14778,0.02204,0)"/>
<path style="fill:none;stroke-width:5.91;stroke-linecap:butt;stroke-linejoin:miter;stroke:rgb(21.568627%,20.392157%,20.784314%);stroke-opacity:1;stroke-miterlimit:22.9256;" d="M 666.358242 135.917982 C 662.436049 139.856485 658.487355 143.794987 654.591663 148.235715 C 650.66947 152.676442 646.80028 157.619395 642.984093 162.245153 C 639.167905 166.897343 635.378219 171.258772 632.436574 175.038677 C 629.468428 178.818582 627.348324 182.016963 625.519734 185.823301 C 623.717645 189.656072 622.233572 194.0968 621.253024 198.114601 C 620.272476 202.132402 619.768951 205.753709 619.689447 210.273736 C 619.609943 214.793762 619.927959 220.212507 621.014513 225.895581 C 622.074565 231.552222 623.903155 237.473192 626.155765 242.944802 C 628.408376 248.416413 631.111509 253.412232 634.053154 258.751678 C 636.941796 264.091124 640.068949 269.774198 644.176651 276.382424 C 648.284353 282.990649 653.399105 290.550459 658.80537 298.374598 C 664.238138 306.172304 669.98892 314.234339 676.322732 322.34924 C 682.630042 330.490574 689.546882 338.711206 695.536176 345.689493 C 701.551972 352.667779 706.640222 358.430151 709.555366 361.78713 C 712.470509 365.170541 713.212545 366.148559 713.239047 366.492186 C 713.292049 366.809381 712.629517 366.492186 712.152493 368.210325 C 711.648968 369.928464 711.330953 373.708369 710.694922 375.823001 C 710.085392 377.9112 709.184347 378.307694 708.097794 378.439858 C 707.037742 378.572023 705.818682 378.386992 705.209152 378.889218 C 704.573121 379.391443 704.573121 380.528057 704.175601 381.347477 C 703.75158 382.166897 702.93004 382.669123 702.53252 383.409244 C 702.108499 384.149365 702.108499 385.127382 702.081998 385.867504 C 702.028996 386.607625 701.949492 387.10985 700.332912 387.427045 C 698.716333 387.770673 695.562678 387.92927 693.999101 388.008569 C 692.409023 388.087867 692.409023 388.087867 692.409023 388.087867 " transform="matrix(0.147398,0,0,0.14778,0.02204,0)"/>
<path style="fill:none;stroke-width:5.91;stroke-linecap:butt;stroke-linejoin:miter;stroke:rgb(21.568627%,20.392157%,20.784314%);stroke-opacity:1;stroke-miterlimit:22.9256;" d="M 932.537328 527.785755 C 927.68759 525.935451 922.890854 524.058715 915.709001 523.080698 C 908.527148 522.129114 899.01318 522.049815 888.041641 521.838352 C 877.070101 521.626888 864.64099 521.309694 854.384986 520.939633 C 844.10248 520.569572 835.96658 520.146646 829.765276 518.296343 C 823.563971 516.44604 819.297261 513.16836 813.201961 508.701199 C 807.133163 504.207606 799.235775 498.550965 791.311885 492.259934 C 783.387995 485.968904 775.411103 479.069916 766.665673 471.007881 C 757.920243 462.972279 748.379774 453.747196 739.501838 444.707144 C 730.623901 435.667091 722.408497 426.812069 714.72312 417.481254 C 707.037742 408.15044 699.908891 398.370266 692.409023 388.087867 C 684.935655 377.831901 677.117771 367.047277 668.107328 354.04229 C 659.070383 341.010869 648.787878 325.732652 639.618427 312.040408 C 630.448976 298.374598 622.419082 286.294762 617.30433 278.285592 C 612.21608 270.24999 610.069474 266.311488 607.73736 261.553565 C 605.405245 256.795643 602.86112 251.191868 601.138535 245.852422 C 599.389449 240.512975 598.488405 235.411425 597.77287 229.226126 C 597.030833 223.014394 596.447805 215.69248 596.209293 209.58648 C 595.94428 203.454047 596.023784 198.537527 598.090885 193.27738 C 600.131486 188.017232 604.159684 182.413457 608.929918 175.88453 C 613.700153 169.355603 619.212424 161.875092 625.970256 153.495862 C 632.75459 145.116632 640.810986 135.838683 645.528218 130.419939 C 650.271951 124.974761 651.650019 123.41522 652.577564 121.32702 C 653.478609 119.238821 653.876128 116.595531 654.591663 114.005106 C 655.280697 111.441115 656.261245 108.877123 657.665814 106.551028 C 659.070383 104.1985 660.872472 102.057435 662.383046 100.418595 C 663.920122 98.779755 665.139182 97.616707 666.72926 96.612257 C 668.34584 95.581374 670.306936 94.656222 672.374038 94.127564 C 674.414638 93.598906 676.561243 93.440309 678.707849 94.127564 C 680.827953 94.841252 682.974559 96.400794 684.564637 97.82817 C 686.181216 99.255547 687.241268 100.577192 688.142313 102.638959 C 689.043357 104.700725 689.785394 107.47618 690.156412 110.410232 C 690.52743 113.317851 690.52743 116.357635 690.209414 119.027358 C 689.864897 121.697081 689.202365 123.996743 687.983305 126.05851 C 686.737744 128.120276 684.935655 129.917713 682.974559 131.926614 C 680.986961 133.935515 678.866857 136.155878 676.48174 137.107463 C 674.096622 138.059047 671.472993 137.71542 669.670905 137.530389 C 667.842315 137.318926 666.861767 137.239627 666.358242 135.917982 C 665.881218 134.596337 665.881218 132.058778 666.172733 130.076311 C 666.437746 128.120276 667.020774 126.719332 667.73631 125.23909 C 668.425343 123.758847 669.246884 122.199306 669.485396 119.31812 C 669.750409 116.436933 669.405892 112.260535 668.849364 108.242734 C 668.292837 104.251366 667.524299 100.418595 667.12678 98.515426 C 666.72926 96.612257 666.72926 96.612257 666.72926 96.612257 " transform="matrix(0.147398,0,0,0.14778,0.02204,0)"/>
<path style="fill:none;stroke-width:5.91;stroke-linecap:butt;stroke-linejoin:miter;stroke:rgb(21.568627%,20.392157%,20.784314%);stroke-opacity:1;stroke-miterlimit:22.9256;" d="M 940.991244 506.190074 C 945.17845 513.406256 949.365656 520.648871 953.552862 528.076517 C 957.740067 535.504162 961.927273 543.169704 966.167482 550.51805 C 970.40769 557.866397 974.6744 564.923982 977.430535 569.73477 C 980.186671 574.545558 984.002859 582.263966 985.910952 583.823507 " transform="matrix(0.147398,0,0,0.14778,0.02204,0)"/>
<path style="fill-rule:evenodd;fill:rgb(21.568627%,20.392157%,20.784314%);fill-opacity:1;stroke-width:5.91;stroke-linecap:butt;stroke-linejoin:miter;stroke:rgb(21.568627%,20.392157%,20.784314%);stroke-opacity:1;stroke-miterlimit:22.9256;" d="M 979.683146 590.77536 C 984.055861 588.925057 990.628184 585.145152 997.121003 581.418113 C 1003.587321 577.664641 1010.000637 573.964034 1014.240845 571.109281 C 1018.481054 568.228095 1020.521654 566.166328 1022.297241 564.765385 C 1024.072829 563.364441 1025.5304 562.624319 1023.807816 557.813531 C 1022.085231 553.029176 1017.155989 544.147721 1013.021785 535.715625 C 1008.861081 527.309962 1005.495415 519.327226 1002.898288 513.564853 C 1000.327661 507.828914 998.499071 504.286905 997.412518 502.5159 C 996.299463 500.771329 995.875442 500.771329 994.762388 502.040108 C 993.649333 503.308887 991.847244 505.846446 991.025704 507.300256 C 990.204163 508.727632 990.363171 509.07126 991.741239 511.370922 C 993.092805 513.670585 995.636931 517.926282 998.499071 523.318594 C 1001.387713 528.684473 1004.594371 535.186967 1007.138496 541.107937 C 1009.682621 547.028907 1011.564214 552.368353 1012.730271 556.174691 C 1013.869827 560.007462 1014.293848 562.307125 1013.92283 564.157428 C 1013.551811 566.007731 1012.412255 567.408675 1009.073091 569.787636 C 1005.733927 572.166597 1000.221656 575.523576 995.106904 578.616225 C 989.965652 581.708875 985.195417 584.484329 981.909256 585.515213 C 978.623094 586.546096 976.821005 585.805975 974.356384 582.686892 C 971.891763 579.56781 968.764609 574.043333 965.027926 568.175229 C 961.291242 562.307125 956.918527 556.06896 952.890329 550.14799 C 948.888632 544.22702 945.17845 538.649677 941.971792 534.869772 C 938.765134 531.089867 936.062002 529.1074 934.551427 528.129382 C 933.014352 527.124932 932.696336 527.124932 932.537328 527.785755 C 932.351819 528.446577 932.351819 529.768222 933.915396 532.067885 C 935.478973 534.367547 938.606127 537.645227 941.468267 541.689461 C 944.356909 545.707262 946.980538 550.465185 950.001687 555.6196 C 952.996334 560.747583 956.362 566.245627 959.595159 572.008 C 962.854819 577.743939 965.981973 583.744208 967.863565 587.206918 C 969.745158 590.643196 970.40769 591.568347 971.812259 592.044139 C 973.190327 592.546365 975.336932 592.625663 979.683146 590.77536 Z M 979.683146 590.77536 " transform="matrix(0.147398,0,0,0.14778,0.02204,0)"/>
<path style="fill:none;stroke-width:5.91;stroke-linecap:butt;stroke-linejoin:miter;stroke:rgb(21.568627%,20.392157%,20.784314%);stroke-opacity:1;stroke-miterlimit:22.9256;" d="M 815.030551 794.097242 C 819.535773 797.877147 824.067495 801.657052 828.917234 805.357659 C 833.740471 809.058265 838.934726 812.679573 844.261488 815.851521 C 849.614751 818.997036 855.127022 821.719625 860.745299 823.939989 C 866.390076 826.160353 872.140859 827.878491 878.421668 828.59218 C 884.702477 829.279435 891.513311 828.96224 897.741118 827.799193 C 903.942422 826.662578 909.507696 824.68011 915.258479 821.957521 C 921.009262 819.261365 926.945553 815.798655 933.17336 811.490092 C 939.427667 807.181529 945.99999 802.00068 952.254298 797.031295 C 958.482104 792.061909 964.418396 787.277554 970.169178 781.832376 C 975.919961 776.360765 981.511736 770.201899 986.652989 764.069466 C 991.76774 757.937032 996.458471 751.857465 1001.891238 744.350521 C 1007.297504 736.843577 1013.472307 727.882823 1018.719565 720.11155 C 1023.966823 712.340276 1028.339538 705.784917 1032.420739 699.678916 C 1036.475438 693.599349 1040.238623 688.022007 1043.286273 683.343383 C 1046.333923 678.664759 1048.639536 674.884854 1049.487578 671.395711 C 1050.362121 667.880135 1049.779092 664.681754 1048.215516 660.45249 C 1046.651939 656.223226 1044.107814 650.963078 1041.404681 645.174272 C 1038.701548 639.385467 1035.812906 633.04157 1033.321783 626.776973 C 1030.80416 620.485942 1028.657554 614.221344 1026.563951 608.194643 C 1024.470348 602.167941 1022.429748 596.32627 1020.574657 590.907525 C 1018.719565 585.462347 1017.076485 580.466528 1016.254944 578.008268 C 1015.433404 575.523576 1015.433404 575.602874 1015.433404 575.708606 C 1015.433404 575.787905 1015.433404 575.867203 1015.433404 575.946502 " transform="matrix(0.147398,0,0,0.14778,0.02204,0)"/>
<path style="fill:none;stroke-width:5.91;stroke-linecap:butt;stroke-linejoin:miter;stroke:rgb(21.568627%,20.392157%,20.784314%);stroke-opacity:1;stroke-miterlimit:22.9256;" d="M 998.181056 608.723301 C 998.843588 618.106981 999.479619 627.464228 999.612126 635.631995 C 999.744632 643.826194 999.320612 650.804481 998.552074 657.386273 C 997.757035 663.941633 996.617479 670.100499 995.292414 676.232932 C 993.99385 682.338933 992.509777 688.444933 990.363171 694.78883 C 988.243067 701.159159 985.433929 707.82025 981.80325 715.432926 C 978.119569 723.019169 973.614348 731.583429 968.552599 739.592598 C 963.49085 747.601768 957.925576 755.082279 951.777274 761.981266 C 945.681975 768.880254 939.030148 775.197717 932.431323 780.061371 C 925.859 784.898593 919.392682 788.282004 913.217878 790.317337 C 907.043075 792.379104 901.212788 793.119225 895.14399 793.277822 C 889.04869 793.462853 882.74138 793.039926 877.361616 791.929744 C 871.95535 790.819563 867.529632 789.022125 863.130416 786.722463 C 858.7312 784.4228 854.384986 781.620913 848.819712 777.761709 C 843.28094 773.902505 836.549609 768.959553 828.943735 762.642089 C 821.337861 756.298193 812.883946 748.579785 802.945957 739.011075 C 793.007968 729.442364 781.559406 718.02335 771.515412 707.714519 C 761.444917 697.379254 752.725988 688.180604 744.563587 680.012837 C 736.374684 671.845071 728.742309 664.681754 721.745965 658.232126 C 714.776122 651.782498 708.442311 646.046558 701.737481 639.78196 C 695.059153 633.543796 687.983305 626.803406 680.748449 620.327345 C 673.513594 613.824851 666.11973 607.586686 658.778869 601.507118 C 651.411507 595.427551 644.097147 589.506581 636.411769 584.03497 C 628.752893 578.563359 620.669996 573.567541 612.42809 568.836051 C 604.159684 564.104562 595.705768 559.663834 587.622871 555.936795 C 579.513472 552.209756 571.801593 549.169972 564.036711 546.605981 C 556.271829 544.068422 548.453945 542.006656 540.768567 540.870041 C 533.083189 539.706993 525.530318 539.469097 518.586977 539.416231 C 511.643635 539.389799 505.309824 539.548396 500.089067 539.680561 C 494.868311 539.786292 490.760609 539.865591 487.659956 540.235651 C 484.532802 540.605712 482.386197 541.266535 480.663612 542.085955 C 478.941028 542.905375 477.615962 543.909825 477.085936 546.209487 C 476.55591 548.50915 476.794422 552.104024 477.16544 555.196674 C 477.536459 558.289324 478.039983 560.826882 481.246641 562.095661 C 484.426797 563.364441 490.363089 563.364441 495.292331 563.258709 C 500.221574 563.126545 504.170268 562.888648 508.118962 562.650752 C 512.094158 562.439289 516.069353 562.280692 521.422616 562.730051 C 526.749378 563.17941 533.454208 564.263159 539.894024 565.294043 C 546.30734 566.324926 552.482143 567.329376 560.114518 569.629038 C 567.746894 571.928701 576.889843 575.523576 586.059294 579.93787 C 595.202243 584.325732 604.398196 589.506581 614.760205 596.167672 C 625.122214 602.802331 636.62378 610.943664 647.383309 619.587223 C 658.142838 628.204349 668.186832 637.323701 677.594794 646.892411 C 687.002757 656.461122 695.801189 666.505624 704.334609 676.074335 C 712.868028 685.643045 721.189438 694.762397 729.77586 704.383973 C 738.362282 713.979116 747.240218 724.102918 755.853142 733.460165 C 764.492566 742.817413 772.866978 751.460971 781.24139 759.972366 C 789.642303 768.457327 798.016715 776.86299 806.391126 785.24222 " transform="matrix(0.147398,0,0,0.14778,0.02204,0)"/>
<path style="fill:none;stroke-width:5.91;stroke-linecap:butt;stroke-linejoin:miter;stroke:rgb(21.568627%,20.392157%,20.784314%);stroke-opacity:1;stroke-miterlimit:22.9256;" d="M 515.857343 539.416231 C 517.871442 547.266803 519.302512 555.064509 520.124052 562.624319 C 515.40682 562.307125 511.776142 562.465722 508.118962 562.650752 C 504.170268 562.888648 500.221574 563.126545 495.292331 563.258709 C 490.363089 563.364441 484.426797 563.364441 481.246641 562.095661 C 478.039983 560.826882 477.536459 558.289324 477.16544 555.196674 C 476.794422 552.104024 476.55591 548.50915 477.085936 546.209487 C 477.615962 543.909825 478.941028 542.905375 480.663612 542.085955 C 482.386197 541.266535 484.532802 540.605712 487.659956 540.235651 C 490.760609 539.865591 494.868311 539.786292 500.089067 539.680561 C 504.62079 539.548396 509.974053 539.416231 515.857343 539.416231 Z M 515.857343 539.416231 " transform="matrix(0.147398,0,0,0.14778,0.02204,0)"/>
<path style="fill:none;stroke-width:5.91;stroke-linecap:butt;stroke-linejoin:miter;stroke:rgb(21.568627%,20.392157%,20.784314%);stroke-opacity:1;stroke-miterlimit:22.9256;" d="M 430.311137 459.509569 C 455.169359 444.442815 490.601601 471.377942 509.470529 519.697287 C 512.041155 526.252646 514.161259 532.860872 515.857343 539.416231 C 509.974053 539.416231 504.62079 539.548396 500.089067 539.680561 C 494.868311 539.786292 490.760609 539.865591 487.659956 540.235651 C 484.532802 540.605712 482.386197 541.266535 480.663612 542.085955 C 478.941028 542.905375 477.615962 543.909825 477.085936 546.209487 C 476.55591 548.50915 476.794422 552.104024 477.16544 555.196674 C 477.536459 558.289324 478.039983 560.826882 481.246641 562.095661 C 484.426797 563.364441 490.363089 563.364441 495.292331 563.258709 C 500.221574 563.126545 504.170268 562.888648 508.118962 562.650752 C 511.776142 562.465722 515.40682 562.307125 520.124052 562.624319 C 523.701728 595.401118 516.122356 623.922219 498.684498 634.521813 C 473.852777 649.588567 438.394034 622.627007 419.525106 574.307662 C 400.656179 525.988317 405.479416 474.602756 430.311137 459.509569 Z M 430.311137 459.509569 " transform="matrix(0.147398,0,0,0.14778,0.02204,0)"/>
<path style="fill:none;stroke-width:5.91;stroke-linecap:butt;stroke-linejoin:miter;stroke:rgb(21.568627%,20.392157%,20.784314%);stroke-opacity:1;stroke-miterlimit:22.9256;" d="M 1016.996981 580.598693 C 1016.095936 577.426745 1015.168391 574.254796 1014.240845 571.109281 " transform="matrix(0.147398,0,0,0.14778,0.02204,0)"/>
<path style="fill:none;stroke-width:5.91;stroke-linecap:butt;stroke-linejoin:miter;stroke:rgb(21.568627%,20.392157%,20.784314%);stroke-opacity:1;stroke-miterlimit:22.9256;" d="M 504.488284 539.548396 C 505.707344 547.266803 506.899902 554.958778 508.118962 562.650752 " transform="matrix(0.147398,0,0,0.14778,0.02204,0)"/>
<path style="fill:none;stroke-width:5.91;stroke-linecap:butt;stroke-linejoin:miter;stroke:rgb(21.568627%,20.392157%,20.784314%);stroke-opacity:1;stroke-miterlimit:22.9256;" d="M 697.84179 393.136552 C 704.917638 385.682473 712.019987 378.201962 715.571161 374.474923 C 719.122336 370.747884 719.122336 370.747884 719.122336 370.747884 " transform="matrix(0.147398,0,0,0.14778,0.02204,0)"/>
<path style="fill:none;stroke-width:5.91;stroke-linecap:butt;stroke-linejoin:miter;stroke:rgb(21.568627%,20.392157%,20.784314%);stroke-opacity:1;stroke-miterlimit:22.9256;" d="M 698.557325 395.356915 C 705.659674 387.876404 712.762023 380.422326 716.313198 376.695287 C 719.837871 372.941815 719.837871 372.941815 719.837871 372.941815 " transform="matrix(0.147398,0,0,0.14778,0.02204,0)"/>
<path style="fill:none;stroke-width:5.91;stroke-linecap:butt;stroke-linejoin:miter;stroke:rgb(21.568627%,20.392157%,20.784314%);stroke-opacity:1;stroke-miterlimit:22.9256;" d="M 995.106904 585.594511 C 993.702335 585.832407 992.297766 586.070304 992.430273 586.810425 C 992.589281 587.576979 994.285364 588.872191 995.292414 590.616763 C 996.272962 592.387767 996.564476 594.634564 996.696983 595.771179 C 996.829489 596.907793 996.829489 596.907793 996.829489 596.907793 " transform="matrix(0.147398,0,0,0.14778,0.02204,0)"/>
<path style="fill:none;stroke-width:5.91;stroke-linecap:butt;stroke-linejoin:miter;stroke:rgb(21.568627%,20.392157%,20.784314%);stroke-opacity:1;stroke-miterlimit:22.9256;" d="M 998.181056 473.651171 C 993.967348 481.448877 989.753641 489.246583 987.660038 493.158653 C 985.539934 497.04429 985.539934 497.04429 985.539934 497.04429 " transform="matrix(0.147398,0,0,0.14778,0.02204,0)"/>
<path style="fill:none;stroke-width:5.91;stroke-linecap:butt;stroke-linejoin:miter;stroke:rgb(21.568627%,20.392157%,20.784314%);stroke-opacity:1;stroke-miterlimit:22.9256;" d="M 1002.606773 470.664253 C 998.419567 478.461959 994.20586 486.259666 992.085756 490.171735 C 989.992153 494.057372 989.992153 494.057372 989.992153 494.057372 " transform="matrix(0.147398,0,0,0.14778,0.02204,0)"/>
<path style=" stroke:none;fill-rule:evenodd;fill:rgb(99.607843%,99.607843%,99.607843%);fill-opacity:1;" d="M 75.691406 80.15625 L 77.203125 80.15625 L 77.203125 81.53125 L 75.691406 81.53125 Z M 75.691406 80.15625 "/>
<path style=" stroke:none;fill-rule:evenodd;fill:rgb(99.607843%,99.607843%,99.607843%);fill-opacity:1;" d="M 76.027344 81.3125 L 77.535156 81.410156 L 77.445312 82.78125 L 75.9375 82.679688 Z M 76.027344 81.3125 "/>
<path style="fill:none;stroke-width:2.36;stroke-linecap:butt;stroke-linejoin:miter;stroke:rgb(21.568627%,20.392157%,20.784314%);stroke-opacity:1;stroke-miterlimit:22.9256;" d="M 995.689933 472.461691 C 1000.857687 470.003431 1005.99894 467.518738 1008.410559 466.434989 C 1010.822177 465.35124 1010.451159 465.642002 1010.106642 465.932764 " transform="matrix(0.147398,0,0,0.14778,0.02204,0)"/>
<path style="fill:none;stroke-width:5.91;stroke-linecap:butt;stroke-linejoin:miter;stroke:rgb(21.568627%,20.392157%,20.784314%);stroke-opacity:1;stroke-miterlimit:22.9256;" d="M 707.01124 394.748959 C 711.171945 398.000206 715.359151 401.251453 717.426253 402.86386 C 719.519855 404.5027 719.519855 404.5027 719.519855 404.5027 " transform="matrix(0.147398,0,0,0.14778,0.02204,0)"/>
</g>
</svg>
