<svg xmlns="http://www.w3.org/2000/svg" xmlns:xlink="http://www.w3.org/1999/xlink" width="426" zoomAndPan="magnify" viewBox="0 0 319.5 63.749997" height="85" preserveAspectRatio="xMidYMid meet" version="1.0"><defs><g/><clipPath id="f1d5c53ceb"><path d="M 14 8.496094 L 31 8.496094 L 31 54.816406 L 14 54.816406 Z M 14 8.496094 " clip-rule="nonzero"/></clipPath><clipPath id="f9cb9b4360"><path d="M 0.375 14 L 44 14 L 44 49 L 0.375 49 Z M 0.375 14 " clip-rule="nonzero"/></clipPath></defs><g fill="#0063d8" fill-opacity="1"><g transform="translate(52.341178, 40.447882)"><g><path d="M 1.921875 -4.53125 L 1.921875 -23.34375 L 6.375 -23.34375 L 6.375 -5.765625 C 6.375 -5.367188 6.421875 -5.046875 6.515625 -4.796875 C 6.617188 -4.554688 6.789062 -4.390625 7.03125 -4.296875 C 7.28125 -4.210938 7.476562 -4.160156 7.625 -4.140625 C 7.769531 -4.117188 8.015625 -4.109375 8.359375 -4.109375 L 16.359375 -4.109375 L 16.359375 0 L 6.765625 0 C 3.535156 0 1.921875 -1.507812 1.921875 -4.53125 Z M 1.921875 -4.53125 "/></g></g></g><g fill="#0063d8" fill-opacity="1"><g transform="translate(68.665155, 40.447882)"><g><path d="M 1.1875 -19.453125 L 1.1875 -22.265625 C 1.1875 -22.816406 1.441406 -23.09375 1.953125 -23.09375 L 5.296875 -23.09375 C 5.765625 -23.09375 6 -22.816406 6 -22.265625 L 6 -19.453125 C 6 -19.222656 5.9375 -19.039062 5.8125 -18.90625 C 5.695312 -18.78125 5.523438 -18.71875 5.296875 -18.71875 L 1.953125 -18.71875 C 1.796875 -18.71875 1.660156 -18.742188 1.546875 -18.796875 C 1.429688 -18.847656 1.34375 -18.929688 1.28125 -19.046875 C 1.21875 -19.171875 1.1875 -19.304688 1.1875 -19.453125 Z M 1.34375 0 L 1.34375 -16.9375 L 5.8125 -16.9375 L 5.8125 0 Z M 1.34375 0 "/></g></g></g><g fill="#0063d8" fill-opacity="1"><g transform="translate(75.041682, 40.447882)"><g><path d="M 1.4375 0 L 1.4375 -16.9375 L 5 -16.9375 L 5.90625 -15.109375 C 5.96875 -15.160156 6.050781 -15.226562 6.15625 -15.3125 C 6.625 -15.625 6.976562 -15.859375 7.21875 -16.015625 C 7.46875 -16.179688 7.804688 -16.367188 8.234375 -16.578125 C 8.671875 -16.796875 9.125 -16.953125 9.59375 -17.046875 C 10.0625 -17.140625 10.582031 -17.1875 11.15625 -17.1875 C 13.351562 -17.1875 14.820312 -16.453125 15.5625 -14.984375 C 17.5625 -16.453125 19.59375 -17.1875 21.65625 -17.1875 C 25.007812 -17.1875 26.6875 -15.195312 26.6875 -11.21875 L 26.6875 0 L 22.234375 0 L 22.234375 -11.296875 C 22.234375 -12.054688 22.066406 -12.625 21.734375 -13 C 21.398438 -13.382812 20.9375 -13.578125 20.34375 -13.578125 C 20.070312 -13.578125 19.804688 -13.566406 19.546875 -13.546875 C 19.296875 -13.523438 19.046875 -13.492188 18.796875 -13.453125 C 18.554688 -13.410156 18.320312 -13.359375 18.09375 -13.296875 C 17.875 -13.234375 17.65625 -13.15625 17.4375 -13.0625 C 17.226562 -12.96875 17.019531 -12.847656 16.8125 -12.703125 C 16.613281 -12.566406 16.410156 -12.414062 16.203125 -12.25 C 16.203125 -12.226562 16.207031 -12.164062 16.21875 -12.0625 C 16.226562 -11.96875 16.234375 -11.867188 16.234375 -11.765625 C 16.234375 -11.660156 16.234375 -11.554688 16.234375 -11.453125 C 16.234375 -11.347656 16.234375 -11.28125 16.234375 -11.25 L 16.234375 0 L 11.765625 0 L 11.765625 -11.296875 C 11.765625 -11.671875 11.722656 -12.003906 11.640625 -12.296875 C 11.554688 -12.597656 11.425781 -12.835938 11.25 -13.015625 C 11.082031 -13.203125 10.878906 -13.34375 10.640625 -13.4375 C 10.410156 -13.53125 10.160156 -13.578125 9.890625 -13.578125 C 9.316406 -13.578125 8.804688 -13.523438 8.359375 -13.421875 C 7.910156 -13.316406 7.503906 -13.160156 7.140625 -12.953125 C 6.785156 -12.753906 6.375 -12.488281 5.90625 -12.15625 L 5.90625 0 Z M 1.4375 0 "/></g></g></g><g fill="#0063d8" fill-opacity="1"><g transform="translate(102.078307, 40.447882)"><g><path d="M 0.953125 -4.3125 L 0.953125 -5.90625 C 0.953125 -6.5625 1.039062 -7.15625 1.21875 -7.6875 C 1.40625 -8.21875 1.6875 -8.707031 2.0625 -9.15625 C 2.445312 -9.601562 2.960938 -9.945312 3.609375 -10.1875 C 4.265625 -10.4375 5.039062 -10.5625 5.9375 -10.5625 C 6.757812 -10.5625 7.578125 -10.554688 8.390625 -10.546875 C 9.210938 -10.535156 10.050781 -10.539062 10.90625 -10.5625 C 10.925781 -11.257812 10.925781 -11.617188 10.90625 -11.640625 C 10.90625 -12.085938 10.859375 -12.445312 10.765625 -12.71875 C 10.671875 -13 10.515625 -13.210938 10.296875 -13.359375 C 10.085938 -13.503906 9.851562 -13.597656 9.59375 -13.640625 C 9.34375 -13.691406 9.023438 -13.71875 8.640625 -13.71875 C 7.253906 -13.71875 4.882812 -13.597656 1.53125 -13.359375 L 1.53125 -16.109375 C 3.425781 -16.847656 6 -17.226562 9.25 -17.25 C 11.207031 -17.25 12.71875 -16.835938 13.78125 -16.015625 C 14.84375 -15.203125 15.375 -13.796875 15.375 -11.796875 L 15.375 0 L 11.828125 0 L 10.90625 -1.84375 C 10.820312 -1.695312 10.550781 -1.46875 10.09375 -1.15625 C 9.632812 -0.851562 8.988281 -0.546875 8.15625 -0.234375 C 7.332031 0.0664062 6.523438 0.207031 5.734375 0.1875 C 4.203125 0.144531 3.019531 -0.3125 2.1875 -1.1875 C 1.363281 -2.070312 0.953125 -3.113281 0.953125 -4.3125 Z M 5.421875 -4.9375 C 5.421875 -4.300781 5.554688 -3.878906 5.828125 -3.671875 C 6.109375 -3.472656 6.503906 -3.375 7.015625 -3.375 C 7.273438 -3.375 7.539062 -3.398438 7.8125 -3.453125 C 8.09375 -3.515625 8.351562 -3.582031 8.59375 -3.65625 C 8.84375 -3.726562 9.082031 -3.8125 9.3125 -3.90625 C 9.539062 -4 9.75 -4.09375 9.9375 -4.1875 C 10.132812 -4.289062 10.300781 -4.378906 10.4375 -4.453125 C 10.582031 -4.523438 10.695312 -4.585938 10.78125 -4.640625 C 10.863281 -4.691406 10.90625 -4.71875 10.90625 -4.71875 L 10.90625 -7.8125 L 6.796875 -7.5 C 6.515625 -7.476562 6.273438 -7.40625 6.078125 -7.28125 C 5.890625 -7.164062 5.75 -7.019531 5.65625 -6.84375 C 5.5625 -6.675781 5.5 -6.507812 5.46875 -6.34375 C 5.4375 -6.175781 5.421875 -5.984375 5.421875 -5.765625 Z M 5.421875 -4.9375 "/></g></g></g><g fill="#0063d8" fill-opacity="1"><g transform="translate(117.764627, 40.447882)"><g/></g></g><g fill="#0063d8" fill-opacity="1"><g transform="translate(127.265677, 40.447882)"><g><path d="M 1.625 0 L 1.625 -23.34375 L 11.828125 -23.34375 C 12.785156 -23.34375 13.632812 -23.21875 14.375 -22.96875 C 15.125 -22.726562 15.789062 -22.335938 16.375 -21.796875 C 16.957031 -21.253906 17.40625 -20.5 17.71875 -19.53125 C 18.039062 -18.5625 18.203125 -17.410156 18.203125 -16.078125 C 18.203125 -14.972656 18.109375 -14.003906 17.921875 -13.171875 C 17.734375 -12.335938 17.519531 -11.703125 17.28125 -11.265625 C 17.050781 -10.835938 16.734375 -10.457031 16.328125 -10.125 C 15.921875 -9.789062 15.609375 -9.582031 15.390625 -9.5 C 15.179688 -9.414062 14.878906 -9.3125 14.484375 -9.1875 L 18.90625 0 L 13.875 0 L 10.015625 -8.828125 L 6.09375 -9.28125 L 6.09375 0 Z M 6.125 -12.78125 L 11.421875 -12.78125 C 11.835938 -12.78125 12.171875 -12.816406 12.421875 -12.890625 C 12.679688 -12.972656 12.910156 -13.128906 13.109375 -13.359375 C 13.316406 -13.597656 13.46875 -13.929688 13.5625 -14.359375 C 13.664062 -14.796875 13.71875 -15.367188 13.71875 -16.078125 C 13.71875 -17.328125 13.523438 -18.191406 13.140625 -18.671875 C 12.753906 -19.148438 12.179688 -19.390625 11.421875 -19.390625 L 6.125 -19.390625 Z M 6.125 -12.78125 "/></g></g></g><g fill="#0063d8" fill-opacity="1"><g transform="translate(145.757685, 40.447882)"><g><path d="M 1.1875 -8.546875 C 1.1875 -10.015625 1.273438 -11.242188 1.453125 -12.234375 C 1.628906 -13.222656 1.890625 -14.039062 2.234375 -14.6875 C 2.578125 -15.332031 3.054688 -15.820312 3.671875 -16.15625 C 4.285156 -16.5 4.96875 -16.734375 5.71875 -16.859375 C 6.476562 -16.992188 7.429688 -17.0625 8.578125 -17.0625 C 9.347656 -17.0625 10 -17.046875 10.53125 -17.015625 C 11.0625 -16.984375 11.597656 -16.914062 12.140625 -16.8125 C 12.679688 -16.71875 13.117188 -16.582031 13.453125 -16.40625 C 13.796875 -16.226562 14.125 -15.984375 14.4375 -15.671875 C 14.757812 -15.367188 15.007812 -15 15.1875 -14.5625 C 15.375 -14.125 15.515625 -13.601562 15.609375 -13 C 15.703125 -12.394531 15.75 -11.695312 15.75 -10.90625 C 15.75 -9.414062 15.351562 -8.332031 14.5625 -7.65625 C 13.78125 -6.976562 12.601562 -6.640625 11.03125 -6.640625 L 5.640625 -6.640625 C 5.640625 -5.660156 5.78125 -4.929688 6.0625 -4.453125 C 6.351562 -3.972656 6.71875 -3.675781 7.15625 -3.5625 C 7.59375 -3.457031 8.28125 -3.40625 9.21875 -3.40625 C 11.832031 -3.40625 13.90625 -3.523438 15.4375 -3.765625 L 15.4375 -0.734375 C 13.84375 -0.140625 10.953125 0.15625 6.765625 0.15625 C 5.679688 0.15625 4.78125 0 4.0625 -0.3125 C 3.351562 -0.632812 2.785156 -1.15625 2.359375 -1.875 C 1.929688 -2.601562 1.628906 -3.5 1.453125 -4.5625 C 1.273438 -5.625 1.1875 -6.953125 1.1875 -8.546875 Z M 5.640625 -9.859375 L 9.890625 -9.859375 C 10.828125 -9.859375 11.296875 -10.28125 11.296875 -11.125 C 11.296875 -12.1875 11.148438 -12.875 10.859375 -13.1875 C 10.566406 -13.5 9.890625 -13.65625 8.828125 -13.65625 C 8.148438 -13.65625 7.644531 -13.625 7.3125 -13.5625 C 6.988281 -13.507812 6.671875 -13.359375 6.359375 -13.109375 C 6.054688 -12.867188 5.851562 -12.492188 5.75 -11.984375 C 5.65625 -11.472656 5.617188 -10.765625 5.640625 -9.859375 Z M 5.640625 -9.859375 "/></g></g></g><g fill="#0063d8" fill-opacity="1"><g transform="translate(161.635307, 40.447882)"><g><path d="M 0.484375 -13.515625 L 0.484375 -16.390625 L 3.125 -16.9375 L 3.125 -20.09375 C 3.125 -20.851562 3.207031 -21.519531 3.375 -22.09375 C 3.550781 -22.675781 3.820312 -23.191406 4.1875 -23.640625 C 4.5625 -24.097656 5.078125 -24.445312 5.734375 -24.6875 C 6.398438 -24.9375 7.195312 -25.0625 8.125 -25.0625 C 9.726562 -25.0625 11.15625 -24.804688 12.40625 -24.296875 L 12.40625 -21.65625 L 9.34375 -21.6875 C 9 -21.6875 8.707031 -21.644531 8.46875 -21.5625 C 8.238281 -21.476562 8.066406 -21.382812 7.953125 -21.28125 C 7.835938 -21.1875 7.753906 -20.992188 7.703125 -20.703125 C 7.648438 -20.421875 7.617188 -20.1875 7.609375 -20 C 7.597656 -19.820312 7.59375 -19.5 7.59375 -19.03125 L 7.59375 -16.9375 L 11.453125 -16.9375 L 11.453125 -13.515625 L 7.59375 -13.515625 L 7.59375 0 L 3.125 0 L 3.125 -13.515625 Z M 0.484375 -13.515625 "/></g></g></g><g fill="#0063d8" fill-opacity="1"><g transform="translate(173.623213, 40.447882)"><g><path d="M 1.4375 0 L 1.4375 -16.9375 L 5.203125 -16.9375 L 5.90625 -14.796875 C 7.5 -16.328125 9.113281 -17.09375 10.75 -17.09375 C 11.664062 -17.09375 12.289062 -17.03125 12.625 -16.90625 L 12.625 -12.59375 C 12.03125 -12.65625 11.210938 -12.6875 10.171875 -12.6875 C 9.171875 -12.6875 8.335938 -12.550781 7.671875 -12.28125 C 7.003906 -12.019531 6.414062 -11.53125 5.90625 -10.8125 L 5.90625 0 Z M 1.4375 0 "/></g></g></g><g fill="#0063d8" fill-opacity="1"><g transform="translate(186.057482, 40.447882)"><g><path d="M 1.1875 -19.453125 L 1.1875 -22.265625 C 1.1875 -22.816406 1.441406 -23.09375 1.953125 -23.09375 L 5.296875 -23.09375 C 5.765625 -23.09375 6 -22.816406 6 -22.265625 L 6 -19.453125 C 6 -19.222656 5.9375 -19.039062 5.8125 -18.90625 C 5.695312 -18.78125 5.523438 -18.71875 5.296875 -18.71875 L 1.953125 -18.71875 C 1.796875 -18.71875 1.660156 -18.742188 1.546875 -18.796875 C 1.429688 -18.847656 1.34375 -18.929688 1.28125 -19.046875 C 1.21875 -19.171875 1.1875 -19.304688 1.1875 -19.453125 Z M 1.34375 0 L 1.34375 -16.9375 L 5.8125 -16.9375 L 5.8125 0 Z M 1.34375 0 "/></g></g></g><g fill="#0063d8" fill-opacity="1"><g transform="translate(192.434012, 40.447882)"><g><path d="M 1.109375 -3.25 C 1.109375 -3.976562 1.273438 -4.613281 1.609375 -5.15625 C 1.941406 -5.695312 2.4375 -6.070312 3.09375 -6.28125 C 2.925781 -6.382812 2.765625 -6.507812 2.609375 -6.65625 C 2.460938 -6.8125 2.332031 -6.972656 2.21875 -7.140625 C 2.101562 -7.316406 1.992188 -7.503906 1.890625 -7.703125 C 1.796875 -7.898438 1.710938 -8.101562 1.640625 -8.3125 C 1.566406 -8.53125 1.503906 -8.75 1.453125 -8.96875 C 1.398438 -9.195312 1.359375 -9.421875 1.328125 -9.640625 C 1.296875 -9.867188 1.273438 -10.09375 1.265625 -10.3125 C 1.253906 -10.539062 1.25 -10.757812 1.25 -10.96875 C 1.25 -14.988281 3.203125 -17 7.109375 -17 L 17.40625 -17 L 17.40625 -14.3125 L 15.53125 -13.75 C 15.53125 -13.75 15.5625 -13.664062 15.625 -13.5 C 15.6875 -13.34375 15.722656 -13.25 15.734375 -13.21875 C 15.742188 -13.1875 15.773438 -13.09375 15.828125 -12.9375 C 15.878906 -12.789062 15.914062 -12.675781 15.9375 -12.59375 C 15.96875 -12.507812 16 -12.378906 16.03125 -12.203125 C 16.0625 -12.035156 16.082031 -11.875 16.09375 -11.71875 C 16.101562 -11.5625 16.117188 -11.367188 16.140625 -11.140625 C 16.160156 -10.921875 16.171875 -10.679688 16.171875 -10.421875 C 16.171875 -10.109375 16.148438 -9.796875 16.109375 -9.484375 C 16.066406 -9.179688 16 -8.859375 15.90625 -8.515625 C 15.820312 -8.171875 15.710938 -7.847656 15.578125 -7.546875 C 15.441406 -7.253906 15.265625 -6.960938 15.046875 -6.671875 C 14.835938 -6.390625 14.582031 -6.128906 14.28125 -5.890625 C 13.988281 -5.660156 13.65625 -5.457031 13.28125 -5.28125 C 12.90625 -5.113281 12.46875 -4.984375 11.96875 -4.890625 C 11.46875 -4.796875 10.929688 -4.75 10.359375 -4.75 L 6.4375 -4.75 C 6.207031 -4.75 6.015625 -4.738281 5.859375 -4.71875 C 5.710938 -4.695312 5.5625 -4.628906 5.40625 -4.515625 C 5.25 -4.398438 5.171875 -4.234375 5.171875 -4.015625 C 5.171875 -3.679688 5.28125 -3.453125 5.5 -3.328125 C 5.726562 -3.210938 6.039062 -3.15625 6.4375 -3.15625 L 11.640625 -3.15625 C 13.210938 -3.15625 14.4375 -2.734375 15.3125 -1.890625 C 16.195312 -1.054688 16.640625 0.195312 16.640625 1.875 L 16.640625 3.703125 C 16.640625 4.015625 16.617188 4.3125 16.578125 4.59375 C 16.535156 4.882812 16.476562 5.179688 16.40625 5.484375 C 16.332031 5.785156 16.21875 6.066406 16.0625 6.328125 C 15.914062 6.597656 15.75 6.847656 15.5625 7.078125 C 15.375 7.316406 15.140625 7.523438 14.859375 7.703125 C 14.585938 7.878906 14.28125 8.035156 13.9375 8.171875 C 13.59375 8.316406 13.203125 8.425781 12.765625 8.5 C 12.335938 8.570312 11.867188 8.609375 11.359375 8.609375 L 6.5625 8.609375 C 5.519531 8.609375 4.609375 8.4375 3.828125 8.09375 C 3.054688 7.757812 2.4375 7.210938 1.96875 6.453125 C 1.507812 5.703125 1.28125 4.785156 1.28125 3.703125 L 1.28125 1.5625 L 2.78125 0 C 2.539062 -0.125 2.320312 -0.285156 2.125 -0.484375 C 1.9375 -0.691406 1.765625 -0.929688 1.609375 -1.203125 C 1.453125 -1.484375 1.328125 -1.796875 1.234375 -2.140625 C 1.148438 -2.492188 1.109375 -2.863281 1.109375 -3.25 Z M 5.765625 3.15625 C 5.765625 3.5625 5.8125 3.890625 5.90625 4.140625 C 6.007812 4.398438 6.160156 4.59375 6.359375 4.71875 C 6.566406 4.84375 6.769531 4.925781 6.96875 4.96875 C 7.164062 5.007812 7.4375 5.03125 7.78125 5.03125 L 10.390625 5.03125 C 10.796875 5.03125 11.117188 4.984375 11.359375 4.890625 C 11.609375 4.796875 11.789062 4.660156 11.90625 4.484375 C 12.03125 4.316406 12.113281 4.140625 12.15625 3.953125 C 12.195312 3.765625 12.21875 3.53125 12.21875 3.25 L 12.21875 2.015625 C 12.21875 1.878906 12.207031 1.757812 12.1875 1.65625 C 12.164062 1.550781 12.144531 1.453125 12.125 1.359375 C 12.101562 1.265625 12.0625 1.175781 12 1.09375 C 11.945312 1.019531 11.890625 0.945312 11.828125 0.875 C 11.765625 0.800781 11.691406 0.742188 11.609375 0.703125 C 11.523438 0.660156 11.425781 0.617188 11.3125 0.578125 C 11.207031 0.535156 11.09375 0.503906 10.96875 0.484375 C 10.84375 0.460938 10.707031 0.453125 10.5625 0.453125 L 7.109375 0.453125 L 5.765625 0.34375 Z M 5.703125 -10.96875 C 5.703125 -9.226562 6.382812 -8.359375 7.75 -8.359375 L 9.53125 -8.359375 C 11 -8.359375 11.722656 -9.226562 11.703125 -10.96875 C 11.679688 -11.863281 11.503906 -12.492188 11.171875 -12.859375 C 10.847656 -13.234375 10.289062 -13.421875 9.5 -13.421875 L 7.8125 -13.421875 C 7.363281 -13.421875 6.992188 -13.351562 6.703125 -13.21875 C 6.421875 -13.082031 6.210938 -12.890625 6.078125 -12.640625 C 5.941406 -12.398438 5.84375 -12.148438 5.78125 -11.890625 C 5.726562 -11.640625 5.703125 -11.332031 5.703125 -10.96875 Z M 5.703125 -10.96875 "/></g></g></g><g fill="#0063d8" fill-opacity="1"><g transform="translate(209.427536, 40.447882)"><g><path d="M 1.1875 -8.546875 C 1.1875 -10.015625 1.273438 -11.242188 1.453125 -12.234375 C 1.628906 -13.222656 1.890625 -14.039062 2.234375 -14.6875 C 2.578125 -15.332031 3.054688 -15.820312 3.671875 -16.15625 C 4.285156 -16.5 4.96875 -16.734375 5.71875 -16.859375 C 6.476562 -16.992188 7.429688 -17.0625 8.578125 -17.0625 C 9.347656 -17.0625 10 -17.046875 10.53125 -17.015625 C 11.0625 -16.984375 11.597656 -16.914062 12.140625 -16.8125 C 12.679688 -16.71875 13.117188 -16.582031 13.453125 -16.40625 C 13.796875 -16.226562 14.125 -15.984375 14.4375 -15.671875 C 14.757812 -15.367188 15.007812 -15 15.1875 -14.5625 C 15.375 -14.125 15.515625 -13.601562 15.609375 -13 C 15.703125 -12.394531 15.75 -11.695312 15.75 -10.90625 C 15.75 -9.414062 15.351562 -8.332031 14.5625 -7.65625 C 13.78125 -6.976562 12.601562 -6.640625 11.03125 -6.640625 L 5.640625 -6.640625 C 5.640625 -5.660156 5.78125 -4.929688 6.0625 -4.453125 C 6.351562 -3.972656 6.71875 -3.675781 7.15625 -3.5625 C 7.59375 -3.457031 8.28125 -3.40625 9.21875 -3.40625 C 11.832031 -3.40625 13.90625 -3.523438 15.4375 -3.765625 L 15.4375 -0.734375 C 13.84375 -0.140625 10.953125 0.15625 6.765625 0.15625 C 5.679688 0.15625 4.78125 0 4.0625 -0.3125 C 3.351562 -0.632812 2.785156 -1.15625 2.359375 -1.875 C 1.929688 -2.601562 1.628906 -3.5 1.453125 -4.5625 C 1.273438 -5.625 1.1875 -6.953125 1.1875 -8.546875 Z M 5.640625 -9.859375 L 9.890625 -9.859375 C 10.828125 -9.859375 11.296875 -10.28125 11.296875 -11.125 C 11.296875 -12.1875 11.148438 -12.875 10.859375 -13.1875 C 10.566406 -13.5 9.890625 -13.65625 8.828125 -13.65625 C 8.148438 -13.65625 7.644531 -13.625 7.3125 -13.5625 C 6.988281 -13.507812 6.671875 -13.359375 6.359375 -13.109375 C 6.054688 -12.867188 5.851562 -12.492188 5.75 -11.984375 C 5.65625 -11.472656 5.617188 -10.765625 5.640625 -9.859375 Z M 5.640625 -9.859375 "/></g></g></g><g fill="#0063d8" fill-opacity="1"><g transform="translate(225.305158, 40.447882)"><g><path d="M 1.4375 0 L 1.4375 -16.9375 L 5.203125 -16.9375 L 5.90625 -14.796875 C 7.5 -16.328125 9.113281 -17.09375 10.75 -17.09375 C 11.664062 -17.09375 12.289062 -17.03125 12.625 -16.90625 L 12.625 -12.59375 C 12.03125 -12.65625 11.210938 -12.6875 10.171875 -12.6875 C 9.171875 -12.6875 8.335938 -12.550781 7.671875 -12.28125 C 7.003906 -12.019531 6.414062 -11.53125 5.90625 -10.8125 L 5.90625 0 Z M 1.4375 0 "/></g></g></g><g fill="#0063d8" fill-opacity="1"><g transform="translate(237.739427, 40.447882)"><g><path d="M 0.953125 -4.3125 L 0.953125 -5.90625 C 0.953125 -6.5625 1.039062 -7.15625 1.21875 -7.6875 C 1.40625 -8.21875 1.6875 -8.707031 2.0625 -9.15625 C 2.445312 -9.601562 2.960938 -9.945312 3.609375 -10.1875 C 4.265625 -10.4375 5.039062 -10.5625 5.9375 -10.5625 C 6.757812 -10.5625 7.578125 -10.554688 8.390625 -10.546875 C 9.210938 -10.535156 10.050781 -10.539062 10.90625 -10.5625 C 10.925781 -11.257812 10.925781 -11.617188 10.90625 -11.640625 C 10.90625 -12.085938 10.859375 -12.445312 10.765625 -12.71875 C 10.671875 -13 10.515625 -13.210938 10.296875 -13.359375 C 10.085938 -13.503906 9.851562 -13.597656 9.59375 -13.640625 C 9.34375 -13.691406 9.023438 -13.71875 8.640625 -13.71875 C 7.253906 -13.71875 4.882812 -13.597656 1.53125 -13.359375 L 1.53125 -16.109375 C 3.425781 -16.847656 6 -17.226562 9.25 -17.25 C 11.207031 -17.25 12.71875 -16.835938 13.78125 -16.015625 C 14.84375 -15.203125 15.375 -13.796875 15.375 -11.796875 L 15.375 0 L 11.828125 0 L 10.90625 -1.84375 C 10.820312 -1.695312 10.550781 -1.46875 10.09375 -1.15625 C 9.632812 -0.851562 8.988281 -0.546875 8.15625 -0.234375 C 7.332031 0.0664062 6.523438 0.207031 5.734375 0.1875 C 4.203125 0.144531 3.019531 -0.3125 2.1875 -1.1875 C 1.363281 -2.070312 0.953125 -3.113281 0.953125 -4.3125 Z M 5.421875 -4.9375 C 5.421875 -4.300781 5.554688 -3.878906 5.828125 -3.671875 C 6.109375 -3.472656 6.503906 -3.375 7.015625 -3.375 C 7.273438 -3.375 7.539062 -3.398438 7.8125 -3.453125 C 8.09375 -3.515625 8.351562 -3.582031 8.59375 -3.65625 C 8.84375 -3.726562 9.082031 -3.8125 9.3125 -3.90625 C 9.539062 -4 9.75 -4.09375 9.9375 -4.1875 C 10.132812 -4.289062 10.300781 -4.378906 10.4375 -4.453125 C 10.582031 -4.523438 10.695312 -4.585938 10.78125 -4.640625 C 10.863281 -4.691406 10.90625 -4.71875 10.90625 -4.71875 L 10.90625 -7.8125 L 6.796875 -7.5 C 6.515625 -7.476562 6.273438 -7.40625 6.078125 -7.28125 C 5.890625 -7.164062 5.75 -7.019531 5.65625 -6.84375 C 5.5625 -6.675781 5.5 -6.507812 5.46875 -6.34375 C 5.4375 -6.175781 5.421875 -5.984375 5.421875 -5.765625 Z M 5.421875 -4.9375 "/></g></g></g><g fill="#0063d8" fill-opacity="1"><g transform="translate(253.425747, 40.447882)"><g><path d="M 1.21875 -8.484375 C 1.21875 -10.179688 1.34375 -11.601562 1.59375 -12.75 C 1.875 -13.925781 2.28125 -14.820312 2.8125 -15.4375 C 3.320312 -16.050781 3.894531 -16.488281 4.53125 -16.75 C 5.164062 -17 5.921875 -17.125 6.796875 -17.125 C 9.859375 -17.125 12.453125 -16.773438 14.578125 -16.078125 L 14.578125 -13.328125 C 12.554688 -13.453125 10.953125 -13.515625 9.765625 -13.515625 C 8.566406 -13.515625 7.84375 -13.492188 7.59375 -13.453125 C 7.332031 -13.429688 7.054688 -13.335938 6.765625 -13.171875 C 6.460938 -13.003906 6.25 -12.726562 6.125 -12.34375 C 5.820312 -11.488281 5.671875 -10.253906 5.671875 -8.640625 C 5.671875 -7.023438 5.78125 -5.867188 6 -5.171875 C 6.1875 -4.441406 6.484375 -3.972656 6.890625 -3.765625 C 7.273438 -3.523438 7.890625 -3.40625 8.734375 -3.40625 C 10.460938 -3.40625 12.195312 -3.484375 13.9375 -3.640625 L 14.796875 -3.703125 L 14.796875 -0.890625 C 13.816406 -0.378906 12.859375 -0.0820312 11.921875 0 C 10.546875 0.125 9.347656 0.1875 8.328125 0.1875 L 6.796875 0.1875 C 5.109375 0.1875 3.789062 -0.375 2.84375 -1.5 C 1.757812 -2.769531 1.21875 -5.097656 1.21875 -8.484375 Z M 7.40625 1.21875 L 10.390625 1.21875 C 10.390625 2.875 10.132812 4.039062 9.625 4.71875 C 9.113281 5.375 8.179688 5.703125 6.828125 5.703125 L 5.03125 5.703125 L 5.03125 3.796875 L 6.4375 3.3125 C 6.863281 3.144531 7.128906 2.910156 7.234375 2.609375 C 7.347656 2.335938 7.40625 1.875 7.40625 1.21875 Z M 7.40625 1.21875 "/></g></g></g><g fill="#0063d8" fill-opacity="1"><g transform="translate(268.314987, 40.447882)"><g><path d="M 10.265625 -22.03125 C 11.078125 -22.03125 12.015625 -22.4375 13.078125 -23.25 L 13.84375 -21.328125 C 12.519531 -19.890625 11.328125 -19.171875 10.265625 -19.171875 C 9.734375 -19.171875 9.097656 -19.347656 8.359375 -19.703125 C 7.609375 -20.085938 7.085938 -20.28125 6.796875 -20.28125 C 6.515625 -20.28125 6.269531 -20.257812 6.0625 -20.21875 C 5.84375 -20.195312 5.671875 -20.171875 5.546875 -20.140625 C 5.421875 -20.109375 5.265625 -20.050781 5.078125 -19.96875 C 4.859375 -19.851562 4.707031 -19.773438 4.625 -19.734375 C 4.5625 -19.691406 4.410156 -19.597656 4.171875 -19.453125 C 3.921875 -19.304688 3.753906 -19.210938 3.671875 -19.171875 L 2.90625 -20.921875 C 4.238281 -22.410156 5.515625 -23.15625 6.734375 -23.15625 C 7.265625 -23.132812 7.878906 -22.941406 8.578125 -22.578125 C 9.273438 -22.210938 9.722656 -22.03125 9.921875 -22.03125 Z M 1.5 -16.140625 C 3.4375 -16.878906 6.019531 -17.25 9.25 -17.25 C 11.207031 -17.25 12.707031 -16.835938 13.75 -16.015625 C 14.8125 -15.203125 15.34375 -13.796875 15.34375 -11.796875 L 15.34375 0 L 11.796875 0 L 10.875 -1.84375 C 10.789062 -1.695312 10.515625 -1.460938 10.046875 -1.140625 C 9.597656 -0.847656 8.972656 -0.550781 8.171875 -0.25 C 7.359375 0.0390625 6.582031 0.1875 5.84375 0.1875 C 4.269531 0.1875 3.054688 -0.253906 2.203125 -1.140625 C 1.347656 -2.054688 0.921875 -3.113281 0.921875 -4.3125 L 0.921875 -5.90625 C 0.921875 -7.257812 1.328125 -8.375 2.140625 -9.25 C 2.941406 -10.125 4.1875 -10.5625 5.875 -10.5625 L 10.875 -10.5625 L 10.875 -11.640625 C 10.875 -12.492188 10.691406 -13.054688 10.328125 -13.328125 C 9.972656 -13.585938 9.253906 -13.71875 8.171875 -13.71875 C 7.078125 -13.71875 4.851562 -13.597656 1.5 -13.359375 Z M 5.390625 -4.9375 C 5.390625 -4.300781 5.53125 -3.890625 5.8125 -3.703125 C 6.082031 -3.484375 6.484375 -3.375 7.015625 -3.375 C 7.546875 -3.375 8.128906 -3.484375 8.765625 -3.703125 C 9.429688 -3.929688 9.941406 -4.15625 10.296875 -4.375 L 10.875 -4.71875 L 10.875 -7.8125 L 6.765625 -7.5 C 5.847656 -7.40625 5.390625 -6.828125 5.390625 -5.765625 Z M 5.390625 -4.9375 "/></g></g></g><g fill="#0063d8" fill-opacity="1"><g transform="translate(284.001308, 40.447882)"><g><path d="M 1.1875 -8.234375 C 1.1875 -9.972656 1.3125 -11.40625 1.5625 -12.53125 C 1.820312 -13.65625 2.269531 -14.554688 2.90625 -15.234375 C 3.539062 -15.921875 4.332031 -16.398438 5.28125 -16.671875 C 6.226562 -16.953125 7.429688 -17.09375 8.890625 -17.09375 C 11.804688 -17.09375 13.820312 -16.453125 14.9375 -15.171875 C 16.050781 -13.898438 16.609375 -11.585938 16.609375 -8.234375 C 16.609375 -5.054688 16.0625 -2.863281 14.96875 -1.65625 C 13.875 -0.445312 11.847656 0.15625 8.890625 0.15625 C 7.722656 0.15625 6.707031 0.0546875 5.84375 -0.140625 C 4.988281 -0.347656 4.257812 -0.648438 3.65625 -1.046875 C 3.050781 -1.453125 2.566406 -1.988281 2.203125 -2.65625 C 1.835938 -3.332031 1.578125 -4.117188 1.421875 -5.015625 C 1.265625 -5.921875 1.1875 -6.992188 1.1875 -8.234375 Z M 5.640625 -8.234375 C 5.640625 -7.140625 5.691406 -6.273438 5.796875 -5.640625 C 5.910156 -5.003906 6.109375 -4.519531 6.390625 -4.1875 C 6.679688 -3.863281 7.003906 -3.65625 7.359375 -3.5625 C 7.722656 -3.476562 8.234375 -3.4375 8.890625 -3.4375 C 9.472656 -3.4375 9.914062 -3.457031 10.21875 -3.5 C 10.53125 -3.550781 10.828125 -3.660156 11.109375 -3.828125 C 11.398438 -3.992188 11.613281 -4.257812 11.75 -4.625 C 11.882812 -4.988281 11.984375 -5.453125 12.046875 -6.015625 C 12.117188 -6.578125 12.15625 -7.316406 12.15625 -8.234375 C 12.15625 -9.203125 12.125 -9.988281 12.0625 -10.59375 C 12.007812 -11.207031 11.921875 -11.71875 11.796875 -12.125 C 11.671875 -12.539062 11.46875 -12.835938 11.1875 -13.015625 C 10.914062 -13.203125 10.609375 -13.332031 10.265625 -13.40625 C 9.929688 -13.476562 9.472656 -13.515625 8.890625 -13.515625 C 8.429688 -13.515625 8.050781 -13.492188 7.75 -13.453125 C 7.445312 -13.410156 7.15625 -13.320312 6.875 -13.1875 C 6.601562 -13.050781 6.398438 -12.867188 6.265625 -12.640625 C 6.128906 -12.421875 6.003906 -12.109375 5.890625 -11.703125 C 5.785156 -11.296875 5.71875 -10.816406 5.6875 -10.265625 C 5.65625 -9.710938 5.640625 -9.035156 5.640625 -8.234375 Z M 5.640625 -8.234375 "/></g></g></g><g clip-path="url(#f1d5c53ceb)"><path fill="#0063d8" d="M 23.574219 44.035156 L 23.574219 19.335938 L 29.792969 13.117188 C 29.792969 13.117188 30.703125 12.207031 29.792969 11.292969 C 28.882812 10.382812 27.972656 11.292969 27.972656 11.292969 L 23.574219 15.691406 L 23.574219 9.785156 C 23.574219 9.785156 23.574219 8.496094 22.285156 8.496094 C 20.996094 8.496094 20.996094 9.785156 20.996094 9.785156 L 20.996094 15.691406 L 16.597656 11.292969 C 16.597656 11.292969 15.6875 10.382812 14.777344 11.292969 C 13.867188 12.207031 14.777344 13.117188 14.777344 13.117188 L 20.996094 19.335938 L 20.996094 44.035156 L 14.777344 50.253906 C 14.777344 50.253906 13.867188 51.164062 14.777344 52.074219 C 15.6875 52.988281 16.597656 52.074219 16.597656 52.074219 L 20.996094 47.675781 L 20.996094 53.585938 C 20.996094 53.585938 20.996094 54.875 22.285156 54.875 C 23.574219 54.875 23.574219 53.585938 23.574219 53.585938 L 23.574219 47.675781 L 27.972656 52.074219 C 27.972656 52.074219 28.882812 52.988281 29.792969 52.074219 C 30.703125 51.164062 29.792969 50.253906 29.792969 50.253906 Z M 23.574219 44.035156 " fill-opacity="1" fill-rule="nonzero"/></g><g clip-path="url(#f9cb9b4360)"><path fill="#0063d8" d="M 43.699219 35.378906 C 43.363281 34.132812 42.121094 34.464844 42.121094 34.464844 L 33.625 36.742188 L 12.234375 24.394531 L 9.960938 15.898438 C 9.960938 15.898438 9.625 14.652344 8.382812 14.988281 C 7.136719 15.320312 7.46875 16.566406 7.46875 16.566406 L 9.082031 22.574219 L 3.964844 19.617188 C 3.964844 19.617188 2.847656 18.972656 2.203125 20.089844 C 1.558594 21.207031 2.675781 21.851562 2.675781 21.851562 L 7.792969 24.804688 L 1.78125 26.414062 C 1.78125 26.414062 0.535156 26.746094 0.871094 27.992188 C 1.207031 29.238281 2.449219 28.902344 2.449219 28.902344 L 10.949219 26.625 L 32.335938 38.976562 L 34.613281 47.472656 C 34.613281 47.472656 34.945312 48.71875 36.191406 48.382812 C 37.433594 48.046875 37.101562 46.804688 37.101562 46.804688 L 35.492188 40.796875 L 40.609375 43.75 C 40.609375 43.75 41.726562 44.394531 42.367188 43.28125 C 43.011719 42.164062 41.894531 41.519531 41.894531 41.519531 L 36.78125 38.566406 L 42.789062 36.957031 C 42.789062 36.957031 44.03125 36.621094 43.699219 35.378906 Z M 43.699219 35.378906 " fill-opacity="1" fill-rule="nonzero"/><path fill="#0063d8" d="M 42.789062 26.414062 L 36.777344 24.800781 L 41.894531 21.847656 C 41.894531 21.847656 43.011719 21.203125 42.367188 20.085938 C 41.722656 18.96875 40.609375 19.617188 40.609375 19.617188 L 35.492188 22.570312 L 37.101562 16.5625 C 37.101562 16.5625 37.433594 15.316406 36.191406 14.984375 C 34.945312 14.648438 34.613281 15.894531 34.613281 15.894531 L 32.335938 24.390625 L 10.945312 36.742188 L 2.453125 34.464844 C 2.453125 34.464844 1.207031 34.132812 0.875 35.375 C 0.539062 36.621094 1.785156 36.953125 1.785156 36.953125 L 7.792969 38.5625 L 2.675781 41.515625 C 2.675781 41.515625 1.5625 42.164062 2.207031 43.277344 C 2.847656 44.394531 3.964844 43.75 3.964844 43.75 L 9.082031 40.792969 L 7.46875 46.800781 C 7.46875 46.800781 7.136719 48.046875 8.382812 48.378906 C 9.625 48.714844 9.960938 47.46875 9.960938 47.46875 L 12.238281 38.972656 L 33.628906 26.625 L 42.125 28.902344 C 42.125 28.902344 43.367188 29.234375 43.703125 27.992188 C 44.03125 26.746094 42.789062 26.414062 42.789062 26.414062 Z M 42.789062 26.414062 " fill-opacity="1" fill-rule="nonzero"/></g></svg>