<?xml version="1.0" encoding="UTF-8"?>
<!DOCTYPE svg PUBLIC "-//W3C//DTD SVG 1.1//EN" "http://www.w3.org/Graphics/SVG/1.1/DTD/svg11.dtd">
<!-- Creator: CorelDRAW -->
<svg xmlns="http://www.w3.org/2000/svg" xml:space="preserve" width="2480px" height="850px" version="1.1" style="shape-rendering:geometricPrecision; text-rendering:geometricPrecision; image-rendering:optimizeQuality; fill-rule:evenodd; clip-rule:evenodd"
viewBox="0 0 2480 850.29"
 xmlns:xlink="http://www.w3.org/1999/xlink"
 xmlns:xodm="http://www.corel.com/coreldraw/odm/2003">
 <defs>
  <style type="text/css">
   <![CDATA[
    .str1 {stroke:#373435;stroke-width:5.9;stroke-miterlimit:22.9256}
    .str0 {stroke:#373435;stroke-width:2.36;stroke-miterlimit:22.9256}
    .fil4 {fill:none}
    .fil6 {fill:#FEFEFE}
    .fil5 {fill:#373435}
    .fil2 {fill:#E2AFB8}
    .fil3 {fill:#FFFFFD}
    .fil1 {fill:#373435;fill-rule:nonzero}
    .fil0 {fill:#F28116;fill-rule:nonzero}
   ]]>
  </style>
 </defs>
 <g id="Camada_x0020_1">
  <metadata id="CorelCorpID_0Corel-Layer"/>
  <g id="_2336324757728">
   <g>
    <path class="fil0" d="M904.01 460.08c28.06,-4.72 50.42,-16.97 67.1,-36.76 16.67,-19.79 25.08,-43.81 25.08,-72.01 0,-31.74 -10.84,-58.05 -32.33,-78.86 -21.54,-20.76 -49.44,-31.16 -83.77,-31.16 -34.32,0 -62.09,10.4 -83.28,31.16 -21.25,20.81 -31.95,47.12 -31.95,79.01 0,28.05 8.12,51.83 24.21,71.47 16.1,19.64 37.93,31.99 65.4,37 13.81,34.13 41.42,51.2 82.9,51.2 18.91,0 34.86,-3.45 47.84,-10.26l-13.96 -40.35c-4.71,3.3 -11.23,6.02 -19.79,8.21 -8.55,2.14 -17.55,2.73 -26.78,1.56 -9.24,-1.12 -16.1,-4.48 -20.52,-10.07l-0.15 -0.14zm-82.46 -108.62c0,-16.63 5.69,-30.58 16.97,-41.72 11.23,-11.08 25.19,-16.62 41.86,-16.62 16.68,0 30.63,5.54 41.86,16.62 11.28,11.14 16.97,25.09 16.97,41.72 0,16.92 -5.69,31.17 -16.97,42.54 -11.23,11.43 -25.18,17.12 -41.86,17.12 -16.67,0 -30.63,-5.69 -41.86,-17.12 -11.28,-11.37 -16.97,-25.47 -16.97,-42.39l0 -0.15zm317.93 -58.83l0 89.9c0,8.99 -3.02,16.24 -9,21.78 -5.98,5.59 -13.51,8.41 -22.6,8.41 -9,0 -16.24,-2.72 -21.69,-8.12 -5.4,-5.39 -8.12,-12.69 -8.12,-21.93l0 -90.04 -54.26 0 0 96.9c0,22.41 5.59,39.92 16.53,52.75 10.99,12.84 25.48,19.26 43.57,19.26 19.54,-0.15 38.02,-8.85 55.71,-26.11l0 22.9 54.26 0 0 -165.41 -54.4 -0.29zm191.22 165.41l52.12 0 0 -91.46c0,-25.72 -6.12,-44.97 -18.23,-57.71 -12.11,-12.74 -32.04,-19.16 -59.66,-19.16 -26.06,0 -51.68,5.84 -76.87,17.46l12.21 38.94c4.42,-2.38 11.96,-4.96 22.8,-7.63 10.84,-2.72 21.93,-3.99 33.45,-3.99 10.11,0 18.09,2.29 23.78,6.96 5.68,4.66 8.41,12.2 8.26,22.7 -12.83,-4.13 -26.79,-6.13 -42.01,-6.13 -7.68,0 -15.21,0.98 -22.75,3.02 -7.59,1.99 -14.54,4.96 -21.1,8.95 -6.52,4.03 -11.82,9.43 -15.95,16.28 -4.13,6.86 -6.12,14.69 -6.12,23.39 0,16.38 5.73,28.88 17.11,37.73 11.38,8.85 26.45,13.27 45.41,13.27 11.09,0 20.76,-1.85 28.88,-5.44 8.12,-3.55 14.25,-8.12 18.38,-13.67l0.29 16.49zm-30.92 -34.57c-7.25,0 -13.23,-1.7 -18.04,-5.01 -4.86,-3.26 -7.29,-7.68 -7.29,-13.23 0,-5.29 2.57,-9.43 7.82,-12.54 5.3,-3.16 11.97,-4.72 20.09,-4.72 9.14,0 17.79,1.71 25.91,5.01l0 7.98c0,7.24 -2.72,12.78 -7.97,16.67 -5.26,3.84 -12.26,5.84 -20.76,5.84l0.24 0zm116.15 34.57l54.26 0 0 -226.38 -54.26 0 0 226.38zm213.2 -165.41l-38.46 96.56 -37.34 -96.56 -61.26 0 72.4 162.49 -0.3 0.87c-5.15,12.21 -13.56,18.33 -25.23,18.33 -9.68,0 -20.81,-3.11 -33.21,-9.38l-17.21 42.88c19.26,9.39 37.73,14.1 55.72,14.1 17.94,0 32.19,-4.13 42.74,-12.4 10.5,-8.26 19.49,-21.34 26.88,-39.18l74.39 -177.56 -59.12 -0.15zm61.75 0l68.94 165.41 55.96 0 69.09 -165.41 -59.56 0 -37.58 99.72 -37.29 -99.72 -59.56 0zm270.91 -42.74c0,-7.82 -2.87,-14.48 -8.7,-20.08 -5.84,-5.54 -12.7,-8.26 -20.67,-8.26 -8.41,0 -15.65,2.87 -21.63,8.56 -6.03,5.68 -9,12.39 -9,19.93 0,7.97 2.97,14.68 9,20.23 5.98,5.59 13.07,8.26 21.49,8.26 8.11,0 15.12,-2.67 20.81,-8.26 5.73,-5.55 8.55,-12.26 8.55,-20.23l0.15 -0.15zm-57.03 208.15l54.31 0 0 -165.41 -54.31 0 0 165.41zm206 -226.38l0 79.98c-12.11,-14.78 -29.32,-22.22 -51.63,-22.22 -21.54,0 -39.05,7.83 -52.42,23.63 -13.37,15.8 -20.08,36.42 -20.08,61.89 0,25.72 6.71,46.53 20.08,62.43 13.37,15.9 30.78,23.87 52.27,23.87 22.32,0 39.53,-7.53 51.63,-22.51l0 19.31 54.26 0 0 -226.23 -54.11 -0.15zm-33.99 180.96c-10.69,0 -19.25,-3.4 -25.62,-10.35 -6.42,-7 -9.58,-15.8 -9.58,-26.5 0,-11.23 3.16,-20.32 9.44,-27.27 6.22,-7.01 14.78,-10.41 25.76,-10.41 11.09,0 19.65,3.4 25.58,10.26 5.98,6.81 8.99,15.9 8.99,27.18 0,10.94 -3.11,19.74 -9.23,26.59 -6.13,6.81 -14.69,10.21 -25.63,10.21l0.29 0.29zm225.5 45.42l52.12 0 0 -91.46c0,-25.72 -6.12,-44.97 -18.23,-57.71 -12.1,-12.74 -32.04,-19.16 -59.65,-19.16 -26.06,0 -51.69,5.84 -76.87,17.46l12.2 38.94c4.42,-2.38 11.96,-4.96 22.8,-7.63 10.85,-2.72 21.93,-3.99 33.45,-3.99 10.12,0 18.09,2.29 23.78,6.96 5.69,4.66 8.41,12.2 8.26,22.7 -12.83,-4.13 -26.78,-6.13 -42,-6.13 -7.68,0 -15.22,0.98 -22.76,3.02 -7.58,1.99 -14.53,4.96 -21.1,8.95 -6.51,4.03 -11.81,9.43 -15.95,16.28 -4.13,6.86 -6.12,14.69 -6.12,23.39 0,16.38 5.74,28.88 17.11,37.73 11.38,8.85 26.45,13.27 45.41,13.27 11.09,0 20.76,-1.85 28.88,-5.44 8.12,-3.55 14.25,-8.12 18.38,-13.67l0.29 16.49zm-30.92 -34.57c-7.24,0 -13.22,-1.7 -18.04,-5.01 -4.86,-3.26 -7.29,-7.68 -7.29,-13.23 0,-5.29 2.58,-9.43 7.83,-12.54 5.3,-3.16 11.96,-4.72 20.08,-4.72 9.14,0 17.79,1.71 25.91,5.01l0 7.98c0,7.24 -2.72,12.78 -7.97,16.67 -5.25,3.84 -12.25,5.84 -20.76,5.84l0.24 0z"/>
    <g>
     <path class="fil1" d="M971.31 609.5c11.61,0 19.69,-4.94 19.69,-13.86 0,-9.36 -8.73,-11.04 -19.13,-12.9 -9.1,-1.59 -11.33,-2.82 -11.33,-6.36 0,-4.59 4.18,-7.06 11.79,-7.06 5.85,0 10.77,1.5 14.3,3.62l3.34 -5.39c-4.27,-2.73 -10.67,-4.59 -17.45,-4.59 -8.83,0 -19.22,3.09 -19.22,13.6 0,8.13 6.12,10.42 17.55,12.45 6.96,1.24 12.9,2.21 12.9,6.98 0,5.39 -6.22,7.07 -12.35,7.07 -6.22,0 -13.37,-2.04 -16.62,-4.51l-3.34 5.39c4.55,3.35 13.09,5.56 19.87,5.56zm79.95 -46.54c-7.62,0 -13.74,3.36 -17.09,8.74l-0.65 -7.59 -5.94 0 0 66.24 6.96 0 0 -28.35c3.44,4.68 9.2,7.41 16.35,7.41 13.28,0 23.77,-9.45 23.77,-23.13 0,-13.78 -10.59,-23.32 -23.4,-23.32zm-0.65 40.1c-9.94,0 -16.71,-6.72 -16.71,-16.87 0,-10.16 6.77,-16.87 16.71,-16.87 9.93,0 16.71,6.8 16.71,16.87 0,10.07 -6.78,16.87 -16.71,16.87zm65.46 -14.31l37.42 0c0.47,-1.94 0.65,-4.42 0.65,-5.57 0,-10.24 -7.24,-20.22 -21.73,-20.22 -14.02,0 -23.58,9.45 -23.58,22.96 0,14.04 10.21,23.49 24.14,23.49 7.24,0 13.84,-2.56 18.29,-6.8l-4.17 -4.85c-3.81,3.53 -8.73,5.47 -14.21,5.47 -9.29,0 -15.69,-5.65 -16.81,-14.48zm0 -6.01c1.3,-8.3 7.34,-13.6 16.25,-13.6 9.38,0 14.39,6.1 14.39,13.43l0 0.17 -30.64 0zm96.38 26.67c7.15,0 13.28,-2.47 17.74,-6.8l-4.83 -4.85c-3.34,3.62 -7.8,5.3 -12.81,5.3 -10.12,0 -17,-6.89 -17,-16.87 0,-10.07 6.97,-16.87 16.9,-16.87 5.39,0 9.94,1.94 12.63,5.03l4.83 -4.85c-4.27,-4.16 -10.49,-6.54 -17.46,-6.54 -13.74,0 -24.14,9.63 -24.14,23.23 0,13.6 10.31,23.22 24.14,23.22zm59.8 -52.99c2.7,0 4.92,-2.11 4.92,-4.68 0,-2.56 -2.22,-4.68 -4.92,-4.68 -2.69,0 -4.92,2.12 -4.92,4.68 0,2.57 2.23,4.68 4.92,4.68zm3.44 7.69l-6.97 0 0 44.16 6.97 0 0 -44.16zm62.03 -1.15c-7.8,0 -14.77,2.56 -19.32,6.09l3.07 5.13c4.27,-3.27 10.21,-4.86 15.41,-4.86 8.17,0 12.72,3.97 12.72,11.75l0 2.38c-5.01,-1.5 -10.49,-2.12 -14.95,-2.12 -9.38,0 -18.85,3.97 -18.85,14.04 0,9.28 7.89,14.04 16.34,14.04 6.69,0 13.93,-2.91 17.83,-8.56l0.56 7.42 5.94 0 0 -27.2c0,-12.1 -6.87,-18.11 -18.75,-18.11zm-4.55 40.01c-6.04,0 -10.13,-2.83 -10.13,-7.77 0,-5.83 5.58,-8.13 12.63,-8.13 4.46,0 9.38,0.62 13.93,2.03l0 0.88c-0.09,7.87 -8.26,12.99 -16.43,12.99zm63.42 5.3l6.96 0 0 -66.24 -6.96 0 0 66.24zm52.09 -51.85c2.69,0 4.92,-2.11 4.92,-4.68 0,-2.56 -2.23,-4.68 -4.92,-4.68 -2.7,0 -4.92,2.12 -4.92,4.68 0,2.57 2.22,4.68 4.92,4.68zm3.43 7.69l-6.96 0 0 44.16 6.96 0 0 -44.16zm46.52 38.15l28.32 -33.03 0 -5.12 -36.67 0 0 6 27.48 0 -28.32 33.03 0 5.13 37.98 0 0 -6.01 -28.79 0zm69.83 -13.51l37.42 0c0.47,-1.94 0.65,-4.42 0.65,-5.57 0,-10.24 -7.24,-20.22 -21.73,-20.22 -14.02,0 -23.58,9.45 -23.58,22.96 0,14.04 10.21,23.49 24.14,23.49 7.24,0 13.84,-2.56 18.29,-6.8l-4.18 -4.85c-3.8,3.53 -8.72,5.47 -14.2,5.47 -9.29,0 -15.69,-5.65 -16.81,-14.48zm0 -6.01c1.3,-8.3 7.34,-13.6 16.25,-13.6 9.38,0 14.39,6.1 14.39,13.43l0 0.17 -30.64 0zm112.26 -40.71l0 28.26c-3.43,-4.59 -9.19,-7.33 -16.34,-7.33 -13.28,0 -23.68,9.45 -23.68,23.14 0,13.78 10.49,23.31 23.4,23.31 7.61,0 13.65,-3.35 16.99,-8.74l0.65 7.6 5.95 0 0 -66.24 -6.97 0zm-16.06 61.03c-9.94,0 -16.72,-6.8 -16.72,-16.87 0,-10.07 6.78,-16.87 16.72,-16.87 9.93,0 16.71,6.71 16.71,16.87 0,10.15 -6.78,16.87 -16.71,16.87z"/>
     <path class="fil1" d="M1804.96 607.61c6.94,0 12.88,-2.28 17.21,-6.27l-4.69 -4.48c-3.24,3.34 -7.56,4.89 -12.43,4.89 -9.81,0 -16.48,-6.36 -16.48,-15.56 0,-9.29 6.76,-15.56 16.39,-15.56 5.23,0 9.64,1.79 12.25,4.64l4.69 -4.48c-4.15,-3.83 -10.18,-6.03 -16.94,-6.03 -13.33,0 -23.41,8.88 -23.41,21.43 0,12.54 9.99,21.42 23.41,21.42zm72.96 -42.85c-7.57,0 -14.32,2.36 -18.74,5.62l2.98 4.73c4.14,-3.02 9.9,-4.48 14.95,-4.48 7.92,0 12.34,3.66 12.34,10.83l0 2.2c-4.87,-1.38 -10.18,-1.95 -14.51,-1.95 -9.09,0 -18.28,3.66 -18.28,12.95 0,8.56 7.66,12.95 15.85,12.95 6.49,0 13.51,-2.68 17.3,-7.9l0.54 6.84 5.76 0 0 -25.09c0,-11.16 -6.66,-16.7 -18.19,-16.7zm-4.41 36.91c-5.86,0 -9.82,-2.61 -9.82,-7.17 0,-5.38 5.4,-7.5 12.25,-7.5 4.32,0 9.09,0.57 13.51,1.88l0 0.81c-0.1,7.25 -8.02,11.98 -15.94,11.98zm83.49 -36.91c-6.85,0 -12.52,3.1 -15.59,8.23l-0.63 -7.17 -5.76 0 0 40.73 6.75 0 0 -22.97c0,-8.23 6.94,-12.95 14.14,-12.95 1.81,0 3.52,0.32 5.14,0.81l2.34 -5.78c-1.98,-0.57 -4.14,-0.9 -6.39,-0.9zm43.95 23.79l36.29 0c0.46,-1.79 0.64,-4.07 0.64,-5.13 0,-9.45 -7.03,-18.66 -21.08,-18.66 -13.6,0 -22.88,8.72 -22.88,21.18 0,12.96 9.91,21.67 23.42,21.67 7.03,0 13.42,-2.36 17.74,-6.27l-4.05 -4.48c-3.69,3.26 -8.47,5.05 -13.78,5.05 -9.01,0 -15.22,-5.21 -16.3,-13.36zm0 -5.54c1.26,-7.66 7.11,-12.55 15.76,-12.55 9.1,0 13.96,5.63 13.96,12.39l0 0.16 -29.72 0z"/>
    </g>
   </g>
   <g>
    <path class="fil2" d="M426.1 362.19c2.21,-4.61 1.38,-16.87 0.28,-29.06 -1.1,-12.19 -2.48,-24.31 -2.96,-35.12 -0.48,-10.81 -0.07,-20.31 0.76,-31.47 0.82,-11.16 2.06,-23.97 3.58,-34.02 1.51,-10.06 3.3,-17.36 6.2,-24.17 2.89,-6.82 6.88,-13.16 10.32,-17.5 3.45,-4.33 6.34,-6.67 11.64,-9.64 5.31,-2.96 13.02,-6.54 18.39,-8.95 5.37,-2.41 8.4,-3.65 14.19,-6.47 5.78,-2.83 14.32,-7.23 21.62,-10.4 7.3,-3.17 13.36,-5.1 22.66,-6.13 9.29,-1.03 21.83,-1.17 34.29,1.72 12.47,2.89 24.86,8.82 35.47,14.32 10.6,5.51 19.42,10.61 28.03,17.57 8.61,6.95 17.01,15.77 22.72,24.51 5.72,8.75 8.75,17.42 11.57,25.35 2.83,7.92 5.44,15.08 7.99,24.72 2.55,9.64 5.03,21.76 6.89,35.46 1.86,13.71 3.1,29 3.65,43.6 0.55,14.6 0.41,28.51 -0.28,41.94 -0.69,13.42 -1.93,26.37 -3.58,39.46 -1.65,13.08 -3.72,26.3 -6.27,38.9 -2.54,12.61 -5.57,24.59 -8.88,37.47 -3.3,12.88 -6.89,26.65 -9.92,38.63 -3.03,11.98 -5.51,22.18 -9.22,33.47 -3.72,11.29 -8.68,23.69 -13.85,37.19 -5.16,13.5 -10.53,28.1 -14.6,40.97 -4.06,12.88 -6.81,24.04 -11.91,36.85 -5.1,12.81 -12.53,27.27 -17.56,36.22 -5.03,8.95 -7.64,12.4 -10.81,13.91 -3.17,1.52 -6.89,1.1 -13.5,-0.55 -6.61,-1.65 -16.11,-4.54 -25.87,-7.93 -9.76,-3.38 -19.77,-7.26 -50,-21.58 -30.23,-14.33 -80.69,-39.1 -112.87,-55.89 -32.18,-16.8 -46.09,-25.61 -63.1,-36.01 -17.01,-10.4 -37.12,-22.38 -56.91,-38.25 -19.78,-15.86 -39.23,-35.61 -56.59,-59.3 -17.35,-23.69 -32.6,-51.32 -41.88,-69.27 -9.28,-17.95 -12.59,-26.21 -14.86,-35.1 -2.27,-8.88 -3.51,-18.38 -3.17,-26.58 0.35,-8.19 2.27,-15.08 4.06,-21.14 1.79,-6.06 3.45,-11.29 6.89,-17.9 3.45,-6.62 8.68,-14.6 12.67,-20.66 4,-6.06 6.75,-10.2 11.99,-14.53 5.23,-4.34 12.94,-8.89 17.83,-11.78 4.89,-2.89 6.96,-4.13 10.88,-6.2 3.93,-2.07 9.71,-4.96 17.98,-7.3 8.26,-2.34 19,-4.13 31.54,-4.54 12.53,-0.42 26.86,0.55 41.32,4.06 14.46,3.51 29.06,9.57 45.04,19.08 15.97,9.5 33.33,22.45 46.14,33.12 12.8,10.67 21.07,19.08 27.82,24.79 6.75,5.72 11.98,8.75 14.18,4.13z"/>
    <path class="fil3" d="M202.51 518.81c3.1,1.44 8.73,1.74 16.13,2.91 7.39,1.17 16.56,3.21 25.9,6.53 9.34,3.31 18.84,7.89 30.12,14.91 11.29,7.02 24.34,16.46 36.95,27.46 12.61,11 24.79,23.55 37.85,37.57 13.07,14.02 27.03,29.51 40.4,43.75 13.36,14.24 26.12,27.24 36.33,36.64 10.21,9.4 17.87,15.19 25.59,19.63 7.71,4.43 15.47,7.5 22.14,9 6.67,1.49 12.26,1.4 19.47,-0.68 7.22,-2.08 16.07,-6.15 24.02,-10.92 7.94,-4.77 14.98,-10.23 23.08,-17.95 8.1,-7.73 17.25,-17.72 25.27,-27.67 8.01,-9.95 14.88,-19.85 20.97,-28.84 6.09,-8.99 11.4,-17.06 14.41,-22.56 3.02,-5.5 3.73,-8.44 3.05,-12.48 -0.67,-4.05 -2.75,-9.21 -6.02,-17.48 -3.26,-8.27 -7.72,-19.66 -11.1,-28.91 -3.39,-9.25 -5.72,-16.35 -9.02,-18.61 -3.3,-2.27 -7.58,0.31 -10.3,2.27 -2.73,1.96 -3.89,3.31 -3.76,6.72 0.13,3.41 1.57,8.88 2.46,14.61 0.89,5.72 1.23,11.69 1,19.49 -0.23,7.81 -1.04,17.44 -2.91,27.02 -1.87,9.58 -4.8,19.12 -9.26,29.09 -4.45,9.98 -10.43,20.38 -17.57,29.63 -7.14,9.25 -15.45,17.34 -22.87,22.55 -7.42,5.21 -13.95,7.55 -21.97,7.95 -8.02,0.4 -17.52,-1.15 -28.19,-6.37 -10.66,-5.22 -22.49,-14.13 -34.44,-24.51 -11.94,-10.38 -23.99,-22.24 -36.97,-34.98 -12.99,-12.73 -26.89,-26.34 -42.98,-41.06 -16.09,-14.72 -34.35,-30.56 -49.31,-41.93 -14.97,-11.37 -26.64,-18.27 -36.51,-23.32 -9.87,-5.04 -17.94,-8.22 -28.01,-10.53 -10.06,-2.3 -22.13,-3.72 -29.44,-4.41 -7.31,-0.69 -9.87,-0.65 -10.53,0.95 -0.66,1.61 0.58,4.78 1.48,7.65 0.89,2.88 1.45,5.45 4.54,6.88z"/>
    <path class="fil3" d="M321.9 169.63c2.77,-0.33 5.82,0.6 7.95,2.13 2.13,1.54 3.33,3.69 4.06,6.14 0.72,2.44 0.95,5.18 0.48,8.01 -0.47,2.84 -1.65,5.76 -3.14,8.09 -1.49,2.32 -3.3,4.05 -5.53,5.06 -2.24,1.01 -4.9,1.29 -7.15,2.03 -2.25,0.74 -4.09,1.93 -6.46,4.18 -2.37,2.25 -5.28,5.55 -8.77,9.67 -3.49,4.13 -7.56,9.08 -10.9,14.11 -3.34,5.04 -5.96,10.15 -7.5,13.79 -1.53,3.63 -1.99,5.79 -2.21,8.83 -0.23,3.04 -0.23,6.98 0.21,10.98 0.45,3.99 1.33,8.06 3.06,12.91 1.74,4.85 4.33,10.48 7.63,16.64 3.29,6.17 7.3,12.85 14.01,22.56 6.7,9.71 16.11,22.43 25.11,33.84 9,11.41 17.59,21.51 25.86,30.73 8.27,9.21 16.23,17.53 23.82,25.06 7.59,7.53 14.82,14.26 22.7,20.58 7.88,6.32 16.4,12.24 24.7,17.03 8.29,4.79 16.36,8.45 23.87,10.8 7.51,2.34 14.48,3.37 21.39,3.66 6.92,0.29 13.78,-0.15 19.98,-1.26 6.2,-1.1 11.73,-2.87 16.86,-5.13 5.12,-2.26 9.83,-5 14.32,-8.08 4.5,-3.07 8.79,-6.49 13.3,-10.84 4.52,-4.34 9.26,-9.61 13.26,-14.9 4,-5.29 7.26,-10.59 11.01,-17.69 3.75,-7.09 7.99,-15.98 11.68,-25.18 3.7,-9.2 6.85,-18.7 9.72,-30.1 2.86,-11.4 5.43,-24.7 6.79,-35.81 1.36,-11.1 1.5,-20.01 1.33,-28.46 -0.18,-8.45 -0.67,-16.44 -1.92,-28.1 -1.27,-11.66 -3.29,-26.99 -5.7,-41.14 -2.4,-14.14 -5.19,-27.1 -7.27,-35.62 -2.08,-8.52 -3.47,-12.62 -4.98,-15.4 -1.51,-2.78 -3.14,-4.26 -6.61,-5.85 -3.47,-1.59 -8.79,-3.3 -13.93,-4.54 -5.15,-1.25 -10.13,-2.03 -16.97,-2.5 -6.84,-0.47 -15.55,-0.64 -21.72,-0.42 -6.16,0.23 -9.78,0.84 -13.27,0.77 -3.49,-0.06 -6.86,-0.79 -9.96,-2.67 -3.1,-1.87 -5.93,-4.89 -7.74,-7.89 -1.82,-3 -2.62,-5.98 -2.64,-8.54 -0.02,-2.56 0.74,-4.71 1.94,-5.94 1.21,-1.23 2.86,-1.55 5,-1.35 2.14,0.21 4.78,0.94 7.77,2.15 2.99,1.21 6.33,2.9 9.88,4.14 3.54,1.24 7.28,2.03 11.68,2.58 4.39,0.55 9.44,0.87 15.47,1.51 6.02,0.64 13.01,1.59 19.59,2.5 6.59,0.9 12.76,1.76 17.68,2.76 4.93,1.01 8.61,2.16 12.13,4.3 3.51,2.13 6.86,5.25 9.46,9.09 2.6,3.83 4.46,8.37 6.23,14.02 1.77,5.64 3.46,12.39 4.86,20.46 1.39,8.06 2.49,17.44 4.2,31.45 1.71,14 4.04,32.64 5.44,46.66 1.39,14.02 1.87,23.43 2.86,28.54 0.99,5.1 2.48,5.91 3.91,7.13 1.43,1.22 2.78,2.85 3.33,6.78 0.55,3.94 0.29,10.17 -0.48,20.3 -0.78,10.12 -2.08,24.12 -2.87,35.82 -0.8,11.7 -1.09,21.1 -1.26,27.56 -0.17,6.45 -0.22,9.96 -2.16,14.04 -1.95,4.08 -5.78,8.73 -12.07,15.66 -6.28,6.93 -15.02,16.14 -21.39,22.51 -6.38,6.38 -10.4,9.92 -13.67,13.38 -3.27,3.46 -5.8,6.84 -6.34,9.95 -0.54,3.12 0.9,5.97 3.22,11.82 2.32,5.85 5.52,14.7 7.73,22.78 2.21,8.07 3.43,15.38 2.28,20.48 -1.14,5.1 -4.65,7.99 -9.61,11.1 -4.96,3.1 -11.37,6.42 -16.92,4.21 -5.55,-2.21 -10.26,-9.95 -15.34,-17.63 -5.09,-7.69 -10.55,-15.31 -15.9,-19.71 -5.35,-4.41 -10.6,-5.6 -21.41,-6.46 -10.81,-0.86 -27.19,-1.39 -37.73,-2.01 -10.55,-0.63 -15.26,-1.35 -20.83,-3.85 -5.58,-2.5 -12.02,-6.78 -19.34,-12.31 -7.32,-5.52 -15.52,-12.29 -24.7,-20.68 -9.18,-8.39 -19.34,-18.41 -28.67,-28.69 -9.33,-10.29 -17.84,-20.84 -27.9,-34.42 -10.06,-13.58 -21.69,-30.19 -31.84,-45.07 -10.14,-14.89 -18.81,-28.06 -24.66,-37.88 -5.85,-9.82 -8.89,-16.3 -10.95,-22.84 -2.06,-6.54 -3.14,-13.14 -3.66,-19.25 -0.52,-6.11 -0.48,-11.74 1.03,-17.17 1.52,-5.43 4.51,-10.67 8.95,-17.09 4.45,-6.41 10.35,-13.99 15.62,-20.5 5.28,-6.52 9.93,-11.97 12.83,-16.38 2.91,-4.41 4.08,-7.79 5.48,-10.7 1.39,-2.9 3.02,-5.34 5.08,-7.34 2.06,-2 4.55,-3.57 7.32,-3.89z"/>
    <path class="fil3" d="M132.22 454.05c-0.16,0.3 -1.25,0.88 -2.7,5.15 -1.45,4.27 -3.25,12.24 -3.81,20.66 -0.57,8.42 0.11,17.29 1.19,25.07 1.07,7.78 2.54,14.47 4.95,20.95 2.41,6.48 5.76,12.74 10.33,19.47 4.57,6.73 10.36,13.92 16.31,19.11 5.95,5.19 12.05,8.38 18.05,9.28 6,0.9 11.88,-0.48 16.4,-3.27 4.52,-2.8 7.68,-7.01 10.02,-12.06 2.34,-5.06 3.87,-10.97 4.63,-17.61 0.75,-6.63 0.73,-13.99 -0.37,-22.39 -1.1,-8.4 -3.29,-17.85 -6.69,-27.15 -3.4,-9.3 -8.02,-18.45 -13.26,-26.05 -5.23,-7.6 -11.09,-13.66 -16.92,-17.75 -5.84,-4.1 -11.65,-6.23 -17.22,-6.24 -5.57,-0.02 -10.88,2.07 -14.51,4.04 -3.63,1.96 -5.57,3.8 -6.59,5.18 -1.03,1.39 -1.14,2.32 -0.8,2.8 0.34,0.48 1.14,0.5 0.99,0.81z"/>
    <g>
     <g>
      <path class="fil4 str0" d="M140.64 442.23c18.6,-11.29 45.14,8.89 59.28,45.09 1.91,4.9 3.5,9.84 4.77,14.75 -4.4,0 -8.41,0.11 -11.8,0.19 -3.91,0.09 -6.98,0.15 -9.32,0.43 -2.34,0.28 -3.94,0.77 -5.23,1.38 -1.3,0.62 -2.28,1.36 -2.68,3.08 -0.4,1.72 -0.22,4.43 0.06,6.74 0.28,2.31 0.65,4.22 3.05,5.17 2.4,0.95 6.83,0.95 10.52,0.86 3.69,-0.09 6.65,-0.28 9.62,-0.44 2.72,-0.14 5.46,-0.27 8.98,-0.02 2.68,24.55 -2.99,45.9 -16.06,53.83 -18.6,11.3 -45.15,-8.89 -59.28,-45.08 -14.14,-36.19 -10.52,-74.69 8.09,-85.98zm64.05 59.84c1.52,5.88 2.58,11.72 3.2,17.39 -3.52,-0.25 -6.26,-0.12 -8.98,0.02 -2.97,0.16 -5.93,0.35 -9.62,0.44 -3.69,0.09 -8.12,0.09 -10.52,-0.86 -2.4,-0.95 -2.77,-2.86 -3.05,-5.17 -0.28,-2.31 -0.46,-5.02 -0.06,-6.74 0.4,-1.72 1.38,-2.46 2.68,-3.08 1.29,-0.61 2.89,-1.1 5.23,-1.38 2.34,-0.28 5.41,-0.34 9.32,-0.43 3.39,-0.08 7.4,-0.19 11.8,-0.19zm361.23 51.91c0.5,7.02 0.99,14.03 1.08,20.16 0.09,6.12 -0.22,11.35 -0.8,16.28 -0.59,4.92 -1.45,9.53 -2.43,14.12 -0.99,4.58 -2.09,9.14 -3.69,13.91 -1.6,4.77 -3.7,9.75 -6.44,15.44 -2.73,5.7 -6.12,12.1 -9.9,18.1 -3.79,6 -7.97,11.6 -12.56,16.77 -4.58,5.17 -9.57,9.91 -14.49,13.54 -4.92,3.63 -9.79,6.15 -14.4,7.69 -4.62,1.54 -8.99,2.09 -13.54,2.21 -4.55,0.13 -9.29,-0.18 -13.32,-1.01 -4.04,-0.83 -7.36,-2.19 -10.65,-3.91 -3.29,-1.72 -6.56,-3.81 -10.71,-6.71 -4.15,-2.89 -9.2,-6.58 -14.89,-11.32 -5.69,-4.74 -12.03,-10.52 -19.48,-17.69 -7.45,-7.17 -16,-15.73 -23.54,-23.45 -7.54,-7.72 -14.06,-14.62 -20.18,-20.74 -6.13,-6.12 -11.85,-11.48 -17.08,-16.31 -5.23,-4.83 -9.97,-9.14 -14.99,-13.81 -5.01,-4.68 -10.31,-9.73 -15.72,-14.59 -5.42,-4.86 -10.96,-9.54 -16.46,-14.09 -5.51,-4.56 -10.99,-8.99 -16.74,-13.08 -5.76,-4.09 -11.79,-7.85 -17.97,-11.38 -6.19,-3.54 -12.53,-6.87 -18.59,-9.67 -6.06,-2.8 -11.84,-5.07 -17.66,-6.98 -5.81,-1.91 -11.66,-3.45 -17.42,-4.31 -5.75,-0.86 -11.41,-1.05 -16.61,-1.08 -5.2,-0.03 -9.94,0.1 -13.85,0.19 -3.91,0.09 -6.98,0.15 -9.32,0.43 -2.34,0.28 -3.94,0.77 -5.23,1.38 -1.3,0.62 -2.28,1.36 -2.68,3.08 -0.4,1.72 -0.22,4.43 0.06,6.74 0.28,2.31 0.65,4.22 3.05,5.17 2.4,0.95 6.83,0.95 10.52,0.86 3.69,-0.09 6.65,-0.28 9.62,-0.44 2.97,-0.16 5.95,-0.29 9.95,0.05 4,0.34 9.02,1.15 13.83,1.92 4.82,0.78 9.43,1.52 15.16,3.24 5.72,1.72 12.55,4.43 19.41,7.72 6.86,3.29 13.76,7.17 21.51,12.16 7.76,4.98 16.37,11.08 24.43,17.54 8.07,6.46 15.57,13.29 22.62,20.46 7.05,7.17 13.63,14.68 20.03,21.85 6.4,7.17 12.62,14 19.05,21.2 6.43,7.2 13.08,14.77 19.54,21.78 6.46,7.02 12.74,13.48 19.01,19.85 6.28,6.37 12.56,12.65 18.83,18.92m6.47 6.65c3.38,2.83 6.77,5.66 10.4,8.43 3.63,2.77 7.51,5.48 11.5,7.85 4.01,2.37 8.13,4.4 12.35,6.06 4.21,1.66 8.52,2.95 13.23,3.48 4.7,0.52 9.81,0.27 14.46,-0.59 4.65,-0.86 8.83,-2.34 13.14,-4.37 4.31,-2.03 8.74,-4.61 13.41,-7.84 4.68,-3.23 9.6,-7.11 14.28,-10.84 4.68,-3.72 9.11,-7.29 13.42,-11.38 4.3,-4.09 8.49,-8.71 12.34,-13.29 3.84,-4.59 7.35,-9.14 11.41,-14.77 4.06,-5.63 8.68,-12.34 12.62,-18.16 3.94,-5.81 7.2,-10.74 10.24,-15.29 3.05,-4.55 5.88,-8.74 8.16,-12.25 2.28,-3.5 4,-6.34 4.65,-8.95 0.64,-2.62 0.21,-5.02 -0.96,-8.19 -1.17,-3.17 -3.08,-7.1 -5.11,-11.44 -2.03,-4.34 -4.18,-9.08 -6.06,-13.79 -1.88,-4.71 -3.48,-9.38 -5.05,-13.91 -1.56,-4.52 -3.1,-8.89 -4.49,-12.95 -1.38,-4.06 -2.61,-7.82 -3.23,-9.66 -0.61,-1.85 -0.61,-1.79 -0.61,-1.73 0,0.07 0,0.13 0,0.19m-26.77 11.11c3.26,-1.39 8.18,-4.22 13.04,-7.02 4.86,-2.8 9.66,-5.57 12.83,-7.72 3.17,-2.16 4.71,-3.7 6.04,-4.74 1.32,-1.05 2.43,-1.6 1.13,-5.2 -1.29,-3.6 -4.98,-10.25 -8.09,-16.56 -3.11,-6.3 -5.63,-12.27 -7.57,-16.58 -1.94,-4.31 -3.29,-6.96 -4.12,-8.28 -0.83,-1.32 -1.14,-1.32 -1.97,-0.37 -0.83,0.96 -2.19,2.86 -2.8,3.94 -0.62,1.08 -0.49,1.32 0.52,3.05 1.02,1.72 2.92,4.92 5.08,8.95 2.15,4.03 4.55,8.89 6.46,13.32 1.91,4.44 3.32,8.44 4.18,11.3 0.87,2.86 1.17,4.58 0.9,5.97 -0.28,1.38 -1.14,2.43 -3.63,4.21 -2.5,1.79 -6.62,4.31 -10.47,6.62 -3.84,2.31 -7.41,4.4 -9.87,5.17 -2.46,0.77 -3.82,0.21 -5.66,-2.12 -1.85,-2.34 -4.19,-6.47 -6.99,-10.87 -2.8,-4.4 -6.06,-9.07 -9.08,-13.5 -3.01,-4.44 -5.78,-8.62 -8.18,-11.45 -2.4,-2.83 -4.43,-4.31 -5.57,-5.05 -1.14,-0.74 -1.39,-0.74 -1.51,-0.24 -0.12,0.49 -0.12,1.47 1.05,3.2 1.17,1.72 3.51,4.18 5.66,7.2 2.15,3.01 4.12,6.58 6.37,10.43 2.24,3.84 4.77,7.97 7.2,12.27 2.43,4.31 4.77,8.8 6.18,11.39 1.42,2.58 1.91,3.26 2.96,3.63 1.04,0.37 2.64,0.43 5.91,-0.95zm-28.99 -63.36c3.14,5.42 6.28,10.83 9.42,16.4 3.13,5.57 6.27,11.29 9.44,16.8 3.17,5.51 6.37,10.8 8.43,14.4 2.06,3.6 2.99,5.51 4.41,6.69 1.42,1.17 3.34,1.62 4.62,2.14 1.28,0.52 1.93,1.12 2.45,3.05 0.51,1.93 0.9,5.2 1.1,6.83 0.19,1.63 0.19,1.63 0.19,1.63 0,0 0,0 0,0m-46.4 -51.75c-3.61,-1.4 -7.22,-2.8 -12.59,-3.52 -5.38,-0.73 -12.52,-0.79 -20.73,-0.95 -8.22,-0.15 -17.51,-0.4 -25.2,-0.67 -7.7,-0.28 -13.79,-0.59 -18.44,-1.97 -4.64,-1.39 -7.84,-3.85 -12.4,-7.2 -4.55,-3.36 -10.46,-7.6 -16.4,-12.31 -5.94,-4.71 -11.9,-9.88 -18.46,-15.91 -6.55,-6.03 -13.69,-12.92 -20.34,-19.69 -6.65,-6.77 -12.8,-13.42 -18.55,-20.4 -5.76,-6.99 -11.11,-14.31 -16.71,-22 -5.6,-7.7 -11.45,-15.76 -18.22,-25.51 -6.77,-9.76 -14.46,-21.2 -21.32,-31.45 -6.86,-10.25 -12.9,-19.29 -16.71,-25.29 -3.82,-6 -5.42,-8.96 -7.17,-12.53 -1.75,-3.57 -3.66,-7.75 -4.95,-11.75 -1.3,-4 -1.97,-7.82 -2.53,-12.46 -0.55,-4.65 -0.98,-10.13 -1.17,-14.71 -0.18,-4.59 -0.12,-8.28 1.42,-12.22 1.54,-3.94 4.55,-8.12 8.12,-13.01 3.57,-4.9 7.7,-10.5 12.77,-16.77 5.08,-6.28 11.11,-13.24 14.65,-17.3 3.54,-4.06 4.58,-5.23 5.26,-6.8 0.68,-1.57 0.99,-3.54 1.51,-5.47 0.52,-1.94 1.26,-3.85 2.31,-5.6 1.04,-1.76 2.4,-3.36 3.53,-4.59 1.14,-1.23 2.07,-2.09 3.27,-2.86 1.2,-0.77 2.67,-1.45 4.21,-1.85 1.54,-0.4 3.14,-0.52 4.74,0 1.6,0.53 3.2,1.69 4.4,2.77 1.2,1.08 2,2.06 2.68,3.6 0.67,1.54 1.23,3.63 1.51,5.82 0.27,2.18 0.27,4.46 0.03,6.46 -0.25,2 -0.74,3.72 -1.67,5.26 -0.92,1.54 -2.27,2.89 -3.75,4.4 -1.48,1.51 -3.08,3.17 -4.86,3.88 -1.79,0.71 -3.76,0.46 -5.11,0.31 -1.35,-0.16 -2.09,-0.22 -2.46,-1.2 -0.37,-0.99 -0.37,-2.9 -0.15,-4.37 0.21,-1.48 0.64,-2.53 1.17,-3.63 0.52,-1.11 1.13,-2.28 1.32,-4.44 0.18,-2.15 -0.06,-5.29 -0.48,-8.29 -0.41,-3 -1,-5.86 -1.29,-7.29 -0.29,-1.43 -0.29,-1.43 -0.29,-1.43 0,0 0,0 0,0m-0.28 29.45c-2.95,2.95 -5.91,5.9 -8.83,9.23 -2.93,3.32 -5.82,7.01 -8.68,10.49 -2.86,3.48 -5.69,6.74 -7.91,9.57 -2.21,2.83 -3.81,5.23 -5.17,8.09 -1.35,2.86 -2.46,6.19 -3.2,9.2 -0.74,3.02 -1.1,5.73 -1.17,9.11 -0.06,3.39 0.19,7.45 0.99,11.69 0.8,4.25 2.15,8.68 3.85,12.77 1.69,4.1 3.72,7.85 5.9,11.85 2.19,4 4.53,8.25 7.6,13.2 3.08,4.95 6.9,10.62 10.96,16.46 4.06,5.85 8.37,11.88 13.11,17.97 4.73,6.1 9.9,12.25 14.4,17.48 4.49,5.23 8.3,9.54 10.49,12.06 2.18,2.53 2.74,3.26 2.77,3.51 0.03,0.25 -0.46,0 -0.83,1.29 -0.37,1.29 -0.62,4.13 -1.08,5.7 -0.46,1.56 -1.14,1.87 -1.94,1.96 -0.8,0.1 -1.72,-0.03 -2.18,0.34 -0.46,0.37 -0.46,1.23 -0.77,1.85 -0.31,0.61 -0.92,0.98 -1.23,1.54 -0.31,0.55 -0.31,1.29 -0.34,1.84 -0.03,0.56 -0.09,0.93 -1.3,1.17 -1.21,0.25 -3.57,0.37 -4.75,0.43 -1.18,0.07 -1.18,0.07 -1.18,0.07m6.57 8.96c0.54,-0.96 1.08,-1.92 1.9,-2.33 0.82,-0.42 1.93,-0.3 2.45,-1.65 0.52,-1.35 0.46,-4.18 0.77,-5.66 0.31,-1.48 0.99,-1.6 1.6,-1.63 0.62,-0.03 1.17,0.03 1.48,-0.4 0.31,-0.43 0.37,-1.36 0.92,-2.03 0.56,-0.68 1.6,-1.11 2.83,-1.23 1.23,-0.13 2.65,0.06 3.57,-0.07 0.92,-0.12 1.36,-0.55 0.19,-2.29 -1.16,-1.75 -3.92,-4.8 -6.68,-7.86m7.36 9.21c4.12,4.04 8.24,8.1 12.55,12.52 4.31,4.43 8.8,9.22 13.32,13.87 4.52,4.65 9.08,9.14 13.33,12.8 4.24,3.66 8.18,6.5 11.5,9.05 3.33,2.55 6.03,4.83 9.97,7.45 3.94,2.61 9.11,5.56 14.03,8.18 4.93,2.62 9.61,4.89 14.19,6.68 4.58,1.78 9.08,3.07 13.42,3.87 4.33,0.8 8.52,1.11 13.23,1.21 4.7,0.09 9.93,-0.04 14.43,-0.47 4.49,-0.43 8.24,-1.17 12.21,-2.3 3.97,-1.14 8.16,-2.68 12.28,-4.68 4.12,-2 8.19,-4.46 12.4,-7.42 4.22,-2.95 8.59,-6.4 12.86,-10.24 4.28,-3.85 8.47,-8.1 12.5,-13.45 4.03,-5.36 7.9,-11.82 11.5,-18.28 3.6,-6.46 6.93,-12.92 9.79,-19.51 2.86,-6.58 5.26,-13.29 7.39,-19.54 2.12,-6.24 3.96,-12.03 5.69,-18.74 1.72,-6.7 3.32,-14.33 4.4,-19.93 1.07,-5.61 1.63,-9.17 2.15,-13.27 0.52,-4.09 1.02,-8.7 1.17,-14.27 0.15,-5.57 -0.03,-12.1 -0.43,-20.25 -0.4,-8.16 -1.02,-17.94 -1.94,-27.39 -0.92,-9.44 -2.15,-18.55 -3.48,-27.05 -1.32,-8.49 -2.73,-16.36 -4.18,-23.6 -1.45,-7.23 -2.92,-13.81 -4.31,-19.66 -1.38,-5.84 -2.68,-10.95 -3.91,-14.8 -1.23,-3.84 -2.4,-6.43 -5.81,-8.64 -3.42,-2.22 -9.08,-4.07 -15.23,-5.42 -6.16,-1.36 -12.8,-2.22 -19.45,-3.08m-9.97 -0.37c-5.05,-0.06 -10.09,-0.12 -13.51,0.22 -3.41,0.34 -5.2,1.08 -7.35,1.48 -2.16,0.39 -4.68,0.46 -7.02,0.21 -2.34,-0.25 -4.49,-0.8 -6.58,-2.06 -2.1,-1.26 -4.13,-3.23 -5.79,-5.2 -1.66,-1.97 -2.95,-3.94 -3.84,-6.34 -0.9,-2.4 -1.39,-5.23 -1.24,-7.6 0.16,-2.37 0.96,-4.28 2.25,-5.29 1.29,-1.02 3.08,-1.14 4.96,-0.96 1.87,0.19 3.84,0.68 4.86,0.93 1.01,0.24 1.07,0.24 0.83,0.15 -0.25,-0.09 -0.8,-0.28 -0.96,0.31 -0.15,0.58 0.1,1.94 0.68,3.78 0.59,1.85 1.51,4.19 2.98,6.74 1.48,2.55 3.51,5.32 5.21,7.14 1.69,1.82 3.04,2.68 4.55,3.54 1.51,0.86 3.17,1.72 4,2.15 0.83,0.43 0.83,0.43 0.83,0.43m-17.29 -24.09c2.62,1.32 5.25,2.65 7.27,3.68 2.02,1.03 3.44,1.77 4.97,2.5 1.54,0.74 3.2,1.48 5.45,1.88 2.25,0.4 5.08,0.46 7.94,0.56 2.86,0.09 5.75,0.21 8.71,0.46 2.95,0.24 5.97,0.61 8.55,0.98 2.59,0.37 4.74,0.74 7.39,1.11 2.64,0.37 5.78,0.74 9.32,1.2 3.54,0.46 7.48,1.01 10.89,1.51 3.42,0.49 6.31,0.92 8.83,1.2 2.53,0.27 4.68,0.4 7.02,1.54 2.34,1.14 4.86,3.29 7.2,5.81 2.34,2.53 4.49,5.42 6.34,8.53 1.85,3.1 3.38,6.43 4.89,10.43 1.51,4 2.99,8.67 4.03,13.97 1.05,5.29 1.66,11.2 2.4,17.84 0.74,6.65 1.6,14.03 2.46,20.77 0.87,6.74 1.73,12.84 2.44,19.45 0.7,6.62 1.26,13.75 2.09,22.8 0.83,9.05 1.94,20 2.46,26.19 0.52,6.18 0.46,7.6 -1.02,8.8 -1.47,1.2 -4.36,2.18 -6.89,2.8 -2.52,0.61 -4.68,0.86 -6.55,0.92 -1.87,0.05 -3.46,-0.08 -4.25,-0.15 -0.8,-0.06 -0.8,-0.06 -0.8,-0.06m19.47 -4.8c-0.09,4.46 -0.17,8.92 -0.26,15.04 -0.1,6.11 -0.19,13.88 -0.24,17.77 -0.04,3.89 -0.04,3.89 -0.04,3.89m0.87 -39.62c1.06,2.64 2.12,5.28 3.35,7.16 1.22,1.88 2.62,3 3.76,4.07 1.14,1.07 2.02,2.09 2.28,4.14 0.26,2.05 -0.12,5.12 -0.47,9.59 -0.34,4.47 -0.67,10.33 -1.02,15.94 -0.35,5.6 -0.72,10.96 -1.26,15.82 -0.53,4.86 -1.23,9.24 -1.74,13.91 -0.51,4.68 -0.84,9.66 -1.02,15.45 -0.19,5.8 -0.24,12.41 -0.26,17.06 -0.02,4.65 -0.02,7.35 -0.02,8.93 0,1.59 0,2.05 -1.96,4.49 -1.95,2.45 -5.86,6.87 -9.68,11.06 -3.81,4.19 -7.54,8.14 -11.42,12.35 -3.89,4.21 -7.94,8.68 -11.5,12.17 -3.56,3.49 -6.63,6.01 -9.33,8.29 -2.7,2.28 -5.02,4.32 -6.51,7.35 -1.49,3.02 -2.14,7.03 -2.46,10.2 -0.32,3.18 -0.3,5.53 -0.28,7.87m45.32 -134.51c-0.23,6.47 -0.47,12.94 -0.79,19.27 -0.33,6.33 -0.75,12.52 -1.31,18.64 -0.55,6.12 -1.25,12.17 -2.86,16.52 -1.6,4.35 -4.12,7 -6.79,10.4 -2.68,3.4 -5.52,7.54 -9.03,12.26 -3.51,4.73 -7.7,10.03 -11.96,16.03 -4.26,6.01 -8.59,12.71 -12.1,18.46 -3.51,5.74 -6.21,10.54 -7.96,13.98 -1.74,3.44 -2.53,5.54 -2.95,6.72 -0.42,1.19 -0.47,1.47 0.04,1.59 0.52,0.11 1.59,0.07 2.14,-0.42 0.56,-0.49 0.61,-1.42 1.14,-2.03 0.54,-0.6 1.56,-0.88 2.83,-0.79 1.26,0.09 2.77,0.56 4.28,1.03m-368.42 47.48c-0.06,0.53 -0.13,1.06 -0.29,0.6 -0.16,-0.45 -0.41,-1.9 -0.18,-2.71 0.23,-0.81 0.93,-0.98 1.34,-2.14 0.4,-1.17 0.51,-3.31 -0.09,-4.7 -0.6,-1.39 -1.9,-2.03 -2.83,-2.92 -0.94,-0.9 -1.5,-2.06 -1.62,-2.76 -0.12,-0.7 0.2,-0.93 0.36,-1.05 0.16,-0.12 0.16,-0.12 0.16,-0.12m7.69 0.92c0.28,-0.36 0.57,-0.73 0.62,-0.6 0.05,0.12 -0.12,0.73 -0.58,1.12 -0.46,0.39 -1.2,0.57 -1.57,1.11 -0.37,0.55 -0.37,1.47 -0.3,2.5 0.07,1.04 0.21,2.2 0.29,3.33 0.07,1.13 0.07,2.22 0.22,3.11 0.16,0.9 0.48,1.6 0.87,1.99 0.38,0.39 0.84,0.46 1.2,1.01 0.35,0.54 0.6,1.57 0.72,2.08 0.13,0.51 0.13,0.51 0.13,0.51m-39.78 -36.35c-1.21,0.19 -2.42,0.37 -3.56,1.31 -1.14,0.93 -2.22,2.6 -2.91,4.65 -0.7,2.05 -1.03,4.47 -1.21,7.03 -0.19,2.56 -0.23,5.26 0.04,7.86 0.28,2.61 0.89,5.12 1.63,7.75 0.75,2.63 1.63,5.38 2.68,8.08 1.05,2.7 2.26,5.35 3.44,7.73 1.19,2.37 2.35,4.46 3.87,6.37 1.51,1.91 3.37,3.63 4.91,5.08 1.53,1.44 2.74,2.6 4.14,3.49 1.4,0.88 2.98,1.49 4.52,1.79 1.53,0.3 3.02,0.3 4.07,0.23 1.04,-0.07 1.65,-0.21 1.88,-0.79 0.23,-0.58 0.1,-1.6 0.03,-2.12 -0.07,-0.51 -0.07,-0.51 -0.07,-0.51"/>
      <g>
       <path class="fil4 str1" d="M162.4 482.99c-1.21,0.19 -2.42,0.37 -3.56,1.31 -1.14,0.93 -2.22,2.6 -2.91,4.65 -0.7,2.05 -1.03,4.47 -1.21,7.03 -0.19,2.56 -0.23,5.26 0.04,7.86 0.28,2.61 0.89,5.12 1.63,7.75 0.75,2.63 1.63,5.38 2.68,8.08 1.05,2.7 2.26,5.35 3.44,7.73 1.19,2.37 2.35,4.46 3.87,6.37 1.51,1.91 3.37,3.63 4.91,5.08 1.53,1.44 2.74,2.6 4.14,3.49 1.4,0.88 2.98,1.49 4.52,1.79 1.53,0.3 3.02,0.3 4.07,0.23 1.04,-0.07 1.65,-0.21 1.88,-0.79 0.23,-0.58 0.1,-1.6 0.03,-2.12 -0.07,-0.51 -0.07,-0.51 -0.07,-0.51"/>
       <path class="fil4 str1" d="M200.58 502.76c0.28,-0.38 0.57,-0.75 0.62,-0.62 0.05,0.12 -0.12,0.75 -0.58,1.15 -0.46,0.4 -1.2,0.58 -1.57,1.14 -0.37,0.56 -0.37,1.5 -0.3,2.57 0.07,1.06 0.21,2.26 0.29,3.41 0.07,1.16 0.07,2.28 0.22,3.2 0.16,0.92 0.48,1.64 0.87,2.04 0.38,0.39 0.84,0.47 1.2,1.03 0.35,0.56 0.6,1.61 0.72,2.14 0.13,0.52 0.13,0.52 0.13,0.52"/>
       <path class="fil4 str1" d="M196.04 518.92c-0.06,0.56 -0.13,1.12 -0.29,0.64 -0.16,-0.49 -0.41,-2.01 -0.18,-2.86 0.23,-0.86 0.93,-1.04 1.34,-2.27 0.4,-1.22 0.51,-3.48 -0.09,-4.95 -0.6,-1.46 -1.9,-2.13 -2.83,-3.08 -0.94,-0.95 -1.5,-2.17 -1.62,-2.91 -0.12,-0.73 0.2,-0.98 0.36,-1.11 0.16,-0.12 0.16,-0.12 0.16,-0.12"/>
       <path class="fil4 str1" d="M609.78 338.92c-0.23,6.47 -0.47,12.94 -0.79,19.27 -0.33,6.33 -0.75,12.52 -1.31,18.64 -0.55,6.12 -1.25,12.17 -2.86,16.52 -1.6,4.35 -4.12,7 -6.79,10.4 -2.68,3.4 -5.52,7.54 -9.03,12.26 -3.51,4.73 -7.7,10.03 -11.96,16.03 -4.26,6.01 -8.59,12.71 -12.1,18.46 -3.51,5.74 -6.21,10.54 -7.96,13.98 -1.74,3.44 -2.53,5.54 -2.95,6.72 -0.42,1.19 -0.47,1.47 0.04,1.59 0.52,0.11 1.59,0.07 2.14,-0.42 0.56,-0.49 0.61,-1.42 1.14,-2.03 0.54,-0.6 1.56,-0.88 2.83,-0.79 1.26,0.09 2.77,0.56 4.28,1.03"/>
       <path class="fil4 str1" d="M614 287.58c1.06,2.64 2.12,5.28 3.35,7.16 1.22,1.88 2.62,3 3.76,4.07 1.14,1.07 2.02,2.09 2.28,4.14 0.26,2.05 -0.12,5.12 -0.47,9.59 -0.34,4.47 -0.67,10.33 -1.02,15.94 -0.35,5.6 -0.72,10.96 -1.26,15.82 -0.53,4.86 -1.23,9.24 -1.74,13.91 -0.51,4.68 -0.84,9.66 -1.02,15.45 -0.19,5.8 -0.24,12.41 -0.26,17.06 -0.02,4.65 -0.02,7.35 -0.02,8.93 0,1.59 0,2.05 -1.96,4.49 -1.95,2.45 -5.86,6.87 -9.68,11.06 -3.81,4.19 -7.54,8.14 -11.42,12.35 -3.89,4.21 -7.94,8.68 -11.5,12.17 -3.56,3.49 -6.63,6.01 -9.33,8.29 -2.7,2.28 -5.02,4.32 -6.51,7.35 -1.49,3.02 -2.14,7.03 -2.46,10.2 -0.32,3.18 -0.3,5.53 -0.28,7.87"/>
       <path class="fil4 str1" d="M613.67 290.5c-0.09,4.46 -0.17,8.92 -0.26,15.04 -0.1,6.11 -0.19,13.88 -0.24,17.77 -0.04,3.89 -0.04,3.89 -0.04,3.89"/>
       <path class="fil4 str1" d="M493.06 120.58c2.62,1.32 5.25,2.65 7.27,3.68 2.02,1.03 3.44,1.77 4.97,2.5 1.54,0.74 3.2,1.48 5.45,1.88 2.25,0.4 5.08,0.46 7.94,0.56 2.86,0.09 5.75,0.21 8.71,0.46 2.95,0.24 5.97,0.61 8.55,0.98 2.59,0.37 4.74,0.74 7.39,1.11 2.64,0.37 5.78,0.74 9.32,1.2 3.54,0.46 7.48,1.01 10.89,1.51 3.42,0.49 6.31,0.92 8.83,1.2 2.53,0.27 4.68,0.4 7.02,1.54 2.34,1.14 4.86,3.29 7.2,5.81 2.34,2.53 4.49,5.42 6.34,8.53 1.85,3.1 3.38,6.43 4.89,10.43 1.51,4 2.99,8.67 4.03,13.97 1.05,5.29 1.66,11.2 2.4,17.84 0.74,6.65 1.6,14.03 2.46,20.77 0.87,6.74 1.73,12.84 2.44,19.45 0.7,6.62 1.26,13.75 2.09,22.8 0.83,9.05 1.94,20 2.46,26.19 0.52,6.18 0.46,7.6 -1.02,8.8 -1.47,1.2 -4.36,2.18 -6.89,2.8 -2.52,0.61 -4.68,0.86 -6.55,0.92 -1.87,0.05 -3.46,-0.08 -4.25,-0.15 -0.8,-0.06 -0.8,-0.06 -0.8,-0.06"/>
       <path class="fil4 str1" d="M525.49 145.04c-5.05,-0.06 -10.09,-0.12 -13.51,0.22 -3.41,0.34 -5.2,1.08 -7.35,1.48 -2.16,0.39 -4.68,0.46 -7.02,0.21 -2.34,-0.25 -4.49,-0.8 -6.58,-2.06 -2.1,-1.26 -4.13,-3.23 -5.79,-5.2 -1.66,-1.97 -2.95,-3.94 -3.84,-6.34 -0.9,-2.4 -1.39,-5.23 -1.24,-7.6 0.16,-2.37 0.96,-4.28 2.25,-5.29 1.29,-1.02 3.08,-1.14 4.96,-0.96 1.87,0.19 3.84,0.68 4.86,0.93 1.01,0.24 1.07,0.24 0.83,0.15 -0.25,-0.09 -0.8,-0.28 -0.96,0.31 -0.15,0.58 0.1,1.94 0.68,3.78 0.59,1.85 1.51,4.19 2.98,6.74 1.48,2.55 3.51,5.32 5.21,7.14 1.69,1.82 3.04,2.68 4.55,3.54 1.51,0.86 3.17,1.72 4,2.15 0.83,0.43 0.83,0.43 0.83,0.43"/>
       <path class="fil4 str1" d="M359.89 381.77c4.12,4.04 8.24,8.1 12.55,12.52 4.31,4.43 8.8,9.22 13.32,13.87 4.52,4.65 9.08,9.14 13.33,12.8 4.24,3.66 8.18,6.5 11.5,9.05 3.33,2.55 6.03,4.83 9.97,7.45 3.94,2.61 9.11,5.56 14.03,8.18 4.93,2.62 9.61,4.89 14.19,6.68 4.58,1.78 9.08,3.07 13.42,3.87 4.33,0.8 8.52,1.11 13.23,1.21 4.7,0.09 9.93,-0.04 14.43,-0.47 4.49,-0.43 8.24,-1.17 12.21,-2.3 3.97,-1.14 8.16,-2.68 12.28,-4.68 4.12,-2 8.19,-4.46 12.4,-7.42 4.22,-2.95 8.59,-6.4 12.86,-10.24 4.28,-3.85 8.47,-8.1 12.5,-13.45 4.03,-5.36 7.9,-11.82 11.5,-18.28 3.6,-6.46 6.93,-12.92 9.79,-19.51 2.86,-6.58 5.26,-13.29 7.39,-19.54 2.12,-6.24 3.96,-12.03 5.69,-18.74 1.72,-6.7 3.32,-14.33 4.4,-19.93 1.07,-5.61 1.63,-9.17 2.15,-13.27 0.52,-4.09 1.02,-8.7 1.17,-14.27 0.15,-5.57 -0.03,-12.1 -0.43,-20.25 -0.4,-8.16 -1.02,-17.94 -1.94,-27.39 -0.92,-9.44 -2.15,-18.55 -3.48,-27.05 -1.32,-8.49 -2.73,-16.36 -4.18,-23.6 -1.45,-7.23 -2.92,-13.81 -4.31,-19.66 -1.38,-5.84 -2.68,-10.95 -3.91,-14.8 -1.23,-3.84 -2.4,-6.43 -5.81,-8.64 -3.42,-2.22 -9.08,-4.07 -15.23,-5.42 -6.16,-1.36 -12.8,-2.22 -19.45,-3.08"/>
       <path class="fil4 str1" d="M343.5 397.71c0.54,-0.96 1.08,-1.92 1.9,-2.33 0.82,-0.42 1.93,-0.3 2.45,-1.65 0.52,-1.35 0.46,-4.18 0.77,-5.66 0.31,-1.48 0.99,-1.6 1.6,-1.63 0.62,-0.03 1.17,0.03 1.48,-0.4 0.31,-0.43 0.37,-1.36 0.92,-2.03 0.56,-0.68 1.6,-1.11 2.83,-1.23 1.23,-0.13 2.65,0.06 3.57,-0.07 0.92,-0.12 1.36,-0.55 0.19,-2.29 -1.16,-1.75 -3.92,-4.8 -6.68,-7.86"/>
       <path class="fil4 str1" d="M317.42 199.88c-2.95,2.95 -5.91,5.9 -8.83,9.23 -2.93,3.32 -5.82,7.01 -8.68,10.49 -2.86,3.48 -5.69,6.74 -7.91,9.57 -2.21,2.83 -3.81,5.23 -5.17,8.09 -1.35,2.86 -2.46,6.19 -3.2,9.2 -0.74,3.02 -1.1,5.73 -1.17,9.11 -0.06,3.39 0.19,7.45 0.99,11.69 0.8,4.25 2.15,8.68 3.85,12.77 1.69,4.1 3.72,7.85 5.9,11.85 2.19,4 4.53,8.25 7.6,13.2 3.08,4.95 6.9,10.62 10.96,16.46 4.06,5.85 8.37,11.88 13.11,17.97 4.73,6.1 9.9,12.25 14.4,17.48 4.49,5.23 8.3,9.54 10.49,12.06 2.18,2.53 2.74,3.26 2.77,3.51 0.03,0.25 -0.46,0 -0.83,1.29 -0.37,1.29 -0.62,4.13 -1.08,5.7 -0.46,1.56 -1.14,1.87 -1.94,1.96 -0.8,0.1 -1.72,-0.03 -2.18,0.34 -0.46,0.37 -0.46,1.23 -0.77,1.85 -0.31,0.61 -0.92,0.98 -1.23,1.54 -0.31,0.55 -0.31,1.29 -0.34,1.84 -0.03,0.56 -0.09,0.93 -1.3,1.17 -1.21,0.25 -3.57,0.37 -4.75,0.43 -1.18,0.07 -1.18,0.07 -1.18,0.07"/>
       <path class="fil4 str1" d="M516.75 493.37c-3.61,-1.4 -7.22,-2.8 -12.59,-3.52 -5.38,-0.73 -12.52,-0.79 -20.73,-0.95 -8.22,-0.15 -17.51,-0.4 -25.2,-0.67 -7.7,-0.28 -13.79,-0.59 -18.44,-1.97 -4.64,-1.39 -7.84,-3.85 -12.4,-7.2 -4.55,-3.36 -10.46,-7.6 -16.4,-12.31 -5.94,-4.71 -11.9,-9.88 -18.46,-15.91 -6.55,-6.03 -13.69,-12.92 -20.34,-19.69 -6.65,-6.77 -12.8,-13.42 -18.55,-20.4 -5.76,-6.99 -11.11,-14.31 -16.71,-22 -5.6,-7.7 -11.45,-15.76 -18.22,-25.51 -6.77,-9.76 -14.46,-21.2 -21.32,-31.45 -6.86,-10.25 -12.9,-19.29 -16.71,-25.29 -3.82,-6 -5.42,-8.96 -7.17,-12.53 -1.75,-3.57 -3.66,-7.75 -4.95,-11.75 -1.3,-4 -1.97,-7.82 -2.53,-12.46 -0.55,-4.65 -0.98,-10.13 -1.17,-14.71 -0.18,-4.59 -0.12,-8.28 1.42,-12.22 1.54,-3.94 4.55,-8.12 8.12,-13.01 3.57,-4.9 7.7,-10.5 12.77,-16.77 5.08,-6.28 11.11,-13.24 14.65,-17.3 3.54,-4.06 4.58,-5.23 5.26,-6.8 0.68,-1.57 0.99,-3.54 1.51,-5.47 0.52,-1.94 1.26,-3.85 2.31,-5.6 1.04,-1.76 2.4,-3.36 3.53,-4.59 1.14,-1.23 2.07,-2.09 3.27,-2.86 1.2,-0.77 2.67,-1.45 4.21,-1.85 1.54,-0.4 3.14,-0.52 4.74,0 1.6,0.53 3.2,1.69 4.4,2.77 1.2,1.08 2,2.06 2.68,3.6 0.67,1.54 1.23,3.63 1.51,5.82 0.27,2.18 0.27,4.46 0.03,6.46 -0.25,2 -0.74,3.72 -1.67,5.26 -0.92,1.54 -2.27,2.89 -3.75,4.4 -1.48,1.51 -3.08,3.17 -4.86,3.88 -1.79,0.71 -3.76,0.46 -5.11,0.31 -1.35,-0.16 -2.09,-0.22 -2.46,-1.2 -0.37,-0.99 -0.37,-2.9 -0.15,-4.37 0.21,-1.48 0.64,-2.53 1.17,-3.63 0.52,-1.11 1.13,-2.28 1.32,-4.44 0.18,-2.15 -0.06,-5.29 -0.48,-8.29 -0.41,-3 -1,-5.86 -1.29,-7.29 -0.29,-1.43 -0.29,-1.43 -0.29,-1.43 0,0 0,0 0,0"/>
       <path class="fil4 str1" d="M523.09 477.18c3.14,5.42 6.28,10.83 9.42,16.4 3.13,5.57 6.27,11.29 9.44,16.8 3.17,5.51 6.37,10.8 8.43,14.4 2.06,3.6 4.92,9.38 6.34,10.56"/>
       <path class="fil5 str1" d="M552.08 540.54c3.26,-1.39 8.18,-4.22 13.04,-7.02 4.86,-2.8 9.66,-5.57 12.83,-7.72 3.17,-2.16 4.71,-3.7 6.04,-4.74 1.32,-1.05 2.43,-1.6 1.13,-5.2 -1.29,-3.6 -4.98,-10.25 -8.09,-16.56 -3.11,-6.3 -5.63,-12.27 -7.57,-16.58 -1.94,-4.31 -3.29,-6.96 -4.12,-8.28 -0.83,-1.32 -1.14,-1.32 -1.97,-0.37 -0.83,0.96 -2.19,2.86 -2.8,3.94 -0.62,1.08 -0.49,1.32 0.52,3.05 1.02,1.72 2.92,4.92 5.08,8.95 2.15,4.03 4.55,8.89 6.46,13.32 1.91,4.44 3.32,8.44 4.18,11.3 0.87,2.86 1.17,4.58 0.9,5.97 -0.28,1.38 -1.14,2.43 -3.63,4.21 -2.5,1.79 -6.62,4.31 -10.47,6.62 -3.84,2.31 -7.41,4.4 -9.87,5.17 -2.46,0.77 -3.82,0.21 -5.66,-2.12 -1.85,-2.34 -4.19,-6.47 -6.99,-10.87 -2.8,-4.4 -6.06,-9.07 -9.08,-13.5 -3.01,-4.44 -5.78,-8.62 -8.18,-11.45 -2.4,-2.83 -4.43,-4.31 -5.57,-5.05 -1.14,-0.74 -1.39,-0.74 -1.51,-0.24 -0.12,0.49 -0.12,1.47 1.05,3.2 1.17,1.72 3.51,4.18 5.66,7.2 2.15,3.01 4.12,6.58 6.37,10.43 2.24,3.84 4.77,7.97 7.2,12.27 2.43,4.31 4.77,8.8 6.18,11.39 1.42,2.58 1.91,3.26 2.96,3.63 1.04,0.37 2.64,0.43 5.91,-0.95z"/>
       <path class="fil4 str1" d="M428.75 692.82c3.38,2.83 6.77,5.66 10.4,8.43 3.63,2.77 7.51,5.48 11.5,7.85 4.01,2.37 8.13,4.4 12.35,6.06 4.21,1.66 8.52,2.95 13.23,3.48 4.7,0.52 9.81,0.27 14.46,-0.59 4.65,-0.86 8.83,-2.34 13.14,-4.37 4.31,-2.03 8.74,-4.61 13.41,-7.84 4.68,-3.23 9.6,-7.11 14.28,-10.84 4.68,-3.72 9.11,-7.29 13.42,-11.38 4.3,-4.09 8.49,-8.71 12.34,-13.29 3.84,-4.59 7.35,-9.14 11.41,-14.77 4.06,-5.63 8.68,-12.34 12.62,-18.16 3.94,-5.81 7.2,-10.74 10.24,-15.29 3.05,-4.55 5.88,-8.74 8.16,-12.25 2.28,-3.5 4,-6.34 4.65,-8.95 0.64,-2.62 0.21,-5.02 -0.96,-8.19 -1.17,-3.17 -3.08,-7.1 -5.11,-11.44 -2.03,-4.34 -4.18,-9.08 -6.06,-13.79 -1.88,-4.71 -3.48,-9.38 -5.05,-13.91 -1.56,-4.52 -3.1,-8.89 -4.49,-12.95 -1.38,-4.06 -2.61,-7.82 -3.23,-9.66 -0.61,-1.85 -0.61,-1.79 -0.61,-1.73 0,0.07 0,0.13 0,0.19"/>
       <path class="fil4 str1" d="M565.92 553.98c0.5,7.02 0.99,14.03 1.08,20.16 0.09,6.12 -0.22,11.35 -0.8,16.28 -0.59,4.92 -1.45,9.53 -2.43,14.12 -0.99,4.58 -2.09,9.14 -3.69,13.91 -1.6,4.77 -3.7,9.75 -6.44,15.44 -2.73,5.7 -6.12,12.1 -9.9,18.1 -3.79,6 -7.97,11.6 -12.56,16.77 -4.58,5.17 -9.57,9.91 -14.49,13.54 -4.92,3.63 -9.79,6.15 -14.4,7.69 -4.62,1.54 -8.99,2.09 -13.54,2.21 -4.55,0.13 -9.29,-0.18 -13.32,-1.01 -4.04,-0.83 -7.36,-2.19 -10.65,-3.91 -3.29,-1.72 -6.56,-3.81 -10.71,-6.71 -4.15,-2.89 -9.2,-6.58 -14.89,-11.32 -5.69,-4.74 -12.03,-10.52 -19.48,-17.69 -7.45,-7.17 -16,-15.73 -23.54,-23.45 -7.54,-7.72 -14.06,-14.62 -20.18,-20.74 -6.13,-6.12 -11.85,-11.48 -17.08,-16.31 -5.23,-4.83 -9.97,-9.14 -14.99,-13.81 -5.01,-4.68 -10.31,-9.73 -15.72,-14.59 -5.42,-4.86 -10.96,-9.54 -16.46,-14.09 -5.51,-4.56 -10.99,-8.99 -16.74,-13.08 -5.76,-4.09 -11.79,-7.85 -17.97,-11.38 -6.19,-3.54 -12.53,-6.87 -18.59,-9.67 -6.06,-2.8 -11.84,-5.07 -17.66,-6.98 -5.81,-1.91 -11.66,-3.45 -17.42,-4.31 -5.75,-0.86 -11.41,-1.05 -16.61,-1.08 -5.2,-0.03 -9.94,0.1 -13.85,0.19 -3.91,0.09 -6.98,0.15 -9.32,0.43 -2.34,0.28 -3.94,0.77 -5.23,1.38 -1.3,0.62 -2.28,1.36 -2.68,3.08 -0.4,1.72 -0.22,4.43 0.06,6.74 0.28,2.31 0.65,4.22 3.05,5.17 2.4,0.95 6.83,0.95 10.52,0.86 3.69,-0.09 6.65,-0.28 9.62,-0.44 2.97,-0.16 5.95,-0.29 9.95,0.05 4,0.34 9.02,1.15 13.83,1.92 4.82,0.78 9.43,1.52 15.16,3.24 5.72,1.72 12.55,4.43 19.41,7.72 6.86,3.29 13.76,7.17 21.51,12.16 7.76,4.98 16.37,11.08 24.43,17.54 8.07,6.46 15.57,13.29 22.62,20.46 7.05,7.17 13.63,14.68 20.03,21.85 6.4,7.17 12.62,14 19.05,21.2 6.43,7.2 13.08,14.77 19.54,21.78 6.46,7.02 12.74,13.48 19.01,19.85 6.28,6.37 12.56,12.65 18.83,18.92"/>
       <path class="fil4 str1" d="M204.69 502.07c1.52,5.88 2.58,11.72 3.2,17.39 -3.52,-0.25 -6.26,-0.12 -8.98,0.02 -2.97,0.16 -5.93,0.35 -9.62,0.44 -3.69,0.09 -8.12,0.09 -10.52,-0.86 -2.4,-0.95 -2.77,-2.86 -3.05,-5.17 -0.28,-2.31 -0.46,-5.02 -0.06,-6.74 0.4,-1.72 1.38,-2.46 2.68,-3.08 1.29,-0.61 2.89,-1.1 5.23,-1.38 2.34,-0.28 5.41,-0.34 9.32,-0.43 3.39,-0.08 7.4,-0.19 11.8,-0.19z"/>
       <path class="fil4 str1" d="M140.64 442.23c18.6,-11.29 45.14,8.89 59.28,45.09 1.91,4.9 3.5,9.84 4.77,14.75 -4.4,0 -8.41,0.11 -11.8,0.19 -3.91,0.09 -6.98,0.15 -9.32,0.43 -2.34,0.28 -3.94,0.77 -5.23,1.38 -1.3,0.62 -2.28,1.36 -2.68,3.08 -0.4,1.72 -0.22,4.43 0.06,6.74 0.28,2.31 0.65,4.22 3.05,5.17 2.4,0.95 6.83,0.95 10.52,0.86 3.69,-0.09 6.65,-0.28 9.62,-0.44 2.72,-0.14 5.46,-0.27 8.98,-0.02 2.68,24.55 -2.99,45.9 -16.06,53.83 -18.6,11.3 -45.15,-8.89 -59.28,-45.08 -14.14,-36.19 -10.52,-74.69 8.09,-85.98z"/>
       <path class="fil4 str1" d="M580.03 532.91c-0.69,-2.37 -1.39,-4.74 -2.08,-7.11"/>
       <path class="fil4 str1" d="M196.17 502.18c0.92,5.77 1.83,11.54 2.74,17.3"/>
       <path class="fil4 str1" d="M340.98 392.52c5.31,-5.59 10.63,-11.18 13.29,-13.98 2.66,-2.79 2.66,-2.79 2.66,-2.79"/>
       <path class="fil4 str1" d="M341.52 394.17c5.32,-5.59 10.64,-11.18 13.29,-13.97 2.66,-2.8 2.66,-2.8 2.66,-2.8"/>
       <path class="fil4 str1" d="M563.62 536.66c-1.05,0.17 -2.11,0.35 -2,0.92 0.11,0.56 1.38,1.52 2.13,2.84 0.74,1.32 0.96,3.01 1.07,3.86 0.1,0.84 0.1,0.84 0.1,0.84"/>
       <path class="fil4 str1" d="M565.93 452.81c-3.16,5.85 -6.31,11.69 -7.89,14.61 -1.58,2.92 -1.58,2.92 -1.58,2.92"/>
       <path class="fil4 str1" d="M569.25 450.58c-3.16,5.84 -6.31,11.69 -7.89,14.61 -1.58,2.92 -1.58,2.92 -1.58,2.92"/>
       <polygon class="fil6" points="202.83,504.32 210.51,504.32 210.51,511.28 202.83,511.28 "/>
       <polygon class="fil6" points="204.54,510.16 212.2,510.67 211.74,517.62 204.08,517.11 "/>
      </g>
      <path class="fil4 str0" d="M564.07 451.93c3.86,-1.85 7.72,-3.7 9.51,-4.52 1.8,-0.81 1.53,-0.59 1.27,-0.36"/>
     </g>
     <path class="fil4 str1" d="M347.85 393.73c3.13,2.43 6.25,4.86 7.81,6.08 1.57,1.21 1.57,1.21 1.57,1.21"/>
    </g>
   </g>
  </g>
 </g>
</svg>
